<?xml version="1.0" standalone="no"?>
<!DOCTYPE svg PUBLIC "-//W3C//DTD SVG 1.1//EN" "http://www.w3.org/Graphics/SVG/1.1/DTD/svg11.dtd" >
<svg xmlns="http://www.w3.org/2000/svg" xmlns:xlink="http://www.w3.org/1999/xlink" version="1.1">
<metadata>
Created by FontForge 20170731 at Wed Jul 27 10:15:55 2016
 By Aleksey,,,
FREE FOR PERSONAL USE
</metadata>
<defs>
<font id="AtlantideStarlight" horiz-adv-x="155" >
  <font-face 
    font-family="Atlantide Starlight"
    font-weight="400"
    font-style="italic"
    font-stretch="normal"
    units-per-em="1000"
    panose-1="2 0 5 6 0 0 0 9 0 2"
    ascent="750"
    descent="-250"
    x-height="197"
    cap-height="450"
    bbox="-715 -284 927 529"
    underline-thickness="50"
    underline-position="-150"
    slope="-12"
    unicode-range="U+0020-FB02"
  />
<missing-glyph horiz-adv-x="150" 
 />
    <glyph glyph-name=".notdef" horiz-adv-x="150" 
 />
    <glyph glyph-name=".null" horiz-adv-x="0" 
 />
    <glyph glyph-name="nonmarkingreturn" horiz-adv-x="333" 
 />
    <glyph glyph-name="space" unicode=" " horiz-adv-x="150" 
 />
    <glyph glyph-name="exclam" unicode="!" horiz-adv-x="351" 
d="M34 12q-8 -10 -16 -15.5t-13 -5.5t-5 5.5t9 18.5q4 6 7 11q8 11 16 5q5 -2 4.5 -9t-2.5 -10zM327 470q11 0 13 -7t2 -12q-23 -20 -51 -52.5t-57.5 -72t-59 -82t-54.5 -81.5t-44.5 -71t-28.5 -51q-2 -2 -5.5 1.5t-1.5 7.5q4 8 22 42t44 80.5t57.5 99t62 96.5t57.5 73
t44 29z" />
    <glyph glyph-name="quotedbl" unicode="&#x22;" horiz-adv-x="142" 
d="M52 392q3 3 8.5 5t11.5 2t9.5 -1t1.5 -4l-73 -82q0 7 5.5 19.5t12.5 25t14 22.5t10 13zM98 392q3 3 8.5 5t11.5 2t9.5 -1t1.5 -4l-73 -82q0 7 5.5 19.5t12.5 25t14 22.5t10 13z" />
    <glyph glyph-name="numbersign" unicode="#" horiz-adv-x="469" 
d="M30 151q-3 5 -0.5 9t5.5 6q14 -5 39 -7t56 -4l46 95q-38 0 -64.5 4t-31.5 13q-3 5 -1 8.5t6 5.5q15 -5 42 -7.5t60 -4.5q12 23 24 44t23 36.5t20 24.5t15 9q7 0 9.5 -3.5t2.5 -7.5q-14 -13 -33.5 -40.5t-40.5 -62.5q55 -2 112 0q12 23 24 44t23 36.5t20 24.5t16 9t9 -3.5
t2 -7.5q-14 -13 -33 -40.5t-40 -62.5q39 1 70 3t45 4q2 1 1 -3t-4 -4q-6 -1 -39.5 -4.5t-79.5 -7.5q-16 -26 -30.5 -52t-28.5 -52q45 1 81 3.5t51 4.5q1 1 0 -2.5t-4 -3.5q-6 -2 -44.5 -6t-89.5 -8q-17 -30 -28 -53.5t-16 -34.5q0 -2 -3 0.5t-1 5.5q2 5 11.5 27.5t24.5 54.5
q-31 -2 -63 -4t-61 -2q-14 -28 -24.5 -49.5t-15.5 -32.5q0 -2 -3 0.5t-1 5.5q2 4 10.5 25t22.5 51q-36 1 -61 4.5t-30 11.5zM312 256q-29 -2 -58.5 -4t-57.5 -2q-14 -24 -27.5 -48.5t-26.5 -47.5q29 -2 59.5 -2t59.5 1q11 24 24 50.5t27 52.5z" />
    <glyph glyph-name="dollar" unicode="$" horiz-adv-x="272" 
d="M189 468q10 2 16 -2t8 -6q-8 -6 -11 -9q6 0 16 -0.5t19 -3t16 -7t7 -12.5q0 -13 -11.5 -23t-25.5 -16.5t-26.5 -10t-14.5 -3.5q-3 0 -3.5 5.5t-0.5 8.5q0 4 2 5t7 3l2 1q35 15 47 21t12 11q0 8 -15 10t-26 2q-10 0 -14 -1q-19 -20 -37.5 -50.5t-35.5 -64.5q16 -8 24 -15
t11 -12.5t2.5 -9.5t-0.5 -6q0 -7 -2 -11.5t-5 -10.5q0 1 -4.5 -7.5t-14 -18.5t-24.5 -18.5t-36 -8.5h-3l-6 -20q0 -1 -5.5 0.5t-5.5 3.5q0 4 5 17q-14 4 -23 12t-9 21q-2 16 17 25t38 11q5 10 8.5 20t8.5 20q-8 5 -17.5 10t-20.5 12q-3 2 -8 5t-10 7.5t-8.5 11t-3.5 15.5
q0 16 14 28t34.5 20.5t44 13.5t43.5 7q14 17 25 20zM42 377q4 -14 23.5 -24.5t36.5 -17.5q13 29 26 56t27 46q-21 -4 -41.5 -9.5t-37 -13t-26.5 -17t-8 -20.5zM140 283q0 11 -6.5 16t-20.5 12l-15 -32q6 0 9 -3q5 -7 3 -10.5t-9 -3.5h-9h-2l-18 -45q18 1 31 10.5t21.5 21
t12 21.5t3.5 13zM35 237q0 -5 8 -10.5t16 -7.5l14 41q-13 -2 -25.5 -7t-12.5 -16z" />
    <glyph glyph-name="percent" unicode="%" horiz-adv-x="198" 
d="M126 405q-7 -10 -15 -15.5t-13 -5.5t-5.5 5.5t8.5 18.5q2 3 3 5.5t3 5.5q6 11 15 5q5 -2 5.5 -9t-1.5 -10zM156 -25q-7 -10 -15 -15.5t-13 -5.5t-5.5 5.5t8.5 18.5q2 3 3 5.5t3 5.5q6 11 15 5q5 -2 5.5 -9t-1.5 -10zM284 470q11 0 13.5 -7t3.5 -12q-21 -20 -50 -61
t-61 -93t-64 -108.5t-59.5 -108t-47.5 -92t-28 -59.5q-1 -2 -5 1.5t-2 7.5q2 6 13.5 32t29 64.5t39.5 85.5t46.5 95.5t49.5 94.5t48 81.5t42 57t32 21.5z" />
    <glyph glyph-name="quotesingle" unicode="'" horiz-adv-x="104" 
d="M123 392q3 3 8.5 5t11.5 2t9.5 -1t1.5 -4l-73 -82q0 7 5.5 19.5t12.5 25t14 22.5t10 13z" />
    <glyph glyph-name="parenleft" unicode="(" horiz-adv-x="275" 
d="M107 -43q-31 0 -55.5 15.5t-29.5 53.5q-6 43 9.5 93t43.5 99t63 94.5t70 79.5q18 18 39.5 36t44.5 33t48.5 24.5t52.5 9.5q23 0 38 -13.5t18 -32.5q0 -8 -6 -9.5t-13 0.5t-12 6t-3 7q-3 7 -8.5 8t-11.5 1q-37 0 -77.5 -22.5t-79.5 -58t-74 -79.5t-61 -87
q-12 -21 -24.5 -44t-22 -47t-15 -49t-3.5 -49q5 -31 21.5 -41t39.5 -13q11 -2 15 -8t-7 -7z" />
    <glyph glyph-name="parenright" unicode=")" horiz-adv-x="363" 
d="M-82 -12q-4 8 3 8t15 -6q13 -12 30 -17t46 9q48 26 85 67.5t65 80.5q28 40 53.5 86.5t41.5 90t19 81t-13 61.5q-2 4 -6 7.5t-12 1.5q-2 -4 -8 -2t-10.5 6.5t-6 10t6.5 9.5q18 8 37.5 6t31.5 -17q12 -17 14.5 -38.5t-1.5 -45t-12 -47t-17 -45.5q-16 -41 -42.5 -89
t-60.5 -93t-74 -83t-83 -59q-36 -17 -62 -10t-40 27z" />
    <glyph glyph-name="asterisk" unicode="*" horiz-adv-x="293" 
d="M254 316q7 -7 -3 -17q-4 -5 -7.5 -6.5t-9.5 4.5q-2 1 -5 5.5t-10 12.5q-3 -27 -3 -31t-6 -4q-5 0 -12 2t-9 8q0 1 0.5 9t1.5 15q-17 -14 -20.5 -16.5t-7.5 1.5t-5.5 12.5t1.5 13.5q1 1 3 2t3 2l3 3h-9q-11 0 -11 14q0 6 1.5 10t9.5 4h17l-11 11q-7 8 2 18q5 4 8.5 5.5
t9.5 -3.5q1 -2 4.5 -5t9.5 -10q2 24 3.5 27.5t6.5 3.5q4 0 11 -1t9 -7v-8.5t-1 -14.5q16 14 19 15t7 -2q2 -3 5 -10.5t0 -12.5q-1 -2 -9 -10h11q10 0 10 -14q0 -6 -1.5 -10t-9.5 -4h-18q5 -5 7.5 -8t4.5 -4z" />
    <glyph glyph-name="plus" unicode="+" horiz-adv-x="157" 
d="M132 201q10 0 10 -14q0 -6 -1.5 -10t-9.5 -4q-2 0 -13 0.5t-28 2.5l-3 -30l-1.5 -15t-2 -5.5t-4.5 -0.5q-5 0 -12 4.5t-9 10.5q0 2 2 15.5t4 20.5q-14 1 -23 1h-11q-11 0 -11 14q0 6 1.5 10t9.5 4h11.5t27.5 -2q1 19 2 29t2 14.5t2.5 5t4.5 0.5q4 0 11 -3t9 -9
q2 -5 -4 -38q14 0 24 -0.5t12 -0.5z" />
    <glyph glyph-name="comma" unicode="," horiz-adv-x="67" 
d="M57 12q-5 -8 -16.5 -16.5t-23.5 -16.5q-2 -1 -5.5 0t-1.5 3q10 11 13.5 17.5t8.5 15.5q2 3 3 5.5t3 5.5q6 11 15 5q5 -2 5.5 -9t-1.5 -10z" />
    <glyph glyph-name="hyphen" unicode="-" horiz-adv-x="163" 
d="M27 137q-6 0 -8.5 1t-2.5 9q0 6 1.5 9.5t9.5 3.5h109q6 0 8.5 -0.5t2.5 -8.5q0 -6 -1.5 -10t-9.5 -4h-109v0z" />
    <glyph glyph-name="period" unicode="." horiz-adv-x="65" 
d="M55 12q-7 -10 -15 -15.5t-13 -5.5t-5.5 5.5t8.5 18.5q2 3 3 5.5t3 5.5q6 11 15 5q5 -2 5.5 -9t-1.5 -10z" />
    <glyph glyph-name="slash" unicode="/" horiz-adv-x="310" 
d="M284 470q11 0 13.5 -7t3.5 -12q-21 -20 -50 -61t-61 -93t-64 -108.5t-59.5 -108t-47.5 -92t-28 -59.5q-1 -2 -5 1.5t-2 7.5q2 6 13.5 32t29 64.5t39.5 85.5t46.5 95.5t49.5 94.5t48 81.5t42 57t32 21.5z" />
    <glyph glyph-name="zero" unicode="0" horiz-adv-x="379" 
d="M286 446q26 -1 40 -16.5t20.5 -37.5t7 -46t-0.5 -42q-2 -19 -11 -47t-24 -59t-36 -62.5t-45.5 -57t-52 -41t-57.5 -15.5q-14 0 -24 4t-16 9q-17 14 -20 22t-3 9q-2 5 1 5q1 0 6 -6l3.5 -5t9.5 -11.5t14.5 -11.5t19.5 -5q26 0 51.5 15.5t48.5 38.5q31 31 53.5 67.5
t36 73.5t18 73t-0.5 68q-1 6 -3.5 14t-6.5 15t-10.5 11.5t-15.5 4.5q-16 0 -38.5 -11.5t-50.5 -31.5q-23 -17 -51 -49.5t-51 -74t-36.5 -88t-6.5 -90.5q5 -29 21 -45t48 -16q30 0 57.5 14t50 32.5t37.5 36t20 23.5q2 2 2 -2q2 -10 -14.5 -30t-42 -39.5t-55 -34.5t-54.5 -15
q-22 0 -37.5 7.5t-25.5 19t-15.5 25.5t-7.5 27q-6 38 2 80.5t25.5 84t43 80t54.5 67.5t60.5 46t61.5 17z" />
    <glyph glyph-name="one" unicode="1" horiz-adv-x="299" 
d="M300 452q11 0 14 -7t4 -12q1 -9 -4 -16.5t-15 -18.5t-23 -26t-29 -39q-26 -33 -55 -78t-53 -89t-39.5 -82t-13.5 -59q1 -9 5 -13t9 -5.5t9.5 -2t4.5 -1.5q0 -2 -2 -4t-7 -2q-17 0 -22.5 10.5t-6.5 23.5v14t2.5 17.5t8.5 27t17 42.5q0 1 11.5 28.5t48.5 90.5
q-19 -17 -42.5 -29t-46.5 -12q-16 0 -28 6.5t-20.5 16.5t-13 21.5t-5.5 21.5q-1 19 8 19q6 0 15 -4.5t9 -8.5q-1 -3 -2 -7q-1 -3 -1.5 -7.5t0.5 -9.5q2 -17 13 -26.5t24 -9.5q19 0 40 13t40.5 32.5t37.5 42t32 41.5q22 36 34 56.5t19.5 30t12 12t10.5 2.5z" />
    <glyph glyph-name="two" unicode="2" horiz-adv-x="379" 
d="M365 86q4 -5 4.5 -9.5t0.5 -9.5q-4 -20 -19.5 -34.5t-35.5 -23.5t-42.5 -13t-40.5 -4q-27 0 -53.5 5t-50.5 12t-44 14t-33 11q-22 -15 -40 -16h-5.5t-7 2t-6 7t-1.5 14q0 9 7.5 19t24.5 10q16 0 38 -7q48 53 92.5 104t79.5 95t56 78.5t23 53.5q1 16 -15 24t-35 10
q4 -2 8 -5t4 -8q0 -1 -1 -2t-2 -3q0 -2 -5 -6.5t-14 -9.5t-21 -9t-26 -4q-4 0 -10 1t-12 4t-11 9t-7 17q2 15 28.5 26t65.5 11q46 0 66 -16t22 -38q-7 -35 -32 -73.5t-61.5 -80t-83 -87.5t-95.5 -96q16 -7 37 -15t44 -15t47.5 -12t47.5 -5q18 0 37.5 5.5t35 14t26 19
t11.5 20.5t-2.5 13t-7.5 3q-3 0 -6 -1t-5 -1q-4 0 -4 4q0 1 2 3t9 2q2 0 7.5 -1t10.5 -6zM247 429q-20 0 -39 -2.5t-29 -11.5q-1 -10 7 -13t16 -3q10 0 18 4.5t13.5 10t8.5 10t5 4.5v1zM11 26q6 0 13.5 3t12.5 8q-10 2 -13 2q-6 0 -10.5 -5.5t-2.5 -7.5z" />
    <glyph glyph-name="three" unicode="3" horiz-adv-x="336" 
d="M325 450q10 -13 2 -41t-25 -57t-37.5 -53t-34.5 -28q3 -1 12.5 -5t20 -12t18.5 -21t8 -32v-4v-3v-2q0 -35 -12 -70.5t-34.5 -63.5t-54.5 -45.5t-72 -17.5q-29 0 -49.5 9t-33.5 24t-19 33.5t-6 37.5q0 26 4.5 43t6.5 17q4 0 4 -5q0 -3 -1.5 -13.5t-1.5 -27.5
q4 -49 26.5 -70.5t64.5 -21.5q30 0 59.5 15t52 39.5t36.5 56.5t14 66q0 19 -15 30.5t-31.5 19t-27 13t-2.5 11.5q2 1 2.5 1.5t2.5 2t7.5 5.5t18.5 12q18 12 33.5 35t26.5 46.5t16 41t1 17.5h-8q-34 0 -67 -9t-65 -9q-6 0 -9.5 6.5t-3.5 14.5t24 14t55 8.5t58.5 1t35.5 -9.5z
" />
    <glyph glyph-name="four" unicode="4" horiz-adv-x="258" 
d="M207 76q1 -3 0 -9.5t-2 -8.5q-1 -3 -2.5 -5t-7 -2.5t-15.5 -1t-28 -1.5q-7 -9 -15.5 -18.5t-16 -17.5t-12.5 -13.5t-6 -5.5q-4 0 -4 4q-1 1 9 16t22 35q-6 -1 -22.5 -2.5t-34.5 -1.5t-31.5 2.5t-11.5 9.5q2 10 3.5 14.5t10 16t27.5 36t55 75.5q13 18 30.5 42.5t34.5 51.5
t30.5 54.5t18.5 53.5q4 19 -1 29.5t-27 10.5q-14 0 -39 -7t-52 -23.5t-50.5 -44.5t-33.5 -70l-2 -8q-3 -17 0 -32.5t8 -28t9.5 -21t4.5 -10.5q-1 -4 -6.5 -11t-13.5 -7q-3 0 -4.5 1t-3.5 3q-4 5 -9 13t-9 18.5t-5 25t3 33.5q6 31 27 63.5t50.5 59.5t64.5 44t70 17
q16 0 24.5 -6.5t12 -15.5t2.5 -19.5t-2 -18.5q-5 -25 -17 -52.5t-27 -55.5t-32 -53.5t-32 -46.5q-28 -39 -43.5 -60.5t-23.5 -33.5t-13 -18.5t-12 -14.5q17 1 42.5 4.5t46.5 9.5q11 16 17 25.5t9.5 14t5.5 5.5t5 1q7 0 13 -6t4 -13q-1 -2 -4 -4.5t-14 -16.5q8 1 10.5 1.5
t4.5 0.5q8 0 10 -6z" />
    <glyph glyph-name="five" unicode="5" horiz-adv-x="316" 
d="M328 434q16 -2 13 -14q-2 -7 -7 -12.5t-17 -5.5q-4 0 -18.5 2.5t-34.5 6.5t-42.5 8t-42 6.5t-34.5 3t-19 -3.5q-1 -1 -4 -7t-6 -13.5l-6 -15t-5 -11.5q-16 -38 -26.5 -66t-18 -47.5t-13 -31.5t-10.5 -19q17 0 44 2t54 2q28 0 44 -5.5t23.5 -13t8.5 -15t0 -11.5
q-2 -8 -4.5 -12.5t-4.5 -11.5l-13 -23t-34.5 -51t-51.5 -51t-64 -23q-12 0 -23.5 6.5t-19 17t-11 24t-0.5 26.5q3 12 10.5 20.5t16 14t15.5 7.5t9 2q6 0 5 -3l-6 -1.5t-13.5 -5t-14.5 -11t-9 -20.5q-2 -9 1 -19t9.5 -18.5t14.5 -14.5t17 -6q15 0 29.5 8.5t27.5 20.5
t23.5 25.5t18.5 24.5q14 19 21.5 31.5t11 20t4.5 11t2 6.5q3 12 -10.5 17.5t-34 7.5t-45 1.5t-44.5 0t-31.5 4t-5.5 12.5q0 1 4.5 13t15.5 38t29.5 68t48.5 102q5 7 9 9t10 4q52 2 102.5 -2t101.5 -9z" />
    <glyph glyph-name="six" unicode="6" horiz-adv-x="321" 
d="M315 460q10 -1 8 -6q0 -2 -6 -2h-6q-20 0 -47.5 -17t-57 -45.5t-58.5 -64.5t-52.5 -73.5t-39.5 -73.5t-18 -64q-5 -43 20 -68.5t70 -25.5q13 0 32.5 4t38.5 14t35 27.5t22 44.5q2 19 -5 35t-18.5 27t-25.5 17.5t-25 6.5q-8 0 -15.5 -2t-13.5 -4q-19 -7 -28 -12.5t-14 -10
t-8 -7t-9 -2.5q-5 0 -9.5 5t-4.5 10q1 3 4 8t11 11l6.5 5t18 10t26 9.5t31.5 4.5q27 0 45 -11.5t29 -28t15 -34.5t3 -32q-3 -26 -18 -48t-37.5 -38t-49.5 -25t-54 -9q-48 0 -78 29t-25 83q3 34 21 74t44.5 79.5t59.5 76t66 64.5t63.5 44t53.5 15z" />
    <glyph glyph-name="seven" unicode="7" horiz-adv-x="277" 
d="M279 453q11 0 21.5 -10.5t8.5 -22.5q-1 -4 -5 -8.5t-9 -4.5q-8 0 -21.5 2.5t-19.5 2.5q-2 0 -14.5 -23.5t-30 -56.5t-36 -69t-31.5 -61l32.5 -2.5t5.5 -2.5q-1 -5 -8.5 -6.5t-38.5 -5.5q-36 -69 -56 -106.5t-30 -55.5t-14.5 -21.5t-9.5 -3.5t-9.5 2.5t-2.5 12.5
q1 6 3 11.5t11 21.5t27.5 47t53.5 88q-17 -2 -29 -3.5t-14 -1.5q-6 0 -8 2.5t-1 10.5q2 7 3.5 12.5t9.5 6.5q2 0 17.5 -1t34.5 -3q17 29 35 59t34 57.5t30 51t24 40.5q-18 1 -39 3t-42 3.5t-41 2.5t-35 1q-17 0 -20 -0.5t-7 -0.5t-10.5 4.5t-4.5 14.5q1 5 8 9.5t17 4.5
q7 0 28 -3t47 -7.5t55 -9.5t53 -9q4 8 6.5 13.5t5 8.5t6 4.5t10.5 1.5zM270 423q3 0 -0.5 4t-5.5 6l-2 -4t-2 -5q2 0 5 -0.5t5 -0.5z" />
    <glyph glyph-name="eight" unicode="8" horiz-adv-x="300" 
d="M236 292q18 -1 29.5 -11.5t18.5 -27t9 -37t0 -39.5q-3 -33 -17.5 -65t-37.5 -57.5t-54 -41t-67 -15.5q-56 0 -81.5 25t-27.5 62.5t14.5 80.5t44.5 79q5 6 15 16t22.5 19t26 15.5t25.5 6.5q-11 11 -13 25t-1 24q1 8 2.5 18.5t7.5 21.5q2 5 8.5 16t16.5 21.5t24.5 18.5
t33.5 8h-1h2q5 0 16 -2t21.5 -9.5t17.5 -23t3 -41.5q-5 -34 -18 -52t-24.5 -25.5t-18 -8.5t2.5 -1zM158 334q5 -16 19 -19.5t22 -3.5q1 0 11.5 2t22.5 10.5t23 24.5t14 44q2 23 -11 34t-30 11q-20 0 -35.5 -10t-25.5 -25t-13 -33t3 -35zM120 23q31 1 57 17.5t44.5 41t28 55
t8.5 60.5q-6 36 -17 58.5t-40 30.5q-31 5 -59.5 -2.5t-63.5 -43.5q-28 -29 -42 -66.5t-10 -70.5t26.5 -56t67.5 -24z" />
    <glyph glyph-name="nine" unicode="9" horiz-adv-x="330" 
d="M314 419q2 -4 6.5 -16.5t4.5 -32.5q0 -44 -18.5 -88.5t-48 -85.5t-65 -77.5t-69.5 -63.5t-62.5 -42.5t-42.5 -15.5q-11 0 -11 5q0 3 6 3q18 0 46.5 17.5t59.5 46.5t62.5 66t56.5 77t40.5 79t15.5 72q0 41 -25 61.5t-67 20.5q-27 0 -53.5 -8.5t-47 -25t-33.5 -40.5
t-13 -54q0 -21 7.5 -38.5t19.5 -29.5t28 -18.5t34 -6.5q15 0 28.5 6t25.5 13.5t22 13.5t17 6q6 0 10.5 -5t4.5 -10q-7 -19 -31 -35t-73 -16q-21 0 -40.5 8t-34.5 22.5t-24 34.5t-9 43q0 31 12.5 61t35.5 53.5t56 37.5t74 13q15 0 29.5 -4.5t27.5 -12t23 -16.5t15 -18z" />
    <glyph glyph-name="colon" unicode=":" horiz-adv-x="90" 
d="M55 63q-7 -10 -15 -15.5t-13 -5.5t-5.5 5.5t8.5 18.5q2 3 3 5.5t3 5.5q6 11 15 5q5 -2 5.5 -9t-1.5 -10zM80 166q-7 -10 -15 -15.5t-13 -5.5t-5.5 5.5t8.5 18.5q2 3 3 5.5t3 5.5q6 11 15 5q5 -2 5.5 -9t-1.5 -10z" />
    <glyph glyph-name="semicolon" unicode=";" horiz-adv-x="92" 
d="M82 166q-7 -10 -15 -15.5t-13 -5.5t-5.5 5.5t8.5 18.5q2 3 3 5.5t3 5.5q6 11 15 5q5 -2 5.5 -9t-1.5 -10zM57 62q-5 -8 -16.5 -16.5t-23.5 -16.5q-2 -1 -5.5 0t-1.5 3q10 11 13.5 17.5t8.5 15.5q2 3 3 5.5t3 5.5q6 11 15 5q5 -2 5.5 -9t-1.5 -10z" />
    <glyph glyph-name="less" unicode="&#x3c;" horiz-adv-x="146" 
d="M38 127q-2 8 -0.5 11.5t7.5 9.5q16 11 38.5 16.5t46.5 20.5h1q5 0 5 -6t-10.5 -15t-24 -18t-26.5 -16.5t-18 -10.5q-1 -6 -0.5 -18.5t-0.5 -26t-3.5 -23.5t-8.5 -10q-2 0 -2 2q1 8 1 15v13q0 14 -1.5 26t-3.5 30z" />
    <glyph glyph-name="equal" unicode="=" horiz-adv-x="151" 
d="M21 103q-6 0 -8.5 1t-2.5 9q0 6 1.5 9.5t9.5 3.5h109q6 0 8.5 -0.5t2.5 -8.5q0 -6 -1.5 -10t-9.5 -4h-109zM21 152q-6 0 -8.5 1t-2.5 9q0 6 1.5 9.5t9.5 3.5h109q6 0 8.5 -0.5t2.5 -8.5q0 -6 -1.5 -10t-9.5 -4h-109z" />
    <glyph glyph-name="greater" unicode="&#x3e;" horiz-adv-x="99" 
d="M87 112q3 -7 3 -11t-4 -11q-13 -14 -33 -25.5t-40 -32.5h-1q-6 -2 -6 4q-2 6 6 16.5t19 22t21.5 21t14.5 14.5q-1 6 -4.5 19t-6.5 26.5t-3 24.5t6 13q1 1 3 -1q1 -8 2.5 -15t3.5 -12q3 -14 7.5 -25t11.5 -28z" />
    <glyph glyph-name="question" unicode="?" horiz-adv-x="316" 
d="M24 179q-2 3 -5.5 13.5t-3.5 26.5q0 30 21 64.5t52.5 65.5t69 55.5t69.5 35.5t53.5 4.5t22.5 -36.5q-3 -27 -14.5 -57t-28 -59.5t-35 -56t-34.5 -46.5q-42 -51 -65 -80t-39 -39q14 -2 20.5 -2.5t6.5 -5.5t-3.5 -16t-7.5 -11l-6 3.5t-14 8.5t-14.5 11t-6.5 12q0 3 0.5 6
t3 8t9 13t19.5 22q3 4 16 18t31.5 36.5t40.5 51t43 61.5q8 13 18 28.5t18.5 31.5t14 32.5t5.5 32.5q0 17 -17.5 17.5t-44 -10.5t-57.5 -31.5t-57.5 -46t-44 -53.5t-17.5 -53q0 -26 6.5 -36t6.5 -15t-5 -11.5t-12 -6.5q-8 0 -15 14zM69 39q11 -8 11 -22q0 -11 -7.5 -18
t-17.5 -7q-11 0 -19 8t-8 18q0 11 7.5 18t18.5 7q8 0 15 -4z" />
    <glyph glyph-name="at" unicode="@" horiz-adv-x="368" 
d="M287 351q43 -4 58.5 -30.5t11 -64.5t-25 -81t-48.5 -79.5t-60.5 -60.5t-60.5 -24q-29 0 -26 23q2 5 7 14t7 11q-11 -11 -17 -16.5t-9.5 -8.5t-6 -4.5t-5.5 -4.5q-15 -13 -30 -14t-24 12q-7 13 5.5 38t33 51.5t44 50t38.5 32.5q12 8 24.5 11.5t26.5 -3.5q5 -2 8.5 -4
t5.5 -1l8 8q3 4 10 6t14 2.5t11.5 -1t2.5 -5.5q-32 -34 -64.5 -74t-57.5 -83q-2 -3 -5.5 -11.5t-0.5 -11.5q3 -5 9 -1q19 0 42.5 21.5t45 53.5t38.5 69.5t23 69.5t-1 53.5t-34 21.5q-44 0 -90 -28.5t-83.5 -73.5t-61.5 -100t-24 -107q0 -31 15 -47.5t48 -16.5q31 0 62.5 15
t57.5 34t44.5 37.5l24.5 24.5q1 1 1 -2q1 -11 -19.5 -31.5t-50 -41t-63 -36t-59.5 -15.5q-23 0 -38 7.5t-24 19.5t-12.5 26.5t-3.5 28.5q0 40 12 81t32.5 78.5t47.5 71t58 58t64 38.5t64 14zM100 32q8 5 19.5 16t23 23t21.5 23.5t14 17.5q6 7 14 19t15 23.5t10.5 21
t-0.5 11.5q-5 4 -8.5 3t-6.5 -3q-1 0 -7.5 -6t-15.5 -15t-18.5 -19t-15.5 -19q-17 -23 -34 -45.5t-24 -42.5q-2 -7 2 -9q1 -1 4.5 -1t6.5 2z" />
    <glyph glyph-name="A" unicode="A" horiz-adv-x="500" 
d="M200 191q0 23 -25 23q-27 0 -54.5 -13t-50.5 -34.5t-37.5 -49t-14.5 -56.5q0 -24 15 -47t42 -23q29 0 64.5 21.5t70.5 51t67 60.5t55 51l-29 -2q-19 0 -30 3t-17 8t-8 11.5t-2 14.5q0 4 2 10.5t5 12.5t7.5 10.5t10.5 4.5q2 0 3.5 -2.5t1.5 -4.5q0 -6 -7.5 -15t-12 -18
t0 -15.5t28.5 -6.5q17 0 36 4.5t35 7.5q78 69 146.5 131t138.5 113q12 7 23 6t13 -4t4 -7t3.5 -9t1.5 -12q0 -2 -13 -16t-34.5 -37.5t-48.5 -53.5t-55.5 -63t-56 -67t-49 -64.5t-35 -56t-13.5 -41.5q0 -7 4.5 -8t10.5 -1q4 0 11 3t13 8t10.5 10.5t4.5 11.5t-4.5 9.5
t-10.5 6.5t-10.5 5t-4.5 4t3 6t8 4q13 0 24 -12.5t7 -25.5q-5 -17 -21 -32t-36 -15q-11 0 -16.5 3t-8 7.5t-2.5 9t-1 8.5q0 23 13.5 49t36.5 62q56 83 119 160.5t137 147.5q-11 4 -25 -5q-2 0 -21.5 -16.5t-52.5 -47t-78 -72.5t-97 -93q1 1 4.5 1h5.5t9 -2t14 -5t12.5 -7
t5.5 -8q0 -1 -9.5 -1.5t-22 -1t-26 -1t-20.5 -0.5q-23 -24 -56 -58t-70.5 -65.5t-77.5 -55t-77 -25.5q-20 -1 -35.5 6t-26.5 19.5t-17 29t-6 34.5q0 31 13.5 62.5t36.5 56.5t53.5 41t65.5 16q28 0 43.5 -16.5t15.5 -42.5v-7t-2 -11q-3 -12 -10 -24.5t-14.5 -23t-14 -17
l-7.5 -7.5q-5 -2 -11.5 2t-9.5 7q-5 3 -4 5.5t6 7.5l2 2q26 43 31 58.5t5 17.5z" />
    <glyph glyph-name="B" unicode="B" horiz-adv-x="470" 
d="M47 26q0 35 18 77.5t51 88t79.5 92t103.5 89.5q14 11 33 24t41.5 24t47 18.5t49.5 7.5q30 0 53 -10.5t38 -25.5t23 -33t9 -33q1 -35 -11 -65.5t-35 -57t-54.5 -48.5t-68.5 -40q8 -20 3 -39.5t-16 -38.5q7 -2 17.5 -13t10.5 -19q0 -5 -7 -5q-2 0 -4 3.5t-4.5 8t-7 9.5
t-11.5 9q-21 -29 -52.5 -50.5t-66.5 -21.5q-14 0 -23 4t-14 9.5t-7 11.5t-2 11q0 12 7.5 23.5t20 20t28.5 13.5t33 5q18 0 34 -2.5t29 -7.5q6 15 8 31.5t-7 28.5q-14 -4 -21.5 -4.5t-22.5 -0.5h-5t-8 1q-6 0 -17 5.5t-11 14.5q0 16 16 28.5t33 12.5q12 0 27.5 -5t21.5 -15
q20 6 38.5 17.5t35.5 25.5q10 8 24 21.5t26.5 31t21 38.5t8.5 45q0 13 -6.5 27.5t-18.5 26.5t-29 20t-38 8q-39 0 -84.5 -20t-91 -52.5t-87.5 -74t-74.5 -85t-52 -84.5t-19.5 -73q0 -17 5.5 -21t13.5 -7q25 0 48.5 14t45 35t39 45t30.5 43q17 25 26 42t17 27t17.5 14.5
t27.5 4.5q8 0 8 -4q0 -2 -4 -7.5t-9 -12t-10.5 -14t-9.5 -12.5q-31 -50 -65 -90q-30 -35 -68.5 -64.5t-80.5 -33.5q-14 0 -22.5 3t-13 8t-6 11t-1.5 11zM337 145q12 0 21.5 1t20.5 6q-7 12 -20 12q-7 0 -16.5 -7.5t-9.5 -9.5q0 -1 1 -1zM294 -3q30 0 54.5 16t38.5 42
q-8 2 -18.5 3.5t-21.5 1.5q-12 0 -26 -2.5t-25.5 -8.5t-20 -15.5t-10.5 -24.5q0 -1 3.5 -6.5t25.5 -5.5z" />
    <glyph glyph-name="C" unicode="C" horiz-adv-x="311" 
d="M89 -28q-29 0 -50 14t-21 47q0 38 20 82.5t51.5 88t69 83.5t73.5 70q19 16 40.5 32.5t45 29.5t47.5 21.5t49 8.5q22 0 34 -12t12 -29q0 -23 -15 -53.5t-34.5 -59.5t-40 -51.5t-30.5 -29.5q-8 -5 -15 -6t-17 -1q-6 0 -10.5 1t-4.5 3q0 1 1 2q15 15 37 39.5t43.5 52.5
t37.5 56.5t18 50.5q-2 6 -7 7t-11 1q-34 0 -73.5 -20t-79.5 -51.5t-77.5 -70.5t-66.5 -77q-28 -37 -53.5 -80.5t-28.5 -87.5q0 -27 14.5 -36.5t35.5 -11.5q15 -2 36.5 1.5t47.5 14.5t57 30.5t64 50.5q11 10 14 17.5t5 7.5t4 -1.5t2 -4.5q0 -5 -6.5 -11t-10.5 -11
q-3 -3 -19.5 -19t-44 -35t-64.5 -34.5t-79 -18.5z" />
    <glyph glyph-name="D" unicode="D" horiz-adv-x="414" 
d="M137 -20q-51 2 -84.5 28.5t-33.5 73.5q0 30 12 53t30 38.5t38.5 24t37.5 8.5q5 0 5 -5q0 -7 -8 -7q-5 0 -21.5 -4.5t-34.5 -16.5t-32 -33t-14 -54q0 -42 29.5 -67t71.5 -25q59 0 114.5 32.5t99 83t69.5 112t26 120.5q0 15 -2 29t-9 24.5t-19 17t-32 6.5q-7 0 -12 -1
t-16 -1q-36 -7 -73 -20.5t-67.5 -33.5t-49.5 -46.5t-19 -59.5t26 -56q2 3 4.5 6.5t4.5 7.5q41 60 60.5 92t29.5 46.5t16.5 16t20.5 1.5q4 0 4 -2q0 -4 -10 -16t-16 -21q-15 -22 -32 -46q-14 -20 -32.5 -45.5t-37.5 -48.5q1 -1 7 -4t12.5 -6t11 -6t3.5 -4t-10 1.5t-31 9.5
q-29 -34 -44 -52t-21.5 -26.5t-8 -9.5t-2.5 -1q-2 0 -2 2q0 3 20.5 26.5t45.5 68.5q-16 11 -24.5 29.5t-8.5 38.5q0 40 25.5 74t63.5 59t83 39t84 14q36 0 55.5 -14.5t28 -33.5t10 -38t1.5 -29q0 -61 -29.5 -122t-78 -110t-110 -81.5t-125.5 -36.5zM176 181v7.5t7 2.5
q23 -8 46.5 0t53.5 32q8 7 12.5 7.5t9.5 -4.5q3 -3 8 -9.5t2 -9.5q-24 -23 -48.5 -30t-44.5 -6.5t-33 5.5z" />
    <glyph glyph-name="E" unicode="E" horiz-adv-x="496" 
d="M157 102q-24 -3 -48.5 2t-45 17.5t-33.5 32.5t-13 47q0 52 31 82t79 45.5t106 20t112 4.5q29 0 55 -0.5t48 -0.5q20 0 34.5 1t22.5 4q7 11 16.5 25.5t21 28t25.5 23t31 10.5q2 0 7 -0.5t10.5 -4t9.5 -10.5t4 -20q0 -21 -11 -35.5t-28 -23.5t-37 -14t-38 -8q-1 0 -6 -7.5
t-10 -18.5l6 -0.5t12.5 -3t12 -6t5.5 -9.5q0 -10 -11.5 -18t-27.5 -8q-11 0 -17 6.5t-6 17.5q0 3 0.5 6.5t0.5 5.5q-39 0 -80 -12t-79.5 -34t-70.5 -53t-51 -68q23 4 40 19t26 28t14 20t10 10.5t10.5 4t16.5 0.5q13 0 13 -4q0 -1 -3 -5t-7.5 -9.5t-9 -11.5t-7.5 -9
q-23 -27 -43.5 -40t-35.5 -18.5t-23.5 -6t-8.5 -1.5q-2 -28 8 -49t27.5 -35.5t40.5 -22t46 -7.5q12 0 34 3.5t43.5 11.5t37.5 20.5t16 30.5q0 11 -8.5 14t-18.5 3.5t-18.5 2t-8.5 8.5q0 11 9 11q8 0 17 -2t17.5 -6.5t14.5 -11t7 -16.5q0 -23 -16 -39.5t-40 -27.5t-51.5 -16
t-50.5 -5q-27 0 -53.5 9t-46 25.5t-29.5 41t-6 56.5zM560 383q-5 -4 -8.5 -8.5t-8.5 -9.5q59 16 59 44q0 2 -2 2h1q-2 0 -11.5 -4t-29.5 -24zM495 291q-2 -4 -2 -10q0 -2 1.5 -4t8.5 -2q3 0 10 1.5t7 5.5q0 5 -10.5 7.5t-14.5 1.5zM267 322q-37 0 -78 -3t-75.5 -15
t-57.5 -36.5t-23 -68.5q0 -23 14.5 -40t34.5 -27t42.5 -12.5t38.5 4.5q24 56 65.5 91t87.5 55t89.5 27t72.5 7q3 9 8 20q-51 -2 -103.5 -2h-115.5z" />
    <glyph glyph-name="F" unicode="F" horiz-adv-x="293" 
d="M45 -22q-17 0 -31 11t-14 31q0 21 8 39t16 27l4.5 5t12.5 11t17.5 11t20.5 5q3 0 4 -6t1 -11q0 -7 -11.5 -9.5t-25 -8.5t-25 -20t-11.5 -43q3 -14 9.5 -21t23.5 -7q35 0 74 26t76 63t70 77t56 68l-60 1q-12 0 -25.5 -3.5t-21.5 -3.5q-3 0 -7.5 2.5t-4.5 8.5q0 3 4.5 5
t10.5 3t12 1.5t9 0.5h23.5t69.5 -2l18 22t16 20q-16 -2 -41 -3t-54 -2t-59 -2.5t-56.5 -4t-46.5 -6.5t-29 -10q-16 -11 -20.5 -25t-3 -27.5t5.5 -26t4 -19.5q0 -4 -2 -10.5t-5 -12.5t-6.5 -10t-6.5 -4t-8.5 10.5t-10.5 25.5t-8.5 32t-1.5 30q1 5 2.5 14.5t9 19.5t24.5 19
t48 13q60 7 133.5 7.5t143.5 8.5q12 15 29.5 40t38.5 49t43 41.5t42 17.5q16 0 20.5 -11t4.5 -22q0 -57 -39 -87.5t-108 -38.5l-18 -22.5t-23 -27.5q6 -2 6 -5q0 -7 -4.5 -8t-13.5 -1q-2 -3 -8 -9q-32 -38 -67 -75t-82 -78q-15 -13 -33 -27.5t-37.5 -27t-40.5 -20.5t-41 -8z
M426 311q-3 -3 -5 -6q15 0 33.5 5t36 16.5t31 30t16.5 46.5q0 6 -1 15t-7 9q-9 0 -24 -15t-31 -34.5t-29.5 -38.5t-19.5 -28z" />
    <glyph glyph-name="G" unicode="G" horiz-adv-x="325" 
d="M-231 -139q2 35 27.5 59t61.5 38.5t75.5 21t69.5 6.5q43 0 81.5 -7t63.5 -12q17 19 31.5 39t28.5 34q-21 -13 -49 -26t-63 -13q-28 0 -45.5 8t-27.5 20.5t-14 27t-4 27.5q0 39 15.5 80.5t40.5 80t56.5 72.5t62.5 59q13 10 30.5 22t37 22.5t40 17.5t38.5 7q16 0 25.5 -7
t14 -17t5.5 -20.5t1 -17.5q0 -39 -13 -77t-37.5 -68t-59.5 -49t-78 -19q-5 0 -18.5 0.5t-28.5 1t-26.5 1.5t-11.5 2q0 3 3.5 7t8.5 8.5t10.5 7.5t9.5 3h14.5t13 -0.5t15 -0.5h21.5q49 0 80.5 20t50 47.5t25.5 57t7 47.5q0 27 -9 41t-30 14q-16 0 -32.5 -6.5t-32.5 -15.5
q-32 -18 -71 -51.5t-73 -76.5t-57 -91.5t-23 -97.5q0 -29 13 -42t40 -18q39 0 72.5 16.5t58.5 36.5t40.5 38.5t19.5 22.5q7 8 17 21.5t19 27t16 23.5l7 10q5 0 9 -12t4 -22q0 -7 -8.5 -20.5t-31.5 -46.5q-3 -5 -13.5 -19.5t-27.5 -36.5t-39 -49t-49 -57q19 -6 45 -10.5
t53 -8t52 -5.5t41 -2q31 0 51 1t32 2.5t19 3t12 1.5q2 0 2 -3t-1 -6.5t-2 -6.5t-1 -4q0 -19 -24.5 -22t-87.5 -3q-45 0 -101.5 7.5t-118.5 25.5q-21 -19 -49 -43t-61.5 -45t-72.5 -35t-81 -14q-21 0 -42 5t-37 14t-26 21.5t-10 26.5zM-20 -41q-25 0 -59 -5.5t-65 -17.5
t-52.5 -30.5t-21.5 -43.5q0 -12 8 -22.5t21.5 -17.5t30.5 -11t34 -4q33 0 65.5 11t64 29.5t60.5 42t54 48.5q-28 7 -64.5 14t-75.5 7z" />
    <glyph glyph-name="H" unicode="H" horiz-adv-x="556" 
d="M21 74q-6 24 -4.5 51t10 52.5t22.5 48.5t34 41h1q4 4 12 9.5t17.5 10t19.5 7.5t18 3q2 1 9 0.5t7 -3.5q0 -11 -4.5 -20.5t-10.5 -12.5q-8 -3 -17 -6.5t-20 -11.5q-4 -3 -15.5 -13.5t-24 -28.5t-22 -45t-9.5 -63q0 -16 5 -36t15 -37t25 -29t35 -12q16 0 32 7.5t27 20.5
q65 75 127 161q-7 -1 -13.5 -1.5t-12.5 -0.5q-28 0 -61.5 8t-55.5 31q-3 3 -6.5 7t-4.5 10l-1 -1q1 0 9 5.5t22 5.5q3 0 6.5 -2.5t6.5 -4.5q16 -11 32 -15.5t32.5 -6t35 0t40.5 4.5q34 49 64 93t53.5 76.5t39.5 51.5t22 19q0 -1 4.5 -6t3.5 -27q0 -6 -1 -8
q-49 -69 -74 -103.5t-36.5 -51t-15.5 -22t-11 -15.5q9 2 18 3.5t18 3.5q45 9 71 13.5t41 6t23 1.5t18 1q30 39 58.5 71.5t52 55.5t40.5 36t25 13q2 0 2 -8t0.5 -15.5t-4.5 -15.5q-6 -4 -12.5 -10t-17 -16.5t-25 -26.5t-35.5 -39l-14 -15l-16 -18t-18 -20q4 -2 13.5 -5
t8.5 -8q0 -5 -4.5 -7t-6.5 -2q-5 0 -10.5 3.5t-10.5 6.5q-28 -32 -56 -66.5t-50.5 -64.5t-37 -53t-15.5 -32q-1 -7 2.5 -8t8.5 -1h2q6 0 4 -5q0 -4 -5 -4h-1q-1 -1 -4 -1h-3q-9 0 -12.5 7t-2.5 15q1 10 11 31t26.5 49t39.5 62t50 70q-37 -6 -87.5 -20t-107.5 -26
q-2 -1 -4 -1t-4 -1q-33 -44 -72.5 -90t-81.5 -87q-23 -20 -41 -29.5t-43 -5.5q-21 1 -37.5 11.5t-28 26t-19.5 34.5t-13 39z" />
    <glyph glyph-name="I" unicode="I" horiz-adv-x="117" 
d="M18 32q7 20 24.5 54t41.5 74.5t51.5 82t52.5 75t45 55t30 21.5q5 0 9 -11.5t4 -18.5q0 -4 -6.5 -10.5t-12.5 -14.5q-4 -5 -22.5 -27.5t-44.5 -55t-54.5 -71t-53 -74t-40.5 -64t-16 -41.5q0 -5 3 -6.5t6.5 -1.5t6.5 -0.5t3 -3.5q0 -2 -3 -3.5t-6 -1.5h-3.5t-7.5 1.5
t-7 5.5t-3 13q0 12 3 23zM291 396q-1 0 -1.5 -0.5t-1.5 -0.5q-5 0 -5 3q7 8 12.5 17t9.5 17t7.5 13t8.5 5q10 0 10 -13q0 -11 -12.5 -21t-27.5 -20z" />
    <glyph glyph-name="J" unicode="J" horiz-adv-x="458" 
d="M15 6q0 24 10 46.5t27 41.5t39.5 33t46.5 21q2 0 7 1.5t10 2t9 -0.5t4 -6q0 -13 -1 -18.5t-4 -8.5t-9 -4.5t-16 -5.5q-21 -9 -38.5 -22.5t-30.5 -28.5t-20 -31t-7 -31q0 -20 9 -35.5t23 -26.5t32.5 -17t37.5 -6q101 0 185 105q31 43 65.5 89.5t68.5 92t66.5 88.5t60.5 80
q0 1 0.5 1t0.5 1q-44 -18 -97.5 -40.5t-103 -53.5t-89 -71t-55.5 -92q-6 -15 -13 -29.5t-27 -14.5q-5 0 -5.5 5.5t-0.5 10.5q0 38 21.5 69.5t50.5 61.5q9 10 41.5 33t80 51t107 58t124.5 56q6 11 16 25t23.5 26t29.5 20t34 8q16 0 22.5 -8.5t8.5 -16.5q0 -11 -5.5 -19.5
t-8.5 -10.5q-23 -20 -49 -28.5t-52 -19.5q-23 -27 -49 -59.5t-54.5 -69.5t-58.5 -76t-61 -78q-44 -54 -77.5 -93t-64 -64t-61.5 -36.5t-70 -11.5q-22 0 -45.5 6t-43 19t-32 33.5t-12.5 48.5zM710 452l-8 -4t-13 -7t-13 -8l-9 -6q6 3 15.5 7t18.5 8.5t16 8.5t8 6q0 -1 -1 -1
l-1 1q-3 0 -13 -5z" />
    <glyph glyph-name="K" unicode="K" horiz-adv-x="488" 
d="M17 48q0 27 8.5 56.5t25 54.5t42 41t58.5 16q24 0 43 -14t29 -41q2 -9 -2.5 -11.5t-22.5 -2.5q-8 0 -10.5 5t-6 11t-12 11t-28.5 5q-51 -8 -80.5 -43t-29.5 -89q0 -16 7 -32t18.5 -29t27 -21t33.5 -8q24 0 49 15t63 58t95.5 120.5t147.5 202.5q13 17 21 31.5t2 23.5
q-2 2 -15.5 -4.5t-24.5 -13.5q-44 -23 -75.5 -46t-54.5 -40q-18 -13 -26 -18t-10 -5t-2 2q0 20 6 32.5t18 23.5q32 30 74 56.5t85 45.5q10 4 21.5 4.5t20.5 -4t15 -14t6 -24.5q0 -8 -3.5 -19t-17.5 -34t-42.5 -61.5t-78.5 -101.5h5.5t7.5 -1q38 8 70 27.5t57.5 46t44.5 59
t32 66.5q7 19 8.5 24t4.5 5h2l15 -9t10 -11q0 -9 -7 -29v-1q-8 -23 -23 -49.5t-36.5 -51t-49.5 -45.5t-61 -33q-11 -5 -25 -7t-22 -6q8 -17 10.5 -28t2.5 -28q0 -36 -8 -76t-10 -76q0 -11 3 -17.5t13 -6.5q5 0 12.5 2t15 5.5t12.5 8.5t5 11q0 4 5 4t3 -5q0 -1 -3 -7t-10 -13
t-17 -13t-25 -6q-18 0 -23.5 12t-6.5 24q0 30 4 66t4 68q0 37 -6 47t-11 11q-6 2 -13.5 2t-18.5 -7q-49 -68 -86.5 -110.5t-66 -66t-50 -31.5t-39.5 -7q-56 3 -79.5 36t-23.5 77z" />
    <glyph glyph-name="L" unicode="L" horiz-adv-x="466" 
d="M125 -101q-20 0 -41 6.5t-39 18.5t-29.5 30t-11.5 41q0 27 15.5 50t39 39.5t50.5 26t50 9.5q25 0 48.5 -6.5t45.5 -16t43 -21.5t41 -23q44 55 81.5 103t79.5 99q-24 -5 -56 -12t-63.5 -18.5t-59.5 -28t-43 -39.5q-8 -12 -12 -19t-6.5 -10t-3.5 -4t-4 -1q-1 0 -4.5 3t-8 6
t-7.5 6.5t-3 5.5q6 26 25.5 45.5t46.5 33t59 22.5t62.5 16.5t57.5 13t45 12.5q23 27 45 53.5t39 47.5q4 5 11.5 14t17.5 18t22.5 15.5t26.5 6.5q15 -1 21.5 -8.5t7 -18.5t-3 -24t-8.5 -24q1 1 -6.5 -10t-26.5 -27t-50 -34t-78 -30q-48 -55 -92.5 -109.5t-96.5 -113.5
q79 -48 142.5 -76.5t117.5 -28.5q23 0 40 3t23 4t18.5 6.5t25.5 11t25 10t18 4.5q2 0 2 -4q0 -11 -1.5 -18.5t-9.5 -14t-24.5 -12.5t-46.5 -14q-6 -1 -22 -3.5t-42 -2.5q-34 0 -68 9.5t-68.5 25.5t-70.5 37.5t-74 45.5q-58 -69 -107.5 -98t-104.5 -29zM590 324
q-4 -5 -7.5 -9.5t-8.5 -9.5q12 5 30.5 15.5t36 24t30 30t12.5 34.5q0 1 -1 1q4 0 -5.5 -1t-28.5 -20q0 -1 -17.5 -20t-40.5 -45zM154 103q-21 0 -45.5 -7.5t-45.5 -22t-35 -35t-14 -45.5q0 -20 9.5 -35t24.5 -26t34 -16.5t39 -5.5q32 0 57.5 8t49 23.5t46 39t49.5 54.5
q-38 24 -80.5 46t-88.5 22z" />
    <glyph glyph-name="M" unicode="M" horiz-adv-x="640" 
d="M845 422q0 -12 -3 -20t-14 -21.5t-33.5 -38t-62.5 -68.5l-53 -55l-22 -27q-20 -25 -39 -47.5t-31 -40.5l-11 -15q-14 -23 -24 -39.5t-10 -27.5q0 -6 9 -6q7 0 12.5 2.5t10.5 5.5q14 9 22.5 18t13.5 16t8 11.5t6 4.5t3 -4q0 -13 -8 -25.5t-20 -22.5t-25.5 -16t-23.5 -6v1
v-1q-6 0 -16 3.5t-10 22.5q0 10 4 21.5t10 23.5t12.5 22.5t12.5 19.5l22 34l29 40q13 21 35 48t48.5 57t55.5 60.5t58 59.5l-4 -3t-14.5 -12.5t-28.5 -27t-45 -46.5t-57.5 -61.5t-62.5 -67.5t-64.5 -70.5t-63.5 -70.5q-8 -9 -17.5 -19.5t-21.5 -20t-25 -16t-26 -6.5
q-4 0 -15.5 4.5t-11.5 22.5q0 20 9 42.5t22.5 45t29 43t27.5 37.5q-13 6 -24.5 13t-25.5 12q-32 -29 -65.5 -60t-67.5 -63l-15 -14q-16 -15 -35.5 -31t-40.5 -29t-43.5 -21.5t-44.5 -8.5q-34 0 -56 24t-22 56q0 48 26.5 86t67 64.5t89.5 41t94 14.5q32 0 63 -6t58 -15
q64 59 103.5 94t62 54.5t32 26.5t13.5 10q2 1 10 4.5t25 3.5t21.5 -8.5t4.5 -19.5q0 -8 -8.5 -20.5t-28.5 -34.5l-37 -41q-20 -23 -45.5 -51.5t-63.5 -70.5q8 -13 15 -23.5t7 -19.5q0 -7 -10.5 -14t-21.5 -2q-4 2 -4.5 4.5t-1 6t-1.5 8t-7 10.5q-2 -2 -4.5 -5.5t-9 -12
t-18.5 -24.5t-31 -43q-12 -17 -20 -34t-9 -27q0 -11 11 -11q9 0 22 8.5t26.5 21t26 27t22.5 26.5q53 64 109.5 128t106.5 121q25 28 42 46.5t28.5 30t18.5 17t12 7.5h2q3 0 7 1t8 1q16 0 22 -8t8 -14zM244 98q32 31 63.5 61.5t61.5 59.5q-21 7 -53.5 13t-66.5 6
q-33 0 -74.5 -10t-77.5 -31t-60.5 -52.5t-24.5 -74.5q0 -36 21 -55t45 -19q22 0 44 9.5t43.5 24t41 32.5t37.5 36zM423 240q22 -10 42 -23l1 1q18 24 40 50t45 52t46 50.5t44 45.5q-6 0 -8.5 -1t-10.5 -7q-1 -1 -11.5 -8t-33.5 -25.5t-61 -51t-93 -83.5z" />
    <glyph glyph-name="N" unicode="N" horiz-adv-x="505" 
d="M17 67q1 50 31 90.5t73 60.5t92 14.5t88 -46.5q69 89 109 141.5t65.5 80.5t42.5 36t38 8q23 0 34.5 -12.5t3.5 -24.5q-4 -10 -17 -34.5t-32 -58.5t-42.5 -74t-48 -81.5t-47.5 -81.5t-42 -73q25 25 47.5 52.5t45.5 58t47 64.5t51 72l87 120q3 4 5.5 7.5t5.5 6.5t9 11
t15 15.5t20.5 13.5t24.5 6q18 0 26.5 -10.5t8.5 -15.5t-1 -10.5t-11 -3.5q-9 0 -12 2.5t-5 2.5h-4q-2 0 -6 -1.5t-11 -7.5t-16.5 -17t-23.5 -30l-26 -35q-22 -30 -50.5 -64.5t-58.5 -69t-58.5 -66t-51 -56t-36 -39.5l-13.5 -15q-3 -2 -5.5 -2.5t-4.5 -0.5q-10 0 -12 6
q-1 3 1 7q7 20 22.5 52.5t35 71.5t42 81t44 80.5t40 70t31.5 50.5q-2 1 -4 1.5t-11 0.5q-6 0 -15.5 -4t-23.5 -18q-13 -17 -34.5 -41t-47.5 -53.5t-56 -64.5t-61 -74q4 -14 8 -25t5 -24q0 -14 -5 -14q-15 3 -21 4.5t-8.5 4t-3 7.5t-3.5 14q-10 -11 -19.5 -22.5t-20.5 -22.5
q-4 -5 -19 -21.5t-37 -35.5t-48 -33.5t-53 -14.5q-30 0 -51.5 21.5t-21.5 62.5zM276 155q-17 26 -42 38.5t-52.5 13t-54.5 -9.5t-49 -28.5t-35.5 -44.5t-13.5 -57q0 -10 3 -22t9 -22.5t16 -18t25 -7.5q19 0 37 8t36 22t36.5 32t38.5 39q12 14 23 28.5t23 28.5z" />
    <glyph glyph-name="O" unicode="O" horiz-adv-x="390" 
d="M380 325q-1 -8 -5 -20.5t-11 -19.5q13 -9 26.5 -17t27.5 -12v2q5 10 5.5 25t0.5 29q0 22 -5.5 39.5t-14.5 29.5q-27 32 -71 32q-17 0 -36.5 -5t-38 -12t-34 -15t-25.5 -13h-5t-9 2.5t-5 8.5t7 17q0 1 10 9t27.5 17.5t42.5 18t56 9.5h1q24 0 46 -9t38 -24.5t25.5 -37.5
t9.5 -48q0 -29 -2.5 -44t-6.5 -35q19 -5 33 2.5t23.5 18.5t16 21.5t11.5 10.5q3 0 6 -1.5t3 -4.5q0 -4 -2.5 -8t-4.5 -8q-14 -24 -37.5 -36.5t-52.5 -7.5q-10 -31 -26 -63t-38 -61q-17 -23 -42.5 -51t-57.5 -52.5t-69 -41.5t-76 -17q-33 0 -51.5 14.5t-28 34.5t-11.5 42
t-2 37q0 46 19.5 94.5t52.5 91t75.5 75t87.5 48.5q24 9 47 11t39.5 -5t25.5 -24t5 -47zM417 241q-16 3 -33 11t-31 19q-5 -3 -9 -6t-8.5 -5.5t-11 -5t-18.5 -3.5q-8 -2 -17.5 -0.5t-17.5 6.5t-13 13.5t-5 20.5q0 18 11.5 27t23.5 9q17 0 30 -8.5t22 -16.5q6 6 7.5 15.5
t1.5 15.5q0 16 -7.5 23.5t-18.5 9.5t-24.5 -0.5t-25.5 -6.5q1 0 -13.5 -5.5t-36.5 -19t-49 -34.5t-51.5 -51.5t-44 -71t-25.5 -92.5q0 -21 2.5 -41t10 -35.5t21.5 -24.5t36 -9q45 0 91 26t86 65.5t71 86t46 88.5zM328 288q-9 5 -18.5 11t-20.5 6q-5 0 -8.5 -3t-3.5 -9
q0 -9 7 -12t18 -3q8 1 14.5 3t11.5 7z" />
    <glyph glyph-name="P" unicode="P" horiz-adv-x="447" 
d="M451 185q-14 -25 -39 -61q13 -3 24 -9q22 -11 25.5 -19t3.5 -7q0 -2 -3 -2h-3q-1 0 -15 10.5t-42 13.5q-10 -13 -27 -32.5t-38 -37.5t-44 -31t-46 -13q-17 0 -29 10t-12 27q0 24 18 42t43.5 29.5t53 17.5t47.5 6q7 0 13.5 -0.5t13.5 -1.5q9 11 17 21.5t15 20.5
q1 1 11.5 19t24 45t25.5 59.5t15 61.5q0 10 -1 18t-11 10q-30 -3 -57 -17.5t-50 -33t-42.5 -37.5t-34.5 -32q-22 -20 -53 -58t-71.5 -91t-90.5 -118.5t-111 -139.5q-18 -20 -31.5 -32.5t-25 -19.5t-20.5 -9.5t-18 -2.5q-15 6 -5.5 29.5t34 58.5t61 77.5t76.5 86t79.5 85
t71.5 73.5q79 113 117.5 165.5t43.5 52.5q0 -1 6 -8t6 -24q0 -9 -11 -24t-25 -35q15 13 31 27t34 26t38 19.5t41 7.5q23 0 32.5 -14t9.5 -31q0 -12 -3 -23.5t-7 -22.5q-6 -18 -12.5 -32t-14 -28.5t-17 -31t-21.5 -40.5zM-39 -141q44 53 80.5 108.5t81.5 118.5
q-24 -16 -52.5 -43.5t-56.5 -59t-53 -63.5t-43 -58.5t-26 -43t-1 -16.5t17 6t19.5 14.5t18.5 18.5t15 18zM342 74q11 9 20.5 18t17.5 19q-23 0 -43.5 -7t-37 -16t-27 -17t-12.5 -10t-8.5 -7.5t-11 -11.5t-4.5 -11t9 -6l2 -1q20 0 46.5 16t48.5 34z" />
    <glyph glyph-name="Q" unicode="Q" horiz-adv-x="379" 
d="M43 187q14 43 43 88.5t68.5 83t87 61.5t98.5 24q22 0 43 -8t36.5 -22.5t25 -34.5t9.5 -45q0 -57 -28 -113.5t-71.5 -103.5t-96.5 -80t-102 -43q31 -16 59.5 -26.5t57.5 -10.5q17 0 31.5 4.5t32.5 11.5q1 0 6 -5.5t5 -22.5q0 -5 -3 -6q-14 -11 -32 -16t-38 -5
q-38 0 -76 17t-86 51q-10 -1 -28.5 -1.5t-36.5 2t-31.5 10.5t-13.5 24q0 18 15.5 23.5t29.5 5.5q12 0 23 -5t21 -11.5t20.5 -14.5t22.5 -14q54 10 105 44t90.5 81.5t64 101.5t26.5 103q-2 38 -25 55.5t-58 17.5q-32 -2 -64 -16t-62 -36.5t-56 -51.5t-46 -61t-33.5 -65
t-16.5 -64v-2q-2 -2 -1.5 -6t-4.5 -5q-7 5 -12 12q-5 5 -8.5 13t-3.5 18q0 11 4.5 22t8.5 21zM14 17q4 -11 14 -15t22 -5t24.5 0t21.5 2q-14 10 -27.5 22t-33.5 12q-12 0 -16.5 -4t-4.5 -12z" />
    <glyph glyph-name="R" unicode="R" horiz-adv-x="563" 
d="M606 437q22 -2 32.5 -19.5t10.5 -37.5q0 -34 -15 -69t-39 -65t-54.5 -53t-61.5 -34q0 -20 -1 -41t-1 -46q0 -33 8 -47.5t26 -14.5q8 1 16 6t14 5q2 0 6.5 -2t4.5 -7q0 -7 -17 -11t-29 -4q-15 0 -27 6l2 1q-21 21 -28.5 52t-11.5 87q0 -2 -7.5 5t-13.5 17.5t-5.5 21.5
t17.5 19q11 5 23.5 2.5t16.5 -10.5q3 -8 3 -10q26 3 53.5 21.5t49.5 45.5t36 59t14 63q0 8 -4.5 21t-20.5 13q-42 0 -80.5 -28t-73.5 -68.5t-66.5 -87t-59.5 -83.5q-23 -33 -47.5 -64.5t-51 -56.5t-54 -40.5t-55.5 -15.5q-25 0 -43.5 10t-30.5 25.5t-18.5 33.5t-7.5 33
q-2 22 1 50.5t17 53.5t42.5 42.5t78.5 18.5q19 0 32 -6t22 -15.5t14.5 -20t9.5 -17.5q0 -8 -3.5 -11t-23.5 -3q-7 0 -7.5 2t-1.5 4l-1 1q-8 16 -24 20t-30 4q-17 0 -36.5 -4.5t-36 -16.5t-27.5 -33t-11 -54q0 -15 6 -31.5t16.5 -30t25 -22.5t32.5 -9q32 0 65 27t62 67
q31 48 67.5 100.5t72 101.5t66 91.5t50.5 71.5l4.5 -1.5t10.5 -5t10.5 -9.5t4.5 -16q0 -9 -5 -14q2 1 9.5 6.5t18.5 11.5t24.5 10.5t28.5 4.5h7v0z" />
    <glyph glyph-name="S" unicode="S" horiz-adv-x="288" 
d="M356 432q-26 0 -59 -4t-68 -11.5t-68 -18.5t-58.5 -24.5t-40 -29.5t-11.5 -34q4 -15 20 -28.5t37 -24.5t42.5 -20t35.5 -16q22 -10 39.5 -21t27 -25.5t10 -34t-11.5 -45.5q0 1 -8.5 -14t-26.5 -34t-46 -35t-67 -16q-33 0 -59 18t-27 46l0.5 5t4.5 12.5t13.5 16t28.5 14.5
l7 2t17.5 3.5t22 2t21.5 -3.5q3 -2 1 -7.5t-4 -9.5q-2 -5 -16.5 -3t-32 1t-33 -7.5t-19.5 -27.5q-2 -11 6.5 -20.5t20.5 -16t25 -10t21 -2.5q36 3 60.5 21.5t40 40t22.5 41t7 24.5q0 16 -7.5 25t-25 18t-46.5 23t-72 40q-5 3 -14.5 8.5t-18.5 14t-15.5 20.5t-6.5 28
q0 26 19 46.5t48.5 35.5t66 25t71.5 16.5t64.5 9t45.5 2.5q9 0 28 -0.5t38.5 -4.5t34 -13t14.5 -25t-11 -29.5t-27 -24.5t-35.5 -20t-36 -15t-28.5 -9.5t-14 -3.5q-3 0 -3.5 3.5t0 8.5t1.5 9.5t1 7.5q0 8 3.5 10t13.5 6l4 1q33 14 54 23.5t33 16t16.5 11.5t4.5 9
q0 8 -8 12.5t-19 7t-24.5 3t-23.5 0.5z" />
    <glyph glyph-name="T" unicode="T" horiz-adv-x="226" 
d="M662 298l0.5 4t-1.5 9t-8.5 9t-21.5 4l-64 -5q-16 -1 -35 -3t-44.5 -5t-60.5 -6.5t-82 -7.5q-28 -28 -51.5 -57t-53.5 -53q-15 -12 -25 -22.5t-18.5 -21t-17 -22.5t-20.5 -26q-4 -5 -10 -14.5t-11 -20t-9 -20.5t-4 -16t4.5 -8t6.5 -2q10 0 27.5 9.5t34.5 38.5q4 9 7 19
t11 10q9 0 9 -7q0 -8 -5.5 -15.5t-12.5 -17.5q-2 -4 -10 -12.5t-18.5 -17t-22 -15t-21.5 -6.5q-37 0 -37 29q0 31 25 71.5t63 88.5q9 12 20.5 26.5t23 28.5t21 26.5t14.5 20.5q-34 -5 -79.5 -5t-87 9t-70 28.5t-28.5 52.5q0 25 14.5 46t37 35t49 22t50.5 8q40 0 69 -16
t47.5 -39.5t27 -51t8.5 -51.5q6 0 9 1l20.5 20.5t22.5 22t21 17.5t17 7q6 0 8.5 -4t2.5 -7q0 -9 -10 -24t-18 -25h3q62 8 118.5 14t103.5 10q103 9 103 -52v-3q0 -7 -5 -9t-12.5 -2t-14.5 1.5t-10 1.5zM20 377q0 -23 16 -35.5t40.5 -19t54 -7t58 1t51.5 4.5t34 5q0 3 0.5 8
t0.5 10q0 23 -9.5 46t-25.5 41.5t-38 30.5t-47 14q-20 2 -43.5 -3.5t-44 -18t-34 -32t-13.5 -45.5zM259 223q19 15 36 34t34 39q-13 0 -17 -2q-2 -1 -8.5 -9.5t-14.5 -20t-16.5 -23.5t-13.5 -18zM346 334h6t6 1q3 1 11 13t15 22q-10 -8 -19.5 -17t-18.5 -19z" />
    <glyph glyph-name="U" unicode="U" horiz-adv-x="321" 
d="M476 352q-11 -13 -26.5 -30t-37.5 -42l-86 -97q-20 -22 -35.5 -40.5t-29.5 -38.5l-11 -15q-15 -25 -24.5 -41t-9.5 -26q0 -6 9 -6h1q17 0 28.5 10t19.5 22t13.5 22.5t10.5 10.5q8 0 8 -5q0 -4 -2.5 -8t-4.5 -8q-11 -23 -29.5 -40.5t-45.5 -19.5q-6 0 -16 4t-10 22
q0 22 13.5 45t24.5 40q-26 -33 -52.5 -56.5t-50.5 -38.5t-44.5 -21.5t-35.5 -5.5h-6.5t-12 3t-12 10.5t-5.5 21.5q0 13 2 22.5t7.5 19t16.5 21.5t29 30q-28 11 -44 35.5t-16 58.5q0 36 15.5 77.5t43 77t64.5 58.5t80 23q33 0 43 -16.5t10 -36.5q-3 -32 -17.5 -65.5
t-34.5 -66t-43.5 -62.5t-42.5 -54q10 0 10 -2q-1 -23 -4.5 -27.5t-8.5 -5.5t-8.5 -0.5t-16.5 -0.5q-5 -6 -13.5 -16.5t-16.5 -22t-13.5 -22.5t-4.5 -20q0 -5 5 -12t17.5 -8t34 8.5t56.5 38.5q34 37 73 79.5t77 85t73 82t62.5 69.5l44 48t18.5 18q1 0 4.5 -7.5t3.5 -19.5
q0 -9 -12 -22.5t-35 -36.5zM68 164q15 -12 31 -15q13 15 38 44.5t50.5 65.5t44.5 73t19 67q0 12 -6.5 22.5t-34.5 11.5q-30 1 -59 -17.5t-52 -47.5t-38 -63t-17 -65q0 -23 5 -43t19 -33z" />
    <glyph glyph-name="V" unicode="V" horiz-adv-x="219" 
d="M123 30q-5 -9 -8.5 -16t-3.5 -12q0 -4 3 -6t3 -6q0 -11 -11 -17t-15 -6q-17 0 -26.5 9t-13 22t-1.5 28.5t7 28.5q8 18 23 43t28 55q-45 14 -75.5 53t-30.5 93q0 28 11.5 59.5t32 58t48.5 43.5t61 16q29 -2 52 -25.5t23 -65.5q0 -47 -19.5 -99t-42.5 -99q4 -1 4 -4
q-1 -14 -2 -20.5t-3.5 -9t-5.5 -2.5t-7 -1l-6 -1q-1 -2 -1 -3.5t-1 -3.5l-32 -59q-6 -11 -11.5 -22t-9.5 -21l-6 -22t8 -19l9 -3q-2 2 -2 5q0 14 12 39t28 49q30 44 68 94t73.5 92t61.5 70t31 28q0 -1 6.5 -7.5t6.5 -19.5q0 -3 -3.5 -9t-12.5 -16t-24 -26.5t-37 -40.5
q-17 -21 -45 -52.5t-57 -64t-53 -61.5t-34 -46zM93 201q7 -4 16.5 -8t16.5 -4q12 21 25 48t24.5 55t19 55t7.5 49q0 21 -10 34.5t-25.5 19.5t-34 4t-35.5 -12q-33 -15 -52.5 -48t-19.5 -71q0 -20 5.5 -39.5t15 -36t22 -28.5t25.5 -18z" />
    <glyph glyph-name="W" unicode="W" horiz-adv-x="447" 
d="M809 253q-63 -36 -136 -39t-147 23q-29 -28 -66.5 -63t-72.5 -67t-62 -56t-36 -31q-7 -6 -20 -14.5t-27 -7.5q-21 1 -25.5 10.5t-6.5 14.5q0 12 9 29.5t21.5 37.5t26.5 40.5t24 38.5q17 31 38.5 71t43.5 82q-6 -6 -8 -10q-29 -35 -67.5 -79.5t-76.5 -88.5t-71.5 -81.5
t-52.5 -56.5q-2 -2 -10.5 -7t-20.5 -4q-30 1 -30 34q0 3 2.5 7t8.5 13t16.5 23t25.5 37q35 51 71 95.5t70 92.5q3 4 9.5 13t12.5 18.5t10.5 19t4.5 15.5v2h-1l1 1h-1v2q-3 5 -9 9.5t-22 4.5q-32 0 -64.5 -12.5t-59 -32t-43.5 -44t-17 -48.5q0 -14 6.5 -23t14 -15t14 -10.5
t6.5 -7.5v1q-2 0 -4 -3.5t-6 -7.5t-9 -6.5t-12 -0.5q-26 14 -35 35t-10 44q1 26 19 51t45 45t59 34.5t61.5 20t52 -0.5t31.5 -25q0 -19 -11.5 -46t-30 -58.5t-41.5 -65.5t-47 -66.5t-45.5 -61.5t-37.5 -50q3 0 23.5 20t50.5 51t66.5 69.5t70.5 74.5t63 66.5t45 46.5
q6 13 7 30t2 33t5 28t17 15q5 2 13.5 0t8.5 -10t-1 -16t-7 -25q-10 -34 -28 -76t-39 -84t-43 -81.5t-40 -70.5t-29.5 -50t-11.5 -20q7 0 12 1t16 11q8 8 34.5 31.5t61 54t71.5 63t65 58.5q-34 17 -50 39.5t-16 40.5q0 3 5.5 5.5t12.5 4t13.5 2.5t9.5 1q7 1 10.5 -8t8 -21
t12.5 -23t25 -14q32 31 67 61.5t69 64.5q16 16 38 35t45.5 35t47.5 26t44 9q16 0 30.5 -6.5t26 -17.5t18 -25.5t6.5 -31.5q0 -27 -9.5 -52t-26 -47t-37.5 -40.5t-45 -32.5zM426 445q-12 -18 -13 -39q4 9 8.5 20.5t4.5 18.5zM557 267q27 -15 64 -19.5t77.5 0t79.5 18
t70.5 35.5t50.5 52.5t19 68.5q0 12 -4.5 25t-13 23t-20 16.5t-25.5 6.5q-36 0 -72.5 -22.5t-66.5 -49.5q-39 -39 -80 -78t-79 -76z" />
    <glyph glyph-name="X" unicode="X" horiz-adv-x="384" 
d="M449 289q-27 -29 -57.5 -61t-62.5 -64q-7 -92 -4.5 -145.5t16.5 -53.5q2 0 5 2.5t6 4.5q1 1 4 1q2 0 2 -5q-2 -8 -16 -10q-21 0 -31.5 40t-13.5 135q-24 -24 -54 -53.5t-61.5 -55.5t-64 -43.5t-60.5 -17.5q-24 1 -39 15t-22.5 35t-8.5 47t5 53q6 31 20 60t34.5 53.5
t45.5 42.5t52 26q25 6 49 4t35 -24q6 -8 4 -15t-7.5 -10.5t-12.5 -1.5q-15 0 -26 8t-29 5q-24 -5 -47 -21t-42.5 -38.5t-33.5 -50.5t-20 -56q-3 -17 -4 -37t4 -37.5t17 -29.5t34 -12q16 0 32.5 8t31.5 20l47 43q29 27 58.5 58t62.5 66q-1 31 0 61.5t3 59t5.5 53.5t7.5 44
q5 21 12 39.5t15 18.5q7 -1 13.5 -9.5t5.5 -13.5l-1 -4q-2 -6 -2 -11q-11 -50 -15 -99.5t-9 -100.5q45 49 90 98.5t82.5 89.5t63 65t31.5 25q2 -4 3 -8q2 -9 -1 -25q-1 -2 -1.5 -4t-2.5 -4l-16 -18z" />
    <glyph glyph-name="Y" unicode="Y" horiz-adv-x="312" 
d="M214 45q-4 -8 -5.5 -14t-1.5 -9q0 -6 9 -6q12 0 23.5 9t21.5 20t17.5 20t10.5 9t3 -4v-3q0 -3 -3 -7q-6 -11 -15.5 -21.5t-20 -19t-21.5 -13t-19 -4.5q-5 0 -13.5 2t-8.5 12q-8 -12 -18 -26t-23 -31q33 -14 76.5 -21.5t87.5 -11.5t84.5 -3.5t67.5 3.5q4 0 4 -3
q-10 -13 -18.5 -20.5t-19.5 -11t-26.5 -4.5t-40.5 -1t-55.5 4t-62 11t-61.5 16.5t-54 19.5q-59 -69 -120.5 -104.5t-134.5 -39.5q-16 -1 -37 3.5t-39.5 13.5t-31 22.5t-11.5 31.5q1 32 23 54t56 35.5t75 19.5t81 7t73.5 -3t51.5 -11q1 0 1 -0.5t1 -0.5q19 24 35 47.5
t30 44.5q-15 -11 -34 -23t-38 -22t-37.5 -16.5t-31.5 -6.5l-6 0.5t-12.5 3.5t-12 10t-5.5 21q0 17 3 24t12.5 17t26 28t43.5 56q-30 12 -45 40t-15 61t18 73t46.5 74.5t64.5 57.5t73 23q30 0 41.5 -15.5t11.5 -37.5q-2 -25 -15.5 -57t-32.5 -65.5t-42 -65.5t-45 -56
q14 0 16.5 -5.5t2.5 -8.5q0 -18 -12.5 -21t-36.5 -4q-15 -19 -25.5 -31.5t-18.5 -22t-14.5 -17.5t-13.5 -17q-5 -8 -8 -14q-2 -5 -3.5 -9.5t2.5 -5.5q8 -4 26.5 1t40 15.5t42 23.5t31.5 24l2 1q15 16 43.5 49t63 72.5t71 81.5t68 76.5t53.5 56.5t28 22q1 0 4.5 -7.5
t3.5 -19.5q0 -6 -7.5 -16t-28.5 -33.5t-59.5 -65.5t-101.5 -113q-31 -35 -56.5 -71t-51.5 -77zM65 268q0 -27 11.5 -53t43.5 -34q17 23 36.5 46.5t39.5 49.5q11 15 24 33.5t24.5 39t19 41t7.5 39.5v10t-4 11t-12.5 9t-25.5 4q-30 0 -59.5 -18t-53 -46.5t-37.5 -62.5t-14 -65
v-4zM-129 -191q34 -1 66.5 10.5t62 30t56 43.5t47.5 51q-16 8 -47.5 13.5t-68.5 5.5t-76 -5t-71 -16.5t-52 -30t-20 -45.5q0 -16 10.5 -26.5t26 -17.5t33.5 -10t33 -3z" />
    <glyph glyph-name="Z" unicode="Z" horiz-adv-x="248" 
d="M514 440q2 -1 2.5 -4.5t0.5 -5.5q0 -9 -3 -14.5t-14.5 -8.5t-33.5 -5.5t-59 -6.5q-19 -17 -37.5 -39.5t-36 -45t-33 -42t-27.5 -31.5q-6 -10 -26.5 -36t-48.5 -59t-61.5 -67.5t-66.5 -60.5q5 1 12.5 1.5t12.5 0.5q46 0 93 -8t94.5 -21t94 -29t93.5 -32q19 -7 38.5 -14
t41.5 -9h1q11 0 16 3q3 2 5 4q0 2 -4.5 6.5t-0.5 11.5q2 2 6 5.5t12 3.5q12 0 17 -9t5 -19q0 -21 -17 -32.5t-41 -11.5q-3 0 -7.5 0.5t-14.5 3t-27.5 8t-46.5 15.5q-37 12 -86 31t-100 36t-99 29.5t-84 12.5h-4q-15 0 -24.5 -2t-15.5 -5t-10.5 -5t-9.5 -2q-7 0 -7 5q0 4 3 4
q14 0 52.5 40t103.5 127q31 43 52.5 72.5t36.5 49t25.5 32.5t20.5 23.5t21 21.5l28 28q-54 -4 -107 -7.5t-95 -11.5t-67.5 -23t-25.5 -41q0 -15 3 -17.5t3 -5.5t-5 -6.5t-11 -3.5q-3 0 -6 3t-3 23q0 16 10 34q9 14 29.5 27t62 25.5t108 24.5t167.5 24q17 10 30 14t27 4
q17 0 26 -5t11 -7zM491 433q-5 1 -12.5 1.5t-15.5 0.5t-15 -1t-9 -2q0 -1 5 -1h12t13 -0.5t8 -0.5q3 0 7.5 0.5t5.5 2.5h1z" />
    <glyph glyph-name="bracketleft" unicode="[" horiz-adv-x="183" 
d="M289 459q2 4 14 9t19 6q12 4 38 4.5t47 -1.5q5 -2 15.5 -6.5t15.5 -9.5q5 -3 1 -5q-34 5 -62.5 6t-42.5 0l-280 -489q0 -1 -0.5 -1t-0.5 -1q-1 -2 8.5 -3.5t25 -2t36.5 0.5t43 3q2 -2 0 -5q-4 -5 -12.5 -9.5t-14.5 -4.5q-35 0 -61 2t-34 6q-3 0 -6 4t-5 10t-3 12.5
t1 10.5q4 6 29.5 39t62.5 91.5t81 142t85 191.5z" />
    <glyph glyph-name="backslash" unicode="\" horiz-adv-x="240" 
d="M13 477q6 8 13 6.5t12 -4.5q3 -29 18 -77t36.5 -105t47.5 -117t50 -113t43.5 -94t29.5 -58q2 -2 -4 -2.5t-8 2.5q-3 5 -16.5 30t-33.5 62t-43.5 83.5t-47 95.5t-44.5 97t-35.5 87.5t-20 68t2.5 38.5z" />
    <glyph glyph-name="bracketright" unicode="]" horiz-adv-x="370" 
d="M67 -29q-2 -4 -14 -9t-19 -6q-12 -4 -38 -4.5t-47 1.5q-5 2 -15.5 6.5t-15.5 9.5q-5 3 -1 5q34 -5 62.5 -6t42.5 0l280 489q0 1 0.5 1t0.5 1q1 2 -8.5 3.5t-25 2t-36.5 -0.5t-43 -3q-2 2 0 5q4 5 12.5 9.5t14.5 4.5q35 0 61 -2t34 -6q3 0 6 -4t5 -10t3 -12.5t-1 -10.5
q-4 -6 -29.5 -39t-62.5 -91.5t-81 -142t-85 -191.5z" />
    <glyph glyph-name="underscore" unicode="_" horiz-adv-x="501" 
d="M27 -44q-4 8 -1 12.5t7 6.5q20 -6 56 -10t80 -5t91 -0.5t89 2t74.5 3.5t47.5 4q2 0 1 -3.5t-4 -4.5q-6 -1 -39.5 -5t-80 -8.5t-100.5 -8t-101 -4t-80.5 4t-39.5 16.5z" />
    <glyph glyph-name="grave" unicode="`" horiz-adv-x="84" 
d="M18 233q-3 2 -5.5 8.5t1.5 10.5q6 8 16 1q6 -4 9 -7q8 -7 14 -11t20 -11q2 -2 -1 -4t-5 -2q-14 2 -27.5 6t-21.5 9z" />
    <glyph glyph-name="a" unicode="a" 
d="M151 94q3 2 3.5 -2t-1 -10t-4.5 -13t-6 -10t-14 -13t-24.5 -20t-27 -18t-21.5 -8q-29 0 -26 23q1 2 3 6.5t5 9.5t7 10l-18 -16.5t-9.5 -8.5t-6 -5t-5.5 -5q-15 -13 -30 -14t-24 12q-7 13 5.5 38t33 51.5t44 50t38.5 32.5q12 8 24.5 11.5t26.5 -3.5q5 -2 8.5 -4t5.5 -1
l8 8q3 4 10 6t14 2.5t11.5 -1t2.5 -5.5q-32 -34 -64.5 -74t-57.5 -83q-2 -3 -5.5 -11.5t-0.5 -11.5q3 -5 9 -1q1 0 11 8t24 20t28 25.5t23 24.5zM-6 21q8 5 19.5 16t23 23t21.5 23.5t14 17.5q6 7 14 19t15 23.5t10.5 21t-0.5 11.5q-5 4 -8.5 3t-6.5 -3q-1 0 -7.5 -6
t-15.5 -15t-18.5 -19t-15.5 -19q-17 -23 -34 -45.5t-24 -42.5q-2 -7 2 -9q1 -1 4.5 -1t6.5 2z" />
    <glyph glyph-name="b" unicode="b" horiz-adv-x="158" 
d="M124 206q-30 -23 -52.5 -52.5t-45.5 -58.5q-4 -5 -10 -14.5t-11 -20t-9 -20.5t-4 -16t4.5 -8t8.5 -2q8 0 16 5q4 2 16 11t25 21.5t23.5 25.5t10.5 24q0 7 -5.5 16.5t-5.5 20.5q0 23 15 39.5t33 16.5q15 0 19.5 -8.5t4.5 -18.5v-5.5t-2 -14t-7.5 -18.5t-15.5 -20
q-3 -3 1 -3.5t10 0.5q7 1 17 2q3 0 6.5 -2t3.5 -5t-7 -6q-14 -4 -22 -4.5t-13.5 -0.5t-9 -1.5t-8.5 -7.5q-26 -30 -54 -55.5t-54 -25.5q-40 0 -40 30q0 8 3 17q11 35 41 77t63 84q39 50 85 98.5t95 93.5q8 5 14 10.5t13 5.5q5 0 8 -3.5t3 -7.5q0 -6 -3 -10
q-26 -52 -69 -101.5t-91 -87.5zM267 389q-38 -32 -67 -70.5t-61 -75.5q38 31 69.5 67.5t58.5 78.5zM124 176q-5 -4 -13.5 -17t-8.5 -22q0 -10 3 -15t4 -5q9 2 14.5 9.5t9 16t5 16.5t1.5 10q0 10 -7 10q-2 0 -4 -1z" />
    <glyph glyph-name="c" unicode="c" horiz-adv-x="120" 
d="M113 65q-9 -11 -14.5 -17.5t-9.5 -10t-8 -6.5t-10 -8q-7 -6 -19.5 -11t-26 -8.5t-26.5 -4t-20 4.5q-11 6 -14 12.5t-4 9.5q-3 18 8 39q10 18 23 35t27 32t26.5 27t21.5 20q11 10 21.5 13t19 2.5t14.5 -4t8 -6.5q7 -12 -4 -23q-7 -10 -16.5 -18t-13.5 -10q-3 -2 -7.5 -1
t-8.5 3.5t-6 5t0 4.5q4 3 8 4q4 2 10 5.5t11 7t8.5 7.5t1.5 7q-4 6 -10 2.5t-9 -6.5q-8 -8 -22.5 -24.5t-30 -35.5t-29 -36.5t-18.5 -26.5q-4 -8 -5.5 -16.5t8.5 -15.5q4 -3 12 -2.5t16.5 3t16 6t10.5 5.5q17 10 26.5 21.5t20.5 23.5q8 8 10.5 12t10.5 13q5 2 4 -8t-11 -26z
" />
    <glyph glyph-name="d" unicode="d" horiz-adv-x="173" 
d="M172 94q3 2 3.5 -2t-1 -10t-4.5 -13t-6 -10q-4 -5 -19.5 -21t-32.5 -27q-8 -5 -13 -8t-12 -3h-1q-4 0 -7.5 0.5t-7.5 2.5q-12 7 -16.5 18t-4.5 24q1 6 -2 4l-5 -5t-10 -9t-12.5 -11t-11.5 -10q-15 -13 -30 -14.5t-25 12.5q-6 13 6.5 38t33 51.5t44 50t38.5 32.5
q11 8 24 11t27 -4q4 -2 7 -5t6 0q19 25 42.5 53t47 55t44.5 51.5t36 41.5q5 5 10.5 12t10.5 12l12 12h1q4 3 11.5 4t14 1t10.5 -1.5t2 -4.5q-14 -16 -34 -39t-41.5 -49t-44 -52.5t-41 -49t-32 -39t-17.5 -21.5q-14 -17 -28.5 -34.5t-27.5 -35.5q-3 -4 -11 -15t-15.5 -24.5
t-11 -26t2.5 -18.5q5 -5 9 -4t9 5q1 0 9 7.5t19.5 19t23.5 24.5t21 24zM-3 21q8 5 19.5 16t23 23t21 23.5t13.5 17.5q6 7 14.5 18.5t16 22.5t10.5 20.5t-1 13.5q-5 5 -9 3.5t-7 -3.5q-33 -33 -62.5 -68t-51.5 -79q-1 -2 -1.5 -4.5t2.5 -4.5q2 -1 5 -1t7 2z" />
    <glyph glyph-name="e" unicode="e" horiz-adv-x="113" 
d="M32 102q-14 -17 -24.5 -31t-14.5 -22q-5 -8 -6.5 -16.5t8.5 -15.5q4 -3 11.5 -3t15 1.5t14 4t9.5 4.5q21 12 36 30t32 40q5 2 4.5 -8t-10.5 -26q-9 -11 -14.5 -17.5t-10 -10.5t-8.5 -7t-10 -7q-7 -6 -18.5 -10.5t-24 -7t-24.5 -2t-20 5.5q-10 6 -13 12.5t-5 9.5
q-3 18 8 39q20 37 44.5 65.5t41.5 45.5q23 20 43.5 20.5t25.5 -4.5q8 -5 7 -14.5t-7 -19.5q-17 -28 -40 -38t-50 -18zM89 169q-7 -7 -19.5 -21.5t-26.5 -31.5q12 5 27.5 13t26.5 21q4 4 8 12.5t2 13.5q-2 6 -8.5 1.5t-9.5 -8.5z" />
    <glyph glyph-name="f" unicode="f" horiz-adv-x="105" 
d="M99 60q-7 -9 -16.5 -19.5t-20.5 -19.5t-23.5 -15t-25.5 -6q-25 0 -34 14l-38 -54q-41 -56 -89 -92t-95.5 -54t-92 -18.5t-79.5 16.5q-18 9 -30.5 24.5t-12.5 35.5q0 26 20 44.5t52 18.5h2q10 0 14 -1.5t5 -2.5v-2q-2 -6 -4.5 -13t-5.5 -7q-10 0 -20.5 -1.5t-19 -5.5
t-14 -12t-5.5 -23q0 -23 24 -40.5t59 -17.5q55 0 101.5 22t86.5 57.5t74 79.5t64 89l28 42q11 16 23.5 36t26.5 38q-5 2 -8.5 0t-8.5 -2q-3 0 -7 2t-4 7q0 8 6 11t14 1q4 -1 5 -1t1.5 -0.5t2.5 -1t9 -3.5l17 22q38 50 84 98t96 94q5 5 12.5 10.5t14.5 5.5q5 0 8 -3.5t3 -6.5
q0 -21 -20 -50.5t-47 -58.5t-54.5 -54t-42.5 -37q-21 -17 -40 -39l7 -3q5 5 12 10t15 5q5 0 8.5 -2t3.5 -7q0 -7 -12 -11t-19 -6q-6 -12 -10 -21q-4 -8 -7.5 -14.5t-5.5 -6.5t-4.5 6.5t-2.5 13.5q0 3 2 7l11 17q-1 0 -7 2l-48 -62q-4 -5 -10 -14.5t-11 -20t-9 -20.5t-4 -16
t4 -8t7 -2q11 0 25 12.5t27.5 27.5t24 27.5t15.5 12.5q3 0 3 -6q0 -11 -10 -28zM278 389q-38 -32 -67.5 -70.5t-61.5 -75.5q39 31 70.5 67.5t58.5 78.5zM121 167q-3 -1 -4 -4q2 0 4.5 0.5t12.5 5.5v1q-7 0 -13 -3z" />
    <glyph glyph-name="g" unicode="g" horiz-adv-x="156" 
d="M258 -94q-14 -5 -24 -5.5t-23 -0.5q-54 0 -110.5 9.5t-110.5 27.5q-57 -67 -120.5 -103.5t-138.5 -36.5q-14 0 -34 3.5t-38 12t-31 21.5t-13 31q0 27 21 48.5t53 36.5t70.5 23.5t73.5 8.5q31 0 64 -3.5t78 -12.5q1 0 1.5 -0.5t1.5 -0.5q12 16 24 32.5t22 32.5
q-15 -15 -26.5 -22.5t-23.5 -7.5q-8 0 -16 5.5t-8 16.5q0 16 14 40t33.5 48t40.5 44.5t35 29.5q8 5 16.5 8.5t17.5 3.5q6 0 13.5 -3t12.5 -3q9 0 17 6.5t22 6.5q12 0 12 -4q0 -1 -0.5 -1t-0.5 -1q-16 -16 -40 -46.5t-52 -69.5l-34 -52q-2 -6 -2 -9t2 -4.5t3 -1.5
q-1 0 8.5 6.5t24 18t30.5 26t28 29.5q1 0 1 0.5t1 0.5q2 0 2 -5q0 -6 -3.5 -16t-8.5 -15q-3 -3 -14 -13t-24.5 -20t-27 -18t-21.5 -8q-11 0 -17 3q-3 -4 -8 -11t-10 -15q-6 -9 -13 -18q54 -12 101 -20t89 -8q27 0 41 0.5t21.5 0.5t10 0.5t7.5 0.5q3 0 4 -1v-1q0 -1 -7.5 -12
t-16.5 -13zM-6 21q21 15 42.5 37t38.5 44.5t27.5 42t10.5 27.5q0 10 -9 6t-21.5 -14.5t-25 -24t-18.5 -22.5q-8 -11 -18 -23.5t-19 -25t-15.5 -24t-6.5 -19.5q0 -5 5.5 -6t8.5 2zM-266 -186q71 6 125 41t102 89q-23 5 -56.5 11.5t-73.5 6.5q-8 0 -25 -1.5t-39 -5t-45.5 -9.5
t-43.5 -16.5t-34.5 -25t-17.5 -34.5q1 -15 12.5 -26t28 -18t35 -10t32.5 -2z" />
    <glyph glyph-name="h" unicode="h" horiz-adv-x="159" 
d="M234 312q-17 -20 -32.5 -37t-32 -33t-34.5 -32.5t-39 -37.5q15 8 32 16t28 8t15 -7t4 -14q0 -2 -5.5 -15.5t-16.5 -27.5q-14 -20 -28.5 -38t-26 -33.5t-19 -26.5t-7.5 -16q0 -4 8.5 1t21.5 16t28.5 27t30.5 33q3 0 3 -5q0 -7 -3.5 -16.5t-8.5 -14.5q-3 -3 -12.5 -13
t-21.5 -20t-24 -18t-20 -8q-14 0 -22 5t-8 13q0 2 2 6q3 8 19.5 31.5t35 49.5t33.5 47t15 23q0 5 -5 5t-15.5 -5t-23 -12t-24 -15t-17.5 -13q-18 -15 -35 -33.5t-31 -36.5t-24 -33.5t-14 -24.5q-2 -3 -9 -5t-15 -2q-10 0 -10 6q0 3 8.5 16t22.5 31t31 40.5t34 43.5t32 40
t25 31q39 50 81.5 97t91.5 92q4 4 14 11t20 8q5 1 8 -3t3 -7q0 -9 -7.5 -22t-17.5 -26t-20.5 -25t-17.5 -21zM277 389q-38 -32 -67.5 -70.5t-61.5 -75.5q39 31 70.5 67.5t58.5 78.5z" />
    <glyph glyph-name="i" unicode="i" horiz-adv-x="65" 
d="M109 197q-8 -11 -22 -27t-30.5 -35l-33 -38t-29 -35.5t-19.5 -29t-3 -16.5t9 0q1 0 10.5 8t23 20t27.5 25t23 24q4 2 4 -2t-2 -10t-5.5 -13t-7.5 -10q-3 -3 -13.5 -12.5t-23 -19.5t-25.5 -18t-21 -8q-29 0 -25 22q1 4 5.5 12t9.5 16.5t10 16t8 10.5q5 7 18.5 24.5t28 37
t28 36t18.5 20.5q3 4 10 6t14 2.5t11 -1t2 -5.5zM135 239q-5 -8 -16.5 -16.5t-23.5 -16.5q-2 -1 -5.5 0t-1.5 3q10 11 13.5 17.5t8.5 15.5q2 3 3 5.5t3 5.5q6 11 15 5q5 -2 5.5 -9t-1.5 -10z" />
    <glyph glyph-name="j" unicode="j" horiz-adv-x="61" 
d="M91 206q-1 0 -1 -0.5t-1 -0.5q-5 0 -5 3q14 18 21.5 35t15.5 17q5 0 8 -4.5t3 -9.5q0 -10 -13 -20.5t-28 -19.5zM445 -110q-26 -4 -60 -7.5t-93 -3.5q-42 0 -85 3t-91.5 9t-105.5 16t-127 24q-1 -2 -13.5 -12.5t-26.5 -24.5q-25 -26 -55.5 -49.5t-74.5 -49.5
q-8 -5 -33 -18t-61.5 -26.5t-82 -24t-94.5 -10.5q-15 0 -41.5 2.5t-52 9.5t-44.5 20.5t-19 35.5q0 48 28 82t74 56.5t104.5 35t119 17.5t118 3t101.5 -8q12 -3 28.5 -5.5t18.5 -1.5q1 0 20 22.5t47.5 56.5t61.5 74.5t62 78.5q3 5 11 7t15 2q13 0 13 -5q0 -1 -0.5 -1t-0.5 -1
q-31 -38 -63 -76t-61 -81q-2 -4 -8.5 -10.5t-6.5 -11.5q0 -4 5 -4h-1q0 1 8 6.5t21 15.5t29 24.5t32 32.5q1 0 1 0.5t1 0.5q2 0 2 -4q0 -5 -5 -16t-10 -16q-3 -3 -13.5 -12.5t-23 -19.5t-25.5 -18t-21 -8q-14 0 -19 4q-14 -16 -27 -30.5t-13 -17.5q135 -29 271 -42.5
t279 3.5h1q5 1 8.5 1t6.5 1q11 0 10 -4.5t-8 -9.5t-16.5 -9.5t-14.5 -5.5zM-145 -65q2 3 0.5 1t-0.5 0q-34 8 -88 12t-115.5 1.5t-124 -12.5t-113 -29.5t-82 -49.5t-31.5 -72q0 -19 15.5 -30.5t38 -17.5t46.5 -8t41 -2q58 0 115 16t109.5 44t100 65.5t88.5 81.5z" />
    <glyph glyph-name="k" unicode="k" horiz-adv-x="165" 
d="M134 206q-8 -6 -19 -16.5t-25 -24.5q11 8 21.5 14t13.5 8q15 8 31.5 7.5t20.5 -8.5q4 -7 -3.5 -21.5t-18.5 -27.5q-16 -17 -30 -28t-15 -12q0 -1 8 -12q3 -5 -1.5 -12t-9.5 -12q-2 -4 -8.5 -11t-11.5 -13q0 -1 -7 -9.5t-4 -11.5t8 0q1 0 10.5 7.5t22 18.5t26 23t22.5 23
q4 2 4 -1.5t-2 -9.5t-5.5 -12.5t-7.5 -9.5q-3 -3 -13 -12t-22 -18.5t-24.5 -17t-20.5 -7.5q-15 0 -20 6t-3 14q2 14 9.5 25.5t18.5 23.5q3 2 6 5t1 6q-3 6 -13 2q-8 -2 -14.5 -5t-13.5 -6q-5 -2 -9 -2.5t-6 4.5t1 8t7 5l30 15q20 10 40.5 23t34.5 32q4 5 7 11.5t-1 9.5
q-7 5 -13 2.5t-11 -6.5q-28 -17 -49 -34t-44 -36q-26 -29 -45.5 -55.5t-25.5 -40.5q-2 -4 -7 -7t-10 4q-5 5 -6 12t4 16q9 15 28.5 40t41 51.5t40.5 50t28 34.5q39 50 86.5 101t97.5 96q3 4 13 8q4 2 8 3t9 -2q5 -5 3.5 -9.5t-3.5 -9.5q-11 -23 -27 -43l-32 -40
q-23 -29 -47.5 -56t-53.5 -50zM278 389q-38 -32 -67.5 -70.5t-61.5 -75.5q39 31 70 67.5t59 78.5z" />
    <glyph glyph-name="l" unicode="l" horiz-adv-x="95" 
d="M222 312q-23 -29 -47.5 -56t-53.5 -50q-30 -23 -52 -52.5t-45 -58.5q-5 -6 -12 -17.5t-13 -24t-8.5 -22.5t1.5 -13q7 -6 22.5 3t31.5 23.5t30 29t19 20.5q4 2 4.5 -2t-1 -10t-4.5 -13t-6 -10q-6 -6 -17 -16t-23.5 -19.5t-25.5 -16.5t-23 -7q-23 -1 -32 11.5t-2 35.5
q11 33 39.5 76t62.5 85q39 50 84.5 98.5t94.5 93.5q3 2 8.5 6.5t9.5 6.5t8 3t9 -2q5 -5 3.5 -9.5t-3.5 -9.5q-11 -23 -27 -43zM265 389q-38 -32 -67.5 -70.5t-61.5 -75.5q39 31 70 67.5t59 78.5z" />
    <glyph glyph-name="m" unicode="m" horiz-adv-x="235" 
d="M219 192q8 2 16.5 2t13.5 -8t2.5 -17t-9.5 -17q-8 -9 -13.5 -17.5t-13.5 -16.5q-18 -23 -35 -45.5t-25 -32.5q-2 -3 -8.5 -12t-4.5 -11q3 -3 7 -1q7 4 17 12.5t21.5 19t23 22.5t22.5 24q4 2 5 -2t-0.5 -10t-4.5 -13t-7 -10t-15 -13t-24.5 -20t-26.5 -18t-22 -8
q-28 0 -25 19q0 6 4 11q19 32 39 57t49 57q3 4 7.5 9.5t7.5 10.5t3 8.5t-5 4.5t-14 -4.5t-19.5 -13.5t-20.5 -16.5t-16 -12.5q-29 -23 -50.5 -50t-42.5 -60q-2 -3 -7 -12.5t-11 -7.5q-5 2 -8.5 9.5t2.5 18.5q18 32 39 57.5t50 57.5l7.5 10t7 11t2.5 8.5t-5 4.5t-14 -4.5
t-19.5 -13.5t-20.5 -16.5t-16 -12.5q-22 -17 -43 -39q-17 -23 -30 -42t-19 -28q-2 -4 -6.5 -13.5t-9.5 -7.5q-6 2 -9.5 10t1.5 19q9 16 24 39t32.5 47t34 46t27.5 34q3 4 10 6t14 2.5t11 -1t2 -5.5q-9 -11 -22.5 -27t-25.5 -31q7 5 17 13t21.5 16t22.5 15t19 9t16 2t13 -8
t3 -17t-9 -17l-1 -1q15 12 33 25t31 16z" />
    <glyph glyph-name="n" unicode="n" horiz-adv-x="149" 
d="M-30 21q-2 -4 -7 -13.5t-10 -7.5q-6 2 -9.5 10t1.5 19q7 13 21.5 34t30.5 43t31 42t23 31q4 6 7 10t5 6q3 4 10 6t14 2.5t11 -1t2 -5.5q-9 -10 -21.5 -25.5t-24.5 -29.5q7 5 17 13.5t20.5 16.5t21 14.5t18.5 8.5t16.5 2t13.5 -8q9 -16 -6 -34q-8 -9 -14.5 -19.5
t-14.5 -19.5q-19 -24 -37.5 -48.5t-26.5 -35.5q-2 -2 -2.5 -4t-2.5 -4l-2 -4v-4q3 -3 7 0q1 0 11 8t23.5 20t28 25.5t24.5 24.5q4 2 4.5 -2t-1.5 -10t-5 -13t-7 -10q-3 -3 -14 -13t-24 -20t-26.5 -18t-21.5 -8q-31 0 -25 23h1q0 4 3 9q17 32 37.5 57.5t47.5 57.5
q3 4 7.5 9.5t7 10.5t2.5 8.5t-4 4.5q-5 1 -14.5 -5t-20 -14.5t-20.5 -17.5t-16 -13q-23 -18 -42 -39q-16 -23 -29.5 -42t-18.5 -28z" />
    <glyph glyph-name="o" unicode="o" horiz-adv-x="144" 
d="M18 9q-17 -10 -34 -9t-23 17v1q-3 14 7 37.5t27.5 48.5t38 47.5t37.5 33.5q8 5 15.5 8t15.5 4q18 2 27.5 -7.5t6.5 -27.5q-2 -8 -3 -12.5t-1 -8.5q12 -1 24 -0.5t23 3.5q4 0 3 -3.5t-4.5 -7t-9 -7t-11.5 -4.5q-5 -1 -13 -1h-16q-1 -1 -6.5 -8.5t-9.5 -12.5
q-20 -27 -42.5 -50.5t-51.5 -40.5zM82 167q-4 -4 -6 -7q11 -9 31 -14q2 5 6.5 9t8.5 3q1 0 1 9.5t-5 13.5t-11 2.5t-11.5 -5t-9.5 -7.5zM-7 37q-2 -4 -2.5 -7.5t2.5 -6.5q6 -5 15 -3q12 3 27 14t28.5 25.5t24.5 28.5t16 23q1 2 -2.5 5t-1.5 11q-26 8 -33 22
q-11 -14 -23.5 -30.5t-23 -32.5t-18 -29t-9.5 -20z" />
    <glyph glyph-name="p" unicode="p" horiz-adv-x="152" 
d="M139 176q-2 1 -8.5 -3.5t-14.5 -12t-16 -16.5t-14 -16q-13 -16 -37 -46t-52.5 -66t-58.5 -73.5t-55.5 -68.5t-43 -52t-21.5 -23q-9 -6 -19.5 -8.5t-18.5 6.5q-7 8 -4.5 17.5t8.5 18.5q4 6 23 30.5t45.5 58.5t56.5 72.5t57 72.5q13 15 27 34t27.5 37t25.5 33.5t20 23.5
q4 4 11 6t13.5 2.5t10.5 -1t2 -5.5q-11 -13 -28 -33.5t-30 -36.5q-24 -32 -54 -70t-58.5 -74.5t-52.5 -68t-36 -49.5q-3 -5 -1.5 -6.5t5.5 3.5q8 9 28 34t45.5 57t54 67.5t54.5 67.5t46 55.5t29 31.5l5.5 5t13.5 9t18.5 5.5t20.5 -4.5q11 -6 6 -22q-1 -1 -8 -10.5t-18 -24
t-24 -31t-25 -31.5t-20.5 -26.5t-10.5 -14.5t-4.5 -6.5t0.5 -7.5q2 -2 3 -2t3 2q1 0 11 8t23.5 20t28 25.5t24.5 24.5q4 2 4 -2t-2 -10t-5.5 -13t-7.5 -10q-3 -3 -13.5 -13t-23.5 -20t-25.5 -18t-21.5 -8q-31 0 -25 23q0 1 8.5 12.5t20.5 28.5t26 36.5t26 36t19.5 28
t6.5 11.5z" />
    <glyph glyph-name="q" unicode="q" horiz-adv-x="151" 
d="M575 -81q3 0 4 -1l-1 -2l-3.5 -4t-9 -8.5t-13 -8.5t-15.5 -5l-4 -1q-12 -2 -25 -3.5t-30.5 -3t-40.5 -2.5t-53 -1q-43 0 -83 3t-85.5 9.5t-101.5 17t-131 25.5q-3 -2 -17.5 -14t-27.5 -26q-25 -26 -55.5 -49.5t-74.5 -49.5q-8 -5 -34 -18t-63 -26.5t-83 -24t-95 -10.5
q-23 0 -50 3.5t-50 11.5t-38.5 21t-15.5 33q0 49 31.5 84.5t81.5 58.5t112 35.5t123 17t113.5 1t84.5 -11.5q9 -2 25.5 -5t24.5 -3l1 2t5 7t12 14t22 23q-16 -8 -28 -8q-11 0 -19 6t-8 20q0 23 17 52.5t41 56t48.5 44.5t39.5 18q30 0 30 -26v-6.5t-2 -6.5q11 14 17 23t11 14
t11 6.5t16 1.5q11 0 11 -4q0 -2 -6.5 -10t-15 -17.5t-17 -19.5t-12.5 -16q6 2 8 2.5t4 0.5q3 0 3 -3q0 -10 -6 -13t-13 -3q-6 0 -8 1q-14 -18 -36.5 -45t-44.5 -52.5t-37.5 -45t-15.5 -22.5q85 -16 165 -30.5t144 -17.5l46 -2q45 0 93.5 1.5t98.5 9.5h1q8 2 14.5 2h9.5z
M7 20q13 3 26 13.5t25.5 24.5t24 30t22.5 30q-2 3 -4 8t-2 10q0 9 3.5 12.5t8 5t8.5 4t4 9.5q0 6 -3.5 11t-9.5 5q-14 0 -34.5 -22.5t-39.5 -50.5t-32.5 -52.5t-13.5 -28.5q0 -5 4 -7.5t7 -2.5q2 0 3 0.5t3 0.5zM-52 -68q2 2 3 3.5t2 3.5q-48 11 -90.5 15.5t-96.5 4.5
q-26 0 -63.5 -3t-78.5 -10t-81.5 -19.5t-73 -32t-53 -46t-20.5 -62.5q0 -19 15 -30.5t36 -17.5t44.5 -8t40.5 -2q58 0 114.5 15.5t110 42.5t102 64.5t89.5 81.5z" />
    <glyph glyph-name="r" unicode="r" horiz-adv-x="111" 
d="M112 206q-9 -5 -7.5 -7.5t9.5 -9.5t10.5 -16.5t-7.5 -20.5q-10 -13 -25 -31.5t-29.5 -36.5t-26.5 -33t-16 -21q-2 -4 -2.5 -5.5t0.5 -5.5q3 -4 8.5 -2t7.5 3q1 1 10 8t21.5 17.5t26 23t23.5 23.5q4 2 4 -2t-2.5 -10t-6 -13t-7.5 -10q-3 -3 -14 -13t-24 -20t-26 -18
t-22 -8q-15 0 -19.5 5.5t-4.5 17.5q0 13 13 32t30 39t33 38.5t23 30.5q2 2 3 5t-2 5t-4 0.5t-3 -3.5q-7 -8 -20 -22.5t-26.5 -30.5t-25 -29.5t-14.5 -19.5q-8 -6 -10 2.5t5 16.5q2 3 13 16.5t23.5 29t23 28t11.5 14.5q9 12 6 24q-3 11 0 23t11 23q3 5 8 11.5t11.5 11.5
t13.5 6.5t14 -2.5q10 -6 7.5 -19.5t-6.5 -21.5q-8 -15 -19 -23zM98 212q5 3 13 14.5t7 19.5q0 5 -3.5 5t-6.5 -3q-8 -7 -13.5 -15t-5.5 -19q0 -4 3.5 -4t5.5 2z" />
    <glyph glyph-name="s" unicode="s" horiz-adv-x="151" 
d="M118 242q4 -11 -1 -29.5t-23 -30.5q4 -9 7.5 -26.5t5 -37.5t-1 -41t-10 -38.5t-21.5 -28t-37 -10.5q-12 0 -18 10t-7.5 23.5t2 28.5t10.5 26q6 6 8 5q4 -2 6.5 -10t1.5 -15q-3 -3 -6.5 -12.5t-5.5 -19.5t0 -17.5t11 -6.5q24 3 32.5 22.5t9.5 43t-3 44t-7 25.5
q-1 2 -10.5 -8t-21.5 -24.5t-23 -28t-15 -18.5q-8 -12 -9.5 -2t5.5 23q16 20 29.5 34.5t30.5 36.5q5 8 8.5 13.5t2.5 9.5q-4 8 -3.5 19.5t5 23t11.5 20t16 10.5q8 2 13 -2t8 -12zM90 197q5 3 10.5 13.5t3.5 18.5q-1 4 -3.5 5t-4.5 -1q-8 -4 -11.5 -14t-2.5 -20q0 -4 3 -4
t5 2z" />
    <glyph glyph-name="t" unicode="t" horiz-adv-x="85" 
d="M171 256q-24 -27 -53 -50q-30 -23 -52 -52.5t-45 -58.5q-5 -6 -12 -17.5t-12.5 -24t-8.5 -22.5t1 -13q6 -5 9 -3.5t10 6.5q1 0 10 8t21 19.5t24.5 24t20.5 21.5q4 2 4 -2t-1.5 -10t-5 -13t-6.5 -10q-2 -2 -9 -8t-16 -14t-17.5 -15.5t-12.5 -10.5q-9 -7 -14.5 -9t-7.5 -2
h-1q-24 -1 -32.5 11.5t-1.5 35.5q10 33 39 76t62 85q10 12 19.5 24t20.5 24h-29q-6 1 -12 0.5t-11 -0.5q-6 2 -4 7.5t10 5.5h57q30 34 62.5 67t66.5 64q2 2 7.5 6.5t9.5 6.5t8.5 3t8.5 -2q5 -5 3.5 -9.5t-3.5 -9.5q-11 -23 -27 -43l-32 -40q-9 -11 -17.5 -21.5t-18.5 -21.5
q19 1 32.5 1h15.5q9 -2 4.5 -8t-14.5 -6h-50zM133 243q5 3 8.5 6.5t7.5 6.5h-4q-3 -3 -6 -6.5t-6 -6.5zM262 389q-31 -26 -56 -57t-51 -63h9q28 27 52 57.5t46 62.5z" />
    <glyph glyph-name="u" unicode="u" horiz-adv-x="156" 
d="M155 195q3 3 10 5.5t14 3t11 -1t2 -5.5q-6 -8 -12 -14q-7 -9 -23.5 -30t-35 -44.5t-35.5 -45t-25 -32.5q-2 -3 -5.5 -7t-0.5 -7q3 -5 9 -1q1 0 11.5 8t24.5 20t29 25.5t25 24.5q4 2 4 -2t-2.5 -10t-6.5 -13t-8 -10q-3 -3 -14 -13t-24.5 -20t-26.5 -18t-22 -8
q-30 0 -24 23q1 1 3 5t6 9q-19 -13 -40.5 -25t-32.5 -12q-32 0 -24 23q4 13 20.5 38t36.5 51t39.5 49.5t29.5 33.5q3 3 10 5.5t14 3t11.5 -1t2.5 -5.5q-37 -37 -66 -78t-61 -84q-2 -3 -4.5 -6.5t-0.5 -7.5q3 -3 10 0q1 0 10 6t21.5 15t27 19.5t26.5 21.5q23 27 44 55t42 57z
" />
    <glyph glyph-name="v" unicode="v" horiz-adv-x="128" 
d="M176 188q-17 -5 -44 -29t-56 -53t-55.5 -57t-42.5 -41q-18 -15 -32 -3q-8 7 -5 15t8 15q26 38 55.5 82.5t57.5 77.5q3 4 10 6t14 2.5t11.5 -1t2.5 -5.5q-11 -13 -28.5 -34.5t-29.5 -36.5q-12 -18 -26 -37t-25 -34t-18 -25t-4 -10t22.5 20.5t44.5 47.5t50 53t39 36
q8 6 19 14.5t20 8.5q5 0 11 -5t1 -7z" />
    <glyph glyph-name="w" unicode="w" horiz-adv-x="210" 
d="M208 177q21 15 33 18t16.5 0t2 -9t-11.5 -9q-17 -6 -42.5 -28t-53 -49t-52.5 -53t-41 -39q-8 -7 -12 -8t-12 5q-8 7 -4.5 15t8.5 15q9 14 24 41t31 53q-17 -17 -35 -35.5t-34 -35t-29 -30t-22 -20.5q-8 -7 -12 -8t-12 5q-8 7 -7 15t6 15q11 17 26.5 39.5t31 45.5t30 43
t22.5 32q3 4 10.5 6t15 2.5t13 -1t3.5 -5.5q-12 -13 -32.5 -38.5t-40.5 -53t-36.5 -50.5t-20.5 -32q10 10 31 33t45.5 49.5t47.5 50t37 33.5q6 5 15 5q8 2 12.5 -0.5t-0.5 -13.5q-9 -18 -25.5 -43t-33.5 -49t-30 -42.5t-14 -22.5q10 10 30 31.5t42.5 45.5t44 45.5t35.5 31.5
z" />
    <glyph glyph-name="x" unicode="x" horiz-adv-x="170" 
d="M38 57q-36 -42 -56 -52q-8 -5 -16 -5q-8 -1 -15 3t-8 11q0 4 4.5 15t13 24t18.5 24.5t20 16.5q9 4 10 -6q0 -12 -11 -19q-2 -2 -7 -8t-10 -13t-8.5 -13.5t-3.5 -8.5q0 -3 3 -3q6 0 10 4q7 5 20 18t31 34q-2 17 -5 37t2 56q1 5 6.5 12.5t11.5 13.5t11 8.5t5 -1.5
q-8 -23 -9.5 -47.5t2.5 -50.5q12 14 20 24l16 20q11 14 21 25t25 22q4 3 9 4.5t10 2.5q10 0 15 -6q2 -2 2 -3q5 -10 -1 -28.5t-23 -35.5q-6 -6 -15 -11t-17 -6q-8 0 -11 1.5t-2 10.5q1 6 4.5 7.5t5.5 1.5q10 2 16.5 8t10.5 11q7 9 9 26q-4 0 -11 -5q-25 -21 -43 -46t-39 -51
q1 -6 3 -14.5t5 -17.5t8 -16.5t12 -10.5q6 -3 17.5 6t24 22t23.5 26.5t17 20.5q4 2 4.5 -2t-1 -10t-4.5 -13t-6 -10q-9 -9 -18.5 -19.5t-19 -19.5t-19.5 -15t-19 -6q-23 1 -33.5 20t-14.5 37z" />
    <glyph glyph-name="y" unicode="y" horiz-adv-x="149" 
d="M49 0q-11 0 -17 3q-12 -16 -31.5 -40t-43 -50.5t-48.5 -52t-48 -43.5q-15 -12 -32 -20.5t-32 -10.5q-16 -2 -23 5q-10 10 -3 24q11 29 36 56.5t56 51t64 43.5t60 34q29 16 44 35q-19 -12 -39 -23.5t-31 -11.5q-32 0 -24 23q1 2 9.5 14.5t21.5 30.5t28 39t29 39t24 31.5
t14 17.5q3 3 10 5.5t14 3t11.5 -1t2.5 -5.5q-34 -34 -64.5 -74.5t-58.5 -82.5q-2 -3 -5 -7t0 -7q4 -4 9 0q1 0 9.5 5.5t21 13.5t26.5 18t25 20q22 26 43 56t43 56q3 4 10 6t14 2.5t11.5 -1t2.5 -5.5q-31 -38 -61.5 -79.5t-70.5 -86.5q-2 -3 -4.5 -7t-0.5 -7q3 -3 10 0
q1 0 11 8t23.5 19.5t28.5 25t25 24.5q4 2 4 -2t-2.5 -10t-6.5 -13t-8 -10q-3 -3 -14 -13t-24.5 -20t-26.5 -18t-22 -8zM-155 -170q33 31 66.5 65t60.5 76q-5 2 -8.5 0.5t-5.5 -3.5q-35 -23 -69 -47.5t-62 -53.5q-11 -12 -21 -24.5t-17 -28.5q-2 -4 -3 -8t3 -6t11.5 0.5
t15.5 7.5t16 11t13 11z" />
    <glyph glyph-name="z" unicode="z" horiz-adv-x="163" 
d="M619 -38q4 0 4 -1v-2q-6 -9 -13 -16q-6 -6 -13.5 -11t-14.5 -6l-4 -1q-23 -3 -56.5 -6.5t-93.5 -3.5q-43 0 -82.5 3t-84.5 9.5t-101.5 17t-132.5 25.5q-11 -5 -21.5 -15.5l-24.5 -24.5q-25 -26 -55 -49.5t-74 -49.5q-8 -5 -34 -18t-63 -26.5t-83 -24t-95 -10.5
q-23 0 -50 3.5t-50 11.5t-38.5 21t-15.5 33q0 50 32.5 84.5t84 56.5t114.5 33.5t123.5 15t112 1t79.5 -7.5q9 -2 19 -3t18 -1q5 0 11 2q4 1 12 9.5t16.5 19t16 20.5t10.5 15q-14 -1 -21 4.5t-7 11.5q0 4 4.5 19t29.5 47q1 1 6 8.5t5 12.5t-4 5q-3 0 -16 -17.5t-29 -39
t-32.5 -39t-25.5 -17.5q-6 0 -6 7q0 2 1 2.5t4 4.5q35 37 49 58t21 29q5 7 9.5 13.5t4.5 14.5q0 6 -2 12t-2 14q0 10 3 21t9 20t14 15t17 6q10 0 14.5 -8.5t4.5 -20.5q0 -8 -4 -16.5t-9.5 -15t-9.5 -11.5l-4 -5q0 -1 3.5 -4t7.5 -7t7.5 -9t3.5 -11q0 -4 -1 -8.5t-4 -7.5
l-28.5 -40.5t-9.5 -21.5q0 -2 2 -4t4 -2t4 3t5 6t8 6t14 3q3 0 6 -1.5t3 -5.5q0 -9 -8.5 -21t-18 -23.5t-18 -21.5t-8.5 -14q0 -2 2 -2q1 -1 3 -1q5 1 31.5 22t58.5 57q1 0 1 0.5t1 0.5q2 0 2 -4q0 -5 -5 -16t-10 -16q-3 -3 -13.5 -12.5t-23 -19.5t-25.5 -18t-21 -8
q-11 0 -17 3q-7 -8 -6.5 -7.5t0.5 -4.5q62 -10 131 -21t140 -18t141.5 -6.5t135.5 14.5h2q8 2 14.5 2h8.5zM90 214q5 3 10.5 13.5t5.5 18.5q0 7 -5 7q-7 0 -14 -13t-7 -22q0 -6 4 -6q2 0 6 2zM-8 -32q2 2 3 3.5t2 3.5q-25 8 -75.5 14t-112.5 5.5t-127.5 -8.5t-119 -28
t-88 -53t-34.5 -83q0 -19 15 -30.5t36 -17.5t44.5 -8t40.5 -2q58 0 114.5 15.5t110 42.5t102 64.5t89.5 81.5z" />
    <glyph glyph-name="braceleft" unicode="{" horiz-adv-x="200" 
d="M101 240q1 -1 3 3t10 2q12 4 21.5 8t17.5 10t16.5 16t17.5 27q18 33 35.5 71t34.5 68q8 12 20 21.5t28 0.5q13 -7 19.5 -17.5t9 -20.5t1.5 -17.5t-1 -8.5q-2 -8 -5 -5q-4 2 -4 3.5v3.5q4 6 2 13t-6.5 14t-10.5 13t-10 8q-16 8 -29 -17q-18 -37 -34.5 -80.5t-37.5 -79.5
q-9 -16 -17.5 -27t-26.5 -23q-17 -3 -19 -4l7 -16q-4 -21 -9.5 -33t-16.5 -28q-23 -35 -55.5 -69.5t-57.5 -67.5q-6 -11 -8 -19t6 -13q4 -3 12 -5t17 -2.5t17 1.5t12 8l2 2t4 -1t-1 -6q0 -1 -7 -5t-17 -7.5t-23 -3.5t-25 8q-16 9 -13.5 23.5t10.5 27.5q19 29 45.5 61.5
t47.5 63.5q11 16 16.5 27.5t7 21.5t0.5 20t-4 22q-2 2 -2 3q1 2 0.5 2.5t-0.5 2.5z" />
    <glyph glyph-name="bar" unicode="|" horiz-adv-x="111" 
d="M68 477q8 11 15.5 8t10.5 -6q-11 -29 -19 -77t-13.5 -105t-8.5 -117t-4.5 -113t-1 -94t1.5 -58q0 -2 -5.5 -2.5t-6.5 2.5q0 5 -1 29.5t-1.5 61t-1 82.5t0 94t3 96t6.5 88t10 69.5t15 41.5z" />
    <glyph glyph-name="braceright" unicode="}" horiz-adv-x="327" 
d="M185 182q-1 1 -3 -3t-10 -2q-12 -4 -21.5 -8t-17.5 -10t-16.5 -16.5t-17.5 -26.5q-18 -33 -35.5 -71t-34.5 -68q-8 -12 -20 -21.5t-28 -0.5q-14 7 -20 15t-8.5 15.5t-1.5 12.5t1 6q2 8 5 5q4 -2 4 -3.5v-3.5q-4 -6 -2 -11t6.5 -9t10 -7.5t10.5 -5.5q16 -8 29 17
q18 37 34.5 80.5t37.5 79.5q9 16 17.5 27t26.5 23q16 3 19 4l-7 16q4 21 9.5 33t16.5 28q23 35 55.5 69.5t57.5 67.5q6 11 8 19t-6 13q-4 3 -12 5t-17 2.5t-17 -1.5t-12 -8l-2 -2t-4 1t1 6q0 1 7 5t17 7.5t23 3.5t25 -8q16 -9 13.5 -23.5t-10.5 -27.5q-19 -29 -45.5 -61.5
t-47.5 -63.5q-11 -16 -16.5 -27.5t-7 -21.5t-0.5 -20t4 -22q2 -2 2 -3q-1 -2 -0.5 -2.5t0.5 -2.5z" />
    <glyph glyph-name="exclamdown" unicode="&#xa1;" horiz-adv-x="234" 
d="M233 339q-2 -3 -7.5 -6.5t-10.5 -1.5q-10 5 -4 15q2 3 2.5 6t2.5 6q6 14 10.5 17t7.5 -1t3 -14t-4 -21zM5 -132q-10 14 -0.5 50.5t30 84t48 99.5t53 97t44.5 77t24 39q2 3 7.5 2t3.5 -3q-11 -17 -27.5 -49t-36 -72.5t-39.5 -86t-36.5 -89.5t-29 -84t-16.5 -68
q-5 -3 -12 -4.5t-13 7.5z" />
    <glyph glyph-name="cent" unicode="&#xa2;" horiz-adv-x="227" 
d="M187 477q9 4 15.5 0t8.5 -6q-8 -7 -16.5 -17.5t-16.5 -23.5q11 0 19 -4t10 -8q4 -6 2.5 -13t-6.5 -12q-8 -11 -17.5 -19.5t-13.5 -10.5q-6 -3 -14.5 1t-9.5 9q-16 -34 -29.5 -70t-23.5 -66q22 7 31 14q17 11 27 23t22 26q8 8 10.5 12.5t10.5 13.5q5 3 4.5 -8t-11.5 -28
q-9 -12 -15 -19t-10 -11t-8 -7.5t-10 -8.5q-9 -7 -24 -13.5t-32 -9.5q-10 -32 -12 -48q0 -1 -5.5 0t-6.5 3q0 2 2.5 14t7.5 29q-8 0 -14 1t-11 4q-11 7 -14.5 13.5t-4.5 10.5q-3 19 8 42q20 38 50 69.5t49 50.5q11 26 23.5 44t24.5 23zM69 238q4 -3 11 -3q6 21 13.5 47
t16.5 52q-15 -19 -27 -36t-17 -25q-4 -8 -5.5 -17.5t8.5 -17.5zM156 390l-7 -14l8 4q4 2 10.5 6t11.5 8t8.5 8.5t1.5 7.5q-4 6 -10 2.5t-9 -7.5z" />
    <glyph glyph-name="dieresis" unicode="&#xa8;" horiz-adv-x="68" 
d="M56 239q-9 -17 -14.5 -12t0.5 22q5 8 11 4q9 -4 3 -14zM30 239q-9 -17 -14.5 -12t0.5 22q5 8 11 4q9 -4 3 -14z" />
    <glyph glyph-name="guillemotleft" unicode="&#xab;" horiz-adv-x="173" 
d="M11 127q-2 8 -0.5 11.5t7.5 9.5q16 11 38.5 16.5t46.5 20.5h1q5 0 5 -6t-10.5 -15t-24 -18t-26.5 -16.5t-18 -10.5q-1 -6 -0.5 -18.5t-0.5 -26t-3.5 -23.5t-8.5 -10q-2 0 -2 2q1 8 1 15v13q0 14 -1.5 26t-3.5 30zM67 120q-2 8 -0.5 11.5t7.5 9.5q16 11 38.5 16.5
t46.5 20.5h1q5 0 5 -6t-10.5 -15t-24 -18t-26.5 -16.5t-18 -10.5q-1 -6 -0.5 -18.5t-0.5 -26t-3.5 -23.5t-8.5 -10q-2 0 -2 2q1 8 1 15v13q0 14 -1.5 26t-3.5 30z" />
    <glyph glyph-name="degree" unicode="&#xb0;" horiz-adv-x="202" 
d="M159 446q12 0 17.5 -7.5t7 -17.5t0 -21.5t-3.5 -19.5q-3 -12 -15 -34t-29.5 -43t-38 -36.5t-41.5 -15.5q-12 0 -18 6t-7 9.5t-1 4.5t1 2q1 0 3 -3q1 -4 4 -8q5 -7 15 -7q11 0 24 7t26 18q33 29 51 65t18 65q0 6 -2.5 13.5t-11.5 7.5q-15 0 -44 -20q-11 -8 -26.5 -23
t-29 -34t-23 -40.5t-9.5 -41.5q0 -28 28 -28q14 0 27.5 6.5t25 15t19.5 16t11 10.5q1 1 1 0q0 -5 -8.5 -14t-22 -18t-28 -16t-26.5 -7q-20 0 -27 12t-7 24q0 26 14 56.5t35 56.5t45.5 43t45.5 17z" />
    <glyph glyph-name="plusminus" unicode="&#xb1;" horiz-adv-x="161" 
d="M27 72q-6 0 -8.5 1t-2.5 9q0 6 1.5 9.5t9.5 3.5h109q6 0 8.5 -0.5t2.5 -8.5q0 -6 -1.5 -10t-9.5 -4h-109zM132 201q10 0 10 -14q0 -6 -1.5 -10t-9.5 -4q-2 0 -13 0.5t-28 2.5l-3 -30l-1.5 -15t-2 -5.5t-4.5 -0.5q-5 0 -12 4.5t-9 10.5q0 2 2 15.5t4 20.5q-14 1 -23 1h-11
q-11 0 -11 14q0 6 1.5 10t9.5 4h11.5t27.5 -2q1 19 2 29t2 14.5t2.5 5t4.5 0.5q4 0 11 -3t9 -9q2 -5 -4 -38q14 0 24 -0.5t12 -0.5z" />
    <glyph glyph-name="twosuperior" unicode="&#xb2;" horiz-adv-x="214" 
d="M201.039 273.331q1.83105 -2.28711 2.05957 -4.34473q0.228516 -2.05859 0.228516 -4.34473q-1.83008 -9.14648 -8.92383 -15.7783q-7.09375 -6.63086 -16.2461 -10.7471q-9.15332 -4.11621 -19.4502 -5.94531t-18.5342 -1.8291q-12.3564 0 -24.4834 2.28613
q-12.1279 2.28711 -23.1113 5.48828t-20.1367 6.40234q-9.15234 3.20117 -15.1016 5.03125q-10.0684 -6.86035 -18.3057 -7.31738h-2.51758q-1.60156 0 -3.20312 0.914062q-1.60156 0.915039 -2.74609 3.20117q-1.14355 2.28711 -0.686523 6.40332
q0 4.11621 3.43262 8.68945t11.2119 4.57324q7.32227 0 17.3906 -3.20117q21.9668 24.2383 42.332 47.5625t36.3828 43.4473t25.6279 35.9004q9.61035 15.7783 10.5254 24.4678q0.458008 7.31738 -6.86426 10.9766q-7.32227 3.6582 -16.0176 4.57324
q1.83008 -0.915039 3.66113 -2.28711q1.83008 -1.37207 1.83008 -3.6582q0 -0.458008 -0.457031 -0.915039q-0.458008 -0.457031 -0.916016 -1.37207q0 -0.914062 -2.28809 -2.97266q-2.28809 -2.05762 -6.40625 -4.34473q-4.11914 -2.28613 -9.61133 -4.11621
q-5.49121 -1.8291 -11.8984 -1.8291q-1.83008 0 -4.57617 0.457031q-2.74609 0.458008 -5.49219 1.83008q-2.74512 1.37207 -5.0332 4.11523q-2.28906 2.74414 -3.2041 7.77539q0.915039 6.85938 13.043 11.8906q12.1279 5.03027 29.9756 5.03027
q21.0518 0 30.2041 -7.31738q9.15332 -7.31738 10.0684 -17.3789q-3.2041 -16.0068 -14.6445 -33.6143q-11.4414 -17.6074 -28.1455 -36.5869q-16.7031 -18.9795 -37.9834 -40.0166t-43.7051 -43.9043q7.32227 -3.20117 16.9326 -6.86035q9.61035 -3.6582 20.1367 -6.85938
q10.5254 -3.20117 21.7373 -5.48828t21.7383 -2.28711q8.2373 0 17.1611 2.51562t16.0176 6.40332q7.09375 3.88672 11.8984 8.68848q4.80566 4.80273 5.26367 9.37598q0.457031 4.57324 -1.14453 5.94531t-3.43262 1.37207q-1.37207 0 -2.74512 -0.457031
q-1.37305 -0.458008 -2.28906 -0.458008q-1.83008 0 -1.83008 1.83008q0 0.457031 0.915039 1.37109q0.915039 0.915039 4.11914 0.915039q0.915039 0 3.43262 -0.457031q2.5166 -0.458008 4.80469 -2.74414zM147.037 430.197q-9.15234 0 -17.8477 -1.14355
t-13.2715 -5.25879q-0.458008 -4.57324 3.20312 -5.94531t7.32227 -1.37207q4.57617 0 8.23828 2.05762q3.66016 2.05859 6.17773 4.57324q2.5166 2.51562 3.88965 4.57324q1.37305 2.05859 2.28809 2.05859v0.457031zM39.0342 245.891q2.74609 0 6.17773 1.37207
q3.43262 1.37207 5.7207 3.65918q-4.57617 0.914062 -5.94922 0.914062q-2.74609 0 -4.80566 -2.51562q-2.05859 -2.51465 -1.14355 -3.42969z" />
    <glyph glyph-name="threesuperior" unicode="&#xb3;" horiz-adv-x="188" 
d="M178.14 460.21q4.92676 -6.39062 0.985352 -20.1553q-3.94238 -13.7637 -12.3184 -28.0195q-8.37695 -14.2559 -18.4775 -26.0537q-10.1016 -11.7979 -17 -13.7637q1.47852 -0.492188 6.15918 -2.45801q4.68164 -1.9668 9.85547 -5.89941t9.11523 -10.3232
q3.94238 -6.39062 3.94238 -15.7305v-1.96582v-1.47461v-0.983398q0 -17.2051 -5.91309 -34.6562t-17 -31.2148q-11.0859 -13.7646 -26.8535 -22.3672t-35.4775 -8.60254q-14.2891 0 -24.3906 4.4248q-10.1006 4.42383 -16.5059 11.7969q-6.40625 7.37402 -9.3623 16.4688
q-2.95703 9.09375 -2.95703 18.4336q0 12.7812 2.21777 21.1377q2.21777 8.35742 3.20312 8.35742q1.9707 0 1.9707 -2.45801q0 -1.47461 -0.739258 -6.63672q-0.739258 -5.16113 -0.739258 -13.5186q1.97168 -24.0869 13.0576 -34.6562q11.0869 -10.5684 31.7812 -10.5684
q14.7822 0 29.3184 7.37402q14.5352 7.37305 25.6221 19.417t17.9854 27.7744t6.89844 32.4434q0 9.33984 -7.3916 14.9932q-7.39062 5.65332 -15.5215 9.33984q-8.12988 3.6875 -13.3037 6.39062q-5.17383 2.7041 -1.23145 5.65332q0.985352 0.491211 1.23145 0.737305
t1.23242 0.983398q0.985352 0.737305 3.69531 2.70312q2.70996 1.9668 9.11523 5.89941q8.86914 5.89844 16.5068 17.2051t13.0576 22.8584t7.88379 20.1543t0.493164 8.60254h-3.94238q-16.7529 0 -33.0137 -4.42383q-16.2598 -4.42383 -32.0273 -4.42383
q-2.95703 0 -4.68164 3.19531q-1.72363 3.19434 -1.72363 7.12793q0 3.93164 11.8252 6.88184q11.8252 2.94922 27.1006 4.17773q15.2744 1.22949 28.8252 0.492188q13.5498 -0.737305 17.4922 -4.66992z" />
    <glyph glyph-name="acute" unicode="&#xb4;" horiz-adv-x="84" 
d="M66 233q-8 -5 -21.5 -9t-27.5 -6q-2 0 -5 2t-1 4q14 7 20 11t14 11q3 3 9 7q10 7 16 -1q4 -4 1.5 -10.5t-5.5 -8.5z" />
    <glyph glyph-name="onesuperior" unicode="&#xb9;" horiz-adv-x="205" 
d="M172.523 451.504q5.4834 0 6.97852 -3.49316q1.49512 -3.49219 1.99316 -5.98633q0.499023 -4.49023 -1.99316 -8.23242q-2.49219 -3.74121 -7.47656 -9.22949q-4.98438 -5.4873 -11.4629 -12.9707q-6.47949 -7.48438 -14.4541 -19.458
q-12.959 -16.4639 -27.4131 -38.9141t-26.416 -44.4023q-11.9619 -21.9512 -19.6875 -40.9092q-7.72461 -18.959 -6.72852 -29.4355q0.499023 -4.49023 2.49219 -6.48633q1.99414 -1.99512 4.48633 -2.74316q2.49121 -0.749023 4.73438 -0.998047t2.24316 -0.748047
q0 -0.998047 -0.99707 -1.99609t-3.48926 -0.998047q-8.47266 0 -11.2139 5.23926q-2.74121 5.23828 -3.24023 11.7236v6.98438q0 3.49316 1.24609 8.73145t4.2373 13.4697q2.99023 8.23242 8.47266 21.2041q0 0.498047 5.73145 14.2178q5.73242 13.7197 24.1738 45.1514
q-9.4707 -8.48145 -21.1826 -14.4688q-11.7129 -5.98633 -23.1768 -5.98633q-7.97461 0 -13.9551 3.24219q-5.98145 3.24316 -10.2178 8.23242t-6.47949 10.7266t-2.74121 10.7266q-0.498047 9.47852 3.9873 9.47852q2.99023 0 7.47656 -2.24512
q4.48535 -2.24512 4.48535 -4.24023q-0.498047 -1.49707 -0.99707 -3.49219q-0.498047 -1.49707 -0.74707 -3.74219t0.249023 -4.73926q0.99707 -8.48145 6.47949 -13.2207q5.48242 -4.74023 11.9619 -4.74023q9.46973 0 19.9365 6.48633q10.4668 6.48535 20.1855 16.2139
t18.6904 20.9541q8.97168 11.2246 15.9492 20.7041q10.9648 17.9609 16.9463 28.1885q5.98047 10.2266 9.71875 14.9668q3.73828 4.73926 5.98145 5.98633q2.24219 1.24805 5.23242 1.24805z" />
    <glyph glyph-name="ordmasculine" unicode="&#xba;" horiz-adv-x="197" 
d="M159 446q12 0 17.5 -7.5t7 -17.5t0 -21.5t-3.5 -19.5q-3 -12 -15 -34t-29.5 -43t-38 -36.5t-41.5 -15.5q-12 0 -18 6t-7 9.5t-1 4.5t1 2q1 0 3 -3q1 -4 4 -8q5 -7 15 -7q11 0 24 7t26 18q33 29 51 65t18 65q0 6 -2.5 13.5t-11.5 7.5q-15 0 -44 -20q-11 -8 -26.5 -23
t-29 -34t-23 -40.5t-9.5 -41.5q0 -28 28 -28q14 0 27.5 6.5t25 15t19.5 16t11 10.5q1 1 1 0q0 -5 -8.5 -14t-22 -18t-28 -16t-26.5 -7q-20 0 -27 12t-7 24q0 26 14 56.5t35 56.5t45.5 43t45.5 17z" />
    <glyph glyph-name="guillemotright" unicode="&#xbb;" horiz-adv-x="165" 
d="M95 112q3 -7 3 -11t-4 -11q-13 -14 -33 -25.5t-40 -32.5h-1q-6 -2 -6 4q-2 6 6 16.5t19 22t21.5 21t14.5 14.5q-1 6 -4.5 19t-6.5 26.5t-3 24.5t6 13q1 1 3 -1q1 -8 2.5 -15t3.5 -12q3 -14 7.5 -25t11.5 -28zM152 112q3 -7 3 -11t-4 -11q-13 -14 -33 -25.5t-40 -32.5h-1
q-6 -2 -6 4q-2 6 6 16.5t19 22t21.5 21t14.5 14.5q-1 6 -4.5 19t-6.5 26.5t-3 24.5t6 13q1 1 3 -1q1 -8 2.5 -15t3.5 -12q3 -14 7.5 -25t11.5 -28z" />
    <glyph glyph-name="onequarter" unicode="&#xbc;" horiz-adv-x="392" 
d="M172.523 451.504q5.4834 0 6.97852 -3.49316q1.49512 -3.49219 1.99316 -5.98633q0.499023 -4.49023 -1.99316 -8.23242q-2.49219 -3.74121 -7.47656 -9.22949q-4.98438 -5.4873 -11.4629 -12.9707q-6.47949 -7.48438 -14.4541 -19.458
q-12.959 -16.4639 -27.4131 -38.9141t-26.416 -44.4023q-11.9619 -21.9512 -19.6875 -40.9092q-7.72461 -18.959 -6.72852 -29.4355q0.499023 -4.49023 2.49219 -6.48633q1.99414 -1.99512 4.48633 -2.74316q2.49121 -0.749023 4.73438 -0.998047t2.24316 -0.748047
q0 -0.998047 -0.99707 -1.99609t-3.48926 -0.998047q-8.47266 0 -11.2139 5.23926q-2.74121 5.23828 -3.24023 11.7236v6.98438q0 3.49316 1.24609 8.73145t4.2373 13.4697q2.99023 8.23242 8.47266 21.2041q0 0.498047 5.73145 14.2178q5.73242 13.7197 24.1738 45.1514
q-9.4707 -8.48145 -21.1826 -14.4688q-11.7129 -5.98633 -23.1768 -5.98633q-7.97461 0 -13.9551 3.24219q-5.98145 3.24316 -10.2178 8.23242t-6.47949 10.7266t-2.74121 10.7266q-0.498047 9.47852 3.9873 9.47852q2.99023 0 7.47656 -2.24512
q4.48535 -2.24512 4.48535 -4.24023q-0.498047 -1.49707 -0.99707 -3.49219q-0.498047 -1.49707 -0.74707 -3.74219t0.249023 -4.73926q0.99707 -8.48145 6.47949 -13.2207q5.48242 -4.74023 11.9619 -4.74023q9.46973 0 19.9365 6.48633q10.4668 6.48535 20.1855 16.2139
t18.6904 20.9541q8.97168 11.2246 15.9492 20.7041q10.9648 17.9609 16.9463 28.1885q5.98047 10.2266 9.71875 14.9668q3.73828 4.73926 5.98145 5.98633q2.24219 1.24805 5.23242 1.24805zM348.28 469.971q9.65527 0 11.8496 -6.15039t3.07227 -10.5439
q-18.4326 -17.5732 -43.8877 -53.5986q-25.4551 -36.0244 -53.543 -81.7148t-56.1758 -95.335t-52.2256 -94.8955t-41.6934 -80.8369q-17.5547 -35.5859 -24.5762 -52.2803q-0.87793 -1.75781 -4.38867 1.31738q-3.51172 3.0752 -1.75586 6.59082
q1.75586 5.27148 11.8496 28.1172q10.0938 22.8447 25.4551 56.6729q15.3604 33.8291 34.6709 75.126t40.8145 83.9121q21.5049 42.6152 43.4492 83.0332q21.9434 40.4189 42.1318 71.6113q20.1875 31.1924 36.8652 50.084q16.6768 18.8906 28.0879 18.8906z
M347.191 32.5205q0.479492 -1.44141 0 -4.56543q-0.478516 -3.12305 -0.958008 -4.08398q-0.479492 -1.44238 -1.19824 -2.40332t-3.35449 -1.20117q-2.63477 -0.240234 -7.42676 -0.480469t-13.418 -0.720703q-3.35352 -4.3252 -7.42676 -8.88965
q-4.07324 -4.56543 -7.66699 -8.40918q-3.59375 -3.84473 -5.99023 -6.4873q-2.39551 -2.64258 -2.875 -2.64258q-1.91699 0 -1.91699 1.92188q-0.478516 0.480469 4.31348 7.68848q4.79102 7.20801 10.542 16.8184q-2.875 -0.480469 -10.7822 -1.20117
q-7.90625 -0.720703 -16.5312 -0.720703q-8.62598 0 -15.0947 1.20117t-5.51074 4.56543q0.958008 4.80469 1.67676 6.9668q0.71875 2.16309 4.79199 7.68848q4.07324 5.52637 13.1777 17.2998q9.10449 11.7725 26.3555 36.2793q6.22949 8.65039 14.6152 20.4229
q8.38574 11.7734 16.5322 24.7471q8.14551 12.9746 14.6152 26.1895q6.46875 13.2139 8.86426 25.708q1.91699 9.12988 -0.478516 14.1758q-2.39648 5.0459 -12.9385 5.0459q-6.70898 0 -18.6885 -3.36426q-11.9795 -3.36328 -24.918 -11.292
q-12.9375 -7.92871 -24.1982 -21.3838t-16.0527 -33.6377l-0.958984 -3.84375q-1.4375 -8.16895 0 -15.6172t3.83398 -13.4551q2.39551 -6.00684 4.55176 -10.0908q2.15625 -4.08496 2.15625 -5.0459q-0.478516 -1.92188 -3.11426 -5.28516
q-2.63574 -3.36426 -6.46875 -3.36426q-1.4375 0 -2.15625 0.480469t-1.67773 1.44141q-1.91699 2.40332 -4.3125 6.24707q-2.39551 3.84473 -4.3125 8.88965q-1.91699 5.0459 -2.39648 12.0137q-0.478516 6.96777 1.43848 16.0977q2.875 14.8965 12.9375 30.5137
t24.1992 28.5918q14.1357 12.9736 30.9072 21.1426t33.543 8.16895q7.66699 0 11.7402 -3.12305t5.75 -7.44824q1.67773 -4.3252 1.19824 -9.37012q-0.479492 -5.0459 -0.958008 -8.88965q-2.39648 -12.0137 -8.14648 -25.2285q-5.75 -13.2139 -12.9385 -26.6689
q-7.1875 -13.4551 -15.334 -25.708q-8.14551 -12.2539 -15.334 -22.3447q-13.417 -18.7412 -20.8438 -29.0723q-7.42773 -10.3311 -11.2617 -16.0977q-3.83301 -5.7666 -6.22949 -8.88965q-2.39551 -3.12402 -5.75 -6.96777q8.14648 0.480469 20.3652 2.16211
q12.2197 1.68164 22.2822 4.56543q5.27148 7.68848 8.14648 12.2529q2.875 4.56543 4.55273 6.72754q1.67676 2.16211 2.63477 2.64258q0.958984 0.481445 2.39648 0.481445q3.35449 0 6.22949 -2.88379q2.875 -2.88281 1.91699 -6.24707
q-0.479492 -0.960938 -1.91699 -2.16211t-6.70898 -7.92871q3.83398 0.480469 5.03125 0.720703q1.19824 0.240234 2.15625 0.240234q3.83398 0 4.79199 -2.88281z" />
    <glyph glyph-name="onehalf" unicode="&#xbd;" horiz-adv-x="400" 
d="M371.039 53.3311q1.83105 -2.28711 2.05957 -4.34473q0.228516 -2.05859 0.228516 -4.34473q-1.83008 -9.14648 -8.92383 -15.7783q-7.09375 -6.63086 -16.2461 -10.7471q-9.15332 -4.11621 -19.4502 -5.94531t-18.5342 -1.8291q-12.3564 0 -24.4834 2.28613
q-12.1279 2.28711 -23.1113 5.48828t-20.1367 6.40234q-9.15234 3.20117 -15.1016 5.03125q-10.0684 -6.86035 -18.3057 -7.31738h-2.51758q-1.60156 0 -3.20312 0.914062q-1.60156 0.915039 -2.74609 3.20117q-1.14355 2.28711 -0.686523 6.40332
q0 4.11621 3.43262 8.68945t11.2119 4.57324q7.32227 0 17.3906 -3.20117q21.9668 24.2383 42.332 47.5625t36.3828 43.4473t25.6279 35.9004q9.61035 15.7783 10.5254 24.4678q0.458008 7.31738 -6.86426 10.9766q-7.32227 3.6582 -16.0176 4.57324
q1.83008 -0.915039 3.66113 -2.28711q1.83008 -1.37207 1.83008 -3.6582q0 -0.458008 -0.457031 -0.915039q-0.458008 -0.457031 -0.916016 -1.37207q0 -0.914062 -2.28809 -2.97266q-2.28809 -2.05762 -6.40625 -4.34473q-4.11914 -2.28613 -9.61133 -4.11621
q-5.49121 -1.8291 -11.8984 -1.8291q-1.83008 0 -4.57617 0.457031q-2.74609 0.458008 -5.49219 1.83008q-2.74512 1.37207 -5.0332 4.11523q-2.28906 2.74414 -3.2041 7.77539q0.915039 6.85938 13.043 11.8906q12.1279 5.03027 29.9756 5.03027
q21.0518 0 30.2041 -7.31738q9.15332 -7.31738 10.0684 -17.3789q-3.2041 -16.0068 -14.6445 -33.6143q-11.4414 -17.6074 -28.1455 -36.5869q-16.7031 -18.9795 -37.9834 -40.0166t-43.7051 -43.9043q7.32227 -3.20117 16.9326 -6.86035q9.61035 -3.6582 20.1367 -6.85938
q10.5254 -3.20117 21.7373 -5.48828t21.7383 -2.28711q8.2373 0 17.1611 2.51562t16.0176 6.40332q7.09375 3.88672 11.8984 8.68848q4.80566 4.80273 5.26367 9.37598q0.457031 4.57324 -1.14453 5.94531t-3.43262 1.37207q-1.37207 0 -2.74512 -0.457031
q-1.37305 -0.458008 -2.28906 -0.458008q-1.83008 0 -1.83008 1.83008q0 0.457031 0.915039 1.37109q0.915039 0.915039 4.11914 0.915039q0.915039 0 3.43262 -0.457031q2.5166 -0.458008 4.80469 -2.74414zM317.037 210.197q-9.15234 0 -17.8477 -1.14355
t-13.2715 -5.25879q-0.458008 -4.57324 3.20312 -5.94531t7.32227 -1.37207q4.57617 0 8.23828 2.05762q3.66016 2.05859 6.17773 4.57324q2.5166 2.51562 3.88965 4.57324q1.37305 2.05859 2.28809 2.05859v0.457031zM209.034 25.8906q2.74609 0 6.17773 1.37207
q3.43262 1.37207 5.7207 3.65918q-4.57617 0.914062 -5.94922 0.914062q-2.74609 0 -4.80566 -2.51562q-2.05859 -2.51465 -1.14355 -3.42969zM172.523 451.504q5.4834 0 6.97852 -3.49316q1.49512 -3.49219 1.99316 -5.98633q0.499023 -4.49023 -1.99316 -8.23242
q-2.49219 -3.74121 -7.47656 -9.22949q-4.98438 -5.4873 -11.4629 -12.9707q-6.47949 -7.48438 -14.4541 -19.458q-12.959 -16.4639 -27.4131 -38.9141t-26.416 -44.4023q-11.9619 -21.9512 -19.6875 -40.9092q-7.72461 -18.959 -6.72852 -29.4355
q0.499023 -4.49023 2.49219 -6.48633q1.99414 -1.99512 4.48633 -2.74316q2.49121 -0.749023 4.73438 -0.998047t2.24316 -0.748047q0 -0.998047 -0.99707 -1.99609t-3.48926 -0.998047q-8.47266 0 -11.2139 5.23926q-2.74121 5.23828 -3.24023 11.7236v6.98438
q0 3.49316 1.24609 8.73145t4.2373 13.4697q2.99023 8.23242 8.47266 21.2041q0 0.498047 5.73145 14.2178q5.73242 13.7197 24.1738 45.1514q-9.4707 -8.48145 -21.1826 -14.4688q-11.7129 -5.98633 -23.1768 -5.98633q-7.97461 0 -13.9551 3.24219
q-5.98145 3.24316 -10.2178 8.23242t-6.47949 10.7266t-2.74121 10.7266q-0.498047 9.47852 3.9873 9.47852q2.99023 0 7.47656 -2.24512q4.48535 -2.24512 4.48535 -4.24023q-0.498047 -1.49707 -0.99707 -3.49219q-0.498047 -1.49707 -0.74707 -3.74219t0.249023 -4.73926
q0.99707 -8.48145 6.47949 -13.2207q5.48242 -4.74023 11.9619 -4.74023q9.46973 0 19.9365 6.48633q10.4668 6.48535 20.1855 16.2139t18.6904 20.9541q8.97168 11.2246 15.9492 20.7041q10.9648 17.9609 16.9463 28.1885q5.98047 10.2266 9.71875 14.9668
q3.73828 4.73926 5.98145 5.98633q2.24219 1.24805 5.23242 1.24805zM348.28 469.971q9.65527 0 11.8496 -6.15039t3.07227 -10.5439q-18.4326 -17.5732 -43.8877 -53.5986q-25.4551 -36.0244 -53.543 -81.7148t-56.1758 -95.335t-52.2256 -94.8955t-41.6934 -80.8369
q-17.5547 -35.5859 -24.5762 -52.2803q-0.87793 -1.75781 -4.38867 1.31738q-3.51172 3.0752 -1.75586 6.59082q1.75586 5.27148 11.8496 28.1172q10.0938 22.8447 25.4551 56.6729q15.3604 33.8291 34.6709 75.126t40.8145 83.9121q21.5049 42.6152 43.4492 83.0332
q21.9434 40.4189 42.1318 71.6113q20.1875 31.1924 36.8652 50.084q16.6768 18.8906 28.0879 18.8906z" />
    <glyph glyph-name="threequarters" unicode="&#xbe;" horiz-adv-x="400" 
d="M178.14 460.21q4.92676 -6.39062 0.985352 -20.1553q-3.94238 -13.7637 -12.3184 -28.0195q-8.37695 -14.2559 -18.4775 -26.0537q-10.1016 -11.7979 -17 -13.7637q1.47852 -0.492188 6.15918 -2.45801q4.68164 -1.9668 9.85547 -5.89941t9.11523 -10.3232
q3.94238 -6.39062 3.94238 -15.7305v-1.96582v-1.47461v-0.983398q0 -17.2051 -5.91309 -34.6562t-17 -31.2148q-11.0859 -13.7646 -26.8535 -22.3672t-35.4775 -8.60254q-14.2891 0 -24.3906 4.4248q-10.1006 4.42383 -16.5059 11.7969q-6.40625 7.37402 -9.3623 16.4688
q-2.95703 9.09375 -2.95703 18.4336q0 12.7812 2.21777 21.1377q2.21777 8.35742 3.20312 8.35742q1.9707 0 1.9707 -2.45801q0 -1.47461 -0.739258 -6.63672q-0.739258 -5.16113 -0.739258 -13.5186q1.97168 -24.0869 13.0576 -34.6562q11.0869 -10.5684 31.7812 -10.5684
q14.7822 0 29.3184 7.37402q14.5352 7.37305 25.6221 19.417t17.9854 27.7744t6.89844 32.4434q0 9.33984 -7.3916 14.9932q-7.39062 5.65332 -15.5215 9.33984q-8.12988 3.6875 -13.3037 6.39062q-5.17383 2.7041 -1.23145 5.65332q0.985352 0.491211 1.23145 0.737305
t1.23242 0.983398q0.985352 0.737305 3.69531 2.70312q2.70996 1.9668 9.11523 5.89941q8.86914 5.89844 16.5068 17.2051t13.0576 22.8584t7.88379 20.1543t0.493164 8.60254h-3.94238q-16.7529 0 -33.0137 -4.42383q-16.2598 -4.42383 -32.0273 -4.42383
q-2.95703 0 -4.68164 3.19531q-1.72363 3.19434 -1.72363 7.12793q0 3.93164 11.8252 6.88184q11.8252 2.94922 27.1006 4.17773q15.2744 1.22949 28.8252 0.492188q13.5498 -0.737305 17.4922 -4.66992zM348.28 469.971q9.65527 0 11.8496 -6.15039t3.07227 -10.5439
q-18.4326 -17.5732 -43.8877 -53.5986q-25.4551 -36.0244 -53.543 -81.7148t-56.1758 -95.335t-52.2256 -94.8955t-41.6934 -80.8369q-17.5547 -35.5859 -24.5762 -52.2803q-0.87793 -1.75781 -4.38867 1.31738q-3.51172 3.0752 -1.75586 6.59082
q1.75586 5.27148 11.8496 28.1172q10.0938 22.8447 25.4551 56.6729q15.3604 33.8291 34.6709 75.126t40.8145 83.9121q21.5049 42.6152 43.4492 83.0332q21.9434 40.4189 42.1318 71.6113q20.1875 31.1924 36.8652 50.084q16.6768 18.8906 28.0879 18.8906z
M347.191 32.5205q0.479492 -1.44141 0 -4.56543q-0.478516 -3.12305 -0.958008 -4.08398q-0.479492 -1.44238 -1.19824 -2.40332t-3.35449 -1.20117q-2.63477 -0.240234 -7.42676 -0.480469t-13.418 -0.720703q-3.35352 -4.3252 -7.42676 -8.88965
q-4.07324 -4.56543 -7.66699 -8.40918q-3.59375 -3.84473 -5.99023 -6.4873q-2.39551 -2.64258 -2.875 -2.64258q-1.91699 0 -1.91699 1.92188q-0.478516 0.480469 4.31348 7.68848q4.79102 7.20801 10.542 16.8184q-2.875 -0.480469 -10.7822 -1.20117
q-7.90625 -0.720703 -16.5312 -0.720703q-8.62598 0 -15.0947 1.20117t-5.51074 4.56543q0.958008 4.80469 1.67676 6.9668q0.71875 2.16309 4.79199 7.68848q4.07324 5.52637 13.1777 17.2998q9.10449 11.7725 26.3555 36.2793q6.22949 8.65039 14.6152 20.4229
q8.38574 11.7734 16.5322 24.7471q8.14551 12.9746 14.6152 26.1895q6.46875 13.2139 8.86426 25.708q1.91699 9.12988 -0.478516 14.1758q-2.39648 5.0459 -12.9385 5.0459q-6.70898 0 -18.6885 -3.36426q-11.9795 -3.36328 -24.918 -11.292
q-12.9375 -7.92871 -24.1982 -21.3838t-16.0527 -33.6377l-0.958984 -3.84375q-1.4375 -8.16895 0 -15.6172t3.83398 -13.4551q2.39551 -6.00684 4.55176 -10.0908q2.15625 -4.08496 2.15625 -5.0459q-0.478516 -1.92188 -3.11426 -5.28516
q-2.63574 -3.36426 -6.46875 -3.36426q-1.4375 0 -2.15625 0.480469t-1.67773 1.44141q-1.91699 2.40332 -4.3125 6.24707q-2.39551 3.84473 -4.3125 8.88965q-1.91699 5.0459 -2.39648 12.0137q-0.478516 6.96777 1.43848 16.0977q2.875 14.8965 12.9375 30.5137
t24.1992 28.5918q14.1357 12.9736 30.9072 21.1426t33.543 8.16895q7.66699 0 11.7402 -3.12305t5.75 -7.44824q1.67773 -4.3252 1.19824 -9.37012q-0.479492 -5.0459 -0.958008 -8.88965q-2.39648 -12.0137 -8.14648 -25.2285q-5.75 -13.2139 -12.9385 -26.6689
q-7.1875 -13.4551 -15.334 -25.708q-8.14551 -12.2539 -15.334 -22.3447q-13.417 -18.7412 -20.8438 -29.0723q-7.42773 -10.3311 -11.2617 -16.0977q-3.83301 -5.7666 -6.22949 -8.88965q-2.39551 -3.12402 -5.75 -6.96777q8.14648 0.480469 20.3652 2.16211
q12.2197 1.68164 22.2822 4.56543q5.27148 7.68848 8.14648 12.2529q2.875 4.56543 4.55273 6.72754q1.67676 2.16211 2.63477 2.64258q0.958984 0.481445 2.39648 0.481445q3.35449 0 6.22949 -2.88379q2.875 -2.88281 1.91699 -6.24707
q-0.479492 -0.960938 -1.91699 -2.16211t-6.70898 -7.92871q3.83398 0.480469 5.03125 0.720703q1.19824 0.240234 2.15625 0.240234q3.83398 0 4.79199 -2.88281z" />
    <glyph glyph-name="questiondown" unicode="&#xbf;" horiz-adv-x="316" 
d="M294.002 182.011q1.99902 -3 5.49902 -13.499t3.5 -26.498q0 -29.998 -20.999 -64.4961q-20.998 -34.498 -52.4961 -65.4961t-68.9961 -55.4971q-37.498 -24.498 -69.4961 -35.4971q-31.998 -11 -53.4961 -4.5q-21.499 6.49902 -22.499 36.498q3 26.998 14.499 56.9961
t27.998 59.4961t34.998 55.9971q18.499 26.498 34.498 46.4971q41.9971 50.9971 64.9961 79.9951q22.998 28.998 38.9971 38.9971q-13.999 2 -20.498 2.5q-6.5 0.5 -6.5 5.5t3.5 15.999t7.49902 10.999l6 -3.5q6 -3.49902 13.999 -8.49902q8 -5 14.499 -10.999
q6.5 -6 6.5 -12q0 -2.99902 -0.5 -5.99902t-3 -8q-2.5 -4.99902 -8.99902 -12.999q-6.5 -7.99902 -19.499 -21.999q-3 -3.99902 -15.999 -17.998q-12.999 -14 -31.498 -36.498q-18.499 -22.499 -40.498 -50.9971q-21.998 -28.498 -42.9971 -61.4961
q-7.99902 -12.999 -17.999 -28.498q-9.99902 -15.499 -18.499 -31.498q-8.49902 -15.999 -13.999 -32.498q-5.49902 -16.499 -5.49902 -32.498q0 -16.999 17.498 -17.499q17.499 -0.5 43.998 10.499q26.498 10.999 57.4961 31.498t57.4971 45.9971
q26.498 25.499 43.9971 53.4971t17.499 52.9971q0 25.998 -6.5 35.9971q-6.49902 10 -6.49902 14.999q0 5 4.99902 11.5q5 6.49902 11.999 6.49902q8 0 15 -13.999zM249.004 322.002q-10.999 8 -10.999 21.999q0 10.999 7.5 17.999q7.49902 7 17.498 7q11 0 18.999 -8
q8 -8 8 -17.999q0 -10.999 -7.5 -17.999q-7.49902 -6.99902 -18.499 -6.99902q-7.99902 0 -14.999 3.99902z" />
    <glyph glyph-name="Agrave" unicode="&#xc0;" horiz-adv-x="516" 
d="M216 191q0 23 -25 23q-27 0 -54.5 -13t-50.5 -34.5t-37.5 -49t-14.5 -56.5q0 -24 15 -47t42 -23q29 0 64.5 21.5t70.5 51t67 60.5t55 51l-29 -2q-19 0 -30 3t-17 8t-8 11.5t-2 14.5q0 4 2 10.5t5 12.5t7.5 10.5t10.5 4.5q2 0 3.5 -2.5t1.5 -4.5q0 -6 -7.5 -15t-12 -18
t0 -15.5t28.5 -6.5q17 0 36 4.5t35 7.5q78 69 146.5 131t138.5 113q12 7 23 6t13 -4t4 -7t3.5 -9t1.5 -12q0 -2 -13 -16t-34.5 -37.5t-48.5 -53.5t-55.5 -63t-56 -67t-49 -64.5t-35 -56t-13.5 -41.5q0 -7 4.5 -8t10.5 -1q4 0 11 3t13 8t10.5 10.5t4.5 11.5t-4.5 9.5
t-10.5 6.5t-10.5 5t-4.5 4t3 6t8 4q13 0 24 -12.5t7 -25.5q-5 -17 -21 -32t-36 -15q-11 0 -16.5 3t-8 7.5t-2.5 9t-1 8.5q0 23 13.5 49t36.5 62q56 83 119 160.5t137 147.5q-11 4 -25 -5q-2 0 -21.5 -16.5t-52.5 -47t-78 -72.5t-97 -93q1 1 4.5 1h5.5t9 -2t14 -5t12.5 -7
t5.5 -8q0 -1 -9.5 -1.5t-22 -1t-26 -1t-20.5 -0.5q-23 -24 -56 -58t-70.5 -65.5t-77.5 -55t-77 -25.5q-20 -1 -35.5 6t-26.5 19.5t-17 29t-6 34.5q0 31 13.5 62.5t36.5 56.5t53.5 41t65.5 16q28 0 43.5 -16.5t15.5 -42.5v-7t-2 -11q-3 -12 -10 -24.5t-14.5 -23t-14 -17
l-7.5 -7.5q-5 -2 -11.5 2t-9.5 7q-5 3 -4 5.5t6 7.5l2 2q26 43 31 58.5t5 17.5zM664 492q-3 2 -5.5 8.5t1.5 10.5q6 8 16 1q6 -4 9 -7q8 -7 14 -11t20 -11q2 -2 -1 -4t-5 -2q-14 2 -27.5 6t-21.5 9z" />
    <glyph glyph-name="Aacute" unicode="&#xc1;" horiz-adv-x="516" 
d="M216 191q0 23 -25 23q-27 0 -54.5 -13t-50.5 -34.5t-37.5 -49t-14.5 -56.5q0 -24 15 -47t42 -23q29 0 64.5 21.5t70.5 51t67 60.5t55 51l-29 -2q-19 0 -30 3t-17 8t-8 11.5t-2 14.5q0 4 2 10.5t5 12.5t7.5 10.5t10.5 4.5q2 0 3.5 -2.5t1.5 -4.5q0 -6 -7.5 -15t-12 -18
t0 -15.5t28.5 -6.5q17 0 36 4.5t35 7.5q78 69 146.5 131t138.5 113q12 7 23 6t13 -4t4 -7t3.5 -9t1.5 -12q0 -2 -13 -16t-34.5 -37.5t-48.5 -53.5t-55.5 -63t-56 -67t-49 -64.5t-35 -56t-13.5 -41.5q0 -7 4.5 -8t10.5 -1q4 0 11 3t13 8t10.5 10.5t4.5 11.5t-4.5 9.5
t-10.5 6.5t-10.5 5t-4.5 4t3 6t8 4q13 0 24 -12.5t7 -25.5q-5 -17 -21 -32t-36 -15q-11 0 -16.5 3t-8 7.5t-2.5 9t-1 8.5q0 23 13.5 49t36.5 62q56 83 119 160.5t137 147.5q-11 4 -25 -5q-2 0 -21.5 -16.5t-52.5 -47t-78 -72.5t-97 -93q1 1 4.5 1h5.5t9 -2t14 -5t12.5 -7
t5.5 -8q0 -1 -9.5 -1.5t-22 -1t-26 -1t-20.5 -0.5q-23 -24 -56 -58t-70.5 -65.5t-77.5 -55t-77 -25.5q-20 -1 -35.5 6t-26.5 19.5t-17 29t-6 34.5q0 31 13.5 62.5t36.5 56.5t53.5 41t65.5 16q28 0 43.5 -16.5t15.5 -42.5v-7t-2 -11q-3 -12 -10 -24.5t-14.5 -23t-14 -17
l-7.5 -7.5q-5 -2 -11.5 2t-9.5 7q-5 3 -4 5.5t6 7.5l2 2q26 43 31 58.5t5 17.5zM711 494q-8 -5 -21.5 -9t-27.5 -6q-2 0 -5 2t-1 4q14 7 20 11t14 11q3 3 9 7q10 7 16 -1q4 -4 1.5 -10.5t-5.5 -8.5z" />
    <glyph glyph-name="Acircumflex" unicode="&#xc2;" horiz-adv-x="516" 
d="M216 191q0 23 -25 23q-27 0 -54.5 -13t-50.5 -34.5t-37.5 -49t-14.5 -56.5q0 -24 15 -47t42 -23q29 0 64.5 21.5t70.5 51t67 60.5t55 51l-29 -2q-19 0 -30 3t-17 8t-8 11.5t-2 14.5q0 4 2 10.5t5 12.5t7.5 10.5t10.5 4.5q2 0 3.5 -2.5t1.5 -4.5q0 -6 -7.5 -15t-12 -18
t0 -15.5t28.5 -6.5q17 0 36 4.5t35 7.5q78 69 146.5 131t138.5 113q12 7 23 6t13 -4t4 -7t3.5 -9t1.5 -12q0 -2 -13 -16t-34.5 -37.5t-48.5 -53.5t-55.5 -63t-56 -67t-49 -64.5t-35 -56t-13.5 -41.5q0 -7 4.5 -8t10.5 -1q4 0 11 3t13 8t10.5 10.5t4.5 11.5t-4.5 9.5
t-10.5 6.5t-10.5 5t-4.5 4t3 6t8 4q13 0 24 -12.5t7 -25.5q-5 -17 -21 -32t-36 -15q-11 0 -16.5 3t-8 7.5t-2.5 9t-1 8.5q0 23 13.5 49t36.5 62q56 83 119 160.5t137 147.5q-11 4 -25 -5q-2 0 -21.5 -16.5t-52.5 -47t-78 -72.5t-97 -93q1 1 4.5 1h5.5t9 -2t14 -5t12.5 -7
t5.5 -8q0 -1 -9.5 -1.5t-22 -1t-26 -1t-20.5 -0.5q-23 -24 -56 -58t-70.5 -65.5t-77.5 -55t-77 -25.5q-20 -1 -35.5 6t-26.5 19.5t-17 29t-6 34.5q0 31 13.5 62.5t36.5 56.5t53.5 41t65.5 16q28 0 43.5 -16.5t15.5 -42.5v-7t-2 -11q-3 -12 -10 -24.5t-14.5 -23t-14 -17
l-7.5 -7.5q-5 -2 -11.5 2t-9.5 7q-5 3 -4 5.5t6 7.5l2 2q26 43 31 58.5t5 17.5zM703 513q2 0 6 -2l3 -5q4 -3 7 -9q6 -9 10.5 -14.5t15.5 -16.5q2 -2 -2 -3.5t-6 -0.5q-11 5 -22 12t-18 14q-9 -2 -22 -1t-25 3q-2 1 -4 3.5t0 3.5q15 2 22 4.5t18 6.5q2 2 5 2.5t5 1.5l6 1h1
v0z" />
    <glyph glyph-name="Atilde" unicode="&#xc3;" horiz-adv-x="516" 
d="M216 191q0 23 -25 23q-27 0 -54.5 -13t-50.5 -34.5t-37.5 -49t-14.5 -56.5q0 -24 15 -47t42 -23q29 0 64.5 21.5t70.5 51t67 60.5t55 51l-29 -2q-19 0 -30 3t-17 8t-8 11.5t-2 14.5q0 4 2 10.5t5 12.5t7.5 10.5t10.5 4.5q2 0 3.5 -2.5t1.5 -4.5q0 -6 -7.5 -15t-12 -18
t0 -15.5t28.5 -6.5q17 0 36 4.5t35 7.5q78 69 146.5 131t138.5 113q12 7 23 6t13 -4t4 -7t3.5 -9t1.5 -12q0 -2 -13 -16t-34.5 -37.5t-48.5 -53.5t-55.5 -63t-56 -67t-49 -64.5t-35 -56t-13.5 -41.5q0 -7 4.5 -8t10.5 -1q4 0 11 3t13 8t10.5 10.5t4.5 11.5t-4.5 9.5
t-10.5 6.5t-10.5 5t-4.5 4t3 6t8 4q13 0 24 -12.5t7 -25.5q-5 -17 -21 -32t-36 -15q-11 0 -16.5 3t-8 7.5t-2.5 9t-1 8.5q0 23 13.5 49t36.5 62q56 83 119 160.5t137 147.5q-11 4 -25 -5q-2 0 -21.5 -16.5t-52.5 -47t-78 -72.5t-97 -93q1 1 4.5 1h5.5t9 -2t14 -5t12.5 -7
t5.5 -8q0 -1 -9.5 -1.5t-22 -1t-26 -1t-20.5 -0.5q-23 -24 -56 -58t-70.5 -65.5t-77.5 -55t-77 -25.5q-20 -1 -35.5 6t-26.5 19.5t-17 29t-6 34.5q0 31 13.5 62.5t36.5 56.5t53.5 41t65.5 16q28 0 43.5 -16.5t15.5 -42.5v-7t-2 -11q-3 -12 -10 -24.5t-14.5 -23t-14 -17
l-7.5 -7.5q-5 -2 -11.5 2t-9.5 7q-5 3 -4 5.5t6 7.5l2 2q26 43 31 58.5t5 17.5zM684 499q-7 3 -13 2t-14 -1q-3 0 -6 4t3 9q2 1 4.5 1.5t7.5 0.5q8 0 12.5 -2.5t9.5 -6.5q7 -5 16.5 -10t17.5 -6q11 2 15.5 2t5.5 -5q0 -6 -6 -8t-14 -2q-11 0 -17 7.5t-22 14.5z" />
    <glyph glyph-name="Adieresis" unicode="&#xc4;" horiz-adv-x="516" 
d="M216 191q0 23 -25 23q-27 0 -54.5 -13t-50.5 -34.5t-37.5 -49t-14.5 -56.5q0 -24 15 -47t42 -23q29 0 64.5 21.5t70.5 51t67 60.5t55 51l-29 -2q-19 0 -30 3t-17 8t-8 11.5t-2 14.5q0 4 2 10.5t5 12.5t7.5 10.5t10.5 4.5q2 0 3.5 -2.5t1.5 -4.5q0 -6 -7.5 -15t-12 -18
t0 -15.5t28.5 -6.5q17 0 36 4.5t35 7.5q78 69 146.5 131t138.5 113q12 7 23 6t13 -4t4 -7t3.5 -9t1.5 -12q0 -2 -13 -16t-34.5 -37.5t-48.5 -53.5t-55.5 -63t-56 -67t-49 -64.5t-35 -56t-13.5 -41.5q0 -7 4.5 -8t10.5 -1q4 0 11 3t13 8t10.5 10.5t4.5 11.5t-4.5 9.5
t-10.5 6.5t-10.5 5t-4.5 4t3 6t8 4q13 0 24 -12.5t7 -25.5q-5 -17 -21 -32t-36 -15q-11 0 -16.5 3t-8 7.5t-2.5 9t-1 8.5q0 23 13.5 49t36.5 62q56 83 119 160.5t137 147.5q-11 4 -25 -5q-2 0 -21.5 -16.5t-52.5 -47t-78 -72.5t-97 -93q1 1 4.5 1h5.5t9 -2t14 -5t12.5 -7
t5.5 -8q0 -1 -9.5 -1.5t-22 -1t-26 -1t-20.5 -0.5q-23 -24 -56 -58t-70.5 -65.5t-77.5 -55t-77 -25.5q-20 -1 -35.5 6t-26.5 19.5t-17 29t-6 34.5q0 31 13.5 62.5t36.5 56.5t53.5 41t65.5 16q28 0 43.5 -16.5t15.5 -42.5v-7t-2 -11q-3 -12 -10 -24.5t-14.5 -23t-14 -17
l-7.5 -7.5q-5 -2 -11.5 2t-9.5 7q-5 3 -4 5.5t6 7.5l2 2q26 43 31 58.5t5 17.5zM713 494q-9 -17 -14.5 -12t0.5 22q5 8 11 4q9 -4 3 -14zM687 494q-9 -17 -14.5 -12t0.5 22q5 8 11 4q9 -4 3 -14z" />
    <glyph glyph-name="Aring" unicode="&#xc5;" horiz-adv-x="516" 
d="M216 191q0 23 -25 23q-27 0 -54.5 -13t-50.5 -34.5t-37.5 -49t-14.5 -56.5q0 -24 15 -47t42 -23q29 0 64.5 21.5t70.5 51t67 60.5t55 51l-29 -2q-19 0 -30 3t-17 8t-8 11.5t-2 14.5q0 4 2 10.5t5 12.5t7.5 10.5t10.5 4.5q2 0 3.5 -2.5t1.5 -4.5q0 -6 -7.5 -15t-12 -18
t0 -15.5t28.5 -6.5q17 0 36 4.5t35 7.5q78 69 146.5 131t138.5 113q12 7 23 6t13 -4t4 -7t3.5 -9t1.5 -12q0 -2 -13 -16t-34.5 -37.5t-48.5 -53.5t-55.5 -63t-56 -67t-49 -64.5t-35 -56t-13.5 -41.5q0 -7 4.5 -8t10.5 -1q4 0 11 3t13 8t10.5 10.5t4.5 11.5t-4.5 9.5
t-10.5 6.5t-10.5 5t-4.5 4t3 6t8 4q13 0 24 -12.5t7 -25.5q-5 -17 -21 -32t-36 -15q-11 0 -16.5 3t-8 7.5t-2.5 9t-1 8.5q0 23 13.5 49t36.5 62q56 83 119 160.5t137 147.5q-11 4 -25 -5q-2 0 -21.5 -16.5t-52.5 -47t-78 -72.5t-97 -93q1 1 4.5 1h5.5t9 -2t14 -5t12.5 -7
t5.5 -8q0 -1 -9.5 -1.5t-22 -1t-26 -1t-20.5 -0.5q-23 -24 -56 -58t-70.5 -65.5t-77.5 -55t-77 -25.5q-20 -1 -35.5 6t-26.5 19.5t-17 29t-6 34.5q0 31 13.5 62.5t36.5 56.5t53.5 41t65.5 16q28 0 43.5 -16.5t15.5 -42.5v-7t-2 -11q-3 -12 -10 -24.5t-14.5 -23t-14 -17
l-7.5 -7.5q-5 -2 -11.5 2t-9.5 7q-5 3 -4 5.5t6 7.5l2 2q26 43 31 58.5t5 17.5zM716 492q-9 -17 -14.5 -12t0.5 22q5 8 11 4q9 -4 3 -14zM710 490q3 4 -1 6q-2 2 -4 -2q-2 -7 0 -8.5t5 4.5z" />
    <glyph glyph-name="AE" unicode="&#xc6;" horiz-adv-x="740" 
d="M102 -25q-20 -1 -35.5 6t-26.5 19.5t-17 29t-6 34.5q0 31 13.5 62.5t36.5 56.5t53.5 41t65.5 16q28 0 43.5 -16.5t15.5 -42.5q0 -1 -1 -12t-8 -11t-9.5 3.5t-2.5 6.5q0 5 3 12.5t3 15.5q0 11 -9.5 18t-23.5 7q-27 0 -54 -13t-49 -34t-36 -48.5t-14 -56.5q0 -24 16 -45
t43 -21q29 0 62.5 19.5t66.5 46.5t63 56.5t53 49.5l-29 -2q-19 0 -30 3t-17 8t-8 11.5t-2 14.5q0 4 2 10.5t5 12.5t7.5 10.5t10.5 4.5q2 0 3.5 -2.5t1.5 -4.5q0 -6 -7.5 -15t-12 -18t0 -15.5t28.5 -6.5q17 0 36 4.5t35 7.5q78 69 146.5 131t138.5 113q12 7 23 6t13 -4t4 -7
t3.5 -9t1.5 -12q0 -2 -10.5 -13.5t-28 -30.5t-40.5 -44t-48 -53q51 25 99.5 33.5t80.5 8.5q2 5 6 14.5t21 38.5q7 11 16.5 25.5t21 28t25.5 23t31 10.5q2 0 7 -0.5t10.5 -4t9.5 -10.5t4 -20q0 -21 -11 -35.5t-28 -23.5t-37 -14t-38 -8q-1 0 -6 -7.5t-10 -18.5l6 -0.5
t12.5 -3t12 -6t5.5 -9.5q0 -10 -11.5 -18t-27.5 -8q-11 0 -17 6.5t-6 17.5q0 3 0.5 6.5t0.5 5.5q-39 0 -80 -12t-79.5 -34t-70.5 -53t-51 -68q-13 -27 -7 -52t23.5 -44t43.5 -30t53 -11q12 0 34 3.5t43.5 11.5t37.5 20.5t16 30.5q0 11 -8.5 14t-18.5 3.5t-18.5 2t-8.5 8.5
q0 11 9 11q8 0 17 -2t17.5 -6.5t14.5 -11t7 -16.5q0 -23 -16 -39.5t-40 -27.5t-51.5 -16t-50.5 -5q-24 0 -49 6.5t-44.5 20t-31.5 35t-11 50.5q-16 -25 -25.5 -44.5t-9.5 -33.5q0 -7 4.5 -8t10.5 -1q18 0 20.5 -2.5t-2.5 -6t-13 -6t-11 -2.5q-11 0 -16.5 3t-8 7.5t-2.5 9
t-1 8.5q0 23 13.5 49t36.5 62q56 83 119 160.5t137 147.5q-11 4 -25 -5q-2 0 -21.5 -16.5t-52.5 -47t-78 -72.5t-97 -93q1 1 4.5 1h5.5t9 -2t14 -5t12.5 -7t5.5 -8q0 -1 -9.5 -1.5t-22 -1t-26 -1t-20.5 -0.5q-23 -24 -56 -58t-70.5 -65.5t-77.5 -55t-77 -25.5zM837 396
q-5 -4 -8.5 -8.5t-8.5 -9.5q59 16 59 44q0 2 -2 2q-3 -1 -12.5 -5t-27.5 -23zM772 304q-2 -4 -2 -10q0 -2 1.5 -4t8.5 -2q3 0 10 1.5t7 5.5q0 5 -10.5 7.5t-14.5 1.5z" />
    <glyph glyph-name="Ccedilla" unicode="&#xc7;" horiz-adv-x="311" 
d="M89 -28h-6.5t-9.5 1q0 -3 0.5 -2.5t0.5 0t-0.5 -3t-3.5 -11.5q-5 -16 -14 -35.5t-22 -29.5q-11 -8 -23 -1t-19.5 20t-8 27.5t10.5 22.5q5 4 8.5 4t3.5 1l7 -2q2 -5 -1 -8q-2 -2 -5.5 -1t-10.5 -4q-9 -6 -7.5 -17t8.5 -21t16.5 -15.5t15.5 -0.5q8 5 13 15l9 18q5 12 7 18
l3 9t1 4.5v3.5l2 11q-20 5 -33 18.5t-13 39.5q0 38 20 82.5t51.5 88t69 83.5t73.5 70q19 16 40.5 32.5t45 29.5t47.5 21.5t49 8.5q22 0 34 -12t12 -29q0 -23 -15 -53.5t-34.5 -59.5t-40 -51.5t-30.5 -29.5q-8 -5 -15 -6t-17 -1q-6 0 -10.5 1t-4.5 3q0 1 1 2q15 15 37 39.5
t43.5 52.5t37.5 56.5t18 50.5q-2 6 -7 7t-11 1q-34 0 -73.5 -20t-79.5 -51.5t-77.5 -70.5t-66.5 -77q-28 -37 -53.5 -80.5t-28.5 -87.5q0 -27 14.5 -36.5t35.5 -11.5q15 -2 36.5 1.5t47.5 14.5t57 30.5t64 50.5q11 10 14 17.5t5 7.5t4 -1.5t2 -4.5q0 -5 -6.5 -11t-10.5 -11
q-3 -3 -19.5 -19t-44 -35t-64.5 -34.5t-79 -18.5z" />
    <glyph glyph-name="Egrave" unicode="&#xc8;" horiz-adv-x="478" 
d="M157 102q-24 -3 -48.5 2t-45 17.5t-33.5 32.5t-13 47q0 52 31 82t79 45.5t106 20t112 4.5q29 0 55 -0.5t48 -0.5q20 0 34.5 1t22.5 4q7 11 16.5 25.5t21 28t25.5 23t31 10.5q2 0 7 -0.5t10.5 -4t9.5 -10.5t4 -20q0 -21 -11 -35.5t-28 -23.5t-37 -14t-38 -8q-1 0 -6 -7.5
t-10 -18.5l6 -0.5t12.5 -3t12 -6t5.5 -9.5q0 -10 -11.5 -18t-27.5 -8q-11 0 -17 6.5t-6 17.5q0 3 0.5 6.5t0.5 5.5q-39 0 -80 -12t-79.5 -34t-70.5 -53t-51 -68q23 4 40 19t26 28t14 20t10 10.5t10.5 4t16.5 0.5q13 0 13 -4q0 -1 -3 -5t-7.5 -9.5t-9 -11.5t-7.5 -9
q-23 -27 -43.5 -40t-35.5 -18.5t-23.5 -6t-8.5 -1.5q-2 -28 8 -49t27.5 -35.5t40.5 -22t46 -7.5q12 0 34 3.5t43.5 11.5t37.5 20.5t16 30.5q0 11 -8.5 14t-18.5 3.5t-18.5 2t-8.5 8.5q0 11 9 11q8 0 17 -2t17.5 -6.5t14.5 -11t7 -16.5q0 -23 -16 -39.5t-40 -27.5t-51.5 -16
t-50.5 -5q-27 0 -53.5 9t-46 25.5t-29.5 41t-6 56.5zM560 383q-5 -4 -8.5 -8.5t-8.5 -9.5q59 16 59 44q0 2 -2 2h1q-2 0 -11.5 -4t-29.5 -24zM495 291q-2 -4 -2 -10q0 -2 1.5 -4t8.5 -2q3 0 10 1.5t7 5.5q0 5 -10.5 7.5t-14.5 1.5zM267 322q-37 0 -78 -3t-75.5 -15
t-57.5 -36.5t-23 -68.5q0 -23 14.5 -40t34.5 -27t42.5 -12.5t38.5 4.5q24 56 65.5 91t87.5 55t89.5 27t72.5 7q3 9 8 20q-51 -2 -103.5 -2h-115.5zM592 494q-3 2 -5.5 8.5t1.5 10.5q6 8 16 1q6 -4 9 -7q8 -7 14 -11t20 -11q2 -2 -1 -4t-5 -2q-14 2 -27.5 6t-21.5 9z" />
    <glyph glyph-name="Eacute" unicode="&#xc9;" horiz-adv-x="478" 
d="M157 102q-24 -3 -48.5 2t-45 17.5t-33.5 32.5t-13 47q0 52 31 82t79 45.5t106 20t112 4.5q29 0 55 -0.5t48 -0.5q20 0 34.5 1t22.5 4q7 11 16.5 25.5t21 28t25.5 23t31 10.5q2 0 7 -0.5t10.5 -4t9.5 -10.5t4 -20q0 -21 -11 -35.5t-28 -23.5t-37 -14t-38 -8q-1 0 -6 -7.5
t-10 -18.5l6 -0.5t12.5 -3t12 -6t5.5 -9.5q0 -10 -11.5 -18t-27.5 -8q-11 0 -17 6.5t-6 17.5q0 3 0.5 6.5t0.5 5.5q-39 0 -80 -12t-79.5 -34t-70.5 -53t-51 -68q23 4 40 19t26 28t14 20t10 10.5t10.5 4t16.5 0.5q13 0 13 -4q0 -1 -3 -5t-7.5 -9.5t-9 -11.5t-7.5 -9
q-23 -27 -43.5 -40t-35.5 -18.5t-23.5 -6t-8.5 -1.5q-2 -28 8 -49t27.5 -35.5t40.5 -22t46 -7.5q12 0 34 3.5t43.5 11.5t37.5 20.5t16 30.5q0 11 -8.5 14t-18.5 3.5t-18.5 2t-8.5 8.5q0 11 9 11q8 0 17 -2t17.5 -6.5t14.5 -11t7 -16.5q0 -23 -16 -39.5t-40 -27.5t-51.5 -16
t-50.5 -5q-27 0 -53.5 9t-46 25.5t-29.5 41t-6 56.5zM560 383q-5 -4 -8.5 -8.5t-8.5 -9.5q59 16 59 44q0 2 -2 2h1q-2 0 -11.5 -4t-29.5 -24zM495 291q-2 -4 -2 -10q0 -2 1.5 -4t8.5 -2q3 0 10 1.5t7 5.5q0 5 -10.5 7.5t-14.5 1.5zM267 322q-37 0 -78 -3t-75.5 -15
t-57.5 -36.5t-23 -68.5q0 -23 14.5 -40t34.5 -27t42.5 -12.5t38.5 4.5q24 56 65.5 91t87.5 55t89.5 27t72.5 7q3 9 8 20q-51 -2 -103.5 -2h-115.5zM633 497q-8 -5 -21.5 -9t-27.5 -6q-2 0 -5 2t-1 4q14 7 20 11t14 11q3 3 9 7q10 7 16 -1q4 -4 1.5 -10.5t-5.5 -8.5z" />
    <glyph glyph-name="Ecircumflex" unicode="&#xca;" horiz-adv-x="478" 
d="M157 102q-24 -3 -48.5 2t-45 17.5t-33.5 32.5t-13 47q0 52 31 82t79 45.5t106 20t112 4.5q29 0 55 -0.5t48 -0.5q20 0 34.5 1t22.5 4q7 11 16.5 25.5t21 28t25.5 23t31 10.5q2 0 7 -0.5t10.5 -4t9.5 -10.5t4 -20q0 -21 -11 -35.5t-28 -23.5t-37 -14t-38 -8q-1 0 -6 -7.5
t-10 -18.5l6 -0.5t12.5 -3t12 -6t5.5 -9.5q0 -10 -11.5 -18t-27.5 -8q-11 0 -17 6.5t-6 17.5q0 3 0.5 6.5t0.5 5.5q-39 0 -80 -12t-79.5 -34t-70.5 -53t-51 -68q23 4 40 19t26 28t14 20t10 10.5t10.5 4t16.5 0.5q13 0 13 -4q0 -1 -3 -5t-7.5 -9.5t-9 -11.5t-7.5 -9
q-23 -27 -43.5 -40t-35.5 -18.5t-23.5 -6t-8.5 -1.5q-2 -28 8 -49t27.5 -35.5t40.5 -22t46 -7.5q12 0 34 3.5t43.5 11.5t37.5 20.5t16 30.5q0 11 -8.5 14t-18.5 3.5t-18.5 2t-8.5 8.5q0 11 9 11q8 0 17 -2t17.5 -6.5t14.5 -11t7 -16.5q0 -23 -16 -39.5t-40 -27.5t-51.5 -16
t-50.5 -5q-27 0 -53.5 9t-46 25.5t-29.5 41t-6 56.5zM560 383q-5 -4 -8.5 -8.5t-8.5 -9.5q59 16 59 44q0 2 -2 2h1q-2 0 -11.5 -4t-29.5 -24zM495 291q-2 -4 -2 -10q0 -2 1.5 -4t8.5 -2q3 0 10 1.5t7 5.5q0 5 -10.5 7.5t-14.5 1.5zM267 322q-37 0 -78 -3t-75.5 -15
t-57.5 -36.5t-23 -68.5q0 -23 14.5 -40t34.5 -27t42.5 -12.5t38.5 4.5q24 56 65.5 91t87.5 55t89.5 27t72.5 7q3 9 8 20q-51 -2 -103.5 -2h-115.5zM623 524q2 0 6 -2l3 -5q4 -3 7 -9q6 -9 10.5 -14.5t15.5 -16.5q2 -2 -2 -3.5t-6 -0.5q-11 5 -22 12t-18 14q-9 -2 -22 -1
t-25 3q-2 1 -4 3.5t0 3.5q15 2 22 4.5t18 6.5q2 2 5 2.5t5 1.5l6 1h1v0z" />
    <glyph glyph-name="Edieresis" unicode="&#xcb;" horiz-adv-x="478" 
d="M157 102q-24 -3 -48.5 2t-45 17.5t-33.5 32.5t-13 47q0 52 31 82t79 45.5t106 20t112 4.5q29 0 55 -0.5t48 -0.5q20 0 34.5 1t22.5 4q7 11 16.5 25.5t21 28t25.5 23t31 10.5q2 0 7 -0.5t10.5 -4t9.5 -10.5t4 -20q0 -21 -11 -35.5t-28 -23.5t-37 -14t-38 -8q-1 0 -6 -7.5
t-10 -18.5l6 -0.5t12.5 -3t12 -6t5.5 -9.5q0 -10 -11.5 -18t-27.5 -8q-11 0 -17 6.5t-6 17.5q0 3 0.5 6.5t0.5 5.5q-39 0 -80 -12t-79.5 -34t-70.5 -53t-51 -68q23 4 40 19t26 28t14 20t10 10.5t10.5 4t16.5 0.5q13 0 13 -4q0 -1 -3 -5t-7.5 -9.5t-9 -11.5t-7.5 -9
q-23 -27 -43.5 -40t-35.5 -18.5t-23.5 -6t-8.5 -1.5q-2 -28 8 -49t27.5 -35.5t40.5 -22t46 -7.5q12 0 34 3.5t43.5 11.5t37.5 20.5t16 30.5q0 11 -8.5 14t-18.5 3.5t-18.5 2t-8.5 8.5q0 11 9 11q8 0 17 -2t17.5 -6.5t14.5 -11t7 -16.5q0 -23 -16 -39.5t-40 -27.5t-51.5 -16
t-50.5 -5q-27 0 -53.5 9t-46 25.5t-29.5 41t-6 56.5zM560 383q-5 -4 -8.5 -8.5t-8.5 -9.5q59 16 59 44q0 2 -2 2h1q-2 0 -11.5 -4t-29.5 -24zM495 291q-2 -4 -2 -10q0 -2 1.5 -4t8.5 -2q3 0 10 1.5t7 5.5q0 5 -10.5 7.5t-14.5 1.5zM267 322q-37 0 -78 -3t-75.5 -15
t-57.5 -36.5t-23 -68.5q0 -23 14.5 -40t34.5 -27t42.5 -12.5t38.5 4.5q24 56 65.5 91t87.5 55t89.5 27t72.5 7q3 9 8 20q-51 -2 -103.5 -2h-115.5zM641 501q-9 -17 -14.5 -12t0.5 22q5 8 11 4q9 -4 3 -14zM615 501q-9 -17 -14.5 -12t0.5 22q5 8 11 4q9 -4 3 -14z" />
    <glyph glyph-name="Igrave" unicode="&#xcc;" horiz-adv-x="132" 
d="M18 32q7 20 24.5 54t41.5 74.5t51.5 82t52.5 75t45 55t30 21.5q5 0 9 -11.5t4 -18.5q0 -4 -6.5 -10.5t-12.5 -14.5q-4 -5 -22.5 -27.5t-44.5 -55t-54.5 -71t-53 -74t-40.5 -64t-16 -41.5q0 -5 3 -6.5t6.5 -1.5t6.5 -0.5t3 -3.5q0 -2 -3 -3.5t-6 -1.5h-3.5t-7.5 1.5
t-7 5.5t-3 13q0 12 3 23zM271 438q-3 2 -5.5 8.5t1.5 10.5q6 8 16 1q6 -4 9 -7q8 -7 14 -11t20 -11q2 -2 -1 -4t-5 -2q-14 2 -27.5 6t-21.5 9z" />
    <glyph glyph-name="Iacute" unicode="&#xcd;" horiz-adv-x="132" 
d="M18 32q7 20 24.5 54t41.5 74.5t51.5 82t52.5 75t45 55t30 21.5q5 0 9 -11.5t4 -18.5q0 -4 -6.5 -10.5t-12.5 -14.5q-4 -5 -22.5 -27.5t-44.5 -55t-54.5 -71t-53 -74t-40.5 -64t-16 -41.5q0 -5 3 -6.5t6.5 -1.5t6.5 -0.5t3 -3.5q0 -2 -3 -3.5t-6 -1.5h-3.5t-7.5 1.5
t-7 5.5t-3 13q0 12 3 23zM328 430q-8 -5 -21.5 -9t-27.5 -6q-2 0 -5 2t-1 4q14 7 20 11t14 11q3 3 9 7q10 7 16 -1q4 -4 1.5 -10.5t-5.5 -8.5z" />
    <glyph glyph-name="Icircumflex" unicode="&#xce;" horiz-adv-x="132" 
d="M18 32q7 20 24.5 54t41.5 74.5t51.5 82t52.5 75t45 55t30 21.5q5 0 9 -11.5t4 -18.5q0 -4 -6.5 -10.5t-12.5 -14.5q-4 -5 -22.5 -27.5t-44.5 -55t-54.5 -71t-53 -74t-40.5 -64t-16 -41.5q0 -5 3 -6.5t6.5 -1.5t6.5 -0.5t3 -3.5q0 -2 -3 -3.5t-6 -1.5h-3.5t-7.5 1.5
t-7 5.5t-3 13q0 12 3 23zM306 464q2 0 6 -2l3 -5q4 -3 7 -9q6 -9 10.5 -14.5t15.5 -16.5q2 -2 -2 -3.5t-6 -0.5q-11 5 -22 12t-18 14q-9 -2 -22 -1t-25 3q-2 1 -4 3.5t0 3.5q15 2 22 4.5t18 6.5q2 2 5 2.5t5 1.5l6 1h1z" />
    <glyph glyph-name="Idieresis" unicode="&#xcf;" horiz-adv-x="132" 
d="M18 32q7 20 24.5 54t41.5 74.5t51.5 82t52.5 75t45 55t30 21.5q5 0 9 -11.5t4 -18.5q0 -4 -6.5 -10.5t-12.5 -14.5q-4 -5 -22.5 -27.5t-44.5 -55t-54.5 -71t-53 -74t-40.5 -64t-16 -41.5q0 -5 3 -6.5t6.5 -1.5t6.5 -0.5t3 -3.5q0 -2 -3 -3.5t-6 -1.5h-3.5t-7.5 1.5
t-7 5.5t-3 13q0 12 3 23zM307 437q-9 -17 -14.5 -12t0.5 22q5 8 11 4q9 -4 3 -14zM281 437q-9 -17 -14.5 -12t0.5 22q5 8 11 4q9 -4 3 -14z" />
    <glyph glyph-name="Eth" unicode="&#xd0;" horiz-adv-x="428" 
d="M92 139q-6 0 -8.5 1t-2.5 9q0 6 1.5 9.5t9.5 3.5h49q6 8 12 18.5t13 21.5q-16 11 -24.5 29.5t-8.5 38.5q0 40 25.5 74t63.5 59t83 39t84 14q36 0 55.5 -14.5t28 -33.5t10 -38t1.5 -29q0 -61 -30.5 -123.5t-79.5 -114t-111 -85.5t-126 -38q-51 2 -84.5 28.5t-33.5 73.5
q0 30 12 53t30 38.5t38.5 24t37.5 8.5q5 0 5 -5q0 -7 -8 -7q-5 0 -21.5 -4.5t-34.5 -16.5t-32 -33t-14 -54q0 -42 29.5 -67t71.5 -25q59 0 115 34t100 87t71 116t27 122q0 15 -2 29t-9 24.5t-19 17t-32 6.5q-7 0 -12 -1t-16 -1q-36 -7 -73 -20.5t-67.5 -33.5t-49.5 -46.5
t-19 -59.5t26 -56l9 14q41 60 60.5 92t29.5 46.5t16.5 16t20.5 1.5q4 0 4 -2q0 -4 -10 -16t-16 -21q-15 -22 -32 -46q-14 -20 -32.5 -45.5t-37.5 -48.5q12 -8 24 -10.5t22 -2.5q12 0 21 7t16 16t12 16t9 7q3 0 7.5 -1.5t4.5 -6.5q0 -21 -22.5 -35.5t-51.5 -12.5
q-11 1 -23.5 3.5t-25.5 10.5l-27 -32h50q6 0 8.5 -0.5t2.5 -8.5q0 -6 -1.5 -10t-9.5 -4h-69q-20 -25 -24.5 -29.5t-5.5 -4.5q-2 0 -2 2t6.5 10t17.5 22h-32v0z" />
    <glyph glyph-name="Ntilde" unicode="&#xd1;" horiz-adv-x="535" 
d="M17 67q1 50 31 90.5t73 60.5t92 14.5t88 -46.5q69 89 109 141.5t65.5 80.5t42.5 36t38 8q23 0 34.5 -12.5t3.5 -24.5q-4 -10 -17 -34.5t-32 -58.5t-42.5 -74t-48 -81.5t-47.5 -81.5t-42 -73q25 25 47.5 52.5t45.5 58t47 64.5t51 72l87 120q3 4 5.5 7.5t5.5 6.5t9 11
t15 15.5t20.5 13.5t24.5 6q18 0 26.5 -10.5t8.5 -15.5t-1 -10.5t-11 -3.5q-9 0 -12 2.5t-5 2.5h-4q-2 0 -6 -1.5t-11 -7.5t-16.5 -17t-23.5 -30l-26 -35q-22 -30 -50.5 -64.5t-58.5 -69t-58.5 -66t-51 -56t-36 -39.5l-13.5 -15q-3 -2 -5.5 -2.5t-4.5 -0.5q-10 0 -12 6
q-1 3 1 7q7 20 22.5 52.5t35 71.5t42 81t44 80.5t40 70t31.5 50.5q-2 1 -4 1.5t-11 0.5q-6 0 -15.5 -4t-23.5 -18q-13 -17 -34.5 -41t-47.5 -53.5t-56 -64.5t-61 -74q4 -14 8 -25t5 -24q0 -14 -5 -14q-15 3 -21 4.5t-8.5 4t-3 7.5t-3.5 14q-10 -11 -19.5 -22.5t-20.5 -22.5
q-4 -5 -19 -21.5t-37 -35.5t-48 -33.5t-53 -14.5q-30 0 -51.5 21.5t-21.5 62.5zM276 155q-17 26 -42 38.5t-52.5 13t-54.5 -9.5t-49 -28.5t-35.5 -44.5t-13.5 -57q0 -10 3 -22t9 -22.5t16 -18t25 -7.5q19 0 37 8t36 22t36.5 32t38.5 39q12 14 23 28.5t23 28.5zM643 503
q-7 3 -13 2t-14 -1q-3 0 -6 4t3 9q2 1 4.5 1.5t7.5 0.5q8 0 12.5 -2.5t9.5 -6.5q7 -5 16.5 -10t17.5 -6q11 2 15.5 2t5.5 -5q0 -6 -6 -8t-14 -2q-11 0 -17 7.5t-22 14.5z" />
    <glyph glyph-name="Ograve" unicode="&#xd2;" horiz-adv-x="410" 
d="M380 325q-1 -8 -5 -20.5t-11 -19.5q13 -9 26.5 -17t27.5 -12v2q5 10 5.5 25t0.5 29q0 22 -5.5 39.5t-14.5 29.5q-27 32 -71 32q-17 0 -36.5 -5t-38 -12t-34 -15t-25.5 -13h-5t-9 2.5t-5 8.5t7 17q0 1 10 9t27.5 17.5t42.5 18t56 9.5h1q24 0 46 -9t38 -24.5t25.5 -37.5
t9.5 -48q0 -29 -2.5 -44t-6.5 -35q19 -5 33 2.5t23.5 18.5t16 21.5t11.5 10.5q3 0 6 -1.5t3 -4.5q0 -4 -2.5 -8t-4.5 -8q-14 -24 -37.5 -36.5t-52.5 -7.5q-10 -31 -26 -63t-38 -61q-17 -23 -42.5 -51t-57.5 -52.5t-69 -41.5t-76 -17q-33 0 -51.5 14.5t-28 34.5t-11.5 42
t-2 37q0 46 19.5 94.5t52.5 91t75.5 75t87.5 48.5q24 9 47 11t39.5 -5t25.5 -24t5 -47zM417 241q-16 3 -33 11t-31 19q-5 -3 -9 -6t-8.5 -5.5t-11 -5t-18.5 -3.5q-8 -2 -17.5 -0.5t-17.5 6.5t-13 13.5t-5 20.5q0 18 11.5 27t23.5 9q17 0 30 -8.5t22 -16.5q6 6 7.5 15.5
t1.5 15.5q0 16 -7.5 23.5t-18.5 9.5t-24.5 -0.5t-25.5 -6.5q1 0 -13.5 -5.5t-36.5 -19t-49 -34.5t-51.5 -51.5t-44 -71t-25.5 -92.5q0 -21 2.5 -41t10 -35.5t21.5 -24.5t36 -9q45 0 91 26t86 65.5t71 86t46 88.5zM328 288q-9 5 -18.5 11t-20.5 6q-5 0 -8.5 -3t-3.5 -9
q0 -9 7 -12t18 -3q8 1 14.5 3t11.5 7zM378 501q-3 2 -5.5 8.5t1.5 10.5q6 8 16 1q6 -4 9 -7q8 -7 14 -11t20 -11q2 -2 -1 -4t-5 -2q-14 2 -27.5 6t-21.5 9z" />
    <glyph glyph-name="Oacute" unicode="&#xd3;" horiz-adv-x="410" 
d="M380 325q-1 -8 -5 -20.5t-11 -19.5q13 -9 26.5 -17t27.5 -12v2q5 10 5.5 25t0.5 29q0 22 -5.5 39.5t-14.5 29.5q-27 32 -71 32q-17 0 -36.5 -5t-38 -12t-34 -15t-25.5 -13h-5t-9 2.5t-5 8.5t7 17q0 1 10 9t27.5 17.5t42.5 18t56 9.5h1q24 0 46 -9t38 -24.5t25.5 -37.5
t9.5 -48q0 -29 -2.5 -44t-6.5 -35q19 -5 33 2.5t23.5 18.5t16 21.5t11.5 10.5q3 0 6 -1.5t3 -4.5q0 -4 -2.5 -8t-4.5 -8q-14 -24 -37.5 -36.5t-52.5 -7.5q-10 -31 -26 -63t-38 -61q-17 -23 -42.5 -51t-57.5 -52.5t-69 -41.5t-76 -17q-33 0 -51.5 14.5t-28 34.5t-11.5 42
t-2 37q0 46 19.5 94.5t52.5 91t75.5 75t87.5 48.5q24 9 47 11t39.5 -5t25.5 -24t5 -47zM417 241q-16 3 -33 11t-31 19q-5 -3 -9 -6t-8.5 -5.5t-11 -5t-18.5 -3.5q-8 -2 -17.5 -0.5t-17.5 6.5t-13 13.5t-5 20.5q0 18 11.5 27t23.5 9q17 0 30 -8.5t22 -16.5q6 6 7.5 15.5
t1.5 15.5q0 16 -7.5 23.5t-18.5 9.5t-24.5 -0.5t-25.5 -6.5q1 0 -13.5 -5.5t-36.5 -19t-49 -34.5t-51.5 -51.5t-44 -71t-25.5 -92.5q0 -21 2.5 -41t10 -35.5t21.5 -24.5t36 -9q45 0 91 26t86 65.5t71 86t46 88.5zM328 288q-9 5 -18.5 11t-20.5 6q-5 0 -8.5 -3t-3.5 -9
q0 -9 7 -12t18 -3q8 1 14.5 3t11.5 7zM427 496q-8 -5 -21.5 -9t-27.5 -6q-2 0 -5 2t-1 4q14 7 20 11t14 11q3 3 9 7q10 7 16 -1q4 -4 1.5 -10.5t-5.5 -8.5z" />
    <glyph glyph-name="Ocircumflex" unicode="&#xd4;" horiz-adv-x="410" 
d="M380 325q-1 -8 -5 -20.5t-11 -19.5q13 -9 26.5 -17t27.5 -12v2q5 10 5.5 25t0.5 29q0 22 -5.5 39.5t-14.5 29.5q-27 32 -71 32q-17 0 -36.5 -5t-38 -12t-34 -15t-25.5 -13h-5t-9 2.5t-5 8.5t7 17q0 1 10 9t27.5 17.5t42.5 18t56 9.5h1q24 0 46 -9t38 -24.5t25.5 -37.5
t9.5 -48q0 -29 -2.5 -44t-6.5 -35q19 -5 33 2.5t23.5 18.5t16 21.5t11.5 10.5q3 0 6 -1.5t3 -4.5q0 -4 -2.5 -8t-4.5 -8q-14 -24 -37.5 -36.5t-52.5 -7.5q-10 -31 -26 -63t-38 -61q-17 -23 -42.5 -51t-57.5 -52.5t-69 -41.5t-76 -17q-33 0 -51.5 14.5t-28 34.5t-11.5 42
t-2 37q0 46 19.5 94.5t52.5 91t75.5 75t87.5 48.5q24 9 47 11t39.5 -5t25.5 -24t5 -47zM417 241q-16 3 -33 11t-31 19q-5 -3 -9 -6t-8.5 -5.5t-11 -5t-18.5 -3.5q-8 -2 -17.5 -0.5t-17.5 6.5t-13 13.5t-5 20.5q0 18 11.5 27t23.5 9q17 0 30 -8.5t22 -16.5q6 6 7.5 15.5
t1.5 15.5q0 16 -7.5 23.5t-18.5 9.5t-24.5 -0.5t-25.5 -6.5q1 0 -13.5 -5.5t-36.5 -19t-49 -34.5t-51.5 -51.5t-44 -71t-25.5 -92.5q0 -21 2.5 -41t10 -35.5t21.5 -24.5t36 -9q45 0 91 26t86 65.5t71 86t46 88.5zM328 288q-9 5 -18.5 11t-20.5 6q-5 0 -8.5 -3t-3.5 -9
q0 -9 7 -12t18 -3q8 1 14.5 3t11.5 7zM413 521q2 0 6 -2l3 -5q4 -3 7 -9q6 -9 10.5 -14.5t15.5 -16.5q2 -2 -2 -3.5t-6 -0.5q-11 5 -22 12t-18 14q-9 -2 -22 -1t-25 3q-2 1 -4 3.5t0 3.5q15 2 22 4.5t18 6.5q2 2 5 2.5t5 1.5l6 1h1v0z" />
    <glyph glyph-name="Otilde" unicode="&#xd5;" horiz-adv-x="410" 
d="M380 325q-1 -8 -5 -20.5t-11 -19.5q13 -9 26.5 -17t27.5 -12v2q5 10 5.5 25t0.5 29q0 22 -5.5 39.5t-14.5 29.5q-27 32 -71 32q-17 0 -36.5 -5t-38 -12t-34 -15t-25.5 -13h-5t-9 2.5t-5 8.5t7 17q0 1 10 9t27.5 17.5t42.5 18t56 9.5h1q24 0 46 -9t38 -24.5t25.5 -37.5
t9.5 -48q0 -29 -2.5 -44t-6.5 -35q19 -5 33 2.5t23.5 18.5t16 21.5t11.5 10.5q3 0 6 -1.5t3 -4.5q0 -4 -2.5 -8t-4.5 -8q-14 -24 -37.5 -36.5t-52.5 -7.5q-10 -31 -26 -63t-38 -61q-17 -23 -42.5 -51t-57.5 -52.5t-69 -41.5t-76 -17q-33 0 -51.5 14.5t-28 34.5t-11.5 42
t-2 37q0 46 19.5 94.5t52.5 91t75.5 75t87.5 48.5q24 9 47 11t39.5 -5t25.5 -24t5 -47zM417 241q-16 3 -33 11t-31 19q-5 -3 -9 -6t-8.5 -5.5t-11 -5t-18.5 -3.5q-8 -2 -17.5 -0.5t-17.5 6.5t-13 13.5t-5 20.5q0 18 11.5 27t23.5 9q17 0 30 -8.5t22 -16.5q6 6 7.5 15.5
t1.5 15.5q0 16 -7.5 23.5t-18.5 9.5t-24.5 -0.5t-25.5 -6.5q1 0 -13.5 -5.5t-36.5 -19t-49 -34.5t-51.5 -51.5t-44 -71t-25.5 -92.5q0 -21 2.5 -41t10 -35.5t21.5 -24.5t36 -9q45 0 91 26t86 65.5t71 86t46 88.5zM328 288q-9 5 -18.5 11t-20.5 6q-5 0 -8.5 -3t-3.5 -9
q0 -9 7 -12t18 -3q8 1 14.5 3t11.5 7zM397 504q-7 3 -13 2t-14 -1q-3 0 -6 4t3 9q2 1 4.5 1.5t7.5 0.5q8 0 12.5 -2.5t9.5 -6.5q7 -5 16.5 -10t17.5 -6q11 2 15.5 2t5.5 -5q0 -6 -6 -8t-14 -2q-11 0 -17 7.5t-22 14.5z" />
    <glyph glyph-name="Odieresis" unicode="&#xd6;" horiz-adv-x="410" 
d="M380 325q-1 -8 -5 -20.5t-11 -19.5q13 -9 26.5 -17t27.5 -12v2q5 10 5.5 25t0.5 29q0 22 -5.5 39.5t-14.5 29.5q-27 32 -71 32q-17 0 -36.5 -5t-38 -12t-34 -15t-25.5 -13h-5t-9 2.5t-5 8.5t7 17q0 1 10 9t27.5 17.5t42.5 18t56 9.5h1q24 0 46 -9t38 -24.5t25.5 -37.5
t9.5 -48q0 -29 -2.5 -44t-6.5 -35q19 -5 33 2.5t23.5 18.5t16 21.5t11.5 10.5q3 0 6 -1.5t3 -4.5q0 -4 -2.5 -8t-4.5 -8q-14 -24 -37.5 -36.5t-52.5 -7.5q-10 -31 -26 -63t-38 -61q-17 -23 -42.5 -51t-57.5 -52.5t-69 -41.5t-76 -17q-33 0 -51.5 14.5t-28 34.5t-11.5 42
t-2 37q0 46 19.5 94.5t52.5 91t75.5 75t87.5 48.5q24 9 47 11t39.5 -5t25.5 -24t5 -47zM417 241q-16 3 -33 11t-31 19q-5 -3 -9 -6t-8.5 -5.5t-11 -5t-18.5 -3.5q-8 -2 -17.5 -0.5t-17.5 6.5t-13 13.5t-5 20.5q0 18 11.5 27t23.5 9q17 0 30 -8.5t22 -16.5q6 6 7.5 15.5
t1.5 15.5q0 16 -7.5 23.5t-18.5 9.5t-24.5 -0.5t-25.5 -6.5q1 0 -13.5 -5.5t-36.5 -19t-49 -34.5t-51.5 -51.5t-44 -71t-25.5 -92.5q0 -21 2.5 -41t10 -35.5t21.5 -24.5t36 -9q45 0 91 26t86 65.5t71 86t46 88.5zM328 288q-9 5 -18.5 11t-20.5 6q-5 0 -8.5 -3t-3.5 -9
q0 -9 7 -12t18 -3q8 1 14.5 3t11.5 7zM423 498q-9 -17 -14.5 -12t0.5 22q5 8 11 4q9 -4 3 -14zM397 498q-9 -17 -14.5 -12t0.5 22q5 8 11 4q9 -4 3 -14z" />
    <glyph glyph-name="multiply" unicode="&#xd7;" horiz-adv-x="128" 
d="M109 160q6 -8 -4 -17q-4 -5 -8 -6.5t-9 4.5q-2 2 -9 10t-17 22q-16 -12 -24 -18.5t-12 -9.5t-5.5 -2.5t-3.5 2.5q-4 5 -5.5 13t1.5 13q2 1 13.5 9t17.5 12q-9 10 -15 16.5t-8 8.5q-8 8 2 17q5 5 8.5 6.5t9.5 -4.5l8.5 -8.5t17.5 -20.5q15 12 22.5 18.5t11.5 8.5t5.5 1.5
t3.5 -2.5q2 -3 5 -10.5t0 -12.5q-2 -2 -9 -8t-22 -16q10 -10 16.5 -17t8.5 -9z" />
    <glyph glyph-name="Oslash" unicode="&#xd8;" horiz-adv-x="410" 
d="M399 503q11 0 13.5 -7t3.5 -12l-10 -10t-10 -12q26 -14 42.5 -41t16.5 -62q0 -29 -2.5 -44t-6.5 -35q19 -5 33 2.5t23.5 18.5t16 21.5t11.5 10.5q3 0 6 -1.5t3 -4.5q0 -4 -2.5 -8t-4.5 -8q-14 -24 -37.5 -36.5t-52.5 -7.5q-10 -31 -26 -63t-38 -61q-17 -23 -42.5 -51
t-57.5 -52.5t-69 -41.5t-76 -17q-8 0 -18 2q-6 -12 -9 -21q-1 -2 -5 1.5t-2 7.5l5 14q-23 6 -36 21t-19 33.5t-7.5 37.5t-1.5 32q0 46 19.5 94.5t52.5 91t75.5 75t87.5 48.5q29 10 52 11l8 11q-17 -1 -35 -6.5t-34.5 -12t-31 -13.5t-23.5 -12h-5t-9 2.5t-5 8.5t7 17
q0 1 10 9t27.5 17.5t42.5 18t56 9.5h1q12 0 26 -3q11 13 20 20.5t17 7.5zM429 269q-16 3 -33 11t-31 19q-5 -3 -9 -6t-8.5 -5.5t-11 -5t-18.5 -3.5q-10 -2 -20.5 0t-18.5 8q-23 -39 -45.5 -78.5t-42.5 -77t-37 -70.5t-29 -58h10q45 0 91 26t86 65.5t71 86t46 88.5zM65 113
q0 -19 2 -36.5t7 -31.5t14.5 -24.5t24.5 -14.5q10 24 26.5 60t37 78.5t43 88t45.5 88.5q0 10 4.5 16.5t10.5 11.5q6 11 12.5 21.5t12.5 21.5q-9 -1 -20 -5q1 0 -13.5 -5.5t-36.5 -19t-49 -34.5t-51.5 -51.5t-44 -71t-25.5 -92.5zM392 353q-1 -8 -5 -20.5t-11 -19.5
q13 -9 26.5 -17t27.5 -12v2q5 10 5.5 25t0.5 29q0 22 -5.5 39.5t-14.5 29.5q-18 20 -41 27l-10 -14q15 -8 22.5 -24.5t4.5 -44.5zM361 361q0 12 -4.5 19t-12.5 11l-26 -40q11 -4 19 -10t15 -11q6 6 7.5 15.5t1.5 15.5zM340 316q-8 4 -16.5 9t-17.5 7l-13 -21q5 -5 21 -5
q8 1 14.5 3t11.5 7z" />
    <glyph glyph-name="Ugrave" unicode="&#xd9;" horiz-adv-x="321" 
d="M476 352q-11 -13 -26.5 -30t-37.5 -42l-86 -97q-20 -22 -35.5 -40.5t-29.5 -38.5l-11 -15q-15 -25 -24.5 -41t-9.5 -26q0 -6 9 -6h1q17 0 28.5 10t19.5 22t13.5 22.5t10.5 10.5q8 0 8 -5q0 -4 -2.5 -8t-4.5 -8q-11 -23 -29.5 -40.5t-45.5 -19.5q-6 0 -16 4t-10 22
q0 22 13.5 45t24.5 40q-26 -33 -52.5 -56.5t-50.5 -38.5t-44.5 -21.5t-35.5 -5.5h-6.5t-12 3t-12 10.5t-5.5 21.5q0 13 2 22.5t7.5 19t16.5 21.5t29 30q-28 11 -44 35.5t-16 58.5q0 36 15.5 77.5t43 77t64.5 58.5t80 23q33 0 43 -16.5t10 -36.5q-3 -32 -17.5 -65.5
t-34.5 -66t-43.5 -62.5t-42.5 -54q10 0 10 -2q-1 -23 -4.5 -27.5t-8.5 -5.5t-8.5 -0.5t-16.5 -0.5q-5 -6 -13.5 -16.5t-16.5 -22t-13.5 -22.5t-4.5 -20q0 -5 5 -12t17.5 -8t34 8.5t56.5 38.5q34 37 73 79.5t77 85t73 82t62.5 69.5l44 48t18.5 18q1 0 4.5 -7.5t3.5 -19.5
q0 -9 -12 -22.5t-35 -36.5zM68 164q15 -12 31 -15q13 15 38 44.5t50.5 65.5t44.5 73t19 67q0 12 -6.5 22.5t-34.5 11.5q-30 1 -59 -17.5t-52 -47.5t-38 -63t-17 -65q0 -23 5 -43t19 -33zM392 497q-3 2 -5.5 8.5t1.5 10.5q6 8 16 1q6 -4 9 -7q8 -7 14 -11t20 -11q2 -2 -1 -4
t-5 -2q-14 2 -27.5 6t-21.5 9z" />
    <glyph glyph-name="Uacute" unicode="&#xda;" horiz-adv-x="321" 
d="M476 352q-11 -13 -26.5 -30t-37.5 -42l-86 -97q-20 -22 -35.5 -40.5t-29.5 -38.5l-11 -15q-15 -25 -24.5 -41t-9.5 -26q0 -6 9 -6h1q17 0 28.5 10t19.5 22t13.5 22.5t10.5 10.5q8 0 8 -5q0 -4 -2.5 -8t-4.5 -8q-11 -23 -29.5 -40.5t-45.5 -19.5q-6 0 -16 4t-10 22
q0 22 13.5 45t24.5 40q-26 -33 -52.5 -56.5t-50.5 -38.5t-44.5 -21.5t-35.5 -5.5h-6.5t-12 3t-12 10.5t-5.5 21.5q0 13 2 22.5t7.5 19t16.5 21.5t29 30q-28 11 -44 35.5t-16 58.5q0 36 15.5 77.5t43 77t64.5 58.5t80 23q33 0 43 -16.5t10 -36.5q-3 -32 -17.5 -65.5
t-34.5 -66t-43.5 -62.5t-42.5 -54q10 0 10 -2q-1 -23 -4.5 -27.5t-8.5 -5.5t-8.5 -0.5t-16.5 -0.5q-5 -6 -13.5 -16.5t-16.5 -22t-13.5 -22.5t-4.5 -20q0 -5 5 -12t17.5 -8t34 8.5t56.5 38.5q34 37 73 79.5t77 85t73 82t62.5 69.5l44 48t18.5 18q1 0 4.5 -7.5t3.5 -19.5
q0 -9 -12 -22.5t-35 -36.5zM68 164q15 -12 31 -15q13 15 38 44.5t50.5 65.5t44.5 73t19 67q0 12 -6.5 22.5t-34.5 11.5q-30 1 -59 -17.5t-52 -47.5t-38 -63t-17 -65q0 -23 5 -43t19 -33zM440 501q-8 -5 -21.5 -9t-27.5 -6q-2 0 -5 2t-1 4q14 7 20 11t14 11q3 3 9 7
q10 7 16 -1q4 -4 1.5 -10.5t-5.5 -8.5z" />
    <glyph glyph-name="Ucircumflex" unicode="&#xdb;" horiz-adv-x="321" 
d="M476 352q-11 -13 -26.5 -30t-37.5 -42l-86 -97q-20 -22 -35.5 -40.5t-29.5 -38.5l-11 -15q-15 -25 -24.5 -41t-9.5 -26q0 -6 9 -6h1q17 0 28.5 10t19.5 22t13.5 22.5t10.5 10.5q8 0 8 -5q0 -4 -2.5 -8t-4.5 -8q-11 -23 -29.5 -40.5t-45.5 -19.5q-6 0 -16 4t-10 22
q0 22 13.5 45t24.5 40q-26 -33 -52.5 -56.5t-50.5 -38.5t-44.5 -21.5t-35.5 -5.5h-6.5t-12 3t-12 10.5t-5.5 21.5q0 13 2 22.5t7.5 19t16.5 21.5t29 30q-28 11 -44 35.5t-16 58.5q0 36 15.5 77.5t43 77t64.5 58.5t80 23q33 0 43 -16.5t10 -36.5q-3 -32 -17.5 -65.5
t-34.5 -66t-43.5 -62.5t-42.5 -54q10 0 10 -2q-1 -23 -4.5 -27.5t-8.5 -5.5t-8.5 -0.5t-16.5 -0.5q-5 -6 -13.5 -16.5t-16.5 -22t-13.5 -22.5t-4.5 -20q0 -5 5 -12t17.5 -8t34 8.5t56.5 38.5q34 37 73 79.5t77 85t73 82t62.5 69.5l44 48t18.5 18q1 0 4.5 -7.5t3.5 -19.5
q0 -9 -12 -22.5t-35 -36.5zM68 164q15 -12 31 -15q13 15 38 44.5t50.5 65.5t44.5 73t19 67q0 12 -6.5 22.5t-34.5 11.5q-30 1 -59 -17.5t-52 -47.5t-38 -63t-17 -65q0 -23 5 -43t19 -33zM416 520q2 0 6 -2l3 -5q4 -3 7 -9q6 -9 10.5 -14.5t15.5 -16.5q2 -2 -2 -3.5t-6 -0.5
q-11 5 -22 12t-18 14q-9 -2 -22 -1t-25 3q-2 1 -4 3.5t0 3.5q15 2 22 4.5t18 6.5q2 2 5 2.5t5 1.5l6 1h1v0z" />
    <glyph glyph-name="Udieresis" unicode="&#xdc;" horiz-adv-x="321" 
d="M476 352q-11 -13 -26.5 -30t-37.5 -42l-86 -97q-20 -22 -35.5 -40.5t-29.5 -38.5l-11 -15q-15 -25 -24.5 -41t-9.5 -26q0 -6 9 -6h1q17 0 28.5 10t19.5 22t13.5 22.5t10.5 10.5q8 0 8 -5q0 -4 -2.5 -8t-4.5 -8q-11 -23 -29.5 -40.5t-45.5 -19.5q-6 0 -16 4t-10 22
q0 22 13.5 45t24.5 40q-26 -33 -52.5 -56.5t-50.5 -38.5t-44.5 -21.5t-35.5 -5.5h-6.5t-12 3t-12 10.5t-5.5 21.5q0 13 2 22.5t7.5 19t16.5 21.5t29 30q-28 11 -44 35.5t-16 58.5q0 36 15.5 77.5t43 77t64.5 58.5t80 23q33 0 43 -16.5t10 -36.5q-3 -32 -17.5 -65.5
t-34.5 -66t-43.5 -62.5t-42.5 -54q10 0 10 -2q-1 -23 -4.5 -27.5t-8.5 -5.5t-8.5 -0.5t-16.5 -0.5q-5 -6 -13.5 -16.5t-16.5 -22t-13.5 -22.5t-4.5 -20q0 -5 5 -12t17.5 -8t34 8.5t56.5 38.5q34 37 73 79.5t77 85t73 82t62.5 69.5l44 48t18.5 18q1 0 4.5 -7.5t3.5 -19.5
q0 -9 -12 -22.5t-35 -36.5zM68 164q15 -12 31 -15q13 15 38 44.5t50.5 65.5t44.5 73t19 67q0 12 -6.5 22.5t-34.5 11.5q-30 1 -59 -17.5t-52 -47.5t-38 -63t-17 -65q0 -23 5 -43t19 -33zM433 501q-9 -17 -14.5 -12t0.5 22q5 8 11 4q9 -4 3 -14zM407 501q-9 -17 -14.5 -12
t0.5 22q5 8 11 4q9 -4 3 -14z" />
    <glyph glyph-name="Yacute" unicode="&#xdd;" horiz-adv-x="312" 
d="M214 45q-4 -8 -5.5 -14t-1.5 -9q0 -6 9 -6q12 0 23.5 9t21.5 20t17.5 20t10.5 9t3 -4v-3q0 -3 -3 -7q-6 -11 -15.5 -21.5t-20 -19t-21.5 -13t-19 -4.5q-5 0 -13.5 2t-8.5 12q-8 -12 -18 -26t-23 -31q33 -14 76.5 -21.5t87.5 -11.5t84.5 -3.5t67.5 3.5q4 0 4 -3
q-10 -13 -18.5 -20.5t-19.5 -11t-26.5 -4.5t-40.5 -1t-55.5 4t-62 11t-61.5 16.5t-54 19.5q-59 -69 -120.5 -104.5t-134.5 -39.5q-16 -1 -37 3.5t-39.5 13.5t-31 22.5t-11.5 31.5q1 32 23 54t56 35.5t75 19.5t81 7t73.5 -3t51.5 -11q1 0 1 -0.5t1 -0.5q19 24 35 47.5
t30 44.5q-15 -11 -34 -23t-38 -22t-37.5 -16.5t-31.5 -6.5l-6 0.5t-12.5 3.5t-12 10t-5.5 21q0 17 3 24t12.5 17t26 28t43.5 56q-30 12 -45 40t-15 61t18 73t46.5 74.5t64.5 57.5t73 23q30 0 41.5 -15.5t11.5 -37.5q-2 -25 -15.5 -57t-32.5 -65.5t-42 -65.5t-45 -56
q14 0 16.5 -5.5t2.5 -8.5q0 -18 -12.5 -21t-36.5 -4q-15 -19 -25.5 -31.5t-18.5 -22t-14.5 -17.5t-13.5 -17q-5 -8 -8 -14q-2 -5 -3.5 -9.5t2.5 -5.5q8 -4 26.5 1t40 15.5t42 23.5t31.5 24l2 1q15 16 43.5 49t63 72.5t71 81.5t68 76.5t53.5 56.5t28 22q1 0 4.5 -7.5
t3.5 -19.5q0 -6 -7.5 -16t-28.5 -33.5t-59.5 -65.5t-101.5 -113q-31 -35 -56.5 -71t-51.5 -77zM65 268q0 -27 11.5 -53t43.5 -34q17 23 36.5 46.5t39.5 49.5q11 15 24 33.5t24.5 39t19 41t7.5 39.5v10t-4 11t-12.5 9t-25.5 4q-30 0 -59.5 -18t-53 -46.5t-37.5 -62.5t-14 -65
v-4zM-129 -191q34 -1 66.5 10.5t62 30t56 43.5t47.5 51q-16 8 -47.5 13.5t-68.5 5.5t-76 -5t-71 -16.5t-52 -30t-20 -45.5q0 -16 10.5 -26.5t26 -17.5t33.5 -10t33 -3zM429 497q-8 -5 -21.5 -9t-27.5 -6q-2 0 -5 2t-1 4q14 7 20 11t14 11q3 3 9 7q10 7 16 -1q4 -4 1.5 -10.5
t-5.5 -8.5z" />
    <glyph glyph-name="agrave" unicode="&#xe0;" 
d="M151 94q3 2 3.5 -2t-1 -10t-4.5 -13t-6 -10t-14 -13t-24.5 -20t-27 -18t-21.5 -8q-29 0 -26 23q1 2 3 6.5t5 9.5t7 10l-18 -16.5t-9.5 -8.5t-6 -5t-5.5 -5q-15 -13 -30 -14t-24 12q-7 13 5.5 38t33 51.5t44 50t38.5 32.5q12 8 24.5 11.5t26.5 -3.5q5 -2 8.5 -4t5.5 -1
l8 8q3 4 10 6t14 2.5t11.5 -1t2.5 -5.5q-32 -34 -64.5 -74t-57.5 -83q-2 -3 -5.5 -11.5t-0.5 -11.5q3 -5 9 -1q1 0 11 8t24 20t28 25.5t23 24.5zM-6 21q8 5 19.5 16t23 23t21.5 23.5t14 17.5q6 7 14 19t15 23.5t10.5 21t-0.5 11.5q-5 4 -8.5 3t-6.5 -3q-1 0 -7.5 -6
t-15.5 -15t-18.5 -19t-15.5 -19q-17 -23 -34 -45.5t-24 -42.5q-2 -7 2 -9q1 -1 4.5 -1t6.5 2zM130 233q-3 2 -5.5 8.5t1.5 10.5q6 8 16 1q6 -4 9 -7q8 -7 14 -11t20 -11q2 -2 -1 -4t-5 -2q-14 2 -27.5 6t-21.5 9z" />
    <glyph glyph-name="aacute" unicode="&#xe1;" 
d="M151 94q3 2 3.5 -2t-1 -10t-4.5 -13t-6 -10t-14 -13t-24.5 -20t-27 -18t-21.5 -8q-29 0 -26 23q1 2 3 6.5t5 9.5t7 10l-18 -16.5t-9.5 -8.5t-6 -5t-5.5 -5q-15 -13 -30 -14t-24 12q-7 13 5.5 38t33 51.5t44 50t38.5 32.5q12 8 24.5 11.5t26.5 -3.5q5 -2 8.5 -4t5.5 -1
l8 8q3 4 10 6t14 2.5t11.5 -1t2.5 -5.5q-32 -34 -64.5 -74t-57.5 -83q-2 -3 -5.5 -11.5t-0.5 -11.5q3 -5 9 -1q1 0 11 8t24 20t28 25.5t23 24.5zM-6 21q8 5 19.5 16t23 23t21.5 23.5t14 17.5q6 7 14 19t15 23.5t10.5 21t-0.5 11.5q-5 4 -8.5 3t-6.5 -3q-1 0 -7.5 -6
t-15.5 -15t-18.5 -19t-15.5 -19q-17 -23 -34 -45.5t-24 -42.5q-2 -7 2 -9q1 -1 4.5 -1t6.5 2zM179 233q-8 -5 -21.5 -9t-27.5 -6q-2 0 -5 2t-1 4q14 7 20 11t14 11q3 3 9 7q10 7 16 -1q4 -4 1.5 -10.5t-5.5 -8.5z" />
    <glyph glyph-name="acircumflex" unicode="&#xe2;" 
d="M151 94q3 2 3.5 -2t-1 -10t-4.5 -13t-6 -10t-14 -13t-24.5 -20t-27 -18t-21.5 -8q-29 0 -26 23q1 2 3 6.5t5 9.5t7 10l-18 -16.5t-9.5 -8.5t-6 -5t-5.5 -5q-15 -13 -30 -14t-24 12q-7 13 5.5 38t33 51.5t44 50t38.5 32.5q12 8 24.5 11.5t26.5 -3.5q5 -2 8.5 -4t5.5 -1
l8 8q3 4 10 6t14 2.5t11.5 -1t2.5 -5.5q-32 -34 -64.5 -74t-57.5 -83q-2 -3 -5.5 -11.5t-0.5 -11.5q3 -5 9 -1q1 0 11 8t24 20t28 25.5t23 24.5zM-6 21q8 5 19.5 16t23 23t21.5 23.5t14 17.5q6 7 14 19t15 23.5t10.5 21t-0.5 11.5q-5 4 -8.5 3t-6.5 -3q-1 0 -7.5 -6
t-15.5 -15t-18.5 -19t-15.5 -19q-17 -23 -34 -45.5t-24 -42.5q-2 -7 2 -9q1 -1 4.5 -1t6.5 2zM164 256q2 0 6 -2l3 -5q4 -3 7 -9q6 -9 10.5 -14.5t15.5 -16.5q2 -2 -2 -3.5t-6 -0.5q-11 5 -22 12t-18 14q-9 -2 -22 -1t-25 3q-2 1 -4 3.5t0 3.5q15 2 22 4.5t18 6.5q2 2 5 2.5
t5 1.5l6 1h1v0z" />
    <glyph glyph-name="atilde" unicode="&#xe3;" 
d="M151 94q3 2 3.5 -2t-1 -10t-4.5 -13t-6 -10t-14 -13t-24.5 -20t-27 -18t-21.5 -8q-29 0 -26 23q1 2 3 6.5t5 9.5t7 10l-18 -16.5t-9.5 -8.5t-6 -5t-5.5 -5q-15 -13 -30 -14t-24 12q-7 13 5.5 38t33 51.5t44 50t38.5 32.5q12 8 24.5 11.5t26.5 -3.5q5 -2 8.5 -4t5.5 -1
l8 8q3 4 10 6t14 2.5t11.5 -1t2.5 -5.5q-32 -34 -64.5 -74t-57.5 -83q-2 -3 -5.5 -11.5t-0.5 -11.5q3 -5 9 -1q1 0 11 8t24 20t28 25.5t23 24.5zM-6 21q8 5 19.5 16t23 23t21.5 23.5t14 17.5q6 7 14 19t15 23.5t10.5 21t-0.5 11.5q-5 4 -8.5 3t-6.5 -3q-1 0 -7.5 -6
t-15.5 -15t-18.5 -19t-15.5 -19q-17 -23 -34 -45.5t-24 -42.5q-2 -7 2 -9q1 -1 4.5 -1t6.5 2zM146 236q-7 3 -13 2t-14 -1q-3 0 -6 4t3 9q2 1 4.5 1.5t7.5 0.5q8 0 12.5 -2.5t9.5 -6.5q7 -5 16.5 -10t17.5 -6q11 2 15.5 2t5.5 -5q0 -6 -6 -8t-14 -2q-11 0 -17 7.5t-22 14.5z
" />
    <glyph glyph-name="adieresis" unicode="&#xe4;" 
d="M151 94q3 2 3.5 -2t-1 -10t-4.5 -13t-6 -10t-14 -13t-24.5 -20t-27 -18t-21.5 -8q-29 0 -26 23q1 2 3 6.5t5 9.5t7 10l-18 -16.5t-9.5 -8.5t-6 -5t-5.5 -5q-15 -13 -30 -14t-24 12q-7 13 5.5 38t33 51.5t44 50t38.5 32.5q12 8 24.5 11.5t26.5 -3.5q5 -2 8.5 -4t5.5 -1
l8 8q3 4 10 6t14 2.5t11.5 -1t2.5 -5.5q-32 -34 -64.5 -74t-57.5 -83q-2 -3 -5.5 -11.5t-0.5 -11.5q3 -5 9 -1q1 0 11 8t24 20t28 25.5t23 24.5zM-6 21q8 5 19.5 16t23 23t21.5 23.5t14 17.5q6 7 14 19t15 23.5t10.5 21t-0.5 11.5q-5 4 -8.5 3t-6.5 -3q-1 0 -7.5 -6
t-15.5 -15t-18.5 -19t-15.5 -19q-17 -23 -34 -45.5t-24 -42.5q-2 -7 2 -9q1 -1 4.5 -1t6.5 2zM183 239q-9 -17 -14.5 -12t0.5 22q5 8 11 4q9 -4 3 -14zM157 239q-9 -17 -14.5 -12t0.5 22q5 8 11 4q9 -4 3 -14z" />
    <glyph glyph-name="aring" unicode="&#xe5;" 
d="M151 94q3 2 3.5 -2t-1 -10t-4.5 -13t-6 -10t-14 -13t-24.5 -20t-27 -18t-21.5 -8q-29 0 -26 23q1 2 3 6.5t5 9.5t7 10l-18 -16.5t-9.5 -8.5t-6 -5t-5.5 -5q-15 -13 -30 -14t-24 12q-7 13 5.5 38t33 51.5t44 50t38.5 32.5q12 8 24.5 11.5t26.5 -3.5q5 -2 8.5 -4t5.5 -1
l8 8q3 4 10 6t14 2.5t11.5 -1t2.5 -5.5q-32 -34 -64.5 -74t-57.5 -83q-2 -3 -5.5 -11.5t-0.5 -11.5q3 -5 9 -1q1 0 11 8t24 20t28 25.5t23 24.5zM-6 21q8 5 19.5 16t23 23t21.5 23.5t14 17.5q6 7 14 19t15 23.5t10.5 21t-0.5 11.5q-5 4 -8.5 3t-6.5 -3q-1 0 -7.5 -6
t-15.5 -15t-18.5 -19t-15.5 -19q-17 -23 -34 -45.5t-24 -42.5q-2 -7 2 -9q1 -1 4.5 -1t6.5 2zM157 239q-9 -17 -14.5 -12t0.5 22q5 8 11 4q9 -4 3 -14zM151 237q3 4 -1 6q-2 2 -4 -2q-2 -7 0 -8.5t5 4.5z" />
    <glyph glyph-name="ae" unicode="&#xe6;" horiz-adv-x="193" 
d="M112 102q-14 -17 -24.5 -31t-14.5 -22q-5 -8 -6.5 -16.5t8.5 -15.5q4 -3 11.5 -3t15 1.5t14 4t9.5 4.5q21 12 36 30t32 40q5 2 4.5 -8t-10.5 -26q-9 -11 -14.5 -17.5t-10 -10.5t-8.5 -7t-10 -7q-7 -6 -18.5 -10.5t-24 -7t-24.5 -2t-20 5.5t-12 10q-8 -13 -16.5 -18.5
t-11.5 12.5q1 3 8.5 14t12.5 19l1 2q-9 -9 -14.5 -13.5t-8.5 -7t-5 -4t-5 -4.5q-15 -13 -30 -14t-24 12q-7 13 5.5 38t33 51.5t44 50t38.5 32.5q12 8 24.5 11.5t26.5 -3.5q5 -2 8.5 -4t5.5 -1l8 8q3 4 10 6t14 2.5t11.5 -1t2.5 -5.5l-1 -1q13 0 19 -4q8 -5 7 -14.5t-7 -19.5
q-17 -28 -40 -38t-50 -18zM-6 21q11 8 30 26t33 35q9 15 19 29t20 26q9 14 14 25t1 14q-5 4 -8.5 3t-6.5 -3q-1 0 -7.5 -6t-15.5 -15t-18.5 -19t-15.5 -19q-17 -23 -34 -45.5t-24 -42.5q-2 -7 2 -9q1 -1 4.5 -1t6.5 2zM169 169q-7 -7 -19.5 -21.5t-26.5 -31.5q12 5 27.5 13
t26.5 21q4 4 8 12.5t2 13.5q-2 6 -8.5 1.5t-9.5 -8.5z" />
    <glyph glyph-name="ccedilla" unicode="&#xe7;" horiz-adv-x="120" 
d="M113 65q-9 -11 -14.5 -17.5t-9.5 -10t-8 -6.5t-10 -8q-11 -8 -31.5 -15.5t-38.5 -7.5q-2 -4 -5.5 -12.5t-8 -18t-10 -18.5t-11.5 -13q-11 -8 -23 -1t-19.5 20t-8 27.5t10.5 22.5q3 2 11 4.5t8 -1.5q2 -5 -1 -8q-2 -2 -5.5 -1t-10.5 -4q-9 -6 -7.5 -17t8.5 -21t16.5 -15.5
t15.5 -0.5q8 5 13 15l9 18q5 10 6.5 15.5t3.5 8.5q-5 0 -8 1t-6 3q-11 6 -14 12.5t-4 9.5q-3 18 8 39q10 18 23 35t27 32t26.5 27t21.5 20q11 10 21.5 13t19 2.5t14.5 -4t8 -6.5q7 -12 -4 -23q-7 -10 -16.5 -18t-13.5 -10q-3 -2 -7.5 -1t-8.5 3.5t-6 5t0 4.5l8 4q4 2 10 5.5
t11 7t8.5 7.5t1.5 7q-4 6 -10 2.5t-9 -6.5q-8 -8 -22.5 -24.5t-30 -35.5t-29 -36.5t-18.5 -26.5q-4 -8 -5.5 -16.5t8.5 -15.5q4 -3 12 -2.5t16.5 3t16 6t10.5 5.5q17 10 26.5 21.5t20.5 23.5q8 8 10.5 12t10.5 13q5 2 4 -8t-11 -26z" />
    <glyph glyph-name="egrave" unicode="&#xe8;" horiz-adv-x="113" 
d="M32 102q-14 -17 -24.5 -31t-14.5 -22q-5 -8 -6.5 -16.5t8.5 -15.5q4 -3 11.5 -3t15 1.5t14 4t9.5 4.5q21 12 36 30t32 40q5 2 4.5 -8t-10.5 -26q-9 -11 -14.5 -17.5t-10 -10.5t-8.5 -7t-10 -7q-7 -6 -18.5 -10.5t-24 -7t-24.5 -2t-20 5.5q-10 6 -13 12.5t-5 9.5
q-3 18 8 39q20 37 44.5 65.5t41.5 45.5q23 20 43.5 20.5t25.5 -4.5q8 -5 7 -14.5t-7 -19.5q-17 -28 -40 -38t-50 -18zM89 169q-7 -7 -19.5 -21.5t-26.5 -31.5q12 5 27.5 13t26.5 21q4 4 8 12.5t2 13.5q-2 6 -8.5 1.5t-9.5 -8.5zM88 233q-3 2 -5.5 8.5t1.5 10.5q6 8 16 1
q6 -4 9 -7q8 -7 14 -11t20 -11q2 -2 -1 -4t-5 -2q-14 2 -27.5 6t-21.5 9z" />
    <glyph glyph-name="eacute" unicode="&#xe9;" horiz-adv-x="113" 
d="M32 102q-14 -17 -24.5 -31t-14.5 -22q-5 -8 -6.5 -16.5t8.5 -15.5q4 -3 11.5 -3t15 1.5t14 4t9.5 4.5q21 12 36 30t32 40q5 2 4.5 -8t-10.5 -26q-9 -11 -14.5 -17.5t-10 -10.5t-8.5 -7t-10 -7q-7 -6 -18.5 -10.5t-24 -7t-24.5 -2t-20 5.5q-10 6 -13 12.5t-5 9.5
q-3 18 8 39q20 37 44.5 65.5t41.5 45.5q23 20 43.5 20.5t25.5 -4.5q8 -5 7 -14.5t-7 -19.5q-17 -28 -40 -38t-50 -18zM89 169q-7 -7 -19.5 -21.5t-26.5 -31.5q12 5 27.5 13t26.5 21q4 4 8 12.5t2 13.5q-2 6 -8.5 1.5t-9.5 -8.5zM135 233q-8 -5 -21.5 -9t-27.5 -6q-2 0 -5 2
t-1 4q14 7 20 11t14 11q3 3 9 7q10 7 16 -1q4 -4 1.5 -10.5t-5.5 -8.5z" />
    <glyph glyph-name="ecircumflex" unicode="&#xea;" horiz-adv-x="113" 
d="M32 102q-14 -17 -24.5 -31t-14.5 -22q-5 -8 -6.5 -16.5t8.5 -15.5q4 -3 11.5 -3t15 1.5t14 4t9.5 4.5q21 12 36 30t32 40q5 2 4.5 -8t-10.5 -26q-9 -11 -14.5 -17.5t-10 -10.5t-8.5 -7t-10 -7q-7 -6 -18.5 -10.5t-24 -7t-24.5 -2t-20 5.5q-10 6 -13 12.5t-5 9.5
q-3 18 8 39q20 37 44.5 65.5t41.5 45.5q23 20 43.5 20.5t25.5 -4.5q8 -5 7 -14.5t-7 -19.5q-17 -28 -40 -38t-50 -18zM89 169q-7 -7 -19.5 -21.5t-26.5 -31.5q12 5 27.5 13t26.5 21q4 4 8 12.5t2 13.5q-2 6 -8.5 1.5t-9.5 -8.5zM124 256q2 0 6 -2l3 -5q4 -3 7 -9
q6 -9 10.5 -14.5t15.5 -16.5q2 -2 -2 -3.5t-6 -0.5q-11 5 -22 12t-18 14q-9 -2 -22 -1t-25 3q-2 1 -4 3.5t0 3.5q15 2 22 4.5t18 6.5q2 2 5 2.5t5 1.5l6 1h1v0z" />
    <glyph glyph-name="edieresis" unicode="&#xeb;" horiz-adv-x="113" 
d="M32 102q-14 -17 -24.5 -31t-14.5 -22q-5 -8 -6.5 -16.5t8.5 -15.5q4 -3 11.5 -3t15 1.5t14 4t9.5 4.5q21 12 36 30t32 40q5 2 4.5 -8t-10.5 -26q-9 -11 -14.5 -17.5t-10 -10.5t-8.5 -7t-10 -7q-7 -6 -18.5 -10.5t-24 -7t-24.5 -2t-20 5.5q-10 6 -13 12.5t-5 9.5
q-3 18 8 39q20 37 44.5 65.5t41.5 45.5q23 20 43.5 20.5t25.5 -4.5q8 -5 7 -14.5t-7 -19.5q-17 -28 -40 -38t-50 -18zM89 169q-7 -7 -19.5 -21.5t-26.5 -31.5q12 5 27.5 13t26.5 21q4 4 8 12.5t2 13.5q-2 6 -8.5 1.5t-9.5 -8.5zM139 239q-9 -17 -14.5 -12t0.5 22q5 8 11 4
q9 -4 3 -14zM113 239q-9 -17 -14.5 -12t0.5 22q5 8 11 4q9 -4 3 -14z" />
    <glyph glyph-name="igrave" unicode="&#xec;" horiz-adv-x="65" 
d="M109 197q-8 -11 -22 -27t-30.5 -35l-33 -38t-29 -35.5t-19.5 -29t-3 -16.5t9 0q1 0 10.5 8t23 20t27.5 25t23 24q4 2 4 -2t-2 -10t-5.5 -13t-7.5 -10q-3 -3 -13.5 -12.5t-23 -19.5t-25.5 -18t-21 -8q-29 0 -25 22q1 4 5.5 12t9.5 16.5t10 16t8 10.5q5 7 18.5 24.5t28 37
t28 36t18.5 20.5q3 4 10 6t14 2.5t11 -1t2 -5.5zM94 233q-3 2 -5.5 8.5t1.5 10.5q6 8 16 1q6 -4 9 -7q8 -7 14 -11t20 -11q2 -2 -1 -4t-5 -2q-14 2 -27.5 6t-21.5 9z" />
    <glyph glyph-name="iacute" unicode="&#xed;" horiz-adv-x="65" 
d="M109 197q-8 -11 -22 -27t-30.5 -35l-33 -38t-29 -35.5t-19.5 -29t-3 -16.5t9 0q1 0 10.5 8t23 20t27.5 25t23 24q4 2 4 -2t-2 -10t-5.5 -13t-7.5 -10q-3 -3 -13.5 -12.5t-23 -19.5t-25.5 -18t-21 -8q-29 0 -25 22q1 4 5.5 12t9.5 16.5t10 16t8 10.5q5 7 18.5 24.5t28 37
t28 36t18.5 20.5q3 4 10 6t14 2.5t11 -1t2 -5.5zM137 233q-8 -5 -21.5 -9t-27.5 -6q-2 0 -5 2t-1 4q14 7 20 11t14 11q3 3 9 7q10 7 16 -1q4 -4 1.5 -10.5t-5.5 -8.5z" />
    <glyph glyph-name="icircumflex" unicode="&#xee;" horiz-adv-x="65" 
d="M109 197q-8 -11 -22 -27t-30.5 -35l-33 -38t-29 -35.5t-19.5 -29t-3 -16.5t9 0q1 0 10.5 8t23 20t27.5 25t23 24q4 2 4 -2t-2 -10t-5.5 -13t-7.5 -10q-3 -3 -13.5 -12.5t-23 -19.5t-25.5 -18t-21 -8q-29 0 -25 22q1 4 5.5 12t9.5 16.5t10 16t8 10.5q5 7 18.5 24.5t28 37
t28 36t18.5 20.5q3 4 10 6t14 2.5t11 -1t2 -5.5zM120 256q2 0 6 -2l3 -5q4 -3 7 -9q6 -9 10.5 -14.5t15.5 -16.5q2 -2 -2 -3.5t-6 -0.5q-11 5 -22 12t-18 14q-9 -2 -22 -1t-25 3q-2 1 -4 3.5t0 3.5q15 2 22 4.5t18 6.5q2 2 5 2.5t5 1.5l6 1h1z" />
    <glyph glyph-name="idieresis" unicode="&#xef;" horiz-adv-x="65" 
d="M109 197q-8 -11 -22 -27t-30.5 -35l-33 -38t-29 -35.5t-19.5 -29t-3 -16.5t9 0q1 0 10.5 8t23 20t27.5 25t23 24q4 2 4 -2t-2 -10t-5.5 -13t-7.5 -10q-3 -3 -13.5 -12.5t-23 -19.5t-25.5 -18t-21 -8q-29 0 -25 22q1 4 5.5 12t9.5 16.5t10 16t8 10.5q5 7 18.5 24.5t28 37
t28 36t18.5 20.5q3 4 10 6t14 2.5t11 -1t2 -5.5zM141 239q-9 -17 -14.5 -12t0.5 22q5 8 11 4q9 -4 3 -14zM115 239q-9 -17 -14.5 -12t0.5 22q5 8 11 4q9 -4 3 -14z" />
    <glyph glyph-name="ntilde" unicode="&#xf1;" horiz-adv-x="149" 
d="M-30 21q-2 -4 -7 -13.5t-10 -7.5q-6 2 -9.5 10t1.5 19q7 13 21.5 34t30.5 43t31 42t23 31q4 6 7 10t5 6q3 4 10 6t14 2.5t11 -1t2 -5.5q-9 -10 -21.5 -25.5t-24.5 -29.5q7 5 17 13.5t20.5 16.5t21 14.5t18.5 8.5t16.5 2t13.5 -8q9 -16 -6 -34q-8 -9 -14.5 -19.5
t-14.5 -19.5q-19 -24 -37.5 -48.5t-26.5 -35.5q-2 -2 -2.5 -4t-2.5 -4l-2 -4v-4q3 -3 7 0q1 0 11 8t23.5 20t28 25.5t24.5 24.5q4 2 4.5 -2t-1.5 -10t-5 -13t-7 -10q-3 -3 -14 -13t-24 -20t-26.5 -18t-21.5 -8q-31 0 -25 23h1q0 4 3 9q17 32 37.5 57.5t47.5 57.5
q3 4 7.5 9.5t7 10.5t2.5 8.5t-4 4.5q-5 1 -14.5 -5t-20 -14.5t-20.5 -17.5t-16 -13q-23 -18 -42 -39q-16 -23 -29.5 -42t-18.5 -28zM130 236q-7 3 -13 2t-14 -1q-3 0 -6 4t3 9q2 1 4.5 1.5t7.5 0.5q8 0 12.5 -2.5t9.5 -6.5q7 -5 16.5 -10t17.5 -6q11 2 15.5 2t5.5 -5
q0 -6 -6 -8t-14 -2q-11 0 -17 7.5t-22 14.5z" />
    <glyph glyph-name="ograve" unicode="&#xf2;" horiz-adv-x="144" 
d="M18 9q-17 -10 -34 -9t-23 17v1q-3 14 7 37.5t27.5 48.5t38 47.5t37.5 33.5q8 5 15.5 8t15.5 4q18 2 27.5 -7.5t6.5 -27.5q-2 -8 -3 -12.5t-1 -8.5q12 -1 24 -0.5t23 3.5q4 0 3 -3.5t-4.5 -7t-9 -7t-11.5 -4.5q-5 -1 -13 -1h-16q-1 -1 -6.5 -8.5t-9.5 -12.5
q-20 -27 -42.5 -50.5t-51.5 -40.5zM82 167q-4 -4 -6 -7q11 -9 31 -14q2 5 6.5 9t8.5 3q1 0 1 9.5t-5 13.5t-11 2.5t-11.5 -5t-9.5 -7.5zM-7 37q-2 -4 -2.5 -7.5t2.5 -6.5q6 -5 15 -3q12 3 27 14t28.5 25.5t24.5 28.5t16 23q1 2 -2.5 5t-1.5 11q-26 8 -33 22
q-11 -14 -23.5 -30.5t-23 -32.5t-18 -29t-9.5 -20zM106 233q-3 2 -5.5 8.5t1.5 10.5q6 8 16 1q6 -4 9 -7q8 -7 14 -11t20 -11q2 -2 -1 -4t-5 -2q-14 2 -27.5 6t-21.5 9z" />
    <glyph glyph-name="oacute" unicode="&#xf3;" horiz-adv-x="144" 
d="M18 9q-17 -10 -34 -9t-23 17v1q-3 14 7 37.5t27.5 48.5t38 47.5t37.5 33.5q8 5 15.5 8t15.5 4q18 2 27.5 -7.5t6.5 -27.5q-2 -8 -3 -12.5t-1 -8.5q12 -1 24 -0.5t23 3.5q4 0 3 -3.5t-4.5 -7t-9 -7t-11.5 -4.5q-5 -1 -13 -1h-16q-1 -1 -6.5 -8.5t-9.5 -12.5
q-20 -27 -42.5 -50.5t-51.5 -40.5zM82 167q-4 -4 -6 -7q11 -9 31 -14q2 5 6.5 9t8.5 3q1 0 1 9.5t-5 13.5t-11 2.5t-11.5 -5t-9.5 -7.5zM-7 37q-2 -4 -2.5 -7.5t2.5 -6.5q6 -5 15 -3q12 3 27 14t28.5 25.5t24.5 28.5t16 23q1 2 -2.5 5t-1.5 11q-26 8 -33 22
q-11 -14 -23.5 -30.5t-23 -32.5t-18 -29t-9.5 -20zM151 233q-8 -5 -21.5 -9t-27.5 -6q-2 0 -5 2t-1 4q14 7 20 11t14 11q3 3 9 7q10 7 16 -1q4 -4 1.5 -10.5t-5.5 -8.5z" />
    <glyph glyph-name="ocircumflex" unicode="&#xf4;" horiz-adv-x="144" 
d="M18 9q-17 -10 -34 -9t-23 17v1q-3 14 7 37.5t27.5 48.5t38 47.5t37.5 33.5q8 5 15.5 8t15.5 4q18 2 27.5 -7.5t6.5 -27.5q-2 -8 -3 -12.5t-1 -8.5q12 -1 24 -0.5t23 3.5q4 0 3 -3.5t-4.5 -7t-9 -7t-11.5 -4.5q-5 -1 -13 -1h-16q-1 -1 -6.5 -8.5t-9.5 -12.5
q-20 -27 -42.5 -50.5t-51.5 -40.5zM82 167q-4 -4 -6 -7q11 -9 31 -14q2 5 6.5 9t8.5 3q1 0 1 9.5t-5 13.5t-11 2.5t-11.5 -5t-9.5 -7.5zM-7 37q-2 -4 -2.5 -7.5t2.5 -6.5q6 -5 15 -3q12 3 27 14t28.5 25.5t24.5 28.5t16 23q1 2 -2.5 5t-1.5 11q-26 8 -33 22
q-11 -14 -23.5 -30.5t-23 -32.5t-18 -29t-9.5 -20zM139 256q2 0 6 -2l3 -5q4 -3 7 -9q6 -9 10.5 -14.5t15.5 -16.5q2 -2 -2 -3.5t-6 -0.5q-11 5 -22 12t-18 14q-9 -2 -22 -1t-25 3q-2 1 -4 3.5t0 3.5q15 2 22 4.5t18 6.5q2 2 5 2.5t5 1.5l6 1h1v0z" />
    <glyph glyph-name="otilde" unicode="&#xf5;" horiz-adv-x="144" 
d="M18 9q-17 -10 -34 -9t-23 17v1q-3 14 7 37.5t27.5 48.5t38 47.5t37.5 33.5q8 5 15.5 8t15.5 4q18 2 27.5 -7.5t6.5 -27.5q-2 -8 -3 -12.5t-1 -8.5q12 -1 24 -0.5t23 3.5q4 0 3 -3.5t-4.5 -7t-9 -7t-11.5 -4.5q-5 -1 -13 -1h-16q-1 -1 -6.5 -8.5t-9.5 -12.5
q-20 -27 -42.5 -50.5t-51.5 -40.5zM82 167q-4 -4 -6 -7q11 -9 31 -14q2 5 6.5 9t8.5 3q1 0 1 9.5t-5 13.5t-11 2.5t-11.5 -5t-9.5 -7.5zM-7 37q-2 -4 -2.5 -7.5t2.5 -6.5q6 -5 15 -3q12 3 27 14t28.5 25.5t24.5 28.5t16 23q1 2 -2.5 5t-1.5 11q-26 8 -33 22
q-11 -14 -23.5 -30.5t-23 -32.5t-18 -29t-9.5 -20zM118 236q-7 3 -13 2t-14 -1q-3 0 -6 4t3 9q2 1 4.5 1.5t7.5 0.5q8 0 12.5 -2.5t9.5 -6.5q7 -5 16.5 -10t17.5 -6q11 2 15.5 2t5.5 -5q0 -6 -6 -8t-14 -2q-11 0 -17 7.5t-22 14.5z" />
    <glyph glyph-name="odieresis" unicode="&#xf6;" horiz-adv-x="144" 
d="M18 9q-17 -10 -34 -9t-23 17v1q-3 14 7 37.5t27.5 48.5t38 47.5t37.5 33.5q8 5 15.5 8t15.5 4q18 2 27.5 -7.5t6.5 -27.5q-2 -8 -3 -12.5t-1 -8.5q12 -1 24 -0.5t23 3.5q4 0 3 -3.5t-4.5 -7t-9 -7t-11.5 -4.5q-5 -1 -13 -1h-16q-1 -1 -6.5 -8.5t-9.5 -12.5
q-20 -27 -42.5 -50.5t-51.5 -40.5zM82 167q-4 -4 -6 -7q11 -9 31 -14q2 5 6.5 9t8.5 3q1 0 1 9.5t-5 13.5t-11 2.5t-11.5 -5t-9.5 -7.5zM-7 37q-2 -4 -2.5 -7.5t2.5 -6.5q6 -5 15 -3q12 3 27 14t28.5 25.5t24.5 28.5t16 23q1 2 -2.5 5t-1.5 11q-26 8 -33 22
q-11 -14 -23.5 -30.5t-23 -32.5t-18 -29t-9.5 -20zM156 239q-9 -17 -14.5 -12t0.5 22q5 8 11 4q9 -4 3 -14zM130 239q-9 -17 -14.5 -12t0.5 22q5 8 11 4q9 -4 3 -14z" />
    <glyph glyph-name="divide" unicode="&#xf7;" horiz-adv-x="161" 
d="M107 157q-5 -7 -10 -8.5t-9 0t-6 5t0 6.5t3 5.5t3 5.5q6 11 15 5q5 -2 5.5 -9t-1.5 -10zM80 65q-5 -7 -10 -8.5t-9 0t-6 5t0 6.5t3 5.5t3 5.5q6 11 15 5q5 -2 5.5 -9t-1.5 -10zM26 105q-6 0 -8.5 1t-2.5 9q0 6 1.5 9.5t9.5 3.5h109q6 0 8.5 -0.5t2.5 -8.5q0 -6 -1.5 -10
t-9.5 -4h-109z" />
    <glyph glyph-name="oslash" unicode="&#xf8;" horiz-adv-x="144" 
d="M18 9q-11 -6 -21 -8q-15 -20 -25.5 -36.5t-15.5 -24.5q-2 -1 -3.5 1t-0.5 4l34 55q-17 0 -25 17v1q-3 14 7 37.5t27.5 48.5t38 47.5t37.5 33.5q8 5 15.5 8t15.5 4q14 0 22 -4q22 25 34 24q6 -1 7 -5t1 -7q-14 -10 -30 -28q1 -6 0 -15q-2 -8 -3 -12.5t-1 -8.5
q12 -1 24 -0.5t23 3.5q4 0 3 -3.5t-4.5 -7t-9 -7t-11.5 -4.5q-5 -1 -13 -1h-16l-16 -21q-20 -27 -42.5 -50.5t-51.5 -40.5zM-7 37q-2 -4 -2.5 -7.5t2.5 -6.5t6 -3q17 27 37.5 58t41.5 59q-8 5 -11 12q-11 -14 -23.5 -30.5t-23 -32.5t-18 -29t-9.5 -20zM94 129
q-21 -26 -43 -54.5t-41 -54.5q12 4 26.5 15t28 25t24 28t15.5 23q1 2 -2.5 5t-1.5 11q-2 0 -6 2zM76 160q5 -5 13 -8q7 8 13 16t12 15q-5 1 -10.5 -1t-10 -5t-8 -6.5l-3.5 -3.5zM118 157q2 1 4 1v2q0 1 0.5 1.5t0.5 1.5z" />
    <glyph glyph-name="ugrave" unicode="&#xf9;" horiz-adv-x="156" 
d="M155 195q3 3 10 5.5t14 3t11 -1t2 -5.5q-6 -8 -12 -14q-7 -9 -23.5 -30t-35 -44.5t-35.5 -45t-25 -32.5q-2 -3 -5.5 -7t-0.5 -7q3 -5 9 -1q1 0 11.5 8t24.5 20t29 25.5t25 24.5q4 2 4 -2t-2.5 -10t-6.5 -13t-8 -10q-3 -3 -14 -13t-24.5 -20t-26.5 -18t-22 -8
q-30 0 -24 23q1 1 3 5t6 9q-19 -13 -40.5 -25t-32.5 -12q-32 0 -24 23q4 13 20.5 38t36.5 51t39.5 49.5t29.5 33.5q3 3 10 5.5t14 3t11.5 -1t2.5 -5.5q-37 -37 -66 -78t-61 -84q-2 -3 -4.5 -6.5t-0.5 -7.5q3 -3 10 0q1 0 10 6t21.5 15t27 19.5t26.5 21.5q23 27 44 55t42 57z
M108 233q-3 2 -5.5 8.5t1.5 10.5q6 8 16 1q6 -4 9 -7q8 -7 14 -11t20 -11q2 -2 -1 -4t-5 -2q-14 2 -27.5 6t-21.5 9z" />
    <glyph glyph-name="uacute" unicode="&#xfa;" horiz-adv-x="156" 
d="M155 195q3 3 10 5.5t14 3t11 -1t2 -5.5q-6 -8 -12 -14q-7 -9 -23.5 -30t-35 -44.5t-35.5 -45t-25 -32.5q-2 -3 -5.5 -7t-0.5 -7q3 -5 9 -1q1 0 11.5 8t24.5 20t29 25.5t25 24.5q4 2 4 -2t-2.5 -10t-6.5 -13t-8 -10q-3 -3 -14 -13t-24.5 -20t-26.5 -18t-22 -8
q-30 0 -24 23q1 1 3 5t6 9q-19 -13 -40.5 -25t-32.5 -12q-32 0 -24 23q4 13 20.5 38t36.5 51t39.5 49.5t29.5 33.5q3 3 10 5.5t14 3t11.5 -1t2.5 -5.5q-37 -37 -66 -78t-61 -84q-2 -3 -4.5 -6.5t-0.5 -7.5q3 -3 10 0q1 0 10 6t21.5 15t27 19.5t26.5 21.5q23 27 44 55t42 57z
M152 233q-8 -5 -21.5 -9t-27.5 -6q-2 0 -5 2t-1 4q14 7 20 11t14 11q3 3 9 7q10 7 16 -1q4 -4 1.5 -10.5t-5.5 -8.5z" />
    <glyph glyph-name="ucircumflex" unicode="&#xfb;" horiz-adv-x="156" 
d="M155 195q3 3 10 5.5t14 3t11 -1t2 -5.5q-6 -8 -12 -14q-7 -9 -23.5 -30t-35 -44.5t-35.5 -45t-25 -32.5q-2 -3 -5.5 -7t-0.5 -7q3 -5 9 -1q1 0 11.5 8t24.5 20t29 25.5t25 24.5q4 2 4 -2t-2.5 -10t-6.5 -13t-8 -10q-3 -3 -14 -13t-24.5 -20t-26.5 -18t-22 -8
q-30 0 -24 23q1 1 3 5t6 9q-19 -13 -40.5 -25t-32.5 -12q-32 0 -24 23q4 13 20.5 38t36.5 51t39.5 49.5t29.5 33.5q3 3 10 5.5t14 3t11.5 -1t2.5 -5.5q-37 -37 -66 -78t-61 -84q-2 -3 -4.5 -6.5t-0.5 -7.5q3 -3 10 0q1 0 10 6t21.5 15t27 19.5t26.5 21.5q23 27 44 55t42 57z
M144 263q2 0 6 -2l3 -5q4 -3 7 -9q6 -9 10.5 -14.5t15.5 -16.5q2 -2 -2 -3.5t-6 -0.5q-11 5 -22 12t-18 14q-9 -2 -22 -1t-25 3q-2 1 -4 3.5t0 3.5q15 2 22 4.5t18 6.5q2 2 5 2.5t5 1.5l6 1h1v0z" />
    <glyph glyph-name="udieresis" unicode="&#xfc;" horiz-adv-x="156" 
d="M155 195q3 3 10 5.5t14 3t11 -1t2 -5.5q-6 -8 -12 -14q-7 -9 -23.5 -30t-35 -44.5t-35.5 -45t-25 -32.5q-2 -3 -5.5 -7t-0.5 -7q3 -5 9 -1q1 0 11.5 8t24.5 20t29 25.5t25 24.5q4 2 4 -2t-2.5 -10t-6.5 -13t-8 -10q-3 -3 -14 -13t-24.5 -20t-26.5 -18t-22 -8
q-30 0 -24 23q1 1 3 5t6 9q-19 -13 -40.5 -25t-32.5 -12q-32 0 -24 23q4 13 20.5 38t36.5 51t39.5 49.5t29.5 33.5q3 3 10 5.5t14 3t11.5 -1t2.5 -5.5q-37 -37 -66 -78t-61 -84q-2 -3 -4.5 -6.5t-0.5 -7.5q3 -3 10 0q1 0 10 6t21.5 15t27 19.5t26.5 21.5q23 27 44 55t42 57z
M167 239q-9 -17 -14.5 -12t0.5 22q5 8 11 4q9 -4 3 -14zM141 239q-9 -17 -14.5 -12t0.5 22q5 8 11 4q9 -4 3 -14z" />
    <glyph glyph-name="yacute" unicode="&#xfd;" horiz-adv-x="149" 
d="M49 0q-11 0 -17 3q-12 -16 -31.5 -40t-43 -50.5t-48.5 -52t-48 -43.5q-15 -12 -32 -20.5t-32 -10.5q-16 -2 -23 5q-10 10 -3 24q11 29 36 56.5t56 51t64 43.5t60 34q29 16 44 35q-19 -12 -39 -23.5t-31 -11.5q-32 0 -24 23q1 2 9.5 14.5t21.5 30.5t28 39t29 39t24 31.5
t14 17.5q3 3 10 5.5t14 3t11.5 -1t2.5 -5.5q-34 -34 -64.5 -74.5t-58.5 -82.5q-2 -3 -5 -7t0 -7q4 -4 9 0q1 0 9.5 5.5t21 13.5t26.5 18t25 20q22 26 43 56t43 56q3 4 10 6t14 2.5t11.5 -1t2.5 -5.5q-31 -38 -61.5 -79.5t-70.5 -86.5q-2 -3 -4.5 -7t-0.5 -7q3 -3 10 0
q1 0 11 8t23.5 19.5t28.5 25t25 24.5q4 2 4 -2t-2.5 -10t-6.5 -13t-8 -10q-3 -3 -14 -13t-24.5 -20t-26.5 -18t-22 -8zM-155 -170q33 31 66.5 65t60.5 76q-5 2 -8.5 0.5t-5.5 -3.5q-35 -23 -69 -47.5t-62 -53.5q-11 -12 -21 -24.5t-17 -28.5q-2 -4 -3 -8t3 -6t11.5 0.5
t15.5 7.5t16 11t13 11zM151 233q-8 -5 -21.5 -9t-27.5 -6q-2 0 -5 2t-1 4q14 7 20 11t14 11q3 3 9 7q10 7 16 -1q4 -4 1.5 -10.5t-5.5 -8.5z" />
    <glyph glyph-name="ydieresis" unicode="&#xff;" horiz-adv-x="149" 
d="M49 0q-11 0 -17 3q-12 -16 -31.5 -40t-43 -50.5t-48.5 -52t-48 -43.5q-15 -12 -32 -20.5t-32 -10.5q-16 -2 -23 5q-10 10 -3 24q11 29 36 56.5t56 51t64 43.5t60 34q29 16 44 35q-19 -12 -39 -23.5t-31 -11.5q-32 0 -24 23q1 2 9.5 14.5t21.5 30.5t28 39t29 39t24 31.5
t14 17.5q3 3 10 5.5t14 3t11.5 -1t2.5 -5.5q-34 -34 -64.5 -74.5t-58.5 -82.5q-2 -3 -5 -7t0 -7q4 -4 9 0q1 0 9.5 5.5t21 13.5t26.5 18t25 20q22 26 43 56t43 56q3 4 10 6t14 2.5t11.5 -1t2.5 -5.5q-31 -38 -61.5 -79.5t-70.5 -86.5q-2 -3 -4.5 -7t-0.5 -7q3 -3 10 0
q1 0 11 8t23.5 19.5t28.5 25t25 24.5q4 2 4 -2t-2.5 -10t-6.5 -13t-8 -10q-3 -3 -14 -13t-24.5 -20t-26.5 -18t-22 -8zM-155 -170q33 31 66.5 65t60.5 76q-5 2 -8.5 0.5t-5.5 -3.5q-35 -23 -69 -47.5t-62 -53.5q-11 -12 -21 -24.5t-17 -28.5q-2 -4 -3 -8t3 -6t11.5 0.5
t15.5 7.5t16 11t13 11zM160 239q-9 -17 -14.5 -12t0.5 22q5 8 11 4q9 -4 3 -14zM134 239q-9 -17 -14.5 -12t0.5 22q5 8 11 4q9 -4 3 -14z" />
    <glyph glyph-name="Lslash" unicode="&#x141;" horiz-adv-x="478" 
d="M330 142q-2 3 -0.5 5t3.5 3q11 -4 35.5 -5.5t52.5 -1.5q26 33 52 65t51 62q-24 -5 -56 -12t-63.5 -18.5t-59.5 -28t-43 -39.5q-8 -12 -12 -19t-6.5 -10t-3.5 -4t-4 -1q-1 0 -4.5 3t-8 6t-7.5 6.5t-3 5.5q6 26 25.5 45.5t46.5 33t59 22.5t62.5 16.5t57.5 13t45 12.5
q23 27 45 53.5t39 47.5q4 5 11.5 14t17.5 18t22.5 15.5t26.5 6.5q15 -1 21.5 -8.5t7 -18.5t-3 -24t-8.5 -24q1 1 -6.5 -10t-26.5 -27t-50 -34t-78 -30q-28 -32 -57 -67t-59 -71q28 1 51 2t32 3q1 0 1 -2t-2 -2q-4 -1 -30.5 -4t-58.5 -5l-80 -92q79 -48 142.5 -76.5
t117.5 -28.5q23 0 40 3t23 4t18.5 6.5t25.5 11t25 10t18 4.5q2 0 2 -4q0 -11 -1.5 -18.5t-9.5 -14t-24.5 -12.5t-46.5 -14q-6 -1 -22 -3.5t-42 -2.5q-34 0 -68 9.5t-68.5 25.5t-70.5 37.5t-74 45.5q-58 -69 -107.5 -98t-104.5 -29q-20 0 -41 6.5t-39 18.5t-29.5 30t-11.5 41
q0 27 15.5 50t39 39.5t50.5 26t50 9.5q25 0 48.5 -6.5t45.5 -16t43 -21.5t41 -23l64 80q-31 -1 -55 0.5t-28 8.5zM166 103q-21 0 -45.5 -7.5t-45.5 -22t-35 -35t-14 -45.5q0 -20 9.5 -35t24.5 -26t34 -16.5t39 -5.5q32 0 57.5 8t49 23.5t46 39t49.5 54.5q-38 24 -80.5 46
t-88.5 22zM600 320q12 5 30.5 15.5t36 24t30 30t12.5 34.5v1q-2 0 -11 -3t-24 -18q0 -1 -17.5 -20t-40.5 -45z" />
    <glyph glyph-name="lslash" unicode="&#x142;" horiz-adv-x="95" 
d="M-48 161q-2 3 -0.5 5t3.5 3q11 -4 32 -5t45 -2l35 46q39 50 84.5 98.5t94.5 93.5q3 2 8.5 6.5t9.5 6.5t8 3t9 -2q5 -5 3.5 -9.5t-3.5 -9.5q-11 -23 -27 -43l-32 -40q-23 -29 -47.5 -56t-53.5 -50q-13 -10 -23.5 -21t-20.5 -23q26 1 48.5 2t30.5 3q1 0 1 -2t-2 -2
q-4 -1 -28.5 -4t-56.5 -5q-12 -14 -23 -29.5t-23 -29.5q-5 -6 -12 -17.5t-13 -24t-8.5 -22.5t1.5 -13q7 -6 22.5 3t31.5 23.5t30 29t19 20.5q4 2 4.5 -2t-1 -10t-4.5 -13t-6 -10q-6 -6 -17 -16t-23.5 -19.5t-25.5 -16.5t-23 -7q-23 -1 -32 11.5t-2 35.5q8 22 23.5 49
t35.5 56q-27 -1 -47.5 0.5t-24.5 8.5zM265 389q-38 -32 -67.5 -70.5t-61.5 -75.5q39 31 70 67.5t59 78.5z" />
    <glyph glyph-name="OE" unicode="&#x152;" horiz-adv-x="642" 
d="M257 418q24 8 46 10t38.5 -4t26 -22t6.5 -44q11 2 21 2.5t21 1.5q-2 14 -7 26t-11 21q-27 32 -71 32q-17 0 -36.5 -5t-38 -12t-34 -15t-25.5 -13h-5t-9 2.5t-5 8.5t7 17q0 1 10 9t27.5 17.5t42.5 18t56 9.5h1q24 0 45 -8.5t37 -23.5t26 -36t11 -46q21 1 42 1.5t41 0.5
q29 0 55 -0.5t48 -0.5q20 0 34.5 1t22.5 4q7 11 16.5 25.5t21 28t25.5 23t31 10.5q2 0 7 -0.5t10.5 -4t9.5 -10.5t4 -20q0 -21 -11 -35.5t-28 -23.5t-37 -14t-38 -8q-1 0 -6 -7.5t-10 -18.5l6 -0.5t12.5 -3t12 -6t5.5 -9.5q0 -10 -11.5 -18t-27.5 -8q-11 0 -17 6.5t-6 17.5
q0 3 0.5 6.5t0.5 5.5q-39 0 -80 -12t-79.5 -34t-70.5 -53t-51 -68q23 4 40 19t26 28t14 20t10 10.5t10.5 4t16.5 0.5q13 0 13 -4q0 -1 -3 -5t-7.5 -9.5t-9 -11.5t-7.5 -9q-23 -27 -43.5 -40t-35.5 -18.5t-23.5 -6t-8.5 -1.5q-2 -28 8 -49t27 -35.5t40 -22t46 -7.5
q12 0 34 3.5t43.5 11.5t37.5 20.5t16 30.5q0 11 -8.5 14t-18.5 3.5t-18.5 2t-8.5 8.5q0 11 9 11q8 0 17 -2t17.5 -6.5t14.5 -11t7 -16.5q0 -23 -16 -39.5t-40 -27.5t-51.5 -16t-50.5 -5q-27 0 -52 8.5t-44.5 24t-30 39t-8.5 53.5q-19 -22 -43.5 -44.5t-52 -41t-58 -30
t-62.5 -11.5q-33 0 -51.5 14.5t-28 34.5t-11.5 42t-2 37q0 46 19.5 94.5t52.5 91t75.5 75t87.5 48.5zM117 3q51 0 102 31.5t94 79.5q-22 0 -43.5 6.5t-39 19.5t-28 31.5t-10.5 42.5q0 31 11.5 54t32 39.5t47.5 27.5t59 17q1 4 1 9q0 16 -7.5 23.5t-18.5 9.5t-24.5 -0.5
t-25.5 -6.5q1 0 -13.5 -5.5t-36.5 -19t-49 -34.5t-51.5 -51.5t-44 -71t-25.5 -92.5q0 -21 2.5 -41t10 -35.5t21.5 -24.5t36 -9zM411 269q5 22 7 66q-12 -1 -24.5 -1t-25.5 -2q-8 -16 -22.5 -27.5t-34.5 -11.5q-2 0 -9.5 5t-0.5 17q11 -7 31 13q-25 -4 -47.5 -12t-39.5 -21.5
t-27 -34t-10 -48.5q0 -22 13 -38.5t31.5 -27t40 -14t38.5 1.5q4 5 7.5 9.5t6.5 9.5q8 14 16.5 27t18.5 25q10 17 17.5 33t13.5 31zM437 335q-1 -14 -3.5 -32.5t-9.5 -35.5q-4 -14 -11 -31q30 24 63.5 40t65.5 25t61 12.5t50 3.5q3 9 8 20q-51 -2 -103.5 -2h-115.5h-5z
M735 396q-5 -4 -8.5 -8.5t-8.5 -9.5q59 16 59 44q0 1 -1 2q-2 0 -11.5 -4t-29.5 -24zM670 304q-2 -4 -2 -10q0 -2 1.5 -4t8.5 -2q3 0 10 1.5t7 5.5q0 5 -10.5 7.5t-14.5 1.5z" />
    <glyph glyph-name="oe" unicode="&#x153;" horiz-adv-x="217" 
d="M136 102q-14 -17 -24.5 -31t-14.5 -22q-5 -8 -6.5 -16.5t8.5 -15.5q4 -3 11.5 -3t15 1.5t14 4t9.5 4.5q21 12 36 30t32 40q5 2 4.5 -8t-10.5 -26q-9 -11 -14.5 -17.5t-10 -10.5t-8.5 -7t-10 -7q-7 -6 -18.5 -10.5t-24 -7t-24.5 -2t-20 5.5q-10 6 -13 12.5t-5 9.5
q-2 11 1 22q-22 -22 -50 -39q-17 -10 -34 -9t-23 17v1q-3 14 7 37.5t27.5 48.5t38 47.5t37.5 33.5q8 5 15.5 8t15.5 4q18 2 27.5 -7.5t6.5 -27.5l-4 -16l29 30q23 20 43.5 20.5t25.5 -4.5q8 -5 7 -14.5t-7 -19.5q-17 -28 -40 -38t-50 -18zM-11 37q-2 -4 -2.5 -7.5t2.5 -6.5
q6 -5 15 -3q17 5 39.5 25t39.5 40q7 13 17 26q1 2 -2.5 5t-1.5 11q-26 8 -33 22q-11 -14 -23.5 -30.5t-23 -32.5t-18 -29t-9.5 -20zM193 169q-7 -7 -19.5 -21.5t-26.5 -31.5q12 5 27.5 13t26.5 21q4 4 8 12.5t2 13.5q-2 6 -8.5 1.5t-9.5 -8.5zM72 160q11 -9 31 -14
q2 5 6.5 9t8.5 3q1 0 1 9.5t-5 13.5t-11 2.5t-11.5 -5t-9.5 -7.5l-4 -4z" />
    <glyph glyph-name="Scaron" unicode="&#x160;" horiz-adv-x="272" 
d="M356 432q-26 0 -59 -4t-68 -11.5t-68 -18.5t-58.5 -24.5t-40 -29.5t-11.5 -34q4 -15 20 -28.5t37 -24.5t42.5 -20t35.5 -16q22 -10 39.5 -21t27 -25.5t10 -34t-11.5 -45.5q0 1 -8.5 -14t-26.5 -34t-46 -35t-67 -16q-33 0 -59 18t-27 46l0.5 5t4.5 12.5t13.5 16t28.5 14.5
l7 2t17.5 3.5t22 2t21.5 -3.5q3 -2 1 -7.5t-4 -9.5q-2 -5 -16.5 -3t-32 1t-33 -7.5t-19.5 -27.5q-2 -11 6.5 -20.5t20.5 -16t25 -10t21 -2.5q36 3 60.5 21.5t40 40t22.5 41t7 24.5q0 16 -7.5 25t-25 18t-46.5 23t-72 40q-5 3 -14.5 8.5t-18.5 14t-15.5 20.5t-6.5 28
q0 26 19 46.5t48.5 35.5t66 25t71.5 16.5t64.5 9t45.5 2.5q9 0 28 -0.5t38.5 -4.5t34 -13t14.5 -25t-11 -29.5t-27 -24.5t-35.5 -20t-36 -15t-28.5 -9.5t-14 -3.5q-3 0 -3.5 3.5t0 8.5t1.5 9.5t1 7.5q0 8 3.5 10t13.5 6l4 1q33 14 54 23.5t33 16t16.5 11.5t4.5 9
q0 8 -8 12.5t-19 7t-24.5 3t-23.5 0.5zM269 476q-2 0 -6 2q-11 9 -17 21t-19 24v1q0 3 6 3q4 0 10.5 -3t12.5 -7.5t11.5 -9t7.5 -6.5q4 1 15 1h11.5t14 -1t10.5 -3t1 -5q-14 -6 -25 -10q-10 -4 -19.5 -6.5t-13.5 -0.5z" />
    <glyph glyph-name="scaron" unicode="&#x161;" horiz-adv-x="143" 
d="M110 242q4 -11 -1 -29.5t-23 -30.5q4 -9 7.5 -26.5t5 -37.5t-1 -41t-10 -38.5t-21.5 -28t-37 -10.5q-12 0 -18 10t-7.5 23.5t2 28.5t10.5 26q6 6 8 5q4 -2 6.5 -10t1.5 -15q-3 -3 -6.5 -12.5t-5.5 -19.5t0 -17.5t11 -6.5q24 3 32.5 22.5t9.5 43t-3 44t-7 25.5
q-1 2 -10.5 -8t-21.5 -24.5t-23 -28t-15 -18.5q-8 -12 -9.5 -2t5.5 23q16 20 29.5 34.5t30.5 36.5q5 8 8.5 13.5t2.5 9.5q-4 8 -3.5 19.5t5 23t11.5 20t16 10.5q8 2 13 -2t8 -12zM82 197q5 3 10.5 13.5t3.5 18.5q-1 4 -3.5 5t-4.5 -1q-8 -4 -11.5 -14t-2.5 -20q0 -4 3 -4
t5 2zM102 273q-2 0 -6 2q-11 9 -17 21t-19 24v1q0 3 6 3q4 0 10.5 -3t12.5 -7.5t11.5 -9t7.5 -6.5q4 1 15 1h11.5t14 -1t10.5 -3t1 -5q-14 -6 -25 -10q-10 -4 -19.5 -6.5t-13.5 -0.5z" />
    <glyph glyph-name="Ydieresis" unicode="&#x178;" horiz-adv-x="312" 
d="M214 45q-4 -8 -5.5 -14t-1.5 -9q0 -6 9 -6q12 0 23.5 9t21.5 20t17.5 20t10.5 9t3 -4v-3q0 -3 -3 -7q-6 -11 -15.5 -21.5t-20 -19t-21.5 -13t-19 -4.5q-5 0 -13.5 2t-8.5 12q-8 -12 -18 -26t-23 -31q33 -14 76.5 -21.5t87.5 -11.5t84.5 -3.5t67.5 3.5q4 0 4 -3
q-10 -13 -18.5 -20.5t-19.5 -11t-26.5 -4.5t-40.5 -1t-55.5 4t-62 11t-61.5 16.5t-54 19.5q-59 -69 -120.5 -104.5t-134.5 -39.5q-16 -1 -37 3.5t-39.5 13.5t-31 22.5t-11.5 31.5q1 32 23 54t56 35.5t75 19.5t81 7t73.5 -3t51.5 -11q1 0 1 -0.5t1 -0.5q19 24 35 47.5
t30 44.5q-15 -11 -34 -23t-38 -22t-37.5 -16.5t-31.5 -6.5l-6 0.5t-12.5 3.5t-12 10t-5.5 21q0 17 3 24t12.5 17t26 28t43.5 56q-30 12 -45 40t-15 61t18 73t46.5 74.5t64.5 57.5t73 23q30 0 41.5 -15.5t11.5 -37.5q-2 -25 -15.5 -57t-32.5 -65.5t-42 -65.5t-45 -56
q14 0 16.5 -5.5t2.5 -8.5q0 -18 -12.5 -21t-36.5 -4q-15 -19 -25.5 -31.5t-18.5 -22t-14.5 -17.5t-13.5 -17q-5 -8 -8 -14q-2 -5 -3.5 -9.5t2.5 -5.5q8 -4 26.5 1t40 15.5t42 23.5t31.5 24l2 1q15 16 43.5 49t63 72.5t71 81.5t68 76.5t53.5 56.5t28 22q1 0 4.5 -7.5
t3.5 -19.5q0 -6 -7.5 -16t-28.5 -33.5t-59.5 -65.5t-101.5 -113q-31 -35 -56.5 -71t-51.5 -77zM65 268q0 -27 11.5 -53t43.5 -34q17 23 36.5 46.5t39.5 49.5q11 15 24 33.5t24.5 39t19 41t7.5 39.5v10t-4 11t-12.5 9t-25.5 4q-30 0 -59.5 -18t-53 -46.5t-37.5 -62.5t-14 -65
v-4zM-129 -191q34 -1 66.5 10.5t62 30t56 43.5t47.5 51q-16 8 -47.5 13.5t-68.5 5.5t-76 -5t-71 -16.5t-52 -30t-20 -45.5q0 -16 10.5 -26.5t26 -17.5t33.5 -10t33 -3zM426 498q-9 -17 -14.5 -12t0.5 22q5 8 11 4q9 -4 3 -14zM400 498q-9 -17 -14.5 -12t0.5 22q5 8 11 4
q9 -4 3 -14z" />
    <glyph glyph-name="Zcaron" unicode="&#x17d;" horiz-adv-x="248" 
d="M514 440q2 -1 2.5 -4.5t0.5 -5.5q0 -9 -3 -14.5t-14.5 -8.5t-33.5 -5.5t-59 -6.5q-19 -17 -37.5 -39.5t-36 -45t-33 -42t-27.5 -31.5q-6 -10 -26.5 -36t-48.5 -59t-61.5 -67.5t-66.5 -60.5q5 1 12.5 1.5t12.5 0.5q46 0 93 -8t94.5 -21t94 -29t93.5 -32q19 -7 38.5 -14
t41.5 -9h1q11 0 16 3q3 2 5 4q0 2 -4.5 6.5t-0.5 11.5q2 2 6 5.5t12 3.5q12 0 17 -9t5 -19q0 -21 -17 -32.5t-41 -11.5q-3 0 -7.5 0.5t-14.5 3t-27.5 8t-46.5 15.5q-37 12 -86 31t-100 36t-99 29.5t-84 12.5h-4q-15 0 -24.5 -2t-15.5 -5t-10.5 -5t-9.5 -2q-7 0 -7 5q0 4 3 4
q14 0 52.5 40t103.5 127q31 43 52.5 72.5t36.5 49t25.5 32.5t20.5 23.5t21 21.5l28 28q-54 -4 -107 -7.5t-95 -11.5t-67.5 -23t-25.5 -41q0 -15 3 -17.5t3 -5.5t-5 -6.5t-11 -3.5q-3 0 -6 3t-3 23q0 16 10 34q9 14 29.5 27t62 25.5t108 24.5t167.5 24q17 10 30 14t27 4
q17 0 26 -5t11 -7zM491 433q-5 1 -12.5 1.5t-15.5 0.5t-15 -1t-9 -2q0 -1 5 -1h12t13 -0.5t8 -0.5q3 0 7.5 0.5t5.5 2.5h1zM367 478q-2 0 -6 2q-11 9 -17 21t-19 24v1q0 3 6 3q4 0 10.5 -3t12.5 -7.5t11.5 -9t7.5 -6.5q4 1 15 1h11.5t14 -1t10.5 -3t1 -5q-14 -6 -25 -10
q-10 -4 -19.5 -6.5t-13.5 -0.5z" />
    <glyph glyph-name="zcaron" unicode="&#x17e;" horiz-adv-x="158" 
d="M614 -38q4 0 4 -1v-2q-6 -9 -13 -16q-6 -6 -13.5 -11t-14.5 -6l-4 -1q-23 -3 -56.5 -6.5t-93.5 -3.5q-43 0 -82.5 3t-84.5 9.5t-101.5 17t-132.5 25.5q-11 -5 -21.5 -15.5l-24.5 -24.5q-25 -26 -55 -49.5t-74 -49.5q-8 -5 -34 -18t-63 -26.5t-83 -24t-95 -10.5
q-23 0 -50 3.5t-50 11.5t-38.5 21t-15.5 33q0 50 32.5 84.5t84 56.5t114.5 33.5t123.5 15t112 1t79.5 -7.5q9 -2 19 -3t18 -1q5 0 11 2q4 1 12 9.5t16.5 19t16 20.5t10.5 15q-14 -1 -21 4.5t-7 11.5q0 4 4.5 19t29.5 47q1 1 6 8.5t5 12.5t-4 5q-3 0 -16 -17.5t-29 -39
t-32.5 -39t-25.5 -17.5q-6 0 -6 7q0 2 1 2.5t4 4.5q35 37 49 58t21 29q5 7 9.5 13.5t4.5 14.5q0 6 -2 12t-2 14q0 10 3 21t9 20t14 15t17 6q10 0 14.5 -8.5t4.5 -20.5q0 -8 -4 -16.5t-9.5 -15t-9.5 -11.5l-4 -5q0 -1 3.5 -4t7.5 -7t7.5 -9t3.5 -11q0 -4 -1 -8.5t-4 -7.5
l-28.5 -40.5t-9.5 -21.5q0 -2 2 -4t4 -2t4 3t5 6t8 6t14 3q3 0 6 -1.5t3 -5.5q0 -9 -8.5 -21t-18 -23.5t-18 -21.5t-8.5 -14q0 -2 2 -2q1 -1 3 -1q5 1 31.5 22t58.5 57q1 0 1 0.5t1 0.5q2 0 2 -4q0 -5 -5 -16t-10 -16q-3 -3 -13.5 -12.5t-23 -19.5t-25.5 -18t-21 -8
q-11 0 -17 3q-7 -8 -6.5 -7.5t0.5 -4.5q62 -10 131 -21t140 -18t141.5 -6.5t135.5 14.5h2q8 2 14.5 2h8.5zM85 214q5 3 10.5 13.5t5.5 18.5q0 7 -5 7q-7 0 -14 -13t-7 -22q0 -6 4 -6q2 0 6 2zM-13 -32q2 2 3 3.5t2 3.5q-25 8 -75.5 14t-112.5 5.5t-127.5 -8.5t-119 -28
t-88 -53t-34.5 -83q0 -19 15 -30.5t36 -17.5t44.5 -8t40.5 -2q58 0 114.5 15.5t110 42.5t102 64.5t89.5 81.5zM109 298q-2 0 -6 2q-11 9 -17 21t-19 24v1q0 3 6 3q4 0 10.5 -3t12.5 -7.5t11.5 -9t7.5 -6.5q4 1 15 1h11.5t14 -1t10.5 -3t1 -5q-14 -6 -25 -10
q-10 -4 -19.5 -6.5t-13.5 -0.5z" />
    <glyph glyph-name="circumflex" unicode="&#x2c6;" horiz-adv-x="120" 
d="M67 256q2 0 6 -2l3 -5q4 -3 7 -9q6 -9 10.5 -14.5t15.5 -16.5q2 -2 -2 -3.5t-6 -0.5q-11 5 -22 12t-18 14q-9 -2 -22 -1t-25 3q-2 1 -4 3.5t0 3.5q15 2 22 4.5t18 6.5q2 2 5 2.5t5 1.5l6 1h1v0z" />
    <glyph glyph-name="caron" unicode="&#x2c7;" horiz-adv-x="123" 
d="M51 204q-2 0 -6 2q-11 9 -17 21t-19 24v1q0 3 6 3q4 0 10.5 -3t12.5 -7.5t11.5 -9t7.5 -6.5q4 1 15 1h11.5t14 -1t10.5 -3t1 -5q-14 -6 -25 -10q-10 -4 -19.5 -6.5t-13.5 -0.5z" />
    <glyph glyph-name="dotaccent" unicode="&#x2d9;" horiz-adv-x="41" 
d="M29 239q-2 -3 -5.5 -5t-6.5 -1.5t-4 4t2 12.5q5 8 11 4q9 -4 3 -14z" />
    <glyph glyph-name="ring" unicode="&#x2da;" horiz-adv-x="833" 
d="M30 239q-9 -17 -14.5 -12t0.5 22q5 8 11 4q9 -4 3 -14zM24 237q3 4 -1 6q-2 2 -4 -2q-2 -7 0 -8.5t5 4.5z" />
    <glyph glyph-name="tilde" unicode="&#x2dc;" horiz-adv-x="114" 
d="M46 236q-7 3 -13 2t-14 -1q-3 0 -6 4t3 9q2 1 4.5 1.5t7.5 0.5q8 0 12.5 -2.5t9.5 -6.5q7 -5 16.5 -10t17.5 -6q11 2 15.5 2t5.5 -5q0 -6 -6 -8t-14 -2q-11 0 -17 7.5t-22 14.5z" />
    <glyph glyph-name="endash" unicode="&#x2013;" horiz-adv-x="222" 
d="M10 99q-2 3 -0.5 5t3.5 3q13 -4 42.5 -5.5t61.5 -1t59.5 1.5t37.5 3q1 0 1 -2t-2 -2q-3 -1 -18 -2.5t-36.5 -3.5t-46.5 -3.5t-46.5 -1.5t-37 2t-18.5 7z" />
    <glyph glyph-name="emdash" unicode="&#x2014;" horiz-adv-x="431" 
d="M10 99q-2 3 -0.5 5t3.5 3q9 -3 41 -4.5t75.5 -2t92.5 0t91.5 1t72.5 1.5t37 2q1 0 1 -2t-2 -2q-3 -1 -33.5 -2.5t-75.5 -3.5t-96.5 -3.5t-96.5 -1.5t-76 2t-34 7z" />
    <glyph glyph-name="quoteleft" unicode="&#x2018;" horiz-adv-x="92" 
d="M19 315q1 4 7.5 15.5t15 24.5t18 24.5t16.5 15.5l-46 -107q-2 -3 -4.5 -0.5t-4.5 7.5t-3 10.5t1 9.5z" />
    <glyph glyph-name="quoteright" unicode="&#x2019;" horiz-adv-x="131" 
d="M161 392q3 3 8.5 5t11.5 2t9.5 -1t1.5 -4l-73 -82q0 7 5.5 19.5t12.5 25t14 22.5t10 13z" />
    <glyph glyph-name="quotesinglbase" unicode="&#x201a;" horiz-adv-x="67" 
d="M57 12q-5 -8 -16.5 -16.5t-23.5 -16.5q-2 -1 -5.5 0t-1.5 3q10 11 13.5 17.5t8.5 15.5q2 3 3 5.5t3 5.5q6 11 15 5q5 -2 5.5 -9t-1.5 -10z" />
    <glyph glyph-name="quotedblleft" unicode="&#x201c;" horiz-adv-x="119" 
d="M58 315q1 4 7.5 15.5t15 24.5t18 24.5t16.5 15.5l-46 -107q-2 -3 -4.5 -0.5t-4.5 7.5t-3 10.5t1 9.5zM19 315q1 4 7.5 15.5t15 24.5t18 24.5t16.5 15.5l-46 -107q-2 -3 -4.5 -0.5t-4.5 7.5t-3 10.5t1 9.5z" />
    <glyph glyph-name="quotedblright" unicode="&#x201d;" 
d="M187 392q3 3 8.5 5t11.5 2t9.5 -1t1.5 -4l-73 -82q0 7 5.5 19.5t12.5 25t14 22.5t10 13zM233 392q3 3 8.5 5t11.5 2t9.5 -1t1.5 -4l-73 -82q0 7 5.5 19.5t12.5 25t14 22.5t10 13z" />
    <glyph glyph-name="quotedblbase" unicode="&#x201e;" horiz-adv-x="114" 
d="M57 12q-5 -8 -16.5 -16.5t-23.5 -16.5q-2 -1 -5.5 0t-1.5 3q10 11 13.5 17.5t8.5 15.5q2 3 3 5.5t3 5.5q6 11 15 5q5 -2 5.5 -9t-1.5 -10zM99 12q-5 -8 -16.5 -16.5t-23.5 -16.5q-2 -1 -5.5 0t-1.5 3q10 11 13.5 17.5t8.5 15.5q2 3 3 5.5t3 5.5q6 11 15 5q5 -2 5.5 -9
t-1.5 -10z" />
    <glyph glyph-name="ellipsis" unicode="&#x2026;" horiz-adv-x="266" 
d="M70 12q-7 -10 -15 -15.5t-13 -5.5t-5.5 5.5t8.5 18.5q2 3 3 5.5t3 5.5q6 11 15 5q5 -2 5.5 -9t-1.5 -10zM135 12q-7 -10 -15 -15.5t-13 -5.5t-5.5 5.5t8.5 18.5q2 3 3 5.5t3 5.5q6 11 15 5q5 -2 5.5 -9t-1.5 -10zM200 12q-7 -10 -15 -15.5t-13 -5.5t-5.5 5.5t8.5 18.5
q2 3 3 5.5t3 5.5q6 11 15 5q5 -2 5.5 -9t-1.5 -10z" />
    <glyph glyph-name="guilsinglleft" unicode="&#x2039;" horiz-adv-x="116" 
d="M11 127q-2 8 -0.5 11.5t7.5 9.5q16 11 38.5 16.5t46.5 20.5h1q5 0 5 -6t-10.5 -15t-24 -18t-26.5 -16.5t-18 -10.5q-1 -6 -0.5 -18.5t-0.5 -26t-3.5 -23.5t-8.5 -10q-2 0 -2 2q1 8 1 15v13q0 14 -1.5 26t-3.5 30z" />
    <glyph glyph-name="guilsinglright" unicode="&#x203a;" horiz-adv-x="106" 
d="M94 112q3 -7 3 -11t-4 -11q-13 -14 -33 -25.5t-40 -32.5h-1q-6 -2 -6 4q-2 6 6 16.5t19 22t21.5 21t14.5 14.5q-1 6 -4.5 19t-6.5 26.5t-3 24.5t6 13q1 1 3 -1q1 -8 2.5 -15t3.5 -12q3 -14 7.5 -25t11.5 -28z" />
    <glyph glyph-name="fraction" unicode="&#x2044;" horiz-adv-x="198" 
d="M284 470q11 0 13.5 -7t3.5 -12q-21 -20 -50 -61t-61 -93t-64 -108.5t-59.5 -108t-47.5 -92t-28 -59.5q-1 -2 -5 1.5t-2 7.5q2 6 13.5 32t29 64.5t39.5 85.5t46.5 95.5t49.5 94.5t48 81.5t42 57t32 21.5z" />
    <glyph glyph-name="Euro" unicode="&#x20ac;" horiz-adv-x="259" 
d="M21 331q-6 0 -8.5 0.5t-2.5 5.5q0 4 1.5 6t9.5 2h55q13 16 27 30t28 25q20 17 45 33t51 16q11 0 17.5 -6.5t6.5 -15.5q0 -12 -7.5 -28t-18 -31t-21 -27t-16.5 -16q-4 -3 -8 -3.5t-9 -0.5q-8 0 -8 2q0 1 1 1q7 8 19 21t23.5 28t20 29.5t9.5 26.5q-1 4 -4 4.5t-6 0.5
q-15 0 -32 -7.5t-35 -20t-35.5 -28.5t-32.5 -33h38q11 0 11 -5q0 -4 -1.5 -6.5t-9.5 -2.5h-50q-2 -4 -5 -7t-5 -6l-2 -2h62h8.5t2.5 -5q0 -4 -1.5 -6t-9.5 -2h-71q-11 -17 -21 -36t-11 -38q0 -14 7.5 -19t18.5 -6q16 -2 45 8.5t64 42.5q6 5 7 9t3 4q3 0 3 -3t-3.5 -6
t-5.5 -5l-10.5 -10.5t-23 -18.5t-34 -18.5t-41.5 -9.5q-16 0 -27 7.5t-11 24.5t7.5 35.5t19.5 38.5h-24q-6 0 -8.5 0.5t-2.5 5.5q0 3 1.5 5t9.5 2h32l12 15h-44v0z" />
    <glyph glyph-name="trademark" unicode="&#x2122;" horiz-adv-x="504" 
d="M461 375q-5 1 -7.5 5t-5.5 8t-7.5 7t-11.5 3l-34 -2q-16 -1 -40 -3.5l-72 -7.5q-14 -14 -26.5 -29t-27.5 -27t-26.5 -27t-23.5 -30q-5 -5 -11 -17.5t-6 -18.5q0 -3 2 -4t3 -1q5 0 14.5 5t17.5 19q2 5 3.5 10.5t6.5 5.5q4 0 4 -4q0 -6 -9 -17q-2 -5 -14.5 -15.5
t-22.5 -10.5q-18 0 -18 15t16.5 41t35.5 50q10 12 22.5 28t18.5 24q-18 -3 -41 -2.5t-44 5t-35.5 14.5t-14.5 27q0 13 7.5 23t18.5 17.5t24.5 11.5t25.5 4q21 0 35.5 -8t24 -20t14 -26.5t4.5 -26.5q4 0 5 1l21.5 21.5t19.5 12.5q3 0 4.5 -2t1.5 -3q0 -5 -5 -13t-10 -13h2
q32 5 60.5 8t52.5 5q52 4 52 -27v-2q2 -14 -4 -14zM117 426q0 -17 17 -24t39 -7.5t43.5 2t29.5 3.5v9q0 24 -17 45t-43 23q-11 1 -23 -2t-22 -9.5t-17 -16.5t-7 -23zM239 347q10 8 18.5 17.5t16.5 19.5q-7 0 -8 -1q-1 0 -4.5 -4.5t-7.5 -10.5l-8 -12t-7 -9zM289 404
q2 1 6 7.5t7 11.5l-9.5 -9.5l-9.5 -9.5h6zM426 374q6 2 12 1.5t10 -6.5q7 -11 -5 -25q-6 -7 -10.5 -13.5t-9.5 -12.5q-14 -17 -27 -34t-19 -25q-2 -2 -6.5 -9t-2.5 -8q2 -2 5 -1q10 7 28.5 24.5t34.5 34.5q3 1 3.5 -2t0 -7.5t-3 -9.5t-5.5 -7q-3 -3 -11.5 -10t-18.5 -15
t-20 -14t-16 -6q-22 0 -19 14q0 4 3 9q14 24 29 42.5t37 43.5q5 6 11.5 14.5t-1.5 9.5q-3 1 -10 -3t-15 -10t-16 -12.5t-12 -9.5q-22 -17 -38 -37.5t-32 -45.5q-2 -2 -5 -9.5t-8 -5.5t-7.5 7.5t2.5 13.5q14 25 29.5 43.5t37.5 43.5q5 7 11 15.5t-2 9.5q-4 1 -11 -3t-15 -10
t-15.5 -12.5t-11.5 -9.5q-9 -7 -16.5 -14t-15.5 -15q-12 -17 -22 -31.5t-15 -21.5q-1 -3 -4.5 -10.5t-7.5 -5.5q-5 2 -7.5 8t1.5 14q6 12 17.5 29.5t24.5 35.5t25.5 34.5t21.5 25.5q3 3 8 4.5t10 1.5t8 -1t2 -4q-7 -8 -17 -20t-19 -23q10 8 28.5 22t31.5 18q6 2 12 1.5
t10 -6.5q7 -11 -5 -25l-1 -1q11 9 25 19t24 12zM478 276q-5 -8 -11 -12t-10 -4t-4 4t6 14q2 2 2.5 4t2.5 4q4 9 11 4q4 -2 4.5 -7t-1.5 -7zM141 276q-5 -8 -11 -12t-10 -4t-4 4t6 14q2 2 2.5 4t2.5 4q4 9 11 4q4 -2 4.5 -7t-1.5 -7z" />
    <glyph glyph-name="minus" unicode="&#x2212;" horiz-adv-x="151" 
d="M21 137q-6 0 -8.5 1t-2.5 9q0 6 1.5 9.5t9.5 3.5h109q6 0 8.5 -0.5t2.5 -8.5q0 -6 -1.5 -10t-9.5 -4h-109v0z" />
    <glyph glyph-name="fi" unicode="&#xfb01;" horiz-adv-x="170" 
d="M92 51q-21 -27 -15 -35q4 -4 9 0q1 0 10.5 8t23 20t27.5 25t23 24q4 2 4 -2t-2 -10t-5.5 -13t-7.5 -10q-3 -3 -13.5 -12.5t-23 -19.5t-25.5 -18t-21 -8q-23 0 -26 13q-18 -13 -37 -13q-25 0 -34 14l-38 -54q-41 -56 -89 -92t-95.5 -54t-92 -18.5t-79.5 16.5
q-18 9 -30.5 24.5t-12.5 35.5q0 26 20 44.5t52 18.5h2q10 0 14 -1.5t5 -2.5v-2q-2 -6 -4.5 -13t-5.5 -7q-10 0 -20.5 -1.5t-19 -5.5t-14 -12t-5.5 -23q0 -23 24 -40.5t59 -17.5q55 0 101.5 22t86.5 57.5t74 79.5t64 89l28 42q26 38 43 63.5t34 45.5q40 49 85 97.5t95 94.5
q5 5 12.5 10.5t14.5 5.5q5 0 8 -3.5t3 -6.5q0 -21 -20 -50.5t-47 -58.5t-54.5 -54t-42.5 -37q-21 -17 -40 -39l-9 -10l-48 -62q-4 -5 -10 -14.5t-11 -20t-9 -20.5t-4 -16t4 -8t7 -2q12 0 28 15.5t31 32.5l11 15q5 7 18.5 24.5t28 37t28 36t18.5 20.5q3 4 10 6t14 2.5t11 -1
t2 -5.5q-8 -11 -22 -27t-30 -34t-32 -37.5t-29 -35.5q-2 -2 -2 -3zM278 389q-38 -32 -67.5 -70.5t-61.5 -75.5q39 31 70.5 67.5t58.5 78.5zM240 239q-5 -8 -16.5 -16.5t-23.5 -16.5q-2 -1 -5.5 0t-1.5 3q10 11 13.5 17.5t8.5 15.5l6 11q6 11 15 5q5 -2 5.5 -9t-1.5 -10z" />
    <glyph glyph-name="fl" unicode="&#xfb02;" horiz-adv-x="200" 
d="M327 312q-23 -29 -47.5 -56t-53.5 -50q-30 -23 -52 -52.5t-45 -58.5q-5 -6 -12 -17.5t-13 -24t-8.5 -22.5t1.5 -13q7 -6 22.5 3t31.5 23.5t30 29t19 20.5q4 2 4.5 -2t-1 -10t-4.5 -13t-6 -10q-6 -6 -17 -16t-23.5 -19.5t-25.5 -16.5t-23 -7q-36 0 -37 25q-12 -11 -26 -18
t-28 -7q-25 0 -34 14l-38 -54q-41 -56 -89 -92t-95.5 -54t-92 -18.5t-79.5 16.5q-18 9 -30.5 24.5t-12.5 35.5q0 26 20 44.5t52 18.5h2q10 0 14 -1.5t5 -2.5v-2q-2 -6 -4.5 -13t-5.5 -7q-10 0 -20.5 -1.5t-19 -5.5t-14 -12t-5.5 -23q0 -23 24 -40.5t59 -17.5q55 0 101.5 22
t86.5 57.5t74 79.5t64 89l28 42q10 16 18 27.5t16.5 23t18.5 25t24 33.5q37 51 83.5 98.5t96.5 93.5q5 5 12.5 10.5t14.5 5.5q5 0 8 -3.5t3 -6.5q0 -21 -20 -50.5t-47 -58.5t-54.5 -54t-42.5 -37q-6 -5 -12 -10.5t-16.5 -17t-26.5 -31.5t-42 -52q-4 -5 -10 -14.5t-11 -20
t-9 -20.5t-4 -16t4 -8t7 -2q6 0 14 5t16.5 13t16.5 17l16 18q14 31 40 68t55 73q39 50 84.5 98.5t94.5 93.5q3 2 8.5 6.5t9.5 6.5t8 3t9 -2q5 -5 3.5 -9.5t-3.5 -9.5q-11 -23 -27 -43zM278 389q-38 -32 -67.5 -70.5t-61.5 -75.5q39 31 70.5 67.5t58.5 78.5zM370 389
q-38 -32 -67.5 -70.5t-61.5 -75.5q39 31 70 67.5t59 78.5z" />
    </font>
</defs>
</svg>
