<?xml version="1.0" standalone="no"?>
<!DOCTYPE svg PUBLIC "-//W3C//DTD SVG 1.1//EN" "http://www.w3.org/Graphics/SVG/1.1/DTD/svg11.dtd" >
<svg xmlns="http://www.w3.org/2000/svg" xmlns:xlink="http://www.w3.org/1999/xlink" version="1.1">
<metadata>
Created by FontForge 20170731 at Tue Apr 18 06:44:47 2017
 By Aleksey,,,
Copyright (c) 2017 by Octotype. All rights reserved.
</metadata>
<defs>
<font id="MoonlightsontheBeach" horiz-adv-x="531" >
  <font-face 
    font-family="Moonlights on the Beach"
    font-weight="400"
    font-stretch="normal"
    units-per-em="1000"
    panose-1="0 0 0 0 0 0 0 0 0 0"
    ascent="750"
    descent="-250"
    x-height="276"
    cap-height="500.5"
    bbox="-348.636 -249 1727.14 678.167"
    underline-thickness="50"
    underline-position="-150"
    unicode-range="U+0020-FB02"
  />
<missing-glyph horiz-adv-x="195" 
 />
    <glyph glyph-name=".notdef" horiz-adv-x="195" 
 />
    <glyph glyph-name=".null" horiz-adv-x="0" 
 />
    <glyph glyph-name="nonmarkingreturn" horiz-adv-x="333" 
 />
    <glyph glyph-name="space" unicode=" " horiz-adv-x="195" 
 />
    <glyph glyph-name="dollar" unicode="$" horiz-adv-x="455" 
d="M53 83l2 -1q7 0 6 -7q-2 -12 -19 -9q-9 2 -19.5 12t-6.5 30q2 8 6 16.5t9 17.5q-17 28 -16.5 62.5t14 65.5t38 52.5t56.5 24.5q10 1 18 0q7 -2 13 -5.5t7 -12.5l-2 -8q-4 -8 -9 -8q-3 -1 -5 2q-1 1 -2 3q-17 -11 -32 -25q-13 -12 -25.5 -28.5t-17.5 -36.5
q-3 -11 -5 -21.5t-1 -21.5q19 24 37.5 45t28.5 32l36 36t62 60l-4 22v1q-3 20 -0.5 44.5t20.5 45.5q10 12 25 20.5t32.5 12t35 2t32.5 -9.5q6 8 12 17t8 18q1 -1 4 -1q11 -2 21.5 -14t7.5 -28q-2 -12 -9 -21.5t-12 -12.5l-1 -1q4 -13 4 -35q-9 -8 -17.5 -5.5t-16.5 10.5
q-17 -16 -39 -36.5t-46 -43.5q7 -44 11 -90t-12 -93q-11 -31 -37 -50.5t-58 -26.5t-66.5 -0.5t-61.5 28.5l-4 -8t-3 -9q0 -8 1 -11zM239 258q0 21 -2 40q-24 -24 -48 -47.5t-45 -44.5t-38 -39t-28 -30q15 -20 38.5 -24.5t47 2.5t43 24t25.5 41q4 15 5.5 36t1.5 42zM323 456
q-9 -3 -18 -8q-8 -5 -15 -14t-10 -24q14 14 26 25t22 20q-2 1 -5 1z" />
    <glyph glyph-name="percent" unicode="%" horiz-adv-x="522" 
d="M136 21q3 0 7 -1.5t4 -7.5q0 -8 -7 -14t-19 -6q-7 0 -15.5 3t-16 9.5t-13 17t-5.5 25.5q0 26 15 63t35.5 75t40.5 71t31 50q7 11 18 27.5t24 35.5t26.5 38t25.5 36q-5 0 -15 2q-1 0 -1.5 0.5t-1.5 0.5q-4 0 -6 1q-8 -17 -15 -28.5t-19 -25.5q-26 -33 -49.5 -46t-41.5 -18
q-4 -2 -8 -2.5t-8 -1.5q-20 -4 -35.5 -0.5t-26.5 11.5t-18.5 18t-11.5 19q-8 19 -7.5 38.5t8.5 42.5q6 19 21 43t35 47l2 2l3 3t3.5 4t5.5 5q21 21 58.5 41.5t80.5 24.5q12 0 23 -4q9 -3 17 -10.5t11 -22.5v-9.5t-2 -7.5l-4 -7h-1q-1 -3 -4 -4t-6 -1q-6 0 -6 8q2 3 0 5
q-2 12 -21 9q-8 -2 -28.5 -12.5t-48.5 -37.5q-5 -5 -9 -10l-8 -10q-5 -3 -6 -6q-6 -8 -12 -15.5t-12 -18.5q-17 -27 -24.5 -47t-9.5 -41q1 -19 10.5 -24.5t23 -2.5t28.5 12.5t27 19.5q10 10 13.5 13t11.5 12q15 18 19 29q4 9 1 16t-7.5 14.5t-7.5 16.5t2 23q3 7 5.5 12.5
t6.5 9.5q10 12 20.5 16.5t18.5 5.5q2 2 5 2h3q4 0 6 -2q5 -1 9 -7t4 -16t-2 -22l-4 -17q3 0 4 1q15 3 25 7.5t15 6.5q3 1 7 1q7 11 17 31.5t10 37.5h6q8 0 17.5 -4t17.5 -11t13.5 -17.5t5.5 -22.5q0 -18 -8 -34t-13 -21q-16 -23 -40 -56t-50.5 -70.5t-54 -77t-51 -75
t-41 -64t-24.5 -45.5q-3 -7 -5 -14q-5 -13 -5 -29q0 -11 5 -16h3zM461 110q-8 -17 -15 -28.5t-19 -25.5q-26 -33 -49.5 -46t-41.5 -18q-4 -2 -8 -2.5t-8 -1.5q-20 -4 -35.5 -0.5t-26.5 11.5t-18.5 18t-11.5 19q-8 19 -7.5 38.5t8.5 42.5q6 19 21 43t35 47l2 2l3 3t3.5 4
t5.5 5q21 21 58.5 41.5t80.5 24.5q12 0 23 -4q9 -3 17 -10.5t11 -22.5v-9.5t-2 -7.5l-4 -7h-1q-1 -3 -4 -4t-6 -1q-6 0 -6 8q2 3 0 5q-2 12 -21 9q-8 -2 -28.5 -12.5t-48.5 -37.5q-5 -5 -9 -10l-8 -10q-5 -3 -6 -6q-6 -8 -12 -15.5t-12 -18.5q-17 -27 -24.5 -47t-9.5 -41
q1 -19 10.5 -24.5t23 -2.5t28.5 12.5t27 19.5q10 10 13.5 13t11.5 12q15 18 19 29q4 9 1 16t-7.5 14.5t-7.5 16.5t2 23q3 7 5.5 12.5t6.5 9.5q10 12 20.5 16.5t18.5 5.5q2 2 5 2h3q4 0 6 -2q5 -1 9 -7t4 -16t-2 -22l-4 -17z" />
    <glyph glyph-name="quotesingle" unicode="'" horiz-adv-x="202" 
d="M290 427q1 6 2.5 14.5t5 15.5t10 12t18.5 4q11 -1 16 -4.5t7 -8.5q3 -5 3 -11q-8 -38 -29.5 -64.5t-47.5 -42.5q-14 -8 -23.5 -9t-15 2.5t-7.5 10t1 12.5q2 5 12 5q4 -1 9 -2q17 10 27 30t12 36z" />
    <glyph glyph-name="parenleft" unicode="(" horiz-adv-x="459" 
d="M96 -80q-20 1 -42 22t-31.5 59.5t0.5 94t52 124.5q54 88 113.5 150t110.5 102t86.5 58t41.5 17q7 0 19.5 0.5t23.5 -2t19.5 -8.5t8.5 -18q0 -8 -12 -8t-30.5 -1t-40 -7.5t-40.5 -28.5q-84 -87 -139.5 -158.5t-89 -128.5t-49 -99.5t-19 -71t1 -43.5t11.5 -18q8 -3 15 -6.5
t10 -8t-1 -9.5t-19 -11z" />
    <glyph glyph-name="parenright" unicode=")" horiz-adv-x="416" 
d="M346 545q20 -1 42 -22t31.5 -59.5t-0.5 -94t-52 -124.5q-54 -88 -107.5 -150t-99 -100.5t-79 -55.5t-48.5 -14q-8 0 -20 -0.5t-23 2t-19.5 8.5t-8.5 18q0 8 12 8t30.5 1t40 7.5t40.5 28.5q113 118 172.5 211.5t83.5 158.5t22 101.5t-12 40.5q-8 3 -15 6.5t-10 8t1 9.5
t19 11z" />
    <glyph glyph-name="asterisk" unicode="*" horiz-adv-x="505" 
d="M343 413q-5 -5 -11.5 -11t-14.5 -14q17 2 30.5 6t21.5 10q0 1 0.5 1t0.5 1q1 1 3 2q4 0 7 -3q0 -2 1 -3t1 -3q1 -3 3 -11t1 -18t-6 -19.5t-18 -14.5h-2q-1 0 -2 -1q0 1 -1 0q-1 1 -1 0.5t-2 0.5q-8 -1 -17 -1h-20q14 -11 26.5 -18.5t22.5 -7.5h2q2 0 4 -1q3 -2 2 -6
q-2 -2 -1.5 -3t-0.5 -3q-1 -3 -5.5 -10t-12 -13.5t-18 -9.5t-23.5 3l-2 1h-1q0 1 -2 1q0 1 -1 3q-5 5 -12 11.5t-15 14.5q2 -18 5.5 -32t9.5 -21q1 0 1 -0.5t1 -0.5q1 -1 2 -3q2 -4 -3 -7q-2 0 -5 -3q-3 -1 -11.5 -3t-18.5 -1t-19.5 6t-14.5 19v2q0 1 -1 2q1 0 0 1q-1 0 1 3
v37q-11 -14 -18.5 -26.5t-7.5 -22.5v-2q0 -1 -1 -3q-2 -4 -6 -3q-2 1 -3 1t-3 1q-3 1 -10 5.5t-13.5 12t-9.5 18t3 23.5l1 2v2h1q1 0 1 1t2 2l12 12l15 15q-18 -2 -32 -5.5t-22 -9.5q0 -2 -0.5 -2t-0.5 -1q-1 -2 -3 -2q-4 -2 -7 3q0 3 -3 6q-1 3 -3 11t-1 18t6 20t19 15h2h2
h1h3h37q-14 11 -26 17.5t-21 8.5q-2 -2 -2 -1t-1 -1q-1 0 -3 1q-4 2 -3 8q2 1 1.5 2t0.5 3q1 3 5.5 10.5t12.5 14t18.5 9.5t23.5 -3l2 -2h1q-1 -1 1 -1q0 -1 0.5 -1t0.5 -1l26 -27q-2 17 -5.5 31t-9.5 22h-2v1q-1 1 -2 3q-2 3 2 7q2 0 3 1t3 1q3 1 11 3t18 1t20 -6t15 -18
v-2q0 -1 1 -2q-1 0 0 -1q-1 -1 -0.5 -1t-0.5 -2q0 -8 -0.5 -17.5t-0.5 -20.5q11 14 18.5 26t9.5 23q-2 1 -1 1t-1 1q0 1 1 3q1 3 8 3q1 -1 2 -1t3 -1q3 -1 10.5 -5.5t14 -12t9.5 -18t-3 -23.5l-2 -2v-2h-1q1 0 -2 -3z" />
    <glyph glyph-name="plus" unicode="+" horiz-adv-x="485" 
d="M280 314q1 -16 0 -40.5t-1 -53.5q37 2 68.5 6.5t45.5 15.5q0 2 0.5 2t0.5 1l4 2q4 2 8 -3q0 -2 1 -3.5t2 -3.5q1 -3 3.5 -13.5t2 -23t-7.5 -24.5t-23 -18h-3q-1 0 -2 -1q0 1 -1 0q-1 1 -1.5 0.5t-2.5 0.5q-16 -1 -41 -0.5t-54 1.5q2 -38 6.5 -69.5t15.5 -45.5q2 0 2 -0.5
t1 -0.5l2 -4q2 -4 -3 -8q-2 0 -3.5 -1t-3.5 -2q-3 -2 -13.5 -4t-23 -1.5t-24.5 7t-18 23.5v3q0 1 -1 2q1 0 0 1q1 1 0.5 1.5t0.5 2.5q-1 16 -0.5 41t1.5 54q-37 -1 -68 -5.5t-46 -15.5q0 -2 -0.5 -2t-0.5 -1q-2 -2 -4 -3q-4 -2 -8 4q0 2 -1 3.5t-2 3.5q-2 3 -4 13.5t-1.5 23
t7 24.5t23.5 18h3q1 0 2 1q0 -1 1 0q1 -1 1.5 -0.5t2.5 -0.5q15 1 40 0t54 -1q-1 36 -5.5 67t-15.5 46q-2 0 -2 0.5t-1 0.5q-2 2 -3 4q-2 4 4 8q2 0 3.5 1t3.5 2q3 1 13.5 3.5t23 2t24.5 -7.5t18 -23v-3q0 -1 1 -2q-1 0 0 -1q-1 -1 -0.5 -1.5t-0.5 -2.5z" />
    <glyph glyph-name="comma" unicode="," horiz-adv-x="143" 
d="M70 32q1 6 2.5 14.5t5 15.5t10 12t18.5 4q11 -1 16 -4.5t7 -8.5q3 -5 3 -11q-8 -38 -29.5 -64.5t-47.5 -42.5q-14 -8 -23.5 -9t-15 2.5t-7.5 10t1 12.5q2 5 12 5q4 -1 9 -2q17 10 27 30t12 36z" />
    <glyph glyph-name="hyphen" unicode="-" horiz-adv-x="444" 
d="M349 151q-1 0 -2 -1q0 1 -1 0q-1 1 -1.5 0.5t-2.5 0.5q-22 1 -57 3t-72 2.5t-68.5 -0.5t-45.5 -6q-7 -2 -12 -6q-5 -3 -9 -8t-5 -12q1 -3 2 -7q0 -8 -5 -10q-4 -2 -8 3.5t-6.5 15t-2.5 21.5t6 25q11 26 33.5 37.5t51.5 14t61.5 0t63 -4.5t56 0.5t41.5 14.5q0 2 0.5 2
t0.5 1l4 2q4 2 8 -4q0 -2 1 -3.5t1 -3.5q1 -3 3 -13.5t0.5 -23t-8.5 -24t-24 -16.5h-3z" />
    <glyph glyph-name="period" unicode="." horiz-adv-x="92" 
d="M19 32q1 6 2.5 14.5t5 15.5t10 12t18.5 4q11 -1 16 -4.5t7 -8.5q3 -5 3 -11q-7 -33 -26 -60q-8 -9 -16 -11.5t-13.5 2.5t-8 16.5t1.5 30.5z" />
    <glyph glyph-name="slash" unicode="/" horiz-adv-x="357" 
d="M70 21q3 0 7 -1.5t4 -7.5q0 -8 -7 -14t-19 -6q-7 0 -15.5 3t-16 9.5t-13 17t-5.5 25.5q0 26 15 63t35.5 75t40.5 71t31 50q10 16 28.5 43t38 55t36.5 51.5t25 34.5q5 8 5 7.5t1 1.5q9 15 16 29q6 12 11.5 25.5t5.5 24.5h6q8 0 17.5 -4t17.5 -11t13.5 -17.5t5.5 -22.5
q0 -18 -8 -34t-13 -21q-16 -23 -40 -56t-50.5 -70.5t-54 -77t-51 -75t-41 -64t-24.5 -45.5q-3 -7 -5 -14q-5 -13 -5 -29q0 -11 5 -16h3z" />
    <glyph glyph-name="zero" unicode="0" horiz-adv-x="609" 
d="M574 492q4 -5 9 -17.5t9 -33.5q4 -26 1 -65t-21 -96q-16 -54 -42.5 -97.5t-52.5 -75t-45.5 -48.5t-20.5 -18q-27 -23 -54 -37t-52 -21.5t-46 -10.5t-36 -3h-10q-5 0 -9 0.5t-9 1.5h-3q-42 7 -73.5 34.5t-44.5 71.5t-2.5 102.5t53.5 128.5q14 23 27.5 43t26.5 37
q8 9 15 18q6 8 12 15t11 12q38 42 70.5 65.5t57 35t40 14t20.5 2.5q15 0 34 -6t37 -23q11 -11 18 -22.5t12 -25.5q5 -18 0 -28.5t-14.5 -15t-21 -5.5t-18.5 0q-16 -2 -14 10q2 5 8 7v1q3 36 -4 52t-18 18t-23 -2.5t-23 -12.5q-12 -9 -25 -21q-30 -31 -55 -59.5t-46 -55.5
q-3 -4 -7 -9.5t-9 -11.5l-10 -14q-46 -65 -68 -116t-25 -89.5t9.5 -65t36.5 -40.5q6 -5 13 -6q5 -2 14.5 -4t24.5 -1q23 2 55 15t69 51q12 12 22.5 24.5t19.5 24.5q54 69 82.5 126t40.5 100.5t11.5 73t-3.5 45.5q-2 10 -3 14q-1 3 -2 5l-4 4q-1 1 -1 2q-5 -1 -9 0
q-3 1 -5 3.5t0 10.5q3 9 16 14q10 2 15 2q1 0 2 -0.5t2 -0.5q2 0 4 -2q7 -2 18 -9q0 -2 2 -2q0 -1 1 -1l2 -2q2 -2 2.5 -3t2.5 -3l1 -1q0 -1 2 -3z" />
    <glyph glyph-name="one" unicode="1" horiz-adv-x="389" 
d="M91 1q5 1 9 -1q8 -4 4 -15q-3 -7 -12 -10.5t-20.5 -1.5t-22.5 10.5t-17 25.5q-8 22 5.5 61t34.5 81t44 79t35 56q10 16 28.5 43t38 55t36.5 51.5t25 34.5v1q4 6 5 6q0 1 1 2q-38 -8 -71 -15.5t-54 -13.5q-5 -2 -8 -3l-6 -2q-6 -3 -8 -5l-1 -1q-2 -2 -3 -4l-1 -2v-2
q0 -1 -2 -3q-1 -2 -4 -4q-6 -4 -13 0q-1 0 -3 2q-1 0 -1 1q-10 7 -14 23t4 30l1 2q2 3 8 9q2 1 3.5 2t3.5 2q6 4 9 5q24 12 75.5 26.5t117.5 31.5h1q2 0 4 0.5t5 -0.5q11 0 22 -7.5t19 -19.5q10 -14 9 -32v-1q-1 -12 -5 -22t-9 -18q-1 -1 -1 -1.5t-1 -1.5l-1 -1q-1 -3 -4 -6
q-16 -23 -40 -56t-50.5 -70.5t-54 -77t-51 -75t-41 -64t-24.5 -45.5q-5 -13 -8 -24q-2 -10 -2 -20t5 -15z" />
    <glyph glyph-name="two" unicode="2" horiz-adv-x="553" 
d="M509 500q25 -38 19 -80.5t-36 -73.5h-1q0 -1 -1 -1q0 -2 -2 -2q-3 -4 -7 -6l-3 -3l-1 -1q-3 -1 -6 -4q-19 -13 -45.5 -30.5t-56.5 -37.5q-8 -5 -15 -10t-15 -10q-38 -26 -77 -53t-73 -51.5t-60.5 -45t-38.5 -33.5l-5 -5q52 -3 102.5 -4t92 1t69.5 7.5t36 15.5q-1 7 1 11
t4.5 7t8.5 2q6 0 10 -9.5t3.5 -23t-7 -28t-21.5 -26.5q-30 -23 -106.5 -28t-195.5 0h-11.5t-15.5 1v1q-14 0 -29 13t-14 39q0 6 2 12t5 13q12 24 39 53t58 56t60.5 49.5t44.5 34.5t42 30.5t55 37.5t52.5 35.5t35.5 24.5q2 1 4 3q1 1 2 1l2 2h1q1 1 9.5 7t18.5 14.5t20 18.5
t15 21q3 4 3 11q1 12 -5 20.5t-18 13t-27.5 5.5t-32.5 -2l-12 -3q-43 -11 -88 -34q-1 0 -2 -1q-8 -4 -11 -6q-14 -8 -37.5 -28t-46.5 -56q-1 -1 -1 -2q-12 -15 -21 -19q-3 -1 -10.5 4.5t-9.5 19.5t5 36.5t32 56.5q21 30 47.5 50.5t56.5 34.5q32 11 65 14q28 2 59.5 -3.5
t58.5 -27.5q15 -14 26 -29zM386 490q2 1 4.5 1t4.5 1q-2 -1 -4.5 -1t-4.5 -1z" />
    <glyph glyph-name="three" unicode="3" horiz-adv-x="496" 
d="M425 529q15 -14 26 -29q25 -38 19 -80.5t-36 -73.5h-1q0 -1 -1 -1l-2 -2q-3 -4 -7 -6l-3 -3l-1 -1q-3 -1 -6 -4q-8 -5 -17 -11t-20 -13q17 -15 29 -33t19 -38q12 -35 7 -77.5t-31 -82.5q-22 -39 -58 -65q-15 -11 -35 -20.5t-45 -15t-55 -5t-65 8.5q-43 12 -77 44t-45 80
q-7 29 -5.5 61.5t13.5 69.5q1 4 4 12t8 16.5t13.5 15.5t19.5 9q9 2 17 0t13 -4q6 -3 12 -7l8 -10q2 -5 3.5 -10.5t-0.5 -11.5q-1 -2 -3 -4q-4 -4 -8 -4q-2 -3 -3 -6.5t-3 -6.5l-3 -6q-32 -75 -22 -122t45 -68q6 -5 13 -6q5 -2 14.5 -4t24.5 -1q23 2 55 13.5t69 49.5
q8 8 15 16t16 21q2 3 12 21.5t17 44t4 53.5t-27 49q-6 5 -13 9t-15 8l-9 3q-5 2 -10.5 2.5t-13.5 2.5q-6 1 -8.5 2.5t-4.5 3.5t-1 4q2 8 8 12q1 1 1.5 1t1.5 1q5 3 9 6t8 5q17 12 31 21.5t21 14.5h1q2 1 4 3q1 1 2 1l2 2h1q1 1 9.5 7t18.5 14.5t20 18.5t15 21q1 2 2 5t1 6
q1 12 -5 20.5t-18 13t-28 5.5t-33 -2q-3 -1 -11 -3h-1q-20 -5 -42 -13.5t-45 -20.5q-1 0 -1.5 -0.5t-1.5 -0.5q-2 -2 -5 -3t-5 -3q-14 -8 -37.5 -28t-46.5 -56l-2 -2q-10 -15 -20 -19q-3 -1 -10.5 4.5t-9.5 19.5t4.5 36.5t31.5 56.5q22 30 48.5 50.5t56.5 34.5q32 11 65 14
q28 2 59.5 -3.5t58.5 -27.5z" />
    <glyph glyph-name="four" unicode="4" horiz-adv-x="493" 
d="M445 333q6 0 10.5 -9t4.5 -22.5t2 -18t-12 -16.5q-18 -16 -56 -26.5t-89 -12.5q-32 -48 -64.5 -98t-40.5 -70q-5 -13 -8 -24q-2 -10 -2 -20t5 -15q5 1 9 -1q8 -4 4 -15q-3 -7 -12 -10.5t-20.5 -1.5t-22.5 10.5t-17 25.5q-5 14 -1 36t14.5 48t32 64.5t36.5 64.5
q-16 0 -33 -0.5t-35 -0.5q-10 0 -34 -1t-50 3h-5q-1 0 -2 0.5t-2 0.5q-12 3 -29 6.5t-14 19.5q0 4 4 12q2 2 2.5 3t2.5 3q1 3 5 7l2 1q13 14 40 35.5t63 48t79.5 56t88.5 59.5q29 19 57.5 39t55.5 40q1 0 1 0.5t1 0.5q1 1 7 3q2 0 4 0.5t5 -0.5q11 0 22 -7.5t19 -19.5
q7 -8 8 -20q1 -2 1 -5.5v-6.5v-1q-1 -12 -5 -22t-9 -18q-1 -1 -1 -1.5t-1 -1.5l-1 -1l-4 -6q-20 -29 -51 -72t-65 -91q35 5 57.5 11.5t29.5 14.5q0 6 1 11q1 4 3.5 7.5t8.5 3.5zM255 286q7 10 17 25.5t22 32.5t24.5 35.5t24.5 35.5q-23 -15 -51 -32.5t-57 -36.5t-57.5 -37.5
t-51.5 -34.5q64 0 123 3z" />
    <glyph glyph-name="five" unicode="5" horiz-adv-x="546" 
d="M336 330q35 -16 56.5 -41t31.5 -55q12 -35 7 -77.5t-31 -82.5q-22 -39 -58 -65q-15 -11 -35 -20.5t-45 -15t-54.5 -5t-65.5 8.5q-43 12 -77 44t-45 80q-14 59 8 131q1 4 4 12t8.5 16.5t13.5 15.5t19 9q10 2 17.5 0t13.5 -4q6 -3 12 -7l8 -10q2 -5 3.5 -10.5t-0.5 -11.5
q-1 -2 -3 -4q-4 -4 -8 -4q-2 -3 -3.5 -6.5t-3.5 -6.5l-3 -6q-32 -75 -22 -122t45 -68q5 -4 13 -6q5 -2 15 -4t24 -1q23 2 55.5 13.5t68.5 49.5q8 8 15 16t16 21q1 2 7.5 13.5t13.5 28t11 36.5t1.5 40t-15 37.5t-39.5 29.5q-20 7 -43 9q-20 2 -44 -1t-49 -17
q-14 -7 -24.5 -5.5t-18.5 5.5q-9 4 -15 13q-9 12 -10.5 23.5t0.5 22t5.5 18.5t6.5 12q1 1 1 1.5t1 1.5q0 1 1 1q16 23 30 43t24 34q2 4 4.5 7t4.5 5v1q6 6 5 6q1 1 3 5t3 5q1 2 2 3.5t2 3.5q2 5 4 9l4 8q0 1 0.5 1.5t0.5 1.5q2 4 2 5l2 4v2q1 6 0 9q-1 1 -1 2q-1 1 -1 5
q-1 3 1 7q2 7 13 10h7h2h1q36 -2 73.5 -3.5t71.5 -2.5t60.5 -1.5t41.5 1.5q3 1 4.5 1t3.5 1q1 0 2 1l3 3l2 2q0 1 1 2q0 1 2 3t6 3q7 2 15 -8q8 -9 7 -26.5t-12 -28.5q-4 -4 -10 -7q-2 -1 -4 -1.5t-4 -1.5t-5 -1t-5 -1q-26 -5 -81 -7t-125 0q-2 -8 -5.5 -15.5t-6.5 -12.5
q-1 -1 -1 -1.5t-1 -1.5l-1 -2q-2 -2 -2.5 -3t-1.5 -2q-2 -4 -8 -12q-15 -21 -35 -48.5t-42 -59.5q34 12 75 14.5t79 -14.5z" />
    <glyph glyph-name="six" unicode="6" horiz-adv-x="589" 
d="M576 415q1 -14 -1 -34.5t-10 -40t-23.5 -35t-41.5 -18.5h-6q-6 0 -9 1h-1q-14 3 -17 13q-2 7 0 10.5t5 4.5q4 1 9 0q2 0 5 3q4 3 10 16q4 11 5.5 30.5t-0.5 52.5q-2 19 -5 33.5t-8 25.5q-14 30 -31 38t-21 8q-13 4 -26.5 2t-24.5 -7q-19 -10 -30 -20q-7 -6 -13 -12
q-29 -31 -54.5 -59.5t-45.5 -55.5q-3 -4 -7 -9.5t-9 -11.5l-10 -14q-5 -5 -8 -11q17 7 37.5 12.5t42 7t44 -1.5t43.5 -13q35 -16 56 -41t32 -55q12 -35 7 -77.5t-31 -82.5q-22 -39 -58 -65q-15 -11 -35 -20.5t-45 -15t-54.5 -5t-65.5 8.5q-42 12 -72 43t-42 76t-2 102.5
t48 121.5q29 46 55 79q7 10 14 19q6 8 12 15t11 12q30 32 56 53t48 34t39.5 19t28.5 8q21 4 43 4q19 0 40.5 -4.5t41.5 -17.5q19 -12 33 -29t23 -34.5t13.5 -34t4.5 -28.5zM353 299q-38 13 -75 9q-32 -3 -68 -23t-65 -70q-32 -75 -22 -122t45 -68q5 -4 13 -6q5 -2 15 -4
t24 -1q23 2 55.5 13.5t68.5 49.5q8 8 15 16t16 21q1 2 7.5 13.5t13 28t11 36.5t1.5 40t-15.5 37.5t-39.5 29.5z" />
    <glyph glyph-name="seven" unicode="7" horiz-adv-x="462" 
d="M83 3q5 0 9 -2q7 -4 2 -15q-3 -6 -13 -8.5t-21 0.5t-21 12.5t-14 27.5q-3 15 6 39.5t25 53t37 58.5t41.5 57.5t38 49t26.5 33.5q12 15 33.5 39.5t44 50t42.5 47t29 31.5q5 5 5 6q2 1 2.5 2t1.5 2q-33 1 -67 2t-65.5 1.5t-59 0.5t-45.5 -1q57 -58 46 -91q-5 -13 -12 -17
q-6 -4 -14 0t-18 27q-16 30 -43 57q-2 3 -6 7q-8 10 -10.5 19t-2.5 16q0 8 2 15q2 5 7 11l1 1q4 4 10 7q2 1 4 1.5t4 1.5q6 2 10 3q18 4 48.5 6t70 3.5t85.5 1.5h96h5q2 0 2.5 -0.5t1.5 -0.5q11 -2 21 -10.5t17 -21.5q8 -14 5 -33v-1q-2 -6 -2 -8q-3 -9 -7.5 -16.5
t-9.5 -13.5l-2 -2q-1 -1 -1 -2l-5 -5q-19 -21 -48 -53t-62.5 -69.5t-68.5 -77t-65 -75.5t-52.5 -64.5t-31.5 -44.5q-7 -12 -11 -23q-4 -10 -5 -19.5t4 -15.5z" />
    <glyph glyph-name="eight" unicode="8" horiz-adv-x="593" 
d="M509 405q-10 -16 -24 -30q-13 -12 -32 -24t-45 -17q15 -12 29.5 -29.5t22.5 -41.5q6 -20 9 -43t-4 -53l1 1q-5 -22 -11.5 -39t-11.5 -28q-7 -13 -13 -23q-16 -24 -35.5 -41.5t-40.5 -29t-42 -18t-41 -9.5q-47 -7 -96 0q-3 0 -4 1h-4q-35 6 -62.5 26t-44 52.5t-18.5 75.5
t16 95h1h-1q15 35 40 65q21 26 53 49t80 31q21 4 46 3q-11 16 -12.5 38.5t16.5 52.5q37 58 78 76t77 12q40 -7 64 -25q10 -8 18 -19.5t10.5 -27t-2 -35.5t-17.5 -45zM389 173q10 24 10.5 50t-6.5 49t-21.5 39t-35.5 21q-21 4 -46.5 3.5t-52 -12.5t-52.5 -38t-47 -72
q-32 -76 -25.5 -121.5t41.5 -66.5q8 -5 13 -6q5 -2 15 -4t25 -1q11 1 25 3t30 8t33.5 17t35.5 30l9 9q6 7 19.5 29.5t29.5 62.5zM444 445q14 23 15 37.5t-3 22.5q-4 9 -15 12q-9 2 -19 -3t-19.5 -14t-18 -20t-15.5 -20t-14 -23.5t-11 -28.5t-3.5 -24.5t9.5 -12.5
q17 -5 44.5 15.5t49.5 58.5z" />
    <glyph glyph-name="nine" unicode="9" horiz-adv-x="590" 
d="M409 554q42 -12 72 -43t42 -76t2 -102t-48 -121q-34 -64 -75 -116q-18 -22 -39.5 -43.5t-46 -39t-52 -29t-57.5 -14.5q-15 -2 -25 -1.5t-11 0.5q-19 0 -41 4t-42 17q-20 12 -34 29t-23 34.5t-13.5 34t-4.5 28.5q0 14 2 34.5t10 40t23.5 35t41.5 18.5h6q6 0 9 -1h1
q14 -3 17 -13q2 -8 0 -11t-5 -4q-4 -1 -9 0q-2 -1 -5 -3q-6 -4 -10 -15q0 -2 -2 -6q-5 -14 -10.5 -38.5t-3.5 -51t16 -51t47 -38.5q2 -1 3.5 -1.5t3.5 -1.5q3 -1 6 -1q13 -4 29 -1q19 2 38 11.5t36.5 24t33.5 32.5t30 36q33 42 61 95q-17 -7 -37.5 -12.5t-42.5 -7t-44 2
t-43 12.5q-35 16 -56.5 41t-31.5 55q-12 35 -7 77.5t31 82.5q22 39 58 65q15 11 35 20.5t44.5 15t54.5 5t66 -8.5zM445 316q32 75 22 122t-45 68q-8 5 -13 6q-5 2 -15 4t-24 1q-23 -2 -55.5 -13.5t-68.5 -49.5q-8 -8 -15.5 -16t-15.5 -21q-2 -2 -8 -13.5t-13 -28t-11 -36.5
t-1 -40t15 -37.5t39 -29.5q37 -13 75 -9q16 1 33.5 6.5t35 16t34 27.5t31.5 43z" />
    <glyph glyph-name="colon" unicode=":" horiz-adv-x="180" 
d="M26 82q2 6 4 14.5t6.5 15.5t11.5 12t19 4q10 -1 15 -4.5t7 -8.5t1 -11q-10 -34 -32 -60q-9 -9 -17 -11.5t-13 2.5t-6 16.5t4 30.5zM94 249q1 6 3.5 14.5t6.5 15.5t11 12t19 4q11 -1 15.5 -4.5t6.5 -8.5t2 -11q-12 -33 -32 -60q-18 -19 -30.5 -9.5t-1.5 47.5z" />
    <glyph glyph-name="semicolon" unicode=";" horiz-adv-x="235" 
d="M150 249q1 6 3.5 14.5t6.5 15.5t11 12t18 4t15.5 -4.5t6.5 -8.5t2 -11q-5 -17 -12.5 -32t-17.5 -28q-9 -9 -17 -11.5t-13.5 2.5t-6.5 16.5t4 30.5zM87 82q2 6 4 14.5t6 15.5t11 12t19 4q11 -1 15.5 -4.5t6.5 -8.5t2 -11q-11 -38 -35 -64.5t-51 -42.5q-14 -8 -23.5 -9
t-15 2.5t-6 10t2.5 12.5q1 5 11 5q4 -1 9 -2q18 10 29.5 30t14.5 36z" />
    <glyph glyph-name="less" unicode="&#x3c;" horiz-adv-x="448" 
d="M319 122q15 -10 18.5 -23t2 -25t-6 -21.5t-6.5 -12.5q-1 -2 -2 -3.5t-2 -3.5q-4 -4 -9 -2q-2 1 -3 4q0 1 -0.5 1t0.5 2q-11 14 -33 22.5t-49.5 14.5t-57 11t-56 13t-47.5 21t-31 34q-4 8 -5 13q-2 6 -2 10q-3 21 4 37t15 21q21 24 59 35t78 18.5t75 17t50 29.5v4q1 2 3 3
q4 2 10 -2q0 -2 1.5 -3t1.5 -3q2 -3 7 -12.5t6.5 -22t-2.5 -25.5t-19 -22q-1 -1 -3 -1q-1 0 -1 -2h-1h-4q-21 -5 -55 -12t-69 -15.5t-65 -18t-44 -17.5q14 -8 44.5 -17.5t65 -18t68 -15.5t54.5 -11q2 1 2.5 0t1.5 0q1 -1 1 0l2 -2h3v0z" />
    <glyph glyph-name="equal" unicode="=" horiz-adv-x="365" 
d="M311 222q-1 0 -2 -1q0 1 -1 0q-1 1 -1.5 0.5t-2.5 0.5q-22 1 -57 3t-72 2.5t-68.5 -0.5t-45.5 -6q-7 -2 -12 -6q-5 -3 -9 -8t-5 -12q1 -3 2 -7q0 -8 -5 -10q-4 -2 -8 3.5t-6.5 15t-2.5 21.5t6 25q11 26 33.5 37.5t51.5 14t61.5 0t63 -4.5t56 0.5t41.5 14.5q0 2 0.5 2
t0.5 1l4 2q4 2 8 -4q0 -2 1 -3.5t1 -3.5q1 -3 3 -13.5t0.5 -23t-8.5 -24t-24 -16.5h-3zM53 152q1 0 2 1q0 -1 1 0q1 -1 1.5 -0.5t2.5 -0.5q22 -1 57 -3t72 -2.5t68.5 0.5t45.5 6q7 2 12 6q5 3 9 8t5 12q-2 3 -2 7q-2 7 5 10q4 1 8 -4t6.5 -14t2.5 -21.5t-6 -25.5
q-11 -26 -33.5 -37.5t-51.5 -14t-61.5 0t-63 4.5t-56 -0.5t-41.5 -14.5q0 -2 -0.5 -2t-0.5 -1l-4 -2q-4 -2 -8 4q0 2 -1 3.5t-1 3.5q-2 3 -3.5 13.5t0 23t8.5 24t24 16.5h3z" />
    <glyph glyph-name="greater" unicode="&#x3e;" horiz-adv-x="448" 
d="M142 250q-15 10 -18.5 23t-2 25t6 21.5t6.5 12.5q1 2 2 3.5t2 3.5q5 4 9 2q2 -1 3 -4q0 -1 0.5 -1t-0.5 -2q12 -15 33.5 -23t49 -14t57 -11t56 -13t47.5 -21t31 -34q4 -8 5 -13q2 -6 2 -10q3 -21 -4 -37t-15 -21q-21 -24 -59 -35t-78 -18.5t-75 -17t-50 -29.5v-4
q-1 -2 -3 -3q-5 -3 -10 2q0 2 -1.5 3t-1.5 3q-2 3 -7 12.5t-6.5 22t2.5 25.5t19 22q1 1 3 1q1 0 1 2h1h4q21 4 55 11.5t69 16t65 18t44 17.5q-14 8 -44.5 17.5t-65 18t-68 15.5t-54.5 11q-2 -1 -2.5 0t-1.5 0q-1 1 -1 0l-2 2h-3v0z" />
    <glyph glyph-name="A" unicode="A" horiz-adv-x="702" 
d="M0 -90q-27 8 -39.5 20t-15 25.5t2.5 27t14 24.5t19 18.5t17 8.5q10 1 12 -5q1 -3 0 -7q0 -7 3.5 -18.5t12.5 -20.5t25 -13t41 3.5t60 29t82 63.5q16 14 38.5 34t40.5 35q-2 0 -8 -0.5t-7 0.5q-11 2 -24.5 9t-22 21t-8.5 35.5t16 52.5q24 46 64 81t86.5 60.5t96 43
t93.5 28t78.5 16t50.5 7.5q10 0 21 -1q9 -1 18 -4t16 -9q6 -6 11 -20t-7 -32q-6 -9 -19.5 -23.5t-33.5 -35.5t-46 -50t-57 -69q20 1 29.5 -6t12 -19t-2 -26t-12.5 -26q-9 -12 -15.5 -16t-10.5 -5q-7 -1 -9 3q-1 2 -1 3q0 4 -1 8t-6 6t-15 2t-28 -4q-2 -4 -4 -7t-4 -7
q-44 -63 -56 -106t1 -70.5t48.5 -40t85.5 -15t112 4.5t129 19q120 22 211 29t152.5 2.5t92.5 -18.5t30 -35q-1 -13 -6 -20q-5 -6 -15 -7.5t-27 9.5q-37 22 -93 24.5t-123.5 -5.5t-144 -20.5t-155 -20.5t-155.5 -5t-146 26q-42 15 -61 39t-19.5 55.5t15.5 69.5t45 79
q-22 -5 -50 -9.5t-53 -9.5q-22 -19 -48 -45t-56 -53.5t-63.5 -53.5t-69 -44t-72 -24.5t-73.5 4.5zM658 365q-32 -35 -83.5 -74t-114.5 -92q20 5 39.5 10.5t36.5 10.5q31 39 54 67t38 45q18 20 30 33zM295 231q-7 -30 11.5 -40.5t52.5 -8.5q63 51 122 99t105 85q54 43 101 82
q-34 -2 -74 -11.5t-81.5 -25t-81.5 -36t-72 -44t-54.5 -49t-28.5 -51.5z" />
    <glyph glyph-name="B" unicode="B" horiz-adv-x="522" 
d="M11 144q-5 8 -7 17t-4 17q-3 28 2.5 54.5t14.5 48.5t18 36.5t11 17.5q25 40 59 70t72 53q30 18 73.5 33.5t91 22t93 -0.5t79.5 -35q31 -27 45 -62q12 -30 10 -72.5t-38 -96.5q-29 -40 -62.5 -64t-62.5 -38q-34 -16 -68 -23q3 -7 5 -17q2 -8 3 -19.5t-1 -24.5q5 0 19.5 2
t32.5 5.5t36.5 9t31.5 13.5q1 1 2 1t2 1q9 5 15 5.5t9 -2t4 -6.5t0 -8q-1 -3 -1 -5.5t-1 -4.5q-1 -3 -2 -4q-6 -7 -11 -11q-13 -9 -35 -15.5t-44 -10t-40.5 -4t-25.5 1.5l-4 -8t-4 -9q-12 -26 -37 -44t-53.5 -26t-57 -6t-48.5 17q-22 16 -34 45t-8 72q-32 15 -51 34t-29 40z
M163 -17q16 -7 38.5 9t40.5 42q-25 2 -46 5.5t-41 8.5q-8 -25 -7 -42.5t15 -22.5zM69 209q-1 -6 -2 -10.5t-2 -9.5q-2 -20 5.5 -39.5t29.5 -36.5q16 61 72 144q27 34 59 60q26 22 60.5 37.5t71.5 8.5q9 -4 17 -9q7 -5 12 -13t7 -19q1 -11 -3.5 -16t-10.5 -7.5t-13 -2.5h-11
q-23 -1 -55 -22.5t-61.5 -53.5t-51.5 -69.5t-26 -70.5q23 -7 47 -10.5t47 -5.5q8 16 12.5 31t2.5 28q-22 -4 -37 -4q-13 0 -19.5 4.5t5.5 18.5q6 7 31.5 13t58.5 18t68.5 35.5t63.5 65.5t41.5 71.5t15.5 49.5t-4.5 31.5t-17.5 16.5q-10 4 -43 8t-80.5 -5t-104 -35.5
t-113.5 -82.5q-29 -26 -45 -54.5t-27 -64.5z" />
    <glyph glyph-name="C" unicode="C" horiz-adv-x="446" 
d="M131 -92q-41 13 -73 39.5t-45 66t-2.5 94t52.5 123.5q54 88 102.5 137t85.5 72t61.5 28t30.5 4q15 0 34 -5.5t37 -22.5q19 -18 27.5 -41t10 -46.5t-3.5 -46.5t-14 -41q-14 -27 -28.5 -44t-29 -26t-29 -12t-26.5 -3t-23.5 4.5t-18 13t-7.5 19.5t7 23q1 3 4 5q6 4 10 0
q6 -7 13.5 -8.5t18.5 8.5l13 14q14 15 29 41.5t17 59.5q3 37 -3.5 52.5t-18.5 18.5q-11 2 -23 -2.5t-23 -12.5q-12 -9 -25 -21q-95 -99 -144 -176t-63.5 -133.5t-1 -92.5t43.5 -54q15 -9 32.5 -13.5t35.5 -5.5q11 -1 23.5 0t24.5 2.5t22 3.5t16 4q21 5 59.5 13.5t87 15.5
t103.5 11.5t109 2.5q9 -1 26.5 -1.5t37.5 -2.5t40.5 -6.5t35.5 -12.5t22 -21t1 -31q-6 -12 -12 -20q-5 -7 -11 -9.5t-11 5.5q-8 14 -24.5 24t-35 16.5t-37.5 9.5t-32 4q-75 5 -171.5 -7.5t-201.5 -27.5q-70 -9 -135 11z" />
    <glyph glyph-name="D" unicode="D" horiz-adv-x="637" 
d="M640 392q0 -7 -0.5 -13.5t-1.5 -14.5q-5 -54 -28 -112t-58 -111.5t-79 -100t-92 -77.5q-22 -15 -46 -24.5t-47.5 -15t-44 -8t-35.5 -2.5q-26 0 -49 7t-39 23.5t-23.5 42.5t-4.5 64l-4 2q-52 25 -73 58.5t-19 85.5q2 45 30 87.5t73 79.5t102.5 66.5t117 48t116.5 25
t102 -2.5t73 -35t30 -73zM164 62q12 -4 31 -7.5t45 -3.5q23 0 34.5 2t20.5 2q22 0 20 -11q-2 -21 -19.5 -27t-40.5 -6q-26 0 -55 4.5t-50 9.5q-2 -5 -3 -10.5t-1 -10.5q-2 -25 6.5 -37t43.5 -12q20 0 53 10t83 42q38 28 74.5 77t66 104.5t49 112t23.5 101.5q3 40 -22 52.5
t-66.5 5.5t-93 -29t-101.5 -51t-92 -60.5t-64 -57.5l-7 -8q-6 -10 -15.5 -26t-18.5 -39l-5 -18q-2 -20 6.5 -39.5t30.5 -36.5l3 -3q9 31 26 66.5t45 76.5q24 30 51 54q23 20 53.5 37t64.5 17q5 0 11 -0.5t11 -1.5q-1 0 5 -2.5t13.5 -8t13 -14t4.5 -21.5q-1 -9 -7 -11.5
t-14 -2.5q-5 0 -10.5 0.5t-10.5 0.5q-4 0 -26 -10t-52 -34.5t-62 -67t-56 -107.5q2 -1 4 -1z" />
    <glyph glyph-name="E" unicode="E" horiz-adv-x="477" 
d="M138 -77q-48 4 -80.5 29t-47.5 61.5t-11 79t30 82.5q8 12 15.5 21.5t15.5 17.5q35 33 70 42.5t58 9.5q2 4 5 7q-10 20 -10 48.5t18 60.5q12 23 37 46q32 30 61 44t52.5 19t40 4t22.5 -2q14 -2 27.5 -8t25.5 -20q16 -18 22 -40.5t3.5 -46.5t-10.5 -47t-20 -41
q-17 -27 -34 -43.5t-32.5 -25.5t-30.5 -12t-27 -3t-22.5 4.5t-16 12.5t-5 19t10.5 23q2 3 5 5q6 4 9 0q5 -6 12 -8t20 8q5 4 15.5 14t22.5 25t22 34.5t15 41.5v1q8 36 3.5 51.5t-15.5 18.5q-3 1 -9 1q-12 0 -25.5 -6t-26 -14.5t-24 -18.5t-20.5 -19q-20 -19 -33 -38
q-14 -20 -20.5 -39t-8.5 -34.5t-1 -27t2 -17.5q12 -12 18 -24.5t1 -20.5q-5 -10 -12 -8q-4 1 -6 4q-4 7 -15 11q-5 2 -11 2q-35 5 -61 -8t-43 -30q-20 -20 -35 -48l-3 -6q-23 -53 -13 -84.5t32 -47.5q26 -19 66 -26q27 -4 48.5 -1t37.5 10.5t27 17.5t17 19t9 18t4 16
q1 8 1 16q-3 12 -11.5 16.5t-19.5 4.5t-24 -2t-26 -2q-14 -1 -17.5 5t-3.5 14q0 9 5 20q17 31 46.5 40t57 -0.5t46 -34t12.5 -58.5q-2 -2 -2 -3q-6 -32 -22 -55q-31 -45 -87.5 -65.5t-125.5 -9.5z" />
    <glyph glyph-name="F" unicode="F" horiz-adv-x="434" 
d="M66 241q-3 -5 -10 -7.5t-15.5 -1.5t-16 6.5t-11.5 17.5q-8 24 -2 49.5t36 50.5q27 23 84.5 50.5t139.5 53.5q53 17 98 26q19 4 37.5 6t34.5 1.5t28 -5t17 -14.5q4 -6 5 -14q1 -7 -0.5 -17t-8.5 -21q-4 -6 -17 -24.5t-32 -45t-42.5 -59.5t-47.5 -68q24 0 38 -3
q11 -3 20 -8q7 -5 9 -9l2 -4q1 -2 1 -3.5t1 -3.5q0 -4 -1.5 -7t-7.5 -4q-4 -1 -18 2q-2 0 -4 1q-8 2 -20 3.5t-23 1.5l-8 1h-13q-21 -30 -41 -59.5t-36.5 -55t-28.5 -46.5t-18 -34q-4 -13 -7 -24q-2 -10 -2 -19.5t5 -14.5q5 1 9 -1q8 -4 4 -15q-3 -7 -12 -10.5t-20.5 -1.5
t-22.5 10t-17 25q-6 18 2.5 47.5t24 63t35.5 67.5t36 60q-27 -6 -44 -15.5t-28 -19t-17 -18t-10 -12.5q-7 -7 -13.5 -4t-11.5 9q-6 7 -12 17q-1 4 -2.5 13t2.5 19.5t16.5 20.5t38.5 17q25 6 50 9.5t57 5.5q6 9 16 24.5t23 34.5t26.5 39.5t27.5 40.5q32 47 68 100
q-105 -40 -187 -79q-35 -17 -68 -34.5t-58 -34.5t-39.5 -33t-12.5 -28q5 -1 9 -4q8 -6 5 -11z" />
    <glyph glyph-name="G" unicode="G" horiz-adv-x="494" 
d="M18 -227q-24 14 -25 45t23 63t75.5 57t132.5 27q3 4 10 15t14.5 24t14.5 24.5t10 15.5q-43 -17 -78 -16q-48 1 -83.5 27.5t-48 73t3 110t68.5 138.5q32 45 67 74t66 45t54.5 21.5t33.5 4.5q16 -1 35.5 -7t39.5 -24q19 -19 28.5 -43t10.5 -49t-4.5 -49.5t-14.5 -43.5
q-14 -29 -29 -46t-30.5 -27t-30.5 -13t-28 -3t-25 4.5t-19 13.5t-8 20.5t7 24.5q2 4 5 6q5 4 10 -1q6 -7 14 -8.5t19 9.5q5 4 15 14.5t20 26.5t18 36t10 44q3 38 -4 55t-19 20q-9 2 -18.5 0.5t-19.5 -5.5q-11 -5 -22.5 -13t-19.5 -16q-11 -9 -19 -19q-81 -92 -117.5 -155
t-43.5 -103.5t7.5 -62.5t35.5 -32q18 -9 37 -9.5t38.5 4t38 13t34.5 17.5q16 27 27 47.5t16 30.5q1 2 0.5 3.5t-0.5 2.5l-1 1q-4 2 -4 8q0 3 1 5q5 9 19.5 9t25.5 -2q2 0 4.5 -0.5t4.5 -0.5q2 -1 3 -1q19 -5 25 -13t7 -16q0 -9 -5 -19q-13 -22 -30 -49.5l-34 -55t-33 -52
t-27 -39.5q70 -5 121 -8.5t90.5 -2.5t71.5 9t65 26q21 12 30 11t12 -7q3 -7 0 -20q-6 -21 -26.5 -36.5t-65 -22t-116 -3t-179.5 19.5q-7 1 -13.5 1.5t-12.5 2.5q-43 -56 -78 -89t-60.5 -50.5t-41 -23.5t-21.5 -7q-14 -3 -30.5 -0.5t-33.5 13.5zM59 -202q16 2 33.5 14t36 30
t37 41t36.5 49q-57 -4 -93 -22t-55.5 -39.5t-24.5 -41t2 -25.5q9 -9 28 -6z" />
    <glyph glyph-name="H" unicode="H" horiz-adv-x="477" 
d="M1070 -56q-69 0 -154 -10.5t-176.5 -22.5t-184 -22.5t-175.5 -10.5q-47 0 -76 11t-45.5 28t-22 37t-5.5 37q0 24 4.5 42.5t11 33.5t14 27t13.5 23q-38 -2 -67.5 2.5t-55.5 9.5q-17 -23 -30 -41.5t-22 -34.5t-13.5 -31.5t-4.5 -32.5q0 -5 2 -11t7 -6q3 0 7 -1.5t4 -7.5
q0 -8 -7.5 -14t-20.5 -6q-15 0 -32.5 13.5t-17.5 45.5q0 33 19 74.5t40 77.5q-21 9 -36 21t-24 25q-12 19 -12 41q0 19 5.5 35.5t11.5 29t11.5 20t5.5 8.5q27 40 59 67.5t64 44t60.5 23.5t49.5 7q22 0 42.5 -14.5t20.5 -40.5q0 -16 -16.5 -44.5t-42 -65t-56 -77t-58.5 -80.5
q6 -1 24 -3.5t38 -4t38.5 -2t24.5 2.5q14 20 26.5 40t23.5 35q12 18 23 34q43 57 66.5 92.5t35.5 55.5q13 24 17 35q0 8 -1.5 9t-1.5 7q0 1 2.5 9t19.5 8q8 0 17 -4.5t17 -12t13 -17t5 -20.5q0 -14 -9 -29q-5 -10 -22 -35.5t-39.5 -59t-49 -72t-51.5 -74.5v-1q40 2 60 9
t28 7q11 0 11 -10q0 -21 -31 -29.5t-91 -8.5q-38 -52 -53.5 -82.5t-15.5 -51.5q0 -22 11.5 -35t28 -20t36 -9t34.5 -2q61 0 150.5 7t198.5 28q103 20 186.5 29.5t146.5 9.5q80 0 121 -15q23 -8 36.5 -22t5.5 -38q-6 -12 -12 -20q-5 -7 -11 -9.5t-11 5.5q-8 14 -25.5 24.5
t-37 17t-38 9.5t-28.5 3h-14zM79 258l-6 -12q-2 -5 -4 -11.5t-2 -12.5q0 -12 9.5 -21.5t22.5 -18.5q13 21 30 46t34.5 50.5t35 50t31 44.5t21.5 33.5t8 17.5q0 7 -7 7q-11 0 -26.5 -11t-33.5 -28.5t-36.5 -38t-34 -40t-27 -34.5t-15.5 -21z" />
    <glyph glyph-name="I" unicode="I" horiz-adv-x="282" 
d="M41 158q-14 14 -19 28q-8 20 -3 44q2 7 4 13t5 14q14 35 50 90q2 2 2 3q39 57 86.5 90t89.5 48q29 10 51 12.5t34 -0.5q2 0 3 -1q13 -5 24 -12.5t16.5 -19.5t3 -29t-15.5 -39q-15 -21 -38.5 -54t-51 -71t-55.5 -78.5t-53 -77.5t-43.5 -67t-25.5 -47q-4 -13 -7 -24
q-2 -10 -2 -20t5 -15q5 1 9 -1q8 -4 4 -15q-3 -7 -12 -10.5t-20.5 -1.5t-22.5 10.5t-17 25.5q-8 22 5.5 61t34.5 81t44 79t35 56q10 16 28.5 43t38 55t36.5 51.5t25 34.5v1q4 6 5 6q5 8 10.5 19t0.5 16t-25.5 -7.5t-55.5 -47.5q-23 -23 -50.5 -56t-59.5 -79q-6 -7 -11 -15
q-9 -14 -21 -34q-16 -29 -6 -44h10q9 -2 9 -7q-1 -5 -6 -10.5t-13 -8t-17 -0.5t-18 11z" />
    <glyph glyph-name="J" unicode="J" horiz-adv-x="294" 
d="M-200 -220q-24 14 -25.5 45.5t22.5 63.5t75 56.5t132 26.5q11 17 22 33t20 32l13 19.5t20.5 31t25 38t26.5 39.5q11 15 19.5 28.5t15.5 23.5q13 19 30 44t34.5 49.5t32 45t21.5 29.5v1q1 2 3 4q1 1 1 2q5 8 11 19t1 16t-26 -7.5t-56 -47.5q-23 -23 -50 -56t-59 -79
q-6 -7 -11 -15q-9 -14 -21 -34q-16 -29 -6 -44h10q9 -2 9 -7q-1 -5 -6 -10.5t-13 -8t-17 -0.5t-18 11q-14 14 -19 28q-8 20 -3 44q2 7 3.5 13t4.5 14q8 17 20 39t31 51q1 1 1 1.5t1 1.5q39 57 86 90t89 48q29 10 51.5 12.5t34.5 -0.5q2 0 3 -1q13 -5 24 -12.5t16 -19.5
t3 -29t-15 -39q-17 -24 -44 -62t-59 -82q-1 -1 -5 -7q-8 -11 -22.5 -32t-31 -45.5t-32.5 -48.5t-27 -40q-4 -5 -6.5 -9t-4.5 -7q-3 -4 -4 -6q-11 -17 -22 -33t-22 -31h10q69 -5 134 -8.5t122 -2.5t104 9t79 26q21 12 30 11t12 -7q3 -7 0 -20q-6 -21 -42.5 -36.5t-99.5 -22
t-150 -3t-195 19.5q-7 1 -13.5 2t-13.5 2q-5 -8 -10.5 -14t-10.5 -13q-38 -47 -69 -74.5t-54 -42.5t-37 -20t-19 -6q-15 -3 -31 -0.5t-33 13.5zM-160 -195q16 2 34 14t36 30t36.5 41t36.5 49q-56 -4 -92.5 -22t-56 -39.5t-24 -41t1.5 -25.5q9 -9 28 -6z" />
    <glyph glyph-name="K" unicode="K" horiz-adv-x="399" 
d="M318 371q-13 -18 -30 -42t-36 -50t-39.5 -54.5t-39.5 -55.5q32 8 64 30t61 51t55 61t45.5 60t32 47.5t15.5 24.5v3q0 1 1 1q2 6 1 8v2q0 1 -0.5 2.5t0.5 3.5q0 4 4 8q6 8 22 4q9 -3 18 -11t14.5 -19.5t6 -24t-6.5 -23.5q-2 -4 -8 -12q-42 -59 -81 -100.5t-74 -70
t-66 -45.5t-57 -26q11 -27 20 -49t17 -39q16 -36 27.5 -56t20 -30.5t15 -14.5t12.5 -7q8 -4 19 1q5 3 10 7t10 7q8 5 13 3l4 -2l2 -2q6 -7 4 -14.5t-7 -13.5q-2 -4 -6 -8l-3 -3q-24 -25 -48.5 -25t-47 14.5t-42 38.5t-34.5 48.5t-24.5 44.5t-11.5 25q-7 15 -13.5 30
t-12.5 29q-21 -31 -36.5 -56.5t-23.5 -42.5q-4 -13 -7 -24q-2 -10 -2 -20t5 -15q5 0 9 -1q3 -2 4.5 -4.5t-0.5 -9.5q-3 -7 -12 -11t-20.5 -2t-22.5 10.5t-17 25.5q-6 16 -3 37.5t11.5 44.5t21 47t24.5 45q-39 19 -58 44q0 1 -0.5 1t-0.5 1l-1 1q-3 4 -7 14q-8 20 -3 44
q3 17 8.5 31t10.5 24q6 11 13 21q39 57 80.5 85t83.5 42q29 11 51.5 13.5t34.5 -0.5q1 0 1.5 -0.5t1.5 -0.5q12 -5 23 -13t16.5 -20t3.5 -28.5t-15 -38.5zM239 393q5 8 10.5 19t0.5 16q-4 4 -26.5 -8t-56.5 -47q-37 -38 -60.5 -70t-33.5 -48q-5 -8 -8 -17q-3 -8 -4 -16
t3 -14q10 -17 28 -28v-1q5 7 8 12.5t6 10.5q7 11 18 26.5t23.5 34t25.5 37.5t25 35.5t21.5 30t14.5 20.5l1 1z" />
    <glyph glyph-name="L" unicode="L" horiz-adv-x="446" 
d="M28 41q2 -1 6 -1q8 0 16 4t15 9q8 6 16 14q13 13 34.5 42.5t47.5 67.5t53.5 81t53.5 84t48.5 76.5t36.5 57.5q15 20 29 28t27 8t26 -6t23 -20t16 -37.5t6 -58.5q0 -23 -7 -53t-19.5 -59.5t-29 -55.5t-35.5 -40v-1q-11 -10 -28 -10q-23 0 -39.5 15t-16.5 30q0 9 5 12
q3 2 6 3h4h4q2 0 2.5 -1.5t3 0t8.5 7.5t18 20q5 5 18.5 24t28 44t25.5 50.5t11 44.5q0 10 -4 12.5t-7 2.5q-4 0 -8.5 -4t-9 -9.5t-8 -10.5t-4.5 -7q-39 -59 -73.5 -114t-72.5 -106t-84.5 -96.5t-109.5 -83.5q7 -6 32 -16.5t62.5 -19.5t84.5 -14t97.5 -2.5t102.5 15.5t99 42
q-1 1 -2 3q-2 4 -2 6q0 8 12 9q10 0 19 -10.5t9 -27.5q0 -28 -25.5 -46.5t-60.5 -30t-73 -16t-63 -4.5q-16 0 -28.5 0.5t-22.5 1.5q-11 1 -20 2q-95 12 -150 32t-83.5 40.5t-36.5 38t-8 24.5q0 13 6.5 17t8.5 4q4 0 8 -6q1 -3 2 -5z" />
    <glyph glyph-name="M" unicode="M" horiz-adv-x="685" 
d="M62 309q29 43 64 72t68.5 47t63.5 26t49 8q6 0 11 -1.5t8 -1.5q17 -7 30.5 -19.5t13.5 -33.5q0 -20 -15.5 -44.5t-39.5 -57.5q32 38 64 72t61 60t54 41t44 15q17 0 34 -16.5t17 -38.5q0 -4 1 -6.5t-5.5 -15.5t-26 -42.5t-59.5 -86.5q28 31 57 59t56 49.5t50.5 34.5
t40.5 13q9 0 18 -4.5t16.5 -12t12 -17t4.5 -19.5q0 -5 -6 -17t-21.5 -37.5t-42.5 -66.5t-70 -104q0 1 0.5 1t0.5 1q-29 -44 -49.5 -75t-33.5 -53t-19 -38t-6 -29q0 -20 10 -32t24.5 -19t29 -9.5t23.5 -3.5q95 -7 183 3.5t172.5 26.5t167 31t166.5 17q26 1 52.5 -1t54.5 -7
q27 -5 39.5 -14.5t17 -20t3 -19.5t-2.5 -13q-7 -13 -14 -21q-6 -7 -12 -9.5t-8 6.5q-7 23 -43 37t-92 15q-52 1 -111.5 -6.5t-124 -18t-132 -22t-134 -18.5t-130.5 -7.5t-121 11.5q-24 7 -39.5 19t-24.5 26t-12.5 29t-3.5 29q0 26 9.5 54t21.5 51q13 26 31 51q6 12 15.5 27
t18.5 28.5t15 23t5 9.5q22 34 41.5 59t33 43t21.5 31t8 23q0 7 -8 7q-5 0 -18.5 -10.5t-34 -30t-47.5 -46.5t-57 -59q-39 -41 -74.5 -77t-66.5 -83l-8 -14q-8 -19 -9 -24q-1 -4 -1 -6q0 -7 2 -8.5t2 -9.5q0 -3 -3 -9.5t-17 -6.5q-8 0 -18 3.5t-18 10.5t-13.5 16.5t-5.5 20.5
q0 13 6 24q1 2 1 3.5t1 4t3.5 7.5t8.5 15q15 31 34 59.5t35 51.5t27 37.5t10 16.5q46 60 75 101t29 55q0 7 -8 7q-6 0 -39.5 -33t-81.5 -84t-103 -112.5t-103 -118.5q-13 -21 -23 -38t-15 -30q-3 -7 -5 -14q-5 -13 -5 -27q0 -12 6 -18h3q3 0 7 -1.5t4 -6.5q0 -9 -8 -14.5
t-19 -5.5q-16 0 -33.5 13.5t-17.5 47.5q0 23 9.5 50.5t22.5 54t27.5 50t24.5 40.5q20 32 45 68t47.5 68t38 55.5t15.5 29.5q0 7 -5 7q-7 0 -23.5 -10t-40.5 -32.5t-55.5 -59t-68.5 -90.5q1 0 -5.5 -8t-14.5 -20.5t-15 -26.5t-7 -25q0 -8 4 -13h6q4 0 8 -1t4 -5
q0 -7 -8.5 -14t-20.5 -7q-10 0 -19 6t-15.5 16t-10 22t-3.5 23q0 25 14.5 55.5t46.5 79.5z" />
    <glyph glyph-name="N" unicode="N" horiz-adv-x="553" 
d="M8 199q4 36 59 117l2 2q29 43 64 72.5t69 47.5t63.5 25.5t48.5 7.5q21 0 42 -15t21 -41q0 -20 -14.5 -42.5t-37.5 -54.5q33 32 69 65t71 59.5t67.5 43t56.5 16.5q19 0 38 -16t19 -40q0 -8 -2.5 -14t-5.5 -14q-7 -12 -25.5 -41.5t-45 -69t-57 -85.5t-61.5 -91q1 1 1 2
q-50 -68 -71.5 -106t-21.5 -61q0 -19 10.5 -31.5t24.5 -20t29 -10.5t24 -3q14 0 30.5 -1t36.5 -1q58 0 130 9t174 26q99 17 179.5 29.5t143.5 12.5q86 0 127.5 -16t41.5 -45q0 -6 -3 -10.5t-11 -4.5q-9 0 -29 10q-26 12 -60.5 17t-76.5 5q-46 0 -99.5 -6t-112 -15t-119 -19
t-121 -18t-118 -12t-109.5 -1q-48 3 -78 14t-46.5 27.5t-22.5 35.5t-6 37q0 27 8.5 53t19.5 47.5t21 36t12 18.5q13 20 31 48t35 53.5l29 43.5t13 20q21 31 38 54t29 40t18.5 30t6.5 24q0 10 -10 11q-8 0 -36 -20t-67 -54t-85 -78t-89.5 -91t-79.5 -94.5t-56 -87.5
q-3 -7 -5 -14q-5 -13 -5 -27q0 -6 2 -12t7 -6q3 0 6.5 -1.5t3.5 -6.5q0 -20 -26 -20q-16 0 -33.5 13.5t-17.5 47.5q0 23 9 50.5t22.5 54t27.5 50t25 40.5q20 32 45.5 68.5t48 68.5t37.5 55.5t15 29.5t-5 6q-7 0 -23.5 -10t-40.5 -32.5t-56 -59.5t-69 -90q1 0 -5.5 -8
t-14.5 -20.5t-14.5 -26.5t-6.5 -25q0 -5 1 -9t9 -4q4 0 8 -1t4 -5q0 -8 -8.5 -14.5t-20.5 -6.5q-10 0 -18.5 6t-15 16t-10.5 22t-4 23v9t2 9z" />
    <glyph glyph-name="O" unicode="O" 
d="M505 489q7 -2 16 -9l2 -2q0 -1 0.5 -1t0.5 -1q2 0 2 -2q2 -1 4 -5q1 0 3 -4q3 -5 7.5 -17.5t5.5 -33.5q2 -26 -5 -65t-31 -96q-20 -54 -50.5 -97.5t-59.5 -75t-50.5 -49t-23.5 -18.5q-29 -23 -57.5 -36.5t-53.5 -21.5t-46 -10.5t-36 -2.5h-11q-7 0 -17 2h-4
q-41 7 -69.5 34.5t-37.5 71.5t7 102.5t65 128.5q17 23 33 43.5t31 37.5q-11 25 -16.5 47t-7.5 36q-1 3 -1 6t-1 6q-1 1 -1 3v1q0 18 5 29t12 17t14.5 9t10.5 4q12 1 21 -1q8 -2 13 -5.5t2 -12.5q-2 -5 -5.5 -15.5t-5.5 -26.5q-1 -7 -1 -15t-0.5 -17.5t1.5 -20.5
q42 42 76.5 66t60 35.5t41.5 13.5t21 2q16 0 34 -6t35 -23q17 -18 23.5 -40.5t5 -46.5t-8.5 -47t-17 -41q-16 -26 -31.5 -42.5t-30.5 -25.5t-29.5 -12.5t-26.5 -3.5q-32 -3 -60 5q-2 1 -5 1q-5 2 -11 4.5t-11 4.5q-21 9 -37 22t-29 27q-53 -65 -80 -116t-34 -89.5t3.5 -65
t32.5 -40.5q5 -4 12 -6q5 -2 15 -4t24 -1q23 2 56 15t74 51q14 12 25.5 24.5t22.5 24.5q61 69 94.5 125.5t49.5 100t18.5 73.5t0.5 46q-1 5 -1 8.5t-1 5.5q-1 3 -1 5q-1 2 -3 4l-2 2q-5 -1 -9 0q-3 1 -4.5 3.5t1.5 10.5q3 9 18 14q8 2 14 1h4q2 -1 2.5 -1t2.5 -1zM310 449
q-32 -31 -60 -60t-51 -55l6 -6q21 -20 40 -29t35 -11q9 -1 16.5 0t13.5 3q5 2 8 3t7 3v1q2 0 4 2l9 6q15 11 25.5 25t17 27t10.5 23.5t5 16.5q2 4 2.5 8t1.5 8v1q7 36 1.5 52t-16.5 18t-24 -2.5t-24 -12.5q-13 -9 -27 -21z" />
    <glyph glyph-name="P" unicode="P" horiz-adv-x="544" 
d="M325 500q18 -7 31.5 -21t11.5 -37q22 19 49 36t53 18q24 1 44.5 -10.5t31.5 -36t11 -62t-16 -88.5q-17 -52 -58.5 -92.5t-96.5 -66t-118 -35t-123 -0.5q-21 -32 -36.5 -58.5t-22.5 -41.5q-5 -13 -8 -24q-2 -10 -2 -20t6 -15q5 1 9 -1q8 -4 3 -15q-3 -7 -12 -10.5
t-20.5 -1.5t-22.5 10.5t-17 25.5q-8 22 5.5 61t34.5 81t44 79t35 56q10 16 28.5 43t38 55t36.5 51.5t25 34.5l1 1q1 2 3 4q1 1 1 2q5 8 11 19t1 16t-26 -7.5t-56 -47.5q-23 -23 -50.5 -56t-59.5 -79q-6 -7 -11 -15q-9 -14 -21 -34q-15 -29 -6 -44h10q9 -2 9 -7t-5.5 -10.5
t-13.5 -8t-17 -0.5t-18 11q-12 12 -18 28q-8 22 -3 44q1 7 3 13t5 14q7 17 19 39t32 51q0 1 2 3q38 57 86 90t89 48q29 10 51.5 12.5t34.5 -0.5q2 0 3 -1zM470 335q4 18 7 37t1.5 35t-9 25.5t-23.5 8.5t-42.5 -15.5t-65.5 -46.5q-16 -22 -36 -50t-42 -59t-45 -63.5
t-44 -63.5q11 -1 22.5 -1.5t24.5 -0.5q46 0 88 19t76 48t57 63t31 64z" />
    <glyph glyph-name="Q" unicode="Q" horiz-adv-x="538" 
d="M517 253q-16 -54 -42.5 -97.5t-52.5 -75t-45.5 -49t-20.5 -18.5q-35 -28 -67.5 -42.5t-61.5 -21.5q28 -8 39 -14q49 -28 42 -45q-2 -7 -13 -5q-5 1 -11 4q-68 31 -120.5 36.5t-90 -1t-59.5 -19t-30 -18.5q-8 -5 -14 -1t-10 12q-4 9 -8 21q0 4 0.5 13.5t7 19.5t21 17.5
t43.5 8.5q9 1 19.5 0.5t21.5 -1.5q-23 20 -37.5 50.5t-15.5 69.5t12.5 85t45.5 99q14 23 27.5 43.5t27.5 37.5q-14 25 -21 47t-11 36l-3 12v4q-2 18 2 29t10 17t13 9t10 4q12 1 21 -1q8 -2 13.5 -5.5t3.5 -12.5q-1 -5 -3 -15.5t-3 -26.5v-15q0 -8 1 -17.5t3 -20.5
q38 42 70 66t57 35.5t41 13.5t21 2q15 0 34 -6t37 -23q19 -18 27.5 -40.5t9.5 -46.5t-4 -47t-14 -41q-13 -26 -27 -42.5t-28.5 -25.5t-28 -12.5t-25.5 -3.5q-31 -3 -61 5q-1 1 -4 1l-24 9q-21 9 -39 22t-32 27q-46 -65 -68 -116t-25 -89.5t9.5 -65t36.5 -40.5q6 -5 13 -6
q4 -2 14 -4t25 -1q23 2 55 15t69 51q11 12 22 24.5t20 24.5q54 69 82.5 125.5t40.5 100t11.5 73.5t-3.5 46q-2 10 -3 14q-1 3 -2 5l-4 4q-1 1 -1 2q-5 -1 -9 0q-3 1 -5 3.5t0 10.5q1 5 5.5 8.5t10.5 5.5q4 1 7 1.5t8 -0.5h3q2 -1 3 -1t2 -1q8 -2 17 -9q2 -2 3 -2q0 -1 1 -2
l2 -2q2 -1 2.5 -2t2.5 -3l1 -1q0 -1 2 -3q3 -5 8.5 -17.5t8.5 -33.5q5 -26 2 -65t-21 -96zM298 449q-30 -31 -55 -60t-46 -55l6 -6q24 -20 43.5 -29t35.5 -11q9 -1 17 0t14 3q10 4 13 6q1 0 1 1l4 2q2 2 4 3t4 3q14 11 23 25t14.5 27t8.5 23.5t4 16.5q2 10 2 16v1
q3 36 -4 52t-18 18t-23 -2.5t-23 -12.5q-12 -9 -25 -21z" />
    <glyph glyph-name="R" unicode="R" horiz-adv-x="561" 
d="M24 239q8 17 20 39.5t31 51.5q1 1 1 1.5t1 1.5q28 43 62.5 72t68.5 47t64 25.5t50 7.5q21 0 42 -14.5t21 -41.5v-5q21 18 48 35.5t53 17.5q35 0 61.5 -24t26.5 -80q0 -66 -29.5 -119.5t-79 -92t-113.5 -59t-134 -20.5q7 -47 28.5 -77t48.5 -48t54.5 -26t47.5 -11
q31 -7 87 -7t120 4.5t125.5 12.5t103.5 17q98 22 179.5 32t144.5 10q85 0 126.5 -16.5t41.5 -45.5q0 -5 -3 -9.5t-11 -4.5q-5 -1 -12 1.5t-17 7.5q-26 12 -60.5 17t-76.5 5q-69 0 -153.5 -11t-174.5 -24t-181 -24t-174 -11q-295 0 -316 188q-16 -24 -27.5 -43.5t-16.5 -32.5
q-3 -7 -5 -14q-2 -6 -3 -13t-1 -14q0 -12 5 -17h3q3 0 7 -1.5t4 -7.5q0 -8 -7 -14t-20 -6q-7 0 -15.5 3t-16 9t-13 16t-5.5 25q0 26 15.5 64t35.5 76t40.5 71t31.5 50q20 32 45.5 68t48 67.5t37.5 54.5t15 30t-5 7q-7 0 -23 -10t-40.5 -32.5t-56 -59t-68.5 -89.5l-6.5 -8.5
t-14.5 -21t-14.5 -26.5t-6.5 -24q0 -8 4 -13h6q4 0 8 -1t4 -6q0 -7 -8 -14t-21 -7q-10 0 -18.5 6t-15 16t-10.5 22t-4 23q0 21 10 44zM354 361q-15 -22 -35.5 -50t-42.5 -59t-45 -64t-44 -64q11 -1 22.5 -1h24.5q46 0 88.5 19t76.5 47.5t57 63t31 64.5q4 15 6.5 31t2.5 30
q0 19 -7 32t-24 13q-16 0 -42.5 -14t-68.5 -48z" />
    <glyph glyph-name="S" unicode="S" horiz-adv-x="496" 
d="M-2 -52q-18 0 -29.5 7.5t-16.5 18t-5 20.5t6 15q9 7 15 1q3 -3 4 -8q7 -4 16.5 -0.5t17.5 8.5q10 6 20 15q1 2 2.5 3t3.5 3q6 6 10 9q-22 41 -20.5 90t20.5 92.5t54 74.5t81 34q14 2 26 0q10 -2 19 -7.5t11 -18.5q-1 -7 -3 -11q-4 -11 -13 -12q-5 -1 -9 3q-2 2 -2 4
q-25 -15 -46 -35q-18 -17 -36.5 -41.5t-26.5 -53.5q-5 -18 -8 -37t-1 -37q44 45 105.5 118.5t127.5 176.5q-2 14 -3 30.5t2 34t9.5 34.5t19.5 32q22 27 47 35t46 4t34.5 -16t13.5 -27q0 -8 -2 -12q-2 -5 -6.5 -7t-14.5 2q-22 -5 -37 -20q-14 -13 -22.5 -38.5t-2.5 -69.5
q5 -36 11 -73t8.5 -74.5t-0.5 -76t-17 -77.5q-16 -45 -54 -74t-85.5 -38.5t-97.5 1t-90 44.5q-23 -20 -44 -33t-38 -13zM337 343q-15 -28 -36.5 -65.5t-49.5 -80t-63 -87t-78 -87.5q12 -12 27 -19q21 -10 51.5 -11t60.5 9t54 31t32 56q6 22 8 57t2 72t-2.5 71t-5.5 54z" />
    <glyph glyph-name="T" unicode="T" horiz-adv-x="265" 
d="M442 409q-11 0 -38.5 0.5t-63.5 2.5l-3 -6q-2 -2 -2 -3q-1 0 -1 -2q-2 -2 -2.5 -3t-1.5 -2q-17 -23 -40.5 -56t-50.5 -70.5t-54 -77t-50.5 -75t-41.5 -64.5t-25 -46q-5 -13 -8 -24q-2 -10 -2 -19.5t6 -14.5q5 1 9 -1q8 -4 4 -15q-3 -7 -12.5 -10.5t-21 -1.5t-22.5 10
t-17 25q-5 15 -0.5 38t15 49.5t25.5 55t30 54.5t28.5 47t21.5 34q10 16 27 41.5t36 52.5t36 51t26 36q-55 2 -106 2.5t-80 -1.5q57 -58 45 -91q-6 -13 -12 -17t-13.5 0t-18.5 27q-7 14 -17.5 28.5t-24.5 28.5v1q-11 11 -15 21t-5 18q-1 9 2 17q4 8 7 11l1 1q3 3 11 7
q2 1 8 3l9 3q30 7 93.5 9t144.5 2q-1 2 -1 4q-1 3 1 7q2 3 4.5 5.5t8.5 4.5q2 0 4.5 0.5t4.5 -0.5q9 0 19 -6t18 -15h40q59 -1 120 0t112 5.5t86.5 12t43.5 19.5q0 7 1 11q2 10 12 10q6 0 10.5 -9t4.5 -22.5t-5.5 -28.5t-19.5 -28q-29 -25 -105 -34.5t-195 -11.5z" />
    <glyph glyph-name="U" unicode="U" horiz-adv-x="534" 
d="M369 -57q-34 7 -47.5 27t-13.5 47q0 19 5.5 40t13.5 41t17.5 38.5t17.5 32.5q-32 -35 -69.5 -74t-74 -73t-68.5 -56t-52 -22q-13 0 -29.5 13.5t-16.5 42.5q0 25 11 56.5t26.5 62.5t32 58t26.5 44q20 32 45 68.5t47.5 68.5t38 55t15.5 29q0 7 -5 7q-7 0 -23.5 -10.5
t-41 -33t-56 -59.5t-67.5 -89q1 0 -5.5 -8t-14.5 -20.5t-15 -26.5t-7 -25q0 -8 4 -13h6q5 0 9 -1t4 -5q0 -8 -9 -14.5t-20 -6.5q-10 0 -19 6t-15.5 16t-10.5 22t-4 23q0 22 14 53t48 82q0 1 0.5 1t0.5 1q30 43 65 72.5t69.5 47t64.5 25t49 7.5q5 0 9 -1t7 -1
q17 -7 30.5 -19.5t13.5 -33.5q0 -9 -3.5 -21.5t-12.5 -25.5q-23 -33 -58.5 -83t-72 -102.5t-67 -99t-41.5 -72.5l-6 -16q-5 -15 -5 -30q0 -5 1 -7q15 9 44.5 33t66 57.5t77 73.5t78.5 81.5t70.5 81.5t52.5 73q4 6 5 6q0 -1 2.5 3.5t6.5 11t7 13t3 9.5q5 10 5 12v4
q0 3 -1.5 4.5t-1.5 6.5v3t1.5 6t6 5.5t12.5 2.5t17 -4t17 -11.5t13.5 -17.5t5.5 -22q0 -17 -6.5 -32t-14.5 -23q-57 -83 -94.5 -139t-61 -91.5t-35.5 -55.5t-17 -31t-5 -18v-16q0 -14 7 -20.5t15 -10.5t15 -8t7 -11q0 -12 -8.5 -14.5t-16.5 -2.5q-6 0 -10 2q-3 1 -4 1z" />
    <glyph glyph-name="V" unicode="V" horiz-adv-x="496" 
d="M1312 377q1 -2 1 -4.5t1 -4.5q2 -6 0 -10.5t-11 -4.5q-8 -1 -31 9q-27 12 -61 17t-72 5q-71 0 -134 -9.5t-128 -17.5t-137 -8.5t-161 17.5q-2 -2 -23 -30.5t-62.5 -77t-103 -113t-142.5 -139.5q-16 -15 -31 -29t-38 -14q-13 0 -32 13.5t-24 42.5q-4 25 -2 50t7.5 49
t13.5 45t15 38q14 32 33 68.5t36 68.5t28.5 55t10.5 29q-2 7 -6 7q-7 0 -22 -10.5t-35.5 -33t-45.5 -59.5t-52 -89q1 0 -4 -8t-11 -20.5t-10.5 -26.5t-2.5 -25q0 -7 6 -13h6q5 0 9 -1t5 -5q2 -8 -6.5 -14.5t-19.5 -6.5q-10 0 -20 6t-18 16t-14 22t-8 23q-4 22 4.5 53
t33.5 82l2 2q22 43 52.5 72.5t61.5 47t59.5 25t47.5 7.5q5 0 9.5 -1t7.5 -1q19 -7 34 -19.5t19 -33.5q2 -9 0.5 -21.5t-8.5 -25.5q-17 -33 -40.5 -77t-46.5 -89t-41.5 -85.5t-25.5 -66.5q-2 -8 -3 -16q-1 -7 -1.5 -15t1.5 -15q0 -3 2 -7q13 9 35.5 30.5t50 51.5t58 66
t60.5 75t58 78.5t50 75.5q5 12 11.5 21.5t4.5 17.5q-2 10 -7.5 19.5t-7.5 20.5q-3 17 2 27.5t13.5 16t19 6.5t20.5 0q3 0 11.5 -3t18.5 -9.5t18.5 -17t10.5 -25.5q3 -14 0 -26t-8 -21q64 -18 135 -16t141.5 11t137 19.5t120.5 10.5q72 0 117 -12.5t56 -35.5zM542 433
q0 -1 1.5 4.5t2.5 13t1 14t-4 6.5q-9 1 -11 -4.5t0 -12.5t5.5 -13.5t4.5 -7.5z" />
    <glyph glyph-name="W" unicode="W" horiz-adv-x="738" 
d="M1684 399q-29 12 -64.5 17t-76.5 5q-79 0 -171 -15t-190.5 -29t-198.5 -21t-194 10q-33 -56 -79 -121q-40 -56 -98.5 -128t-137.5 -150q-15 -16 -29 -29.5t-36 -13.5q-14 0 -34 14t-27 43q-6 21 -5 46.5t6 51.5q-10 -14 -18 -23t-16 -16.5t-18 -16.5t-24 -23
q-14 -15 -28 -29t-37 -14q-14 0 -33.5 14t-27.5 43q-7 25 -9 51t-0.5 50.5t6 46.5t10.5 39q12 32 27.5 68.5t29 68.5t22.5 55t7 29q0 7 -6 7q-16 0 -53 -44.5t-83 -147.5l-4.5 -8t-9 -20.5t-7.5 -26.5t0 -26q2 -8 7 -12h6q5 0 9 -1t5 -5q2 -8 -5 -14.5t-18 -6.5
q-10 0 -20.5 6.5t-20 16t-16.5 22t-10 24.5q-5 21 0.5 52t25.5 81v2q18 43 46 72.5t57.5 47t57.5 25t47 7.5q5 0 9 -1t8 -1q19 -7 35.5 -19.5t22.5 -33.5q2 -9 1.5 -21.5t-5.5 -25.5q-14 -33 -31.5 -78t-34 -91t-29.5 -87.5t-17 -67.5q-2 -7 -2 -15q-2 -16 3 -30q0 -2 1 -4
l2 -4q19 13 46.5 46t59 78t63.5 98t59 107q-1 -1 1 3.5t4 10.5t3.5 12.5t0.5 10.5q2 10 2 12t-1 4q-1 3 -2.5 4.5t-2.5 6.5q-2 1 -2.5 8t10.5 9q7 0 18 -3t22 -9.5t20.5 -17t13.5 -25.5q3 -10 3 -19t-2 -17q-26 -54 -50 -107t-41 -98.5t-25.5 -82t-2.5 -57.5q0 -4 3 -7
q13 9 34.5 33.5t48 58.5t56 75.5t58 84.5t54 85.5t43.5 78.5q7 13 11 22.5t2 18.5q-2 5 -8 16t-9 22q-5 17 1 27t15 15t19 6.5t14 1.5q3 0 12.5 -3t20 -10t19.5 -17t13 -25q4 -14 2 -26t-7 -21q18 -12 62 -16.5t102.5 -1.5t125.5 12.5t130 24.5q94 22 172 32.5t141 10.5
q83 0 129 -16t54 -45q2 -6 0.5 -10.5t-10.5 -4.5q-5 0 -12.5 2t-19.5 7z" />
    <glyph glyph-name="X" unicode="X" horiz-adv-x="466" 
d="M562 425l-12 -10t-11 -10q-40 -32 -75.5 -62t-67.5 -58q3 -44 5.5 -88.5t6 -83.5t7 -70t8.5 -48q4 -12 9 -23q5 -9 10.5 -16.5t13.5 -8.5q4 4 8 5q8 2 12 -10q2 -7 -3.5 -15.5t-15.5 -14t-24 -6t-29 9.5q-13 8 -23.5 29t-18.5 48.5t-14 59t-10.5 61t-7 54.5t-4.5 40
q0 3 -0.5 6t-0.5 7q-85 -77 -137.5 -132t-83.5 -91q-36 -42 -54 -71q-4 -5 -7 -9q-5 -7 -9 -16q-3 -9 -6.5 -8.5t-7.5 5.5t-9 14q-11 21 -3.5 49.5t28 62t53 70t70 74t79 73.5t81.5 69q-2 26 -3 50t-2 42q-1 9 -1 16v12v1q-1 5 -1 8v6l-1 1q0 2 -1 3q-5 4 -27.5 -9.5
t-57.5 -48.5q-23 -23 -50.5 -56t-59.5 -79q-6 -7 -11 -15q-5 -7 -10.5 -15.5t-10.5 -18.5q-16 -29 -6 -44h10q9 -2 9 -7q-1 -5 -6 -10.5t-13 -8t-17 -0.5t-18 11q-13 13 -19 28q-8 19 -3 45q3 13 9 26q7 17 19 39.5t32 51.5l1 2q39 57 86.5 90t89.5 48q24 9 44 12q26 4 41 1
q1 -1 3 -1q16 -6 28.5 -17t15.5 -29v-9q1 -30 3 -66q50 40 83 63q18 13 33 24q25 20 47.5 32t39.5 11q18 -2 29 -10.5t15.5 -19t3.5 -20.5t-7 -14q-11 -8 -15 -1q-3 3 -3 9q-7 4 -16.5 1.5t-18.5 -7.5q-11 -5 -21 -13zM310 456q1 -3 1 -9q0 6 -1 9z" />
    <glyph glyph-name="Y" unicode="Y" horiz-adv-x="533" 
d="M367 130q3 5 5 9t5 7q-26 -26 -53 -52t-54.5 -50t-54.5 -44.5t-51 -34.5l-9 -4.5t-18 -3.5q-19 0 -34 18t-15 51q0 19 5.5 38.5t14 38t19 36l19.5 32.5q20 32 45 68t47.5 68t38 55.5t15.5 29.5q0 7 -5 7q-7 0 -23.5 -10.5t-41 -33t-56 -59.5t-67.5 -89q1 0 -5.5 -8
t-14.5 -20.5t-15 -26.5t-7 -25q0 -8 4 -13h6q5 0 9 -1t4 -5q0 -8 -9 -14.5t-20 -6.5q-10 0 -19 6t-15.5 16t-10.5 22t-4 23q0 22 14 53t47 82l2 2q30 44 65.5 73t70 46.5t64 25t48.5 7.5q5 0 9 -1t7 -1q17 -7 30.5 -19.5t13.5 -33.5q0 -9 -3.5 -21.5t-12.5 -25.5
q-30 -44 -66.5 -93.5t-68 -96t-53 -86.5t-21.5 -64q0 -5 1 -7q15 9 40 28.5t56.5 46.5t67 60.5t71 69.5t69 74t61.5 74q18 23 27 37t11 16q2 5 9 16t7 16q5 10 5 12v4q0 4 -1.5 4.5t-1.5 5.5v3t1.5 6.5t5.5 6t12 2.5t17.5 -4t17.5 -11t13.5 -17.5t5.5 -22.5
q0 -13 -4.5 -24.5t-9.5 -20.5q-9 -9 -21.5 -25.5t-26.5 -37t-29 -44t-30 -45.5q0 1 -10 -13.5t-25 -38t-34.5 -53t-39.5 -60t-38.5 -58.5t-32.5 -48q64 0 124.5 -5.5t114.5 -5.5q66 0 120 7.5t90 27.5q19 11 30 11q8 0 10.5 -5t2.5 -11q0 -33 -59 -53.5t-177 -20.5
q-60 0 -129 7.5t-150 17.5q0 -1 -1 -1q-43 -55 -77.5 -88t-59.5 -50.5t-41 -23.5t-21 -7q-10 -2 -16 -2q-11 0 -23.5 3.5t-23.5 11.5t-18.5 19.5t-7.5 28.5q0 22 13.5 46.5t41.5 45.5t72 35.5t104 16.5q18 28 35 55.5t31.5 50.5t24.5 40.5t15 25.5zM95 -209q16 2 34 14
t36 30t36.5 41t36.5 49q-48 -4 -81.5 -18t-54.5 -32t-30 -36t-9 -30q0 -11 7 -15t16 -4q6 0 9 1z" />
    <glyph glyph-name="Z" unicode="Z" horiz-adv-x="504" 
d="M631 474q4 0 12 -2.5t16 -9t14 -16.5t6 -25q0 -5 -1 -12.5t-5 -11.5q0 -6 -5 -12t-11.5 -11.5t-13 -9.5t-8.5 -6q-25 -15 -70.5 -45.5t-100.5 -68t-113 -78t-108 -76t-86 -62.5t-46 -37q20 -1 39 -1h39q43 0 82 1.5t70 5t52 9t27 13.5q-1 6 1 10q1 4 4 7.5t8 3.5
q6 0 10.5 -8.5t4.5 -22.5q0 -27 -15 -45t-48.5 -29t-87 -15.5t-130.5 -4.5h-46q-3 0 -17 -0.5t-29 3t-27 14.5t-12 35q0 15 21.5 42t55 59t74.5 66.5t79.5 65.5t69.5 54.5t46 33.5q14 10 37.5 25t49 31.5t50 32t40.5 24.5q-53 2 -116 4t-114 2h-33.5t-26.5 -1q47 -49 47 -80
q0 1 0 -3.5t-2 -10.5t-6 -11t-12 -5q-5 0 -11 6t-14 23q-6 12 -17 25.5t-21 27t-17.5 25.5t-7.5 22q0 11 3.5 18.5t7.5 7.5q24 24 255 24q38 0 77.5 -0.5t79.5 -0.5z" />
    <glyph glyph-name="grave" unicode="`" horiz-adv-x="192" 
d="M89 371q9 -13 27.5 -25.5t38.5 -12.5q3 4 7 7q7 5 13 1q5 -4 7 -10t-1.5 -12t-12 -10t-24.5 -4q-30 1 -62 13t-58 41q-4 5 -4 11q0 5 2.5 11t11.5 12q10 6 18 5.5t14.5 -5t12 -11t10.5 -11.5z" />
    <glyph glyph-name="a" unicode="a" horiz-adv-x="349" 
d="M150 117q-28 -43 -55 -74q-12 -13 -24.5 -24.5t-25.5 -18.5t-25 -8.5t-23 5.5q-21 15 -31.5 34.5t-12.5 41.5t3.5 44t16.5 41q10 18 30.5 39.5t46.5 39.5l6 4q2 2 4 2.5t5 2.5q26 16 66 28t85 4q12 -3 22 -9q8 -5 14.5 -15t7.5 -26q-1 -7 -1.5 -10t-2.5 -7q-3 -5 -6 -6
v-1q-4 -2 -6 -2q-3 0 -5 1q-5 2 -4 9v6q-2 12 -19 14q-9 2 -32 -4t-55 -26q-6 -3 -11.5 -7t-11.5 -8q-2 -2 -3 -2.5t-3 -2.5h-1q-14 -11 -30 -27q-15 -17 -30.5 -37.5t-25.5 -39t-12 -32.5t10 -18q10 -3 32.5 15.5t47 44.5t47 53t33.5 41q1 0 1 0.5t1 0.5q9 11 21 19.5
t26 3.5q26 -8 33 -23t-1 -29v-1v-1q-1 0 -1 -1t-0.5 -1t-0.5 -1l-1 -1v-1l-1 -1q-2 -2 -3 -5t-3 -5v-1q-1 0 -1 -1v-1q-1 0 -1 -1l-1 -1v-1q-1 0 -1 -1q-9 -15 -17 -29t-12.5 -26.5t-4.5 -21.5t6 -13q5 -3 13 -1q6 2 15.5 8t21.5 21q12 14 23 27t20 24q11 12 20 23
q7 9 13 13q5 3 9 0.5t4 -16.5q0 -5 -1 -10q-2 -5 -4.5 -11.5t-9.5 -14.5l-20 -22.5t-24 -26.5t-21 -23.5t-12 -13.5q-15 -15 -33.5 -16.5t-35.5 9.5q-9 6 -19 15.5t-17 23.5t-8.5 31t6.5 38z" />
    <glyph glyph-name="b" unicode="b" horiz-adv-x="272" 
d="M75 344q16 19 33.5 39t36 35.5t37 24.5t35.5 7q9 -3 16 -9q6 -5 10 -14.5t2 -23.5q-1 -9 -8.5 -23t-19 -30.5t-27 -34.5t-31.5 -34l-12 -12t-12 -11q-19 -18 -37 -33t-32 -26q-15 -32 -26 -60q-9 -24 -15 -49.5t-1 -40.5q3 -10 12.5 -8t22 11.5t26.5 24.5t26.5 30t22 28
t12.5 19q4 9 1.5 16.5t-7 15.5t-6.5 18t4 23q2 7 5.5 11.5t7.5 8.5q14 14 28 15.5t19 1.5q1 0 1 -0.5t1 -0.5h1q2 0 6 -2q11 -5 12.5 -18t-3.5 -30q-1 -8 -6 -17q18 1 30.5 3t17.5 4q8 2 11 -3.5t3 -12.5q0 -8 -2 -19q-1 -4 -4 -10t-10.5 -10.5t-21.5 -5.5t-37 6l-9 3
q-16 -26 -36.5 -52.5t-41.5 -48t-40.5 -35.5t-33.5 -15q-27 -2 -44 7t-27 21q-11 14 -17 32q-7 25 2 58.5t23 63.5q16 35 37 72q6 10 14 21q7 10 16 23t20 28zM217 420q-2 1 -8 -5.5t-14 -17t-17.5 -24.5t-19.5 -29q-23 -34 -50 -79q52 49 75 79t31 47q9 19 3 29z" />
    <glyph glyph-name="c" unicode="c" horiz-adv-x="264" 
d="M130 153q-5 4 -7 9t-1 10.5t8 13.5q14 16 23 30.5t5 19.5q-2 2 -18 -8t-38.5 -30.5t-47 -49.5t-42.5 -65q-4 -12 -5 -22q-1 -8 2.5 -16.5t15.5 -10.5q23 -2 48 4.5t50 19t48 29t42 34.5q5 5 9.5 9t8.5 7l7 7q9 8 15 11q5 2 8.5 -1t0.5 -18q0 -4 -2 -9q-4 -11 -19 -25
q-6 -8 -13 -14q-20 -20 -43.5 -37t-49 -30t-51 -20.5t-49.5 -7.5q-24 -2 -39.5 5.5t-24.5 15.5q-11 10 -16 23q-11 32 -6 61.5t19.5 55.5t35.5 48t42.5 38.5t40.5 27t29 13.5q16 3 28 -1t20 -10q10 -7 17 -17q5 -7 9 -15q3 -7 4 -16t-3 -18t-11 -19t-15.5 -17.5t-17.5 -12
t-17 -2.5z" />
    <glyph glyph-name="d" unicode="d" horiz-adv-x="356" 
d="M273 17q-14 -16 -37.5 -17t-41.5 10q-9 5 -19.5 15t-18.5 23.5t-11 31t4 37.5q-24 -44 -49 -74q-11 -13 -22.5 -24.5t-24 -18.5t-24.5 -8t-24 6q-23 14 -34.5 34t-15.5 41.5t0 44t13 41.5q5 11 14.5 25t20.5 28q0 1 1 1l2 1q0 1 1 2q5 6 13 13q10 9 24 19t30.5 17.5
t36 10.5t41.5 0q2 -1 6 -1v-1q5 -1 13 -5q9 -6 16.5 -14t2.5 -27q-3 -12 -11 -18q-2 -2 -3.5 -2.5t-2.5 -1.5h-1q-2 -1 -6 -1q-3 2 -5 4t-3 4t1 6h1l-1 1h1q1 2 2 4.5t-1 4.5t-11.5 -2.5t-23 -14t-29.5 -23.5t-31 -31q0 -1 -1 -2q-14 -17 -28 -37.5t-22.5 -39.5t-9 -33
t11.5 -17q9 -3 26.5 12t37.5 37t39.5 46.5t34.5 41.5v1q2 4 6 8q3 4 7.5 9.5t11.5 13.5q22 30 49 74t57.5 84.5t62 69t62.5 28.5q9 -1 17 -6q6 -5 11.5 -14t3.5 -25q-2 -19 -23 -51.5t-53 -68.5q-18 -21 -38 -40t-44 -37q-21 -30 -32 -49t-17 -31v-1l-1 -1q-8 -15 -15 -29
t-10.5 -26.5t-2.5 -21.5t7 -13q8 -3 18 -1q8 2 18.5 8t21.5 21q11 14 21 27t18 24q10 12 18 23q7 9 12 13q5 3 8.5 0t5.5 -17q1 -4 0 -9q-2 -11 -13 -26q-7 -9 -17.5 -23t-21.5 -27t-19.5 -23t-10.5 -13zM415 425q-3 1 -8 -4.5t-11.5 -15.5t-14.5 -22.5t-15 -25.5
q-18 -31 -39 -71q48 51 67.5 78.5t24.5 41.5q5 16 -4 19z" />
    <glyph glyph-name="e" unicode="e" horiz-adv-x="264" 
d="M173 43q-32 -20 -57.5 -31t-46 -15.5t-36 -3.5t-27.5 6q-27 11 -41 38q-12 31 -8 60t17.5 54.5t34 47t41.5 37.5t39.5 26t28.5 13q14 4 26.5 0.5t20.5 -9.5q10 -7 18 -17q3 -5 7 -11q7 -12 7 -26v-1q-1 -2 -1 -7q-5 -27 -26.5 -46.5t-48 -32t-52.5 -19t-41 -9.5l-7 -15
q-8 -23 -3 -35q4 -11 23 -14t63 16q10 4 21 9q9 5 20.5 10.5t22.5 11.5l4 3q3 2 6.5 3.5t5.5 3.5q9 7 17 13t16 14l22 22q9 8 15 11q5 2 8.5 -0.5t1.5 -17.5q1 -11 -10.5 -25.5t-21.5 -21.5l-26 -21q-1 0 -2 -1q-8 -6 -12 -8q-6 -4 -9 -5zM161 232q-2 1 -14 -6t-29 -21
t-37 -35t-37 -48q45 20 69 41t32 32q8 13 13.5 23t2.5 14z" />
    <glyph glyph-name="f" unicode="f" horiz-adv-x="201" 
d="M-118 -116q-18 14 -16 45t17 71.5t39.5 86t52 89t55.5 82t50 64.5q23 28 52.5 58t63.5 51q17 11 33 16.5t30 3.5q10 -3 16 -8q5 -5 8.5 -14t-0.5 -25q-5 -19 -31 -49.5t-64 -64.5q-7 -6 -13.5 -12t-12.5 -11q-16 -14 -35 -25.5t-34 -21.5q-4 -5 -8 -11l-8 -12
q14 13 28 15t19 1h3q2 -1 3 -1t3 -1q11 -6 12.5 -19t-3.5 -30q-2 -4 -3 -8t-3 -9q18 1 30.5 3.5t17.5 4.5q8 2 11 -3t3 -13q0 -9 -2 -20q-1 -3 -4 -9t-10.5 -10.5t-21.5 -5.5t-37 6q-4 0 -10 3q-4 -8 -10 -17q-17 -33 -39.5 -66.5t-45 -61t-41.5 -47t-28 -25.5
q-15 -10 -27 -10.5t-21 1.5q-11 3 -19 9zM257 421q-5 1 -22.5 -18.5t-36.5 -44.5q-23 -29 -50 -67q56 46 79.5 72t30.5 39q8 15 -1 19zM-82 -72q-5 -8 -3 -10q1 -1 4 0q29 23 52.5 49.5t42 54.5t32.5 55t24 50q-5 9 -9.5 20t1.5 26q-28 -45 -53.5 -88t-45.5 -77.5t-32 -56.5
t-13 -23z" />
    <glyph glyph-name="g" unicode="g" horiz-adv-x="348" 
d="M185 10q-9 6 -20 17q-5 -7 -8.5 -11.5l-7 -9t-8 -9.5t-10.5 -12q22 2 43 2.5t38 -1.5q27 -3 40.5 -11t19 -18t5.5 -19t-1 -13q-5 -11 -9 -19q-5 -7 -10 -10.5t-13 2.5q-5 4 -16.5 12t-29.5 16t-43.5 13.5t-58.5 5.5q-22 -24 -45 -45.5t-45.5 -38t-45 -25.5t-42.5 -9
q-14 0 -23.5 4t-16 9t-9.5 9.5t-3 5.5q-4 7 -5.5 21t13.5 30.5t52 34t110 32.5q13 16 19.5 25.5t19.5 26.5q-20 -20 -41 -29t-39 2q-21 15 -31.5 35t-12.5 41.5t3.5 44t16.5 41.5q10 17 30 39.5t46 38.5q12 7 31.5 17.5t42 18t46.5 10t46 -4.5q12 -3 22 -9q8 -5 15 -15
t8 -26q-1 -11 -5 -17q-1 -4 -5 -6v-1q-4 -2 -6 -2q-3 0 -6 1q-5 2 -4 9q1 2 1 6q-1 12 -20 15q-20 2 -39.5 -5t-38.5 -18.5t-36 -26.5t-32 -28q-16 -17 -31.5 -37.5t-25 -39t-11.5 -32.5t10 -17q10 -3 32 15t47 44t47.5 53t33.5 41q1 0 1 2q9 11 21.5 19t25.5 3
q32 -11 35.5 -25.5t-2.5 -27.5l-2.5 -4.5l-5 -9t-4.5 -8t-2 -2.5q-9 -15 -17 -29t-12.5 -26t-4.5 -21t6 -13q6 -3 13 -1q6 2 15 8t22 20q12 14 23 27t20 24q10 12 19 23q7 9 13 13q5 3 9.5 0.5t4.5 -16.5q1 -4 -1 -9t-5 -12t-10 -15q-8 -9 -19.5 -22.5t-23.5 -26.5
t-21.5 -23.5t-12.5 -13.5q-14 -15 -33 -16.5t-36 9.5zM-108 -136q14 -17 43 3.5t65 61.5q-51 -12 -74 -24t-31 -21q-9 -11 -3 -20z" />
    <glyph glyph-name="h" unicode="h" horiz-adv-x="308" 
d="M125 149q6 12 13 23.5t14 22.5q1 3 4 8.5t5 11t2 10t-5 5.5q-6 1 -21.5 -7t-35 -21.5t-40 -29t-35.5 -29.5q-2 -4 -4 -6v-1l-13 -19q-3 -5 -7 -11q-2 -5 -4 -9l-4 -8q-3 -7 -5 -14q-5 -13 -5 -28q2 -13 6 -16q5 1 9 -1q8 -4 4 -15q-5 -11 -18 -12q-5 -1 -15 -1
q-1 0 -1 0.5t-1 0.5h-1q-25 10 -31 32.5t0 51.5t20 60.5t30 59.5t30 49.5t20 29.5q2 2 3 4q29 41 46 66.5t25 40.5q10 18 12 26v9l-2 2q-1 1 -1 5q0 5 3 9q2 3 6.5 5.5t14.5 2.5q9 0 19.5 -6.5t18 -16t11 -22t-1.5 -24.5q-2 -7 -6 -14q-5 -11 -16.5 -28t-25.5 -38t-30.5 -44
t-32.5 -45q32 23 67 40.5t59 15.5q1 -1 2 -1q22 -2 30.5 -13.5t8 -28t-9.5 -36.5t-22 -40q-4 -6 -6 -8q-3 -4 -7 -10v-1l-12 -19q-19 -29 -25.5 -48.5t6.5 -27.5q6 -3 13 -1q6 2 15 8t22 20q12 14 23 27t20 24q10 12 19 23q7 9 13 13q5 3 9 0.5t4 -16.5q1 -4 0 -9
q-2 -11 -15 -27q-8 -9 -19.5 -22.5t-23.5 -26.5t-21.5 -23.5t-12.5 -13.5q-15 -15 -33.5 -16.5t-35.5 9.5q-14 9 -29 30.5t-11 52.5q2 11 6 26.5t12 29.5z" />
    <glyph glyph-name="i" unicode="i" horiz-adv-x="152" 
d="M-9 9q-14 9 -29 30t-12 53q2 11 6.5 26.5t12.5 29.5q11 23 25 43.5t22 33.5q7 10 8 14q1 3 1 5q0 7 -1 9q-1 1 -1 2q-1 1 -1 5q-1 5 2 9q2 3 6.5 5.5t14.5 2.5q2 0 4 -0.5t4 -0.5q9 -3 17.5 -9.5t14.5 -15.5t8 -20t-2 -23q-1 -5 -6 -13q-2 -3 -4 -6.5t-5 -8.5v1
q-10 -14 -18 -26t-13 -20l-13 -19q-19 -29 -25 -49t6 -28q5 -3 13 -1q6 2 15.5 8t21.5 20t23 27.5t20 24.5q11 12 20 22q7 9 13 13q5 3 9 0.5t4 -16.5q0 -4 -1 -9q-2 -5 -4.5 -11.5t-9.5 -14.5q-8 -9 -20 -23t-24 -27t-21 -23.5t-12 -13.5q-15 -15 -33.5 -16t-35.5 10z
M141 328q-13 -8 -20.5 -16.5t-5.5 -16.5q5 -1 9 -3q8 -4 5 -9q-3 -4 -9.5 -6.5t-15 -1t-16.5 6.5t-12 16q-8 21 -3 43.5t33 43.5q8 7 16 10q7 2 14.5 1t13.5 -11q13 -19 7 -34t-16 -23z" />
    <glyph glyph-name="j" unicode="j" horiz-adv-x="151" 
d="M-10 9q-11 6 -20 18q-11 -15 -23 -30.5t-25 -31.5q22 2 43 2.5t38 -1.5q27 -3 40.5 -11t19 -18t5.5 -18.5t-1 -12.5q-4 -12 -9 -20q-5 -7 -10.5 -10.5t-12.5 2.5q-5 4 -16.5 12t-29.5 16t-43.5 13.5t-58.5 5.5q-22 -24 -45 -45.5t-45.5 -37.5t-45 -25.5t-42.5 -8.5
q-14 0 -23.5 4t-16 8.5t-9.5 9t-3 5.5q-4 7 -5.5 21t13.5 30.5t52.5 34.5t110.5 33q27 35 54 73t49.5 71t38.5 58t22 34q0 1 2 3v1q6 10 11.5 18t9.5 13q5 7 7 14q1 3 1 5q2 5 0 9q-1 1 -1 2q-1 1 -1 5q-1 5 2 9q2 3 6.5 5.5t14.5 2.5q2 0 4 -0.5t4 -0.5q9 -3 17.5 -9.5
t14.5 -15.5t8 -20t-2 -23q-1 -5 -6 -13q-2 -3 -4 -6.5t-5 -8.5v1q-10 -14 -18 -26t-13 -20l-13 -19q-19 -29 -25 -49t6 -28q5 -3 13 -1q6 2 15.5 8t21.5 20t23 27.5t20 24.5q10 12 19 22q7 9 13 13q5 3 9.5 0.5t4.5 -16.5q1 -4 -1 -9t-5 -11.5t-10 -14.5q-8 -9 -19.5 -23
t-23.5 -27t-21.5 -23.5t-12.5 -13.5q-14 -15 -32.5 -16t-35.5 10zM-317 -155q14 -18 43 2.5t65 61.5q-51 -12 -74 -23.5t-31 -20.5q-9 -11 -3 -20zM149 385q12 -19 6.5 -34t-16.5 -23q-12 -8 -19.5 -16.5t-5.5 -16.5q5 -1 9 -3q8 -4 5 -9q-3 -4 -10 -6.5t-15 -1t-16 6.5
t-12 16q-8 21 -3 43.5t32 43.5q8 7 16 10q7 2 15 1t14 -11z" />
    <glyph glyph-name="k" unicode="k" horiz-adv-x="328" 
d="M326 139q1 -5 -1 -10t-5 -12t-10 -15q-8 -9 -20.5 -23t-24.5 -27.5t-22 -24.5t-13 -14l-1 -1l-2 -2q-7 -6 -14.5 -9t-15.5 -5q-15 -2 -36 2.5t-50 22.5q-31 21 -48 41.5t-23.5 38.5t-3.5 31t11 18q7 4 23 8.5t34.5 11t36 14.5t26.5 20q8 11 8 23v1q0 6 -5 6
q-6 1 -22.5 -8t-36.5 -22.5t-41.5 -29.5t-36.5 -31q-2 -4 -4 -6l-13 -20q-2 -3 -3.5 -6t-3.5 -6q-3 -5 -5 -9l-4 -8q-3 -7 -5 -15q-5 -15 -5 -29q0 -11 6 -17q5 1 9 -1q3 -2 5 -5t-1 -10q-3 -10 -18 -13q-4 0 -7.5 -0.5t-7.5 0.5q-2 0 -2.5 0.5t-1.5 0.5q-25 10 -31.5 33.5
t-0.5 53t21 62.5t31.5 62t31 51t20.5 30q1 2 3 4v1q31 42 48.5 68.5t25.5 41.5q10 18 12 27q0 8 -1 10q-1 1 -1 2q-1 1 -1 5q-1 5 2 9q5 9 22 9q10 -1 20.5 -7.5t18.5 -16.5t11.5 -22.5t-1.5 -25.5q-2 -7 -6 -14q-6 -11 -17.5 -29t-26.5 -39.5t-32 -45.5t-33 -47
q17 12 35 22.5t35 19t33 13t28 3.5h1q24 -3 34.5 -16t8.5 -31q-1 -2 -1 -5q-1 -2 -1 -5.5t-2 -7.5q-3 -10 -11 -22t-23 -24t-38.5 -21.5t-58.5 -14.5q-5 -1 -10 -1.5t-10 -0.5q-2 -1 -3 -1q-2 -2 -2 -3q1 -1 5 -8t11 -17q12 -17 29 -35.5t32 -26.5q10 -3 15 -2q7 2 16.5 8
t22.5 21q12 15 23.5 28.5t20.5 24.5q11 12 20 24q8 9 14 13q5 3 9.5 0.5t4.5 -17.5z" />
    <glyph glyph-name="l" unicode="l" horiz-adv-x="157" 
d="M27 117q-19 -29 -25 -49t6 -28q8 -3 18 -1q8 2 19 8t23 21q12 14 23 27t20 24q11 12 20 23q7 9 13 13q5 3 9 0t4 -17q0 -4 -1 -9q-2 -5 -4.5 -11.5t-9.5 -14.5q-8 -9 -20 -23t-24 -27t-21 -23t-12 -13q-15 -16 -38.5 -17t-40.5 10q-14 9 -29 30t-12 53q1 13 8.5 31.5
t18.5 38.5t24 40t25 37q43 57 66.5 92.5t35.5 55.5q13 24 17 35q0 6 -1 8q-1 0 -1 2q-1 1 -1 6q-1 5 2 9q2 3 6.5 5.5t14.5 2.5q9 0 19.5 -6.5t18.5 -16t11.5 -22t-1.5 -25.5q-1 -5 -6 -13q-9 -17 -31 -49t-47 -67.5t-48.5 -69t-35.5 -51.5z" />
    <glyph glyph-name="m" unicode="m" horiz-adv-x="452" 
d="M451 138q0 -4 -2 -9t-5.5 -12t-11.5 -15q-8 -9 -21 -22.5t-26 -26.5l-23.5 -23.5l-13.5 -13.5q-17 -15 -35 -16t-35 10q-13 9 -26 30t-7 53q4 11 9.5 26.5t14.5 29.5q7 11 14.5 22.5t15.5 22.5q2 3 5 7t5 8.5t2 7.5t-5 4q-3 1 -13 -5.5t-24 -17t-30.5 -24.5t-33.5 -29
q-2 -3 -3.5 -5t-3.5 -4l-14 -19q-1 -2 -2 -3t-2 -3q-2 -2 -2.5 -3t-1.5 -2v-1q-3 -5 -5.5 -9t-4.5 -8l-6 -14q-2 -6 -4.5 -13t-2.5 -14q-2 -11 4 -17q5 0 9 -1q7 -2 3 -12q0 -1 -1 -2v-1q-2 -3 -5 -5q-6 -6 -21 -9q-13 -2 -21 3h-1q-1 0 -2 1q-7 3 -9 5q-19 14 -19 44
q1 16 6.5 34t14.5 37.5t20 39.5t23 38q4 5 6 11.5t-5 7.5q-4 1 -17 -8.5t-31 -25.5t-39 -35.5t-40 -38.5q0 -1 -0.5 -1t-0.5 -1q-2 -2 -2.5 -3t-1.5 -2v-1q-3 -5 -5.5 -9t-4.5 -8q-1 0 -1 -1t-0.5 -2t-0.5 -2q-3 -6 -6.5 -16.5t-4.5 -19.5q0 -12 4 -17h7q4 -1 6.5 -4
t-0.5 -9q0 -1 -0.5 -1t-0.5 -1v-1q-1 -1 -1.5 -2t-2.5 -2q-1 -2 -6 -4q-6 -5 -16 -6q-13 -1 -22 3h-1q-1 0 -1 0.5t-1 0.5q-6 3 -8 5q-21 15 -19 44q0 7 2 15l4 16q0 2 1 3v2q9 30 27 62.5t38 61.5q9 16 14 30v2v1v6v3q-1 2 -1 6q0 5 3 9q2 3 7 5.5t15 2.5q2 0 3.5 -0.5
t3.5 -0.5q9 -3 18.5 -9.5t17 -15.5t10 -20t-2.5 -22v-1q32 28 62 47t49 17h1q26 -3 37 -18.5t6 -38.5q32 25 60.5 42t46.5 15h1q22 -3 30.5 -14.5t7.5 -28t-11 -36.5t-25 -40q-2 -2 -6 -8q-2 -3 -4 -5.5t-4 -4.5l-14 -19q-21 -29 -32 -49t1 -28q4 -3 12 -1q6 2 16 8t24 20
t26 27.5t22 24.5q11 12 21 22q8 9 14 13q5 3 9.5 0.5t2.5 -16.5z" />
    <glyph glyph-name="n" unicode="n" horiz-adv-x="330" 
d="M304 140q8 9 14 13q5 3 9.5 0.5t2.5 -16.5q0 -4 -2 -9t-5.5 -12t-11.5 -15q-8 -9 -21 -22.5t-26 -26.5l-23.5 -23.5l-13.5 -13.5q-17 -15 -35 -16t-34 10q-14 9 -27 30t-7 53q4 11 9.5 26.5t14.5 29.5q7 11 14.5 22.5t15.5 22.5q2 3 5 7t5 8.5t2 7.5t-5 4q-6 1 -26 -14
t-45.5 -36.5t-52 -46t-44.5 -42.5q-3 -7 -6 -17t-4 -18q0 -12 4 -17h7q10 -2 6 -13q0 -1 -1 -2q0 -1 -1 -1q0 -3 -3 -4q-1 -1 -6 -4q-6 -5 -16 -6q-13 -1 -22 3h-1q-1 0 -2 1q-8 3 -8 5q-21 15 -19 44q0 13 5 30q1 2 1 4q1 0 1 2q9 30 27 62.5t37 61.5q5 8 9 16t6 14h-1h1v2
v7v3q-1 2 -1 6q0 5 3 9q2 3 7 5.5t15 2.5q2 0 3.5 -0.5t3.5 -0.5q9 -3 18.5 -9.5t17 -15.5t10 -20t-2.5 -23q-2 -3 -3.5 -6l-3.5 -7q-2 -3 -4.5 -6.5t-6.5 -8.5v1q-4 -6 -6 -8q21 19 43.5 37t43.5 32.5t39.5 22.5t31.5 7h1q22 -3 30.5 -14.5t7.5 -28t-11 -36.5t-25 -40
q-2 -2 -3 -4t-3 -4q-2 -3 -4 -5.5t-4 -4.5l-14 -19v-1q-21 -29 -32 -48.5t1 -27.5q4 -3 12 -1q6 2 16 8t24 20t26 27.5t22 24.5q11 12 21 22z" />
    <glyph glyph-name="o" unicode="o" horiz-adv-x="257" 
d="M191 113q-1 0 -1.5 0.5t-1.5 0.5q-4 0 -6 1q-8 -17 -15 -28.5t-19 -25.5q-26 -33 -49.5 -46t-41.5 -18q-4 -2 -8 -2.5t-8 -1.5q-20 -4 -35.5 -0.5t-26.5 11.5t-18.5 18t-11.5 19q-8 19 -7.5 38.5t8.5 42.5q6 19 21 43t35 47l2 2l3 3t3.5 4t5.5 5q21 21 58.5 41.5
t80.5 24.5q12 0 23 -4q9 -3 17 -10.5t11 -22.5v-9.5t-2 -7.5q-1 -2 -2 -3.5t-2 -3.5h-1q-1 -3 -4 -4t-6 -1q-6 0 -6 8q2 3 0 5q-2 12 -21 9q-8 -2 -28.5 -12.5t-48.5 -37.5q-5 -5 -9 -10l-8 -10q-5 -3 -6 -6q-6 -8 -12 -15.5t-12 -18.5q-17 -27 -24.5 -47t-9.5 -41
q1 -19 10.5 -24.5t23 -2.5t28.5 12.5t27 19.5q10 10 13.5 13t11.5 12q15 18 19 29q4 9 1 16t-7.5 14.5t-7.5 16.5t2 23q3 7 5.5 12.5t6.5 9.5q10 12 20.5 16.5t18.5 5.5q2 2 5 2h3q4 0 6 -2q5 -1 9 -7q2 -3 2 -11t-1.5 -18t-3 -19.5t-2.5 -15.5q-1 -4 -1.5 -8t-2.5 -9
q3 0 4 1q15 3 25 7.5t15 6.5q11 5 16.5 7t5.5 -6q-1 -2 -1 -5v-2q0 -5 -3.5 -12t-14.5 -13q-7 -4 -19.5 -6.5t-30.5 0.5z" />
    <glyph glyph-name="p" unicode="p" horiz-adv-x="314" 
d="M288 141q8 9 14 13q5 3 9.5 0t2.5 -17q0 -4 -2 -9t-5 -11.5t-11 -14.5q-9 -9 -22 -23t-26 -27t-23.5 -23t-13.5 -13q-16 -16 -34.5 -17t-34.5 10q-7 4 -14 12t-12.5 18.5t-7.5 24t1 28.5q3 11 8.5 26.5t14.5 29.5q7 12 14.5 23.5t15.5 22.5q2 2 5 6t5.5 8.5t2 7.5t-5.5 4
q-4 1 -18 -8.5t-32.5 -25t-40.5 -34.5t-41 -37q-15 -22 -32.5 -46t-33 -46t-29 -40.5t-20.5 -30.5l-13 -20q-2 -3 -3.5 -5.5t-3.5 -5.5q-2 -5 -4 -9l-4 -8q-3 -7 -5 -14q-5 -13 -5 -28q0 -10 6 -16q5 1 9 -1q8 -4 3 -15q-3 -10 -17 -12q-8 -2 -15 0q-3 0 -4 1
q-25 10 -30.5 32.5t0.5 51t21 60t31 59.5t30.5 49.5t20.5 29.5q2 2 3 4q29 41 45.5 66.5t24.5 40.5q9 18 10 26q0 7 -1 9q-1 1 -1 2q-1 1 -1 5q-1 5 2 9q2 3 6.5 5.5t14.5 2.5q9 0 19.5 -6.5t18.5 -16t11.5 -22t-1.5 -24.5q-1 -4 -5 -12q19 16 39 31.5t38 27t34 18t27 5.5h1
q22 -2 30.5 -13.5t7.5 -28.5t-11 -37t-25 -40q-2 -2 -6 -8q-2 -2 -4 -5t-4 -5l-14 -19q-21 -29 -32 -49t1 -28q4 -3 12 -1q6 2 16 8t24 21q14 14 26 27t22 24q11 12 21 23z" />
    <glyph glyph-name="q" unicode="q" horiz-adv-x="353" 
d="M326 142q7 9 13 13q5 3 9.5 0.5t4.5 -16.5q1 -5 -1 -10t-5 -11.5t-10 -14.5q-8 -9 -19.5 -22.5t-23.5 -26.5t-21 -23.5t-12 -13.5q-15 -15 -33.5 -16.5t-35.5 9.5q-11 6 -21 18q-15 -22 -27.5 -40t-20.5 -30l-12 -19q-5 -6 -7 -11q-3 -5 -5 -9l-4 -8q-3 -7 -5 -14
q-2 -6 -3.5 -13.5t-0.5 -14.5q0 -12 5 -17q5 0 9 -1q3 -2 4.5 -4.5t-0.5 -9.5q-3 -10 -18 -12q-4 -1 -14 -1q-1 0 -1.5 0.5t-1.5 0.5h-1q-25 10 -31 33.5t0.5 52.5t21.5 61.5t31 60.5q-22 -23 -45.5 -35.5t-43.5 0.5q-21 15 -31.5 34.5t-12.5 41.5t3.5 44t16.5 41
q10 18 30.5 39.5t46.5 39.5l6 4l4 2t5 3q26 16 65.5 28t84.5 4q12 -3 22 -9q8 -5 15 -15t8 -26q-1 -7 -1.5 -10t-2.5 -7q-3 -5 -6 -6v-1q-4 -2 -6 -2q-3 0 -6 1q-5 2 -4 9q1 2 1 6q-2 12 -19 14q-9 2 -32 -4t-55 -26q-6 -3 -11.5 -7t-11.5 -8q-2 -2 -3 -2.5t-3 -2.5h-1
q-14 -11 -30 -27q-15 -17 -30.5 -37.5t-25.5 -39t-12 -32.5t10 -18q18 -5 40 11.5t44.5 42.5t43 54.5t34.5 46.5q9 11 21 19.5t26 3.5q13 -4 19.5 -10t8 -13t0 -14.5t-5.5 -14.5v-1l-1 -1v-1q0 -1 -0.5 -1t-0.5 -1l-1 -1v-1l-1 -1q-2 -2 -3 -5t-3 -5v-1q-1 0 -1 -1v-1
q-1 0 -1 -1q-1 0 -1 -1l-1 -1v-1q-19 -29 -24.5 -55.5t6.5 -34.5q5 -3 13 -1q6 2 15.5 8t21.5 21q12 14 23 27t20 24q10 12 19 23z" />
    <glyph glyph-name="r" unicode="r" horiz-adv-x="236" 
d="M206 135q9 9 16 13q6 3 11 0.5t3 -16.5q-1 -4 -4 -9q-2 -5 -6 -12t-12 -15q-8 -9 -21 -22.5t-26 -26.5t-24 -23.5t-14 -13.5q-16 -15 -34.5 -16t-34.5 10q-14 9 -26.5 30t-6.5 53q3 11 9 26.5t14 29.5q8 11 15.5 22.5t15.5 22.5q0 2 1 2.5t2 2.5v1q1 1 4.5 6t6.5 11.5
t3.5 13t-4.5 11.5v1q-3 -4 -6 -7.5t-7 -7.5q-3 -4 -6.5 -8t-6.5 -9q-17 -21 -28.5 -34.5t-18.5 -21.5q-9 -10 -13 -14q-16 -19 -25 -17q-4 0 -6 5q-2 1 -3 4q-2 4 1 10q8 17 22.5 34.5t31.5 39.5q8 9 13 14.5t12 14.5q4 7 2.5 14t-4 15t-3 16.5t6.5 19.5q7 9 15 16
q13 10 25.5 9.5t17.5 -1.5l2 -1q4 -2 5 -3q8 -6 8 -17.5t-6 -25.5q-3 -5 -6 -11t-7 -11q0 -1 -2 -3q7 -2 20.5 -8t24.5 -17.5t13.5 -29t-12.5 -41.5q-2 -4 -4.5 -7t-4.5 -6q-5 -5 -7 -8q-3 -4 -7 -10l-15 -20q-21 -29 -31.5 -48.5t0.5 -27.5q5 -3 13 -1q7 2 16 8t23 20
t26 27.5t22 24.5q11 12 21 22z" />
    <glyph glyph-name="s" unicode="s" horiz-adv-x="243" 
d="M98 316q13 4 24 2.5t18.5 -7t11 -13t1.5 -14.5q-2 -5 -7.5 -6t-7.5 -1q-2 -6 -4.5 -27.5t1.5 -59.5q2 -22 5.5 -38.5t6 -29.5t2.5 -23.5t-5 -20.5q-14 -29 -44 -52t-64 -29q-22 -5 -38 -1t-26 14t-13.5 23.5t1.5 27.5q3 14 22 32t49.5 32t71.5 20t89 -4q13 -3 19 -12
t1 -14q-3 -3 -10 -1q-3 1 -6 3q-50 8 -88.5 -4.5t-63.5 -32t-35.5 -38t-2.5 -21.5q15 -9 34.5 6t30.5 44q4 11 3.5 25.5t-4 31.5t-7.5 35.5t-6 37.5q-16 -20 -27.5 -35.5t-19.5 -26.5q-10 -12 -16 -22q-9 -11 -15 -13.5t-10 -2.5t-6 4l-2 4q-2 4 0 9q4 10 15.5 27.5
t25.5 37.5t29 40t26 35q3 17 10 28t14 18q8 8 17 12z" />
    <glyph glyph-name="t" unicode="t" horiz-adv-x="155" 
d="M128 142q7 9 13 13q5 3 9 0.5t5 -16.5q1 -4 0 -9t-4 -12t-10 -15q-7 -9 -18 -22.5t-22 -26.5t-19.5 -23.5t-11.5 -13.5q-14 -15 -32.5 -16.5t-35.5 9.5q-7 4 -15.5 12t-15 18.5t-11 24t-3.5 28.5q2 11 5.5 26.5t10.5 29.5q7 17 16 33t17 29q9 15 18 29q16 24 34 52t29 46
q-51 0 -83 5t-50 11.5t-24 13t-4 9.5q4 9 12 7q4 -1 7 -5t25 -6t49 -2t52.5 1t36.5 2q-8 14 -11 25.5t6 31.5q10 21 22 31.5t23 15.5q12 5 25 5q19 -2 33.5 -23t7.5 -46h-1q-1 -4 -5 -14l-4.5 -9t-6.5 -12q29 8 59 14t54 8q27 2 42 -3.5t22.5 -14.5t9.5 -18t2 -13
q-1 -12 -4 -20q-3 -7 -8 -12t-13 0q-6 3 -19 9t-33 11t-46.5 6.5t-58.5 -4.5q-8 -2 -15.5 -3.5t-15.5 -3.5q-1 0 -5 -2q-17 -26 -36.5 -55t-37.5 -56l-33 -49.5t-23 -35.5l-11 -20q-17 -29 -17.5 -48.5t12.5 -27.5q6 -3 13 -1q6 2 15 8t20 20t21.5 27t18.5 24q10 12 18 23z
M153 448q-10 -1 -20 -15.5t-7 -32.5q9 14 13.5 22.5t7.5 13.5t4 7.5t2 4.5z" />
    <glyph glyph-name="u" unicode="u" horiz-adv-x="327" 
d="M300 142q8 9 14 13q5 3 9.5 0.5t2.5 -16.5q0 -4 -2 -9t-5.5 -12t-11.5 -15q-8 -9 -21 -22.5t-26 -26.5l-23.5 -23.5l-13.5 -13.5q-17 -15 -35 -16.5t-35 9.5q-14 9 -26.5 30.5t-6.5 52.5q2 6 2 8q-23 -28 -42.5 -46t-35 -29.5t-27 -16.5t-19.5 -7h-1l-1 -1h-2h-1h-1
q-8 -1 -11 0q-4 0 -10 2q-1 0 -1 1h-2q-8 5 -9 5q-11 8 -15 19t-4 25q1 7 2.5 15t3.5 16q0 1 0.5 1.5t0.5 1.5t0.5 1.5t0.5 1.5q9 30 27 62.5t37 61.5q5 8 8.5 16t5.5 13v1q1 0 1 1v1v7q0 2 -1 3q0 1 -0.5 2.5t0.5 3.5q0 5 3 9q2 3 6.5 5.5t14.5 2.5q2 -1 4 -1t4 -1
q9 -2 18.5 -8.5t17 -16t10 -20.5t-2.5 -22q-2 -3 -3.5 -6l-3.5 -7q-2 -3 -4.5 -6.5t-6.5 -8.5q-2 -2 -6 -8q-9 -11 -16.5 -20.5t-12.5 -16.5l-14 -20q-2 -1 -4 -5l-1 -1t-3 -5q-3 -5 -5.5 -9t-4.5 -8q-1 0 -1 -1q-1 -1 -1 -2t-1 -2q-2 -7 -5 -15t-4 -17q-1 -8 2 -14
q6 -3 20 7t33.5 28.5t41 43t42.5 48.5t38.5 45.5t28.5 35.5q2 4 3.5 6.5t3.5 4.5v1l2 2q1 2 7 8t17 10t17 1q24 -8 30.5 -21.5t-0.5 -26.5q-1 0 -1 -1q-1 -1 -1 -2t-1 -2q-2 -4 -9.5 -15.5t-27.5 -37.5q-2 -5 -5.5 -9t-6.5 -9q-4 -6 -6 -8q-2 -3 -4 -5.5t-4 -5.5l-14 -19
q-21 -29 -32 -48.5t0 -27.5q5 -3 13 -1q7 2 16.5 8t23.5 20q13 14 25.5 27t22.5 24q11 12 21 23z" />
    <glyph glyph-name="v" unicode="v" horiz-adv-x="301" 
d="M284 223q-2 -3 -4 -7t-6 -8q-12 -15 -51.5 -51.5t-126.5 -97.5q-13 -9 -27.5 -19t-30.5 -21q-14 -10 -24.5 -14t-18.5 -6l-1 -1h-1h-1h-2l-1 -1h-10q-8 2 -11 3h-1q-1 1 -2 1q-5 2 -8 5q-21 15 -19 44q0 7 2 15l4 16v3q1 1 1 3q9 29 27 61.5t38 61.5q5 8 8.5 16.5
t5.5 13.5v2v1v7v3q-1 1 -1 5q0 5 3 9q2 3 7 6t15 2q5 0 7 -1q9 -3 18.5 -9.5t17 -15.5t10 -20t-2.5 -22q-2 -3 -3.5 -6.5t-3.5 -7.5q-2 -3 -4.5 -6t-6.5 -8h1q-5 -5 -7 -8q-19 -24 -29 -38l-14 -19q-1 -2 -2 -2.5t-2 -2.5v-1q-3 -3 -4 -5q-3 -5 -5.5 -9t-4.5 -8q-1 -1 -1 -2
t-0.5 -1.5t-0.5 -2.5q-3 -6 -6 -14t-4 -17v-1q0 -9 2 -13q5 -7 19 2t33 27.5t41 43.5t43 50.5t39 48t29 36.5q2 4 4 6.5t3 4.5h1v1l1 1q2 2 8 8.5t17 10.5q9 4 17 1q23 -8 29.5 -21.5t0.5 -26.5l-1 -1q-1 -1 -1.5 -2t-1.5 -2z" />
    <glyph glyph-name="w" unicode="w" horiz-adv-x="466" 
d="M426 199q-2 -3 -4.5 -6.5t-5.5 -8.5q-6 -8 -14.5 -16.5t-24.5 -22t-43 -34t-70 -51.5q-14 -10 -28 -19.5t-31 -20.5q-14 -10 -24.5 -14.5t-18.5 -6.5h-1q-1 0 -1 -0.5t-1 -0.5h-1h-1q-5 -1 -7 -0.5t-4 0.5q-7 0 -11 3q-2 0 -3 1q-6 3 -8 5q-11 7 -15 18.5t-4 25.5
q0 5 2 15l-9 -6q-13 -10 -27.5 -19.5t-30.5 -20.5q-14 -10 -24.5 -14.5t-18.5 -6.5h-1q-1 0 -2 -1h-1h-1q-5 -1 -7.5 -0.5t-3.5 0.5q-7 0 -11 3h-1l-2 1q-6 3 -8 5q-11 7 -15 18.5t-4 25.5q0 7 2 14.5t4 15.5q0 2 1 4v2q10 30 27.5 62.5t37.5 61.5q5 8 8.5 16t5.5 14v2h1v7
q0 2 -1 3q0 2 -0.5 3t-0.5 3q0 5 3 9q2 3 7 5.5t15 2.5q2 0 4 -0.5t4 -0.5q9 -3 18.5 -9.5t16.5 -15.5t9.5 -20t-2.5 -23q-1 -3 -3 -6t-4 -7q-3 -5 -11 -15q1 0 1 1q-2 -2 -3.5 -4.5t-3.5 -4.5q-9 -11 -16.5 -20.5t-12.5 -16.5l-14 -19q-2 -4 -4 -6q-1 -2 -4 -5v-1
q-3 -5 -5.5 -9t-4.5 -8q-1 0 -1 -1t-0.5 -2t-0.5 -2q-3 -6 -6 -14.5t-4 -17.5q0 -10 2 -14q5 -7 19.5 3t35 30t43.5 46t45 52q4 6 7.5 12.5t8.5 14.5t9 16.5t6 13.5v2v1v7v3q-1 1 -1 5q0 5 3 9q2 3 7 6t15 2q5 0 7 -1q9 -3 18.5 -9.5t17 -15.5t10 -20t-2.5 -22
q-2 -3 -3.5 -6.5t-3.5 -7.5q-2 -3 -4.5 -6t-6.5 -8h1q-5 -5 -7 -8q-9 -11 -11.5 -14.5t-4.5 -5.5l-15 -19l-3 -6h-1q-2 -4 -3 -5l-1 -1q-6 -8 -9 -17q-1 0 -1 -1q-1 -1 -1 -2t-1 -2q-3 -6 -5.5 -14.5t-3.5 -17.5q-1 -6 1 -14q5 -7 17 0.5t28.5 23t35 37.5t36.5 45t34 44
t27 35q6 8 8 11q1 1 1 2l8 8t17 11q8 3 17 0q23 -8 30 -21.5t0 -25.5q-1 -1 -1 -2q-1 -1 -1 -2t-1 -2z" />
    <glyph glyph-name="x" unicode="x" horiz-adv-x="261" 
d="M157 16q-4 -5 -8.5 -8.5t-8.5 -5.5h-1q-1 -1 -2 -1q-8 -3 -10 -3q-23 -4 -44 18q-5 5 -9.5 11.5t-8.5 13.5q-1 1 -1 1.5t-1 1.5q0 1 -1 2q-13 25 -26 65q-14 -9 -30 -21.5t-30 -25t-24 -22.5t-11 -14q-4 -9 -11.5 -19t-18.5 -11q-10 0 -14 8q-1 2 -1 5v2q-1 8 5 18t15 21
t20.5 22.5t21.5 21t17.5 15.5t8.5 7l2 2q10 9 19.5 17t17.5 16q-2 11 -4.5 20.5t-4.5 18.5q-2 10 -5.5 18t-5.5 13l-1 1l-1 1v1q-2 2 -3 2.5t-2 1.5l-2 2q-4 2 -5 4q-3 4 -4 8t0.5 9t8.5 12q2 2 3.5 2.5t3.5 2.5q8 4 19.5 6.5t23 1t21 -7t13.5 -17.5q4 -7 5 -14q1 -4 1.5 -8
t1.5 -10q0 -2 0.5 -5t0.5 -5t0.5 -2.5t0.5 -1.5q31 24 50.5 37t30.5 18q5 2 9.5 3.5t7.5 3.5q2 0 2.5 0.5t1.5 0.5h2q14 4 26 -5t14 -34q1 -7 -4 -16q-7 -11 -14.5 -15.5t-9.5 -5.5h-2v-1h-1q-2 -1 -5 -1.5t-7 -2.5q-15 -8 -39.5 -20t-52.5 -26l1 -3q0 -4 1 -6v-1
q0 -2 0.5 -3t0.5 -3q2 -6 3 -10.5t2 -8.5l2 -6q3 -6 10.5 -22.5t13.5 -23.5q7 -9 14 -9q3 3 6 5t6.5 2t6.5 -7q0 -1 1 -3v-5q0 -5 -1 -8q-2 -7 -7 -15z" />
    <glyph glyph-name="y" unicode="y" horiz-adv-x="324" 
d="M183 -29q27 -2 40.5 -10t19 -18t5.5 -19v-13q-4 -11 -9 -19q-5 -7 -10.5 -10.5t-12.5 2.5q-5 4 -16.5 12t-30 16t-44 13.5t-58.5 5.5q-22 -24 -44.5 -45.5t-45.5 -38t-45 -25.5t-42 -9q-14 0 -24 4t-16 9t-9 9.5t-4 5.5q-4 7 -5.5 21t13.5 30.5t52 34t110 32.5
q17 22 34 45t33 46q-28 -26 -47.5 -36.5t-30.5 -13.5h-1h-1h-1h-2v-1h-1h-10q-8 2 -11 3h-1q-1 0 -1 0.5t-1 0.5q-8 3 -8 5q-21 15 -19 44q0 7 2 15l4 16v3q1 1 1 2q9 30 27 62.5t38 61.5h-1q5 8 9 16.5t6 13.5v2v1v7v3q-1 1 -1 5q0 5 3 9q2 3 7 5.5t15 2.5q5 0 7 -1
q9 -3 18.5 -9.5t17 -15.5t10 -20t-2.5 -22q-2 -3 -3.5 -6.5t-3.5 -7.5q-2 -3 -4.5 -6t-6.5 -8h1q-2 -2 -3.5 -4t-3.5 -4q-19 -24 -29 -38l-14 -19q-1 -2 -4 -5v-1q-3 -3 -4 -5q-3 -5 -5.5 -9t-4.5 -8q-1 -1 -1 -2t-0.5 -1.5t-0.5 -2.5q-3 -6 -6 -14t-4 -18q0 -10 2 -13
q5 -7 19 2t33 27.5t41 43.5t43 50.5t39 48t29 36.5q6 8 7 11h1v1l1 1q2 2 7.5 8t17.5 11q9 4 17 1q23 -8 29.5 -21.5t0.5 -26.5l-4 -6q-2 -3 -9 -15t-27 -38q-3 -5 -6 -9t-7 -8l-6 -9q-2 -2 -4 -5t-4 -5l-14 -19q0 -1 -1 -2q-3 -5 -10 -15.5t-18 -25.5q-14 -26 -2 -34
q4 -3 12 -1q6 2 16 8t24 21q14 14 26 27t22 24q11 12 21 23q8 9 14 13q5 3 9.5 0t2.5 -17q0 -4 -2 -9t-5 -11.5t-11 -14.5q-9 -9 -22 -23t-26 -27t-23.5 -23t-13.5 -13q-17 -15 -35 -16.5t-34 9.5q-3 2 -6 4.5t-6 5.5q-9 -11 -18 -23.5t-20 -24.5q23 2 43.5 2t37.5 -2z
M-136 -150q13 -17 42 3t65 62q-51 -12 -74 -24t-31 -21q-9 -11 -2 -20z" />
    <glyph glyph-name="z" unicode="z" horiz-adv-x="274" 
d="M248 141q8 9 14 13q5 3 9.5 0.5t2.5 -16.5q0 -4 -2 -9t-5.5 -12t-11.5 -15q-8 -9 -21 -22.5t-26 -26.5l-23.5 -23.5l-13.5 -13.5q-14 -14 -31 -16t-31 6l-2 -4h1l-3 -3q-8 -14 -15.5 -22.5t-11.5 -11.5q0 -1 -0.5 -1t-0.5 -1q22 2 43 2.5t38 -1.5q27 -3 40.5 -11t19 -18
t5.5 -18.5t-1 -12.5q-4 -11 -9 -19q-5 -7 -10.5 -10.5t-12.5 1.5q-5 4 -16.5 12t-30 16t-43.5 13.5t-58 5.5q-22 -24 -45 -45.5t-45.5 -37.5t-45 -25.5t-42.5 -8.5q-14 0 -23.5 4t-16 8.5t-9.5 9t-3 5.5q-4 7 -5.5 21t13.5 30.5t52 34.5t110 33q26 22 41 42t23 37q2 5 3.5 9
t3.5 8q7 23 3.5 38.5t-8.5 18.5q-2 2 -3 2q-6 6 -7.5 11t-0.5 9t4 8q5 5 19 24t25 33l2 4l4 4v1q1 1 4.5 6t6.5 11.5t3.5 13t-4.5 11.5l-1 1l-12 -15q-3 -4 -6.5 -8t-6.5 -8q-14 -18 -28.5 -35t-27 -31.5t-22.5 -25t-14 -15.5q-2 -2 -3 -2l-1 -1q-9 -11 -14.5 -14t-9.5 -3
t-6 4q-1 2 -1 4q-1 3 0 10q0 11 11 23q10 11 30.5 33t43.5 51l14 18t14 19q4 7 2.5 14t-4 14.5t-3 16t6.5 19.5q7 9 15 16q13 10 25.5 9.5t17.5 -1.5q1 -1 2 -1t1.5 -0.5t1.5 -0.5l2 -2q8 -6 8 -17.5t-7 -25.5q-4 -9 -12 -22q-1 -1 -1 -1.5t-1 -1.5q6 -2 19.5 -8t24 -16.5
t14 -26.5t-8.5 -38q-4 -8 -12 -21t-21 -26q-7 -8 -9 -15.5t-3 -12.5q-1 -7 0 -12q3 -20 2 -33v-5q0 -5 5 -10q5 -3 13 -1q7 2 16.5 8t23.5 20q13 14 25.5 27.5t22.5 24.5q11 12 21 22zM-162 -157q14 -18 43 2.5t64 61.5q-51 -12 -73.5 -23.5t-30.5 -20.5q-9 -11 -3 -20z" />
    <glyph glyph-name="dieresis" unicode="&#xa8;" horiz-adv-x="141" 
d="M63 360q-20 -11 -18 -22l6 -2q5 -2 4 -6q-4 -5 -16.5 -4.5t-18.5 14.5q-5 14 -2 29t21 29q6 4 11 6t9.5 1t9.5 -7q8 -13 4 -23t-10 -15zM114 344q-20 -11 -18 -22l6 -2q5 -2 4 -6q-4 -5 -16.5 -4.5t-18.5 14.5q-5 14 -2 29t21 29q6 4 11 6t9.5 1t9.5 -7q8 -13 4 -23
t-10 -15z" />
    <glyph glyph-name="acute" unicode="&#xb4;" horiz-adv-x="193" 
d="M113 377q4 5 9.5 11.5t12 11t15 5t17.5 -5.5q8 -6 11 -12t3 -11q0 -6 -4 -11q-26 -28 -58 -40.5t-62 -13.5q-15 0 -24 4t-12 10t-1.5 12.5t6.5 10.5t13 -2q4 -3 7 -7q20 1 38.5 13t28.5 25z" />
    <glyph glyph-name="cedilla" unicode="&#xb8;" horiz-adv-x="251" 
d="M229 3l-24 -37q32 -18 35 -34.5t-10 -27.5t-35.5 -16.5t-41.5 -2.5q-23 4 -20.5 21.5t16.5 43.5q-18 0 -36.5 -3t-35 -7.5t-29.5 -9t-19 -6.5q-8 -3 -10 -0.5t0 7.5t7 14q2 4 7.5 11t14.5 13t22 10.5t30 4.5q16 0 27 -1.5t18 -3t12 -3t10 -1.5l18 25zM197 -94q10 5 14 11
q3 5 0 11.5t-21 13.5q-13 -23 -14 -34.5t21 -1.5z" />
    <glyph glyph-name="Agrave" unicode="&#xc0;" horiz-adv-x="693" 
d="M0 -90q-27 8 -39.5 20t-15 25.5t2.5 27t14 24.5t19 18.5t17 8.5q10 1 12 -5q1 -3 0 -7q0 -7 3.5 -18.5t12.5 -20.5t25 -13t41 3.5t60 29t82 63.5q16 14 38.5 34t40.5 35q-2 0 -8 -0.5t-7 0.5q-11 2 -24.5 9t-22 21t-8.5 35.5t16 52.5q24 46 64 81t86.5 60.5t96 43
t93.5 28t78.5 16t50.5 7.5q10 0 21 -1q9 -1 18 -4t16 -9q6 -6 11 -20t-7 -32q-6 -9 -19.5 -23.5t-33.5 -35.5t-46 -50t-57 -69q20 1 29.5 -6t12 -19t-2 -26t-12.5 -26q-9 -12 -15.5 -16t-10.5 -5q-7 -1 -9 3q-1 2 -1 3q0 4 -1 8t-6 6t-15 2t-28 -4q-2 -4 -4 -7t-4 -7
q-44 -63 -56 -106t1 -70.5t48.5 -40t85.5 -15t112 4.5t129 19q120 22 211 29t152.5 2.5t92.5 -18.5t30 -35q-1 -13 -6 -20q-5 -6 -15 -7.5t-27 9.5q-37 22 -93 24.5t-123.5 -5.5t-144 -20.5t-155 -20.5t-155.5 -5t-146 26q-42 15 -61 39t-19.5 55.5t15.5 69.5t45 79
q-22 -5 -50 -9.5t-53 -9.5q-22 -19 -48 -45t-56 -53.5t-63.5 -53.5t-69 -44t-72 -24.5t-73.5 4.5zM658 365q-32 -35 -83.5 -74t-114.5 -92q20 5 39.5 10.5t36.5 10.5q31 39 54 67t38 45q18 20 30 33zM295 231q-7 -30 11.5 -40.5t52.5 -8.5q63 51 122 99t105 85q54 43 101 82
q-34 -2 -74 -11.5t-81.5 -25t-81.5 -36t-72 -44t-54.5 -49t-28.5 -51.5zM741 571q9 -13 27.5 -25.5t38.5 -12.5q3 4 7 7q7 5 13 1q5 -4 7 -10t-1.5 -12t-12 -10t-24.5 -4q-30 1 -62 13t-58 41q-4 5 -4 11q0 5 2.5 11t11.5 12q10 6 18 5.5t14.5 -5t12 -11t10.5 -11.5z" />
    <glyph glyph-name="Aacute" unicode="&#xc1;" horiz-adv-x="693" 
d="M0 -90q-27 8 -39.5 20t-15 25.5t2.5 27t14 24.5t19 18.5t17 8.5q10 1 12 -5q1 -3 0 -7q0 -7 3.5 -18.5t12.5 -20.5t25 -13t41 3.5t60 29t82 63.5q16 14 38.5 34t40.5 35q-2 0 -8 -0.5t-7 0.5q-11 2 -24.5 9t-22 21t-8.5 35.5t16 52.5q24 46 64 81t86.5 60.5t96 43
t93.5 28t78.5 16t50.5 7.5q10 0 21 -1q9 -1 18 -4t16 -9q6 -6 11 -20t-7 -32q-6 -9 -19.5 -23.5t-33.5 -35.5t-46 -50t-57 -69q20 1 29.5 -6t12 -19t-2 -26t-12.5 -26q-9 -12 -15.5 -16t-10.5 -5q-7 -1 -9 3q-1 2 -1 3q0 4 -1 8t-6 6t-15 2t-28 -4q-2 -4 -4 -7t-4 -7
q-44 -63 -56 -106t1 -70.5t48.5 -40t85.5 -15t112 4.5t129 19q120 22 211 29t152.5 2.5t92.5 -18.5t30 -35q-1 -13 -6 -20q-5 -6 -15 -7.5t-27 9.5q-37 22 -93 24.5t-123.5 -5.5t-144 -20.5t-155 -20.5t-155.5 -5t-146 26q-42 15 -61 39t-19.5 55.5t15.5 69.5t45 79
q-22 -5 -50 -9.5t-53 -9.5q-22 -19 -48 -45t-56 -53.5t-63.5 -53.5t-69 -44t-72 -24.5t-73.5 4.5zM658 365q-32 -35 -83.5 -74t-114.5 -92q20 5 39.5 10.5t36.5 10.5q31 39 54 67t38 45q18 20 30 33zM295 231q-7 -30 11.5 -40.5t52.5 -8.5q63 51 122 99t105 85q54 43 101 82
q-34 -2 -74 -11.5t-81.5 -25t-81.5 -36t-72 -44t-54.5 -49t-28.5 -51.5zM757 577q4 5 9.5 11.5t12 11t15 5t17.5 -5.5q8 -6 11 -12t3 -11q0 -6 -4 -11q-26 -28 -58 -40.5t-62 -13.5q-15 0 -24 4t-12 10t-1.5 12.5t6.5 10.5t13 -2q4 -3 7 -7q20 1 38.5 13t28.5 25z" />
    <glyph glyph-name="Acircumflex" unicode="&#xc2;" horiz-adv-x="693" 
d="M0 -90q-27 8 -39.5 20t-15 25.5t2.5 27t14 24.5t19 18.5t17 8.5q10 1 12 -5q1 -3 0 -7q0 -7 3.5 -18.5t12.5 -20.5t25 -13t41 3.5t60 29t82 63.5q16 14 38.5 34t40.5 35q-2 0 -8 -0.5t-7 0.5q-11 2 -24.5 9t-22 21t-8.5 35.5t16 52.5q24 46 64 81t86.5 60.5t96 43
t93.5 28t78.5 16t50.5 7.5q10 0 21 -1q9 -1 18 -4t16 -9q6 -6 11 -20t-7 -32q-6 -9 -19.5 -23.5t-33.5 -35.5t-46 -50t-57 -69q20 1 29.5 -6t12 -19t-2 -26t-12.5 -26q-9 -12 -15.5 -16t-10.5 -5q-7 -1 -9 3q-1 2 -1 3q0 4 -1 8t-6 6t-15 2t-28 -4q-2 -4 -4 -7t-4 -7
q-44 -63 -56 -106t1 -70.5t48.5 -40t85.5 -15t112 4.5t129 19q120 22 211 29t152.5 2.5t92.5 -18.5t30 -35q-1 -13 -6 -20q-5 -6 -15 -7.5t-27 9.5q-37 22 -93 24.5t-123.5 -5.5t-144 -20.5t-155 -20.5t-155.5 -5t-146 26q-42 15 -61 39t-19.5 55.5t15.5 69.5t45 79
q-22 -5 -50 -9.5t-53 -9.5q-22 -19 -48 -45t-56 -53.5t-63.5 -53.5t-69 -44t-72 -24.5t-73.5 4.5zM658 365q-32 -35 -83.5 -74t-114.5 -92q20 5 39.5 10.5t36.5 10.5q31 39 54 67t38 45q18 20 30 33zM295 231q-7 -30 11.5 -40.5t52.5 -8.5q63 51 122 99t105 85q54 43 101 82
q-34 -2 -74 -11.5t-81.5 -25t-81.5 -36t-72 -44t-54.5 -49t-28.5 -51.5zM761 576q2 2 5 2.5t7 2.5q14 4 23 -5l1 -1l2 -4h1q4 -7 4 -13l3 -11q2 -14 11 -30t25 -21q4 3 8 4q8 2 12 -3q2 -5 0.5 -11t-6.5 -10t-14 -5t-21 4q-18 7 -34 19.5t-27 31.5q-23 -7 -45 -6t-41 7
q-13 4 -18 10t-5 12t4 10.5t10 6.5t10 -5q2 -4 3 -8q15 -5 35 1t33 14z" />
    <glyph glyph-name="Atilde" unicode="&#xc3;" horiz-adv-x="693" 
d="M0 -90q-27 8 -39.5 20t-15 25.5t2.5 27t14 24.5t19 18.5t17 8.5q10 1 12 -5q1 -3 0 -7q0 -7 3.5 -18.5t12.5 -20.5t25 -13t41 3.5t60 29t82 63.5q16 14 38.5 34t40.5 35q-2 0 -8 -0.5t-7 0.5q-11 2 -24.5 9t-22 21t-8.5 35.5t16 52.5q24 46 64 81t86.5 60.5t96 43
t93.5 28t78.5 16t50.5 7.5q10 0 21 -1q9 -1 18 -4t16 -9q6 -6 11 -20t-7 -32q-6 -9 -19.5 -23.5t-33.5 -35.5t-46 -50t-57 -69q20 1 29.5 -6t12 -19t-2 -26t-12.5 -26q-9 -12 -15.5 -16t-10.5 -5q-7 -1 -9 3q-1 2 -1 3q0 4 -1 8t-6 6t-15 2t-28 -4q-2 -4 -4 -7t-4 -7
q-44 -63 -56 -106t1 -70.5t48.5 -40t85.5 -15t112 4.5t129 19q120 22 211 29t152.5 2.5t92.5 -18.5t30 -35q-1 -13 -6 -20q-5 -6 -15 -7.5t-27 9.5q-37 22 -93 24.5t-123.5 -5.5t-144 -20.5t-155 -20.5t-155.5 -5t-146 26q-42 15 -61 39t-19.5 55.5t15.5 69.5t45 79
q-22 -5 -50 -9.5t-53 -9.5q-22 -19 -48 -45t-56 -53.5t-63.5 -53.5t-69 -44t-72 -24.5t-73.5 4.5zM658 365q-32 -35 -83.5 -74t-114.5 -92q20 5 39.5 10.5t36.5 10.5q31 39 54 67t38 45q18 20 30 33zM295 231q-7 -30 11.5 -40.5t52.5 -8.5q63 51 122 99t105 85q54 43 101 82
q-34 -2 -74 -11.5t-81.5 -25t-81.5 -36t-72 -44t-54.5 -49t-28.5 -51.5zM833 538q8 -2 12 1v2q1 2 2 4.5t6 1.5t8 -5.5t1 -12.5q-1 -10 -10.5 -20.5t-28.5 -6.5q-18 3 -32 11.5t-26.5 18t-24.5 18t-26 12.5q-8 2 -12 -1v-2q-1 -2 -2 -4.5t-6 -1.5t-8 5.5t-1 12.5
q1 10 10.5 20.5t28.5 6.5q16 -3 29.5 -11.5t26 -18t25.5 -18.5t28 -12z" />
    <glyph glyph-name="Adieresis" unicode="&#xc4;" horiz-adv-x="693" 
d="M0 -90q-27 8 -39.5 20t-15 25.5t2.5 27t14 24.5t19 18.5t17 8.5q10 1 12 -5q1 -3 0 -7q0 -7 3.5 -18.5t12.5 -20.5t25 -13t41 3.5t60 29t82 63.5q16 14 38.5 34t40.5 35q-2 0 -8 -0.5t-7 0.5q-11 2 -24.5 9t-22 21t-8.5 35.5t16 52.5q24 46 64 81t86.5 60.5t96 43
t93.5 28t78.5 16t50.5 7.5q10 0 21 -1q9 -1 18 -4t16 -9q6 -6 11 -20t-7 -32q-6 -9 -19.5 -23.5t-33.5 -35.5t-46 -50t-57 -69q20 1 29.5 -6t12 -19t-2 -26t-12.5 -26q-9 -12 -15.5 -16t-10.5 -5q-7 -1 -9 3q-1 2 -1 3q0 4 -1 8t-6 6t-15 2t-28 -4q-2 -4 -4 -7t-4 -7
q-44 -63 -56 -106t1 -70.5t48.5 -40t85.5 -15t112 4.5t129 19q120 22 211 29t152.5 2.5t92.5 -18.5t30 -35q-1 -13 -6 -20q-5 -6 -15 -7.5t-27 9.5q-37 22 -93 24.5t-123.5 -5.5t-144 -20.5t-155 -20.5t-155.5 -5t-146 26q-42 15 -61 39t-19.5 55.5t15.5 69.5t45 79
q-22 -5 -50 -9.5t-53 -9.5q-22 -19 -48 -45t-56 -53.5t-63.5 -53.5t-69 -44t-72 -24.5t-73.5 4.5zM658 365q-32 -35 -83.5 -74t-114.5 -92q20 5 39.5 10.5t36.5 10.5q31 39 54 67t38 45q18 20 30 33zM295 231q-7 -30 11.5 -40.5t52.5 -8.5q63 51 122 99t105 85q54 43 101 82
q-34 -2 -74 -11.5t-81.5 -25t-81.5 -36t-72 -44t-54.5 -49t-28.5 -51.5zM753 560q-20 -11 -18 -22l6 -2q5 -2 4 -6q-4 -5 -16.5 -4.5t-18.5 14.5q-5 14 -2 29t21 29q6 4 11 6t9.5 1t9.5 -7q8 -13 4 -23t-10 -15zM804 544q-20 -11 -18 -22l6 -2q5 -2 4 -6q-4 -5 -16.5 -4.5
t-18.5 14.5q-5 14 -2 29t21 29q6 4 11 6t9.5 1t9.5 -7q8 -13 4 -23t-10 -15z" />
    <glyph glyph-name="Aring" unicode="&#xc5;" horiz-adv-x="693" 
d="M0 -90q-27 8 -39.5 20t-15 25.5t2.5 27t14 24.5t19 18.5t17 8.5q10 1 12 -5q1 -3 0 -7q0 -7 3.5 -18.5t12.5 -20.5t25 -13t41 3.5t60 29t82 63.5q16 14 38.5 34t40.5 35q-2 0 -8 -0.5t-7 0.5q-11 2 -24.5 9t-22 21t-8.5 35.5t16 52.5q24 46 64 81t86.5 60.5t96 43
t93.5 28t78.5 16t50.5 7.5q10 0 21 -1q9 -1 18 -4t16 -9q6 -6 11 -20t-7 -32q-6 -9 -19.5 -23.5t-33.5 -35.5t-46 -50t-57 -69q20 1 29.5 -6t12 -19t-2 -26t-12.5 -26q-9 -12 -15.5 -16t-10.5 -5q-7 -1 -9 3q-1 2 -1 3q0 4 -1 8t-6 6t-15 2t-28 -4q-2 -4 -4 -7t-4 -7
q-44 -63 -56 -106t1 -70.5t48.5 -40t85.5 -15t112 4.5t129 19q120 22 211 29t152.5 2.5t92.5 -18.5t30 -35q-1 -13 -6 -20q-5 -6 -15 -7.5t-27 9.5q-37 22 -93 24.5t-123.5 -5.5t-144 -20.5t-155 -20.5t-155.5 -5t-146 26q-42 15 -61 39t-19.5 55.5t15.5 69.5t45 79
q-22 -5 -50 -9.5t-53 -9.5q-22 -19 -48 -45t-56 -53.5t-63.5 -53.5t-69 -44t-72 -24.5t-73.5 4.5zM658 365q-32 -35 -83.5 -74t-114.5 -92q20 5 39.5 10.5t36.5 10.5q31 39 54 67t38 45q18 20 30 33zM295 231q-7 -30 11.5 -40.5t52.5 -8.5q63 51 122 99t105 85q54 43 101 82
q-34 -2 -74 -11.5t-81.5 -25t-81.5 -36t-72 -44t-54.5 -49t-28.5 -51.5zM802 560q-20 -11 -18 -22l6 -2q5 -2 4 -6q-4 -5 -16.5 -4.5t-18.5 14.5q-5 14 -2 29t21 29q6 4 11 6t9.5 1t9.5 -7q8 -13 4 -23t-10 -15zM793 569q2 2 4 6.5t-2 9.5q-2 5 -8 3q-3 -1 -5 -3
q-8 -6 -8.5 -12t0.5 -13q1 -5 9 1t10 8z" />
    <glyph glyph-name="AE" unicode="&#xc6;" horiz-adv-x="955" 
d="M37 -106q-43 13 -56 36.5t-9.5 47t17 41t24.5 19.5q6 1 8.5 -1t4.5 -4q2 -3 2 -7q1 -7 6 -19t16 -22.5t27.5 -15.5t41 1.5t56 27t72.5 62.5l28.5 28.5t30.5 29.5q-3 0 -4 1q-22 6 -39.5 16.5t-25 27t-3 40t25.5 54.5q25 37 57.5 66t69 51t75 38t74.5 27q85 26 178 34h6
q3 0 6 -0.5t8 -0.5q20 11 38 16t32.5 6.5t25 0.5t15.5 -2q14 -2 28.5 -8t28.5 -20q19 -18 27.5 -40.5t9.5 -46.5t-4 -47t-14 -41q-13 -27 -27.5 -43.5t-29 -25.5t-29 -12t-26.5 -3t-23.5 4.5t-18 12.5t-7.5 19t7 23q1 3 4 5q6 4 10 0q6 -6 13.5 -8t18.5 8q4 4 13 14t19 25
t17.5 34.5t9.5 41.5v1q3 36 -4 51.5t-18 18.5q-3 1 -9 1q-19 -1 -38.5 -14t-34.5 -28l-6 -8l-23 -25q-5 -5 -8 -10.5t-6 -10.5q-11 -20 -15 -39t-3.5 -34.5t3 -27t4.5 -17.5q14 -12 21 -24.5t4 -20.5q-4 -10 -11 -8q-4 1 -7 4q-2 5 -6.5 7t-9.5 4t-12 2q-33 5 -56.5 -6.5
t-39.5 -28.5q-3 -12 -14 -18q-5 -7 -8 -12.5t-5 -10.5q-3 -5 -4 -10q0 -2 -2 -6q-8 -27 -7.5 -47.5t6.5 -36.5t16.5 -28t22.5 -20q28 -19 69 -26q28 -4 49 -1t36 10.5t24.5 17.5t14.5 19t6.5 18t1.5 16q0 8 -1 16q-5 12 -14 16.5t-20 4.5t-24 -2t-26 -2q-13 -1 -17.5 5
t-5.5 14q-1 9 2 20q12 31 40.5 40t57.5 -0.5t50.5 -34t20.5 -58.5q-1 -1 -1 -3q-2 -31 -15 -55q-24 -45 -77.5 -65.5t-124.5 -9.5q-61 6 -103 43q17 -23 43 -32.5t47 -13.5q15 -3 54.5 -6t98 -1.5t132.5 9t157 24.5q111 22 199.5 32t151.5 9t98.5 -13t38.5 -33q1 -13 -3 -20
q-4 -6 -12.5 -8t-28.5 9q-42 21 -111 22t-154.5 -8t-181.5 -23.5t-190.5 -25.5t-182.5 -13t-157 15q-45 11 -67 34t-27 54.5t4.5 68.5t27.5 76q-21 -5 -45.5 -8t-49.5 -4l-14 -16q-29 -33 -69 -73.5t-84.5 -72.5t-91.5 -49.5t-91 -4.5zM285 215q-4 -30 16.5 -40.5t54.5 -8.5
q54 50 108 97t97.5 83.5t72 60t31.5 25.5q-22 0 -58 -8.5t-77 -23t-83 -35t-77 -44.5t-58.5 -51t-26.5 -55zM676 398q-18 -15 -44 -39t-55.5 -53t-61 -60.5t-60.5 -62.5l73 21q25 39 51 74.5t48 61.5q26 31 49 58z" />
    <glyph glyph-name="Ccedilla" unicode="&#xc7;" horiz-adv-x="424" 
d="M131 -92q-41 13 -73 39.5t-45 66t-2.5 94t52.5 123.5q54 88 102.5 137t85.5 72t61.5 28t30.5 4q15 0 34 -5.5t37 -22.5q19 -18 27.5 -41t10 -46.5t-3.5 -46.5t-14 -41q-14 -27 -28.5 -44t-29 -26t-29 -12t-26.5 -3t-23.5 4.5t-18 13t-7.5 19.5t7 23q1 3 4 5q6 4 10 0
q6 -7 13.5 -8.5t18.5 8.5l13 14q14 15 29 41.5t17 59.5q3 37 -3.5 52.5t-18.5 18.5q-11 2 -23 -2.5t-23 -12.5q-12 -9 -25 -21q-95 -99 -144 -176t-63.5 -133.5t-1 -92.5t43.5 -54q15 -9 32.5 -13.5t35.5 -5.5q11 -1 23.5 0t24.5 2.5t22 3.5t16 4q21 5 59.5 13.5t87 15.5
t103.5 11.5t109 2.5q60 -2 96 -14.5t43 -32.5q5 -13 2 -21q-2 -7 -11 -8.5t-31 9.5q-36 16 -86.5 20t-112 0.5t-131 -13.5t-142.5 -20q-43 -5 -85 0l-11 -18q32 -18 35 -34.5t-10 -27.5t-35.5 -16.5t-41.5 -2.5q-23 4 -20.5 21.5t16.5 43.5q-18 0 -36.5 -3t-35 -7.5
t-29.5 -9t-19 -6.5q-8 -3 -10 -0.5t0 7.5t7 14q2 4 7.5 11t14.5 13t22 10.5t30 4.5q16 0 27 -1.5t18 -3t12 -3t10 -1.5l11 17zM162 -181q10 5 14 11q3 5 0 11.5t-21 13.5q-13 -23 -14 -34.5t21 -1.5z" />
    <glyph glyph-name="Egrave" unicode="&#xc8;" horiz-adv-x="477" 
d="M138 -77q-48 4 -80.5 29t-47.5 61.5t-11 79t30 82.5q8 12 15.5 21.5t15.5 17.5q35 33 70 42.5t58 9.5q2 4 5 7q-10 20 -10 48.5t18 60.5q12 23 37 46q32 30 61 44t52.5 19t40 4t22.5 -2q14 -2 27.5 -8t25.5 -20q16 -18 22 -40.5t3.5 -46.5t-10.5 -47t-20 -41
q-17 -27 -34 -43.5t-32.5 -25.5t-30.5 -12t-27 -3t-22.5 4.5t-16 12.5t-5 19t10.5 23q2 3 5 5q6 4 9 0q5 -6 12 -8t20 8q5 4 15.5 14t22.5 25t22 34.5t15 41.5v1q8 36 3.5 51.5t-15.5 18.5q-3 1 -9 1q-12 0 -25.5 -6t-26 -14.5t-24 -18.5t-20.5 -19q-20 -19 -33 -38
q-14 -20 -20.5 -39t-8.5 -34.5t-1 -27t2 -17.5q12 -12 18 -24.5t1 -20.5q-5 -10 -12 -8q-4 1 -6 4q-4 7 -15 11q-5 2 -11 2q-35 5 -61 -8t-43 -30q-20 -20 -35 -48l-3 -6q-23 -53 -13 -84.5t32 -47.5q26 -19 66 -26q27 -4 48.5 -1t37.5 10.5t27 17.5t17 19t9 18t4 16
q1 8 1 16q-3 12 -11.5 16.5t-19.5 4.5t-24 -2t-26 -2q-14 -1 -17.5 5t-3.5 14q0 9 5 20q17 31 46.5 40t57 -0.5t46 -34t12.5 -58.5q-2 -2 -2 -3q-6 -32 -22 -55q-31 -45 -87.5 -65.5t-125.5 -9.5zM386 571q9 -13 27.5 -25.5t38.5 -12.5q3 4 7 7q7 5 13 1q5 -4 7 -10
t-1.5 -12t-12 -10t-24.5 -4q-30 1 -62 13t-58 41q-4 5 -4 11q0 5 2.5 11t11.5 12q10 6 18 5.5t14.5 -5t12 -11t10.5 -11.5z" />
    <glyph glyph-name="Eacute" unicode="&#xc9;" horiz-adv-x="477" 
d="M138 -77q-48 4 -80.5 29t-47.5 61.5t-11 79t30 82.5q8 12 15.5 21.5t15.5 17.5q35 33 70 42.5t58 9.5q2 4 5 7q-10 20 -10 48.5t18 60.5q12 23 37 46q32 30 61 44t52.5 19t40 4t22.5 -2q14 -2 27.5 -8t25.5 -20q16 -18 22 -40.5t3.5 -46.5t-10.5 -47t-20 -41
q-17 -27 -34 -43.5t-32.5 -25.5t-30.5 -12t-27 -3t-22.5 4.5t-16 12.5t-5 19t10.5 23q2 3 5 5q6 4 9 0q5 -6 12 -8t20 8q5 4 15.5 14t22.5 25t22 34.5t15 41.5v1q8 36 3.5 51.5t-15.5 18.5q-3 1 -9 1q-12 0 -25.5 -6t-26 -14.5t-24 -18.5t-20.5 -19q-20 -19 -33 -38
q-14 -20 -20.5 -39t-8.5 -34.5t-1 -27t2 -17.5q12 -12 18 -24.5t1 -20.5q-5 -10 -12 -8q-4 1 -6 4q-4 7 -15 11q-5 2 -11 2q-35 5 -61 -8t-43 -30q-20 -20 -35 -48l-3 -6q-23 -53 -13 -84.5t32 -47.5q26 -19 66 -26q27 -4 48.5 -1t37.5 10.5t27 17.5t17 19t9 18t4 16
q1 8 1 16q-3 12 -11.5 16.5t-19.5 4.5t-24 -2t-26 -2q-14 -1 -17.5 5t-3.5 14q0 9 5 20q17 31 46.5 40t57 -0.5t46 -34t12.5 -58.5q-2 -2 -2 -3q-6 -32 -22 -55q-31 -45 -87.5 -65.5t-125.5 -9.5zM400 577q4 5 9.5 11.5t12 11t15 5t17.5 -5.5q8 -6 11 -12t3 -11q0 -6 -4 -11
q-26 -28 -58 -40.5t-62 -13.5q-15 0 -24 4t-12 10t-1.5 12.5t6.5 10.5t13 -2q4 -3 7 -7q20 1 38.5 13t28.5 25z" />
    <glyph glyph-name="Ecircumflex" unicode="&#xca;" horiz-adv-x="477" 
d="M138 -77q-48 4 -80.5 29t-47.5 61.5t-11 79t30 82.5q8 12 15.5 21.5t15.5 17.5q35 33 70 42.5t58 9.5q2 4 5 7q-10 20 -10 48.5t18 60.5q12 23 37 46q32 30 61 44t52.5 19t40 4t22.5 -2q14 -2 27.5 -8t25.5 -20q16 -18 22 -40.5t3.5 -46.5t-10.5 -47t-20 -41
q-17 -27 -34 -43.5t-32.5 -25.5t-30.5 -12t-27 -3t-22.5 4.5t-16 12.5t-5 19t10.5 23q2 3 5 5q6 4 9 0q5 -6 12 -8t20 8q5 4 15.5 14t22.5 25t22 34.5t15 41.5v1q8 36 3.5 51.5t-15.5 18.5q-3 1 -9 1q-12 0 -25.5 -6t-26 -14.5t-24 -18.5t-20.5 -19q-20 -19 -33 -38
q-14 -20 -20.5 -39t-8.5 -34.5t-1 -27t2 -17.5q12 -12 18 -24.5t1 -20.5q-5 -10 -12 -8q-4 1 -6 4q-4 7 -15 11q-5 2 -11 2q-35 5 -61 -8t-43 -30q-20 -20 -35 -48l-3 -6q-23 -53 -13 -84.5t32 -47.5q26 -19 66 -26q27 -4 48.5 -1t37.5 10.5t27 17.5t17 19t9 18t4 16
q1 8 1 16q-3 12 -11.5 16.5t-19.5 4.5t-24 -2t-26 -2q-14 -1 -17.5 5t-3.5 14q0 9 5 20q17 31 46.5 40t57 -0.5t46 -34t12.5 -58.5q-2 -2 -2 -3q-6 -32 -22 -55q-31 -45 -87.5 -65.5t-125.5 -9.5zM412 576q2 2 5 2.5t7 2.5q14 4 23 -5l1 -1l2 -4h1q4 -7 4 -13l3 -11
q2 -14 11 -30t25 -21q4 3 8 4q8 2 12 -3q2 -5 0.5 -11t-6.5 -10t-14 -5t-21 4q-18 7 -34 19.5t-27 31.5q-23 -7 -45 -6t-41 7q-13 4 -18 10t-5 12t4 10.5t10 6.5t10 -5q2 -4 3 -8q15 -5 35 1t33 14z" />
    <glyph glyph-name="Edieresis" unicode="&#xcb;" horiz-adv-x="477" 
d="M138 -77q-48 4 -80.5 29t-47.5 61.5t-11 79t30 82.5q8 12 15.5 21.5t15.5 17.5q35 33 70 42.5t58 9.5q2 4 5 7q-10 20 -10 48.5t18 60.5q12 23 37 46q32 30 61 44t52.5 19t40 4t22.5 -2q14 -2 27.5 -8t25.5 -20q16 -18 22 -40.5t3.5 -46.5t-10.5 -47t-20 -41
q-17 -27 -34 -43.5t-32.5 -25.5t-30.5 -12t-27 -3t-22.5 4.5t-16 12.5t-5 19t10.5 23q2 3 5 5q6 4 9 0q5 -6 12 -8t20 8q5 4 15.5 14t22.5 25t22 34.5t15 41.5v1q8 36 3.5 51.5t-15.5 18.5q-3 1 -9 1q-12 0 -25.5 -6t-26 -14.5t-24 -18.5t-20.5 -19q-20 -19 -33 -38
q-14 -20 -20.5 -39t-8.5 -34.5t-1 -27t2 -17.5q12 -12 18 -24.5t1 -20.5q-5 -10 -12 -8q-4 1 -6 4q-4 7 -15 11q-5 2 -11 2q-35 5 -61 -8t-43 -30q-20 -20 -35 -48l-3 -6q-23 -53 -13 -84.5t32 -47.5q26 -19 66 -26q27 -4 48.5 -1t37.5 10.5t27 17.5t17 19t9 18t4 16
q1 8 1 16q-3 12 -11.5 16.5t-19.5 4.5t-24 -2t-26 -2q-14 -1 -17.5 5t-3.5 14q0 9 5 20q17 31 46.5 40t57 -0.5t46 -34t12.5 -58.5q-2 -2 -2 -3q-6 -32 -22 -55q-31 -45 -87.5 -65.5t-125.5 -9.5zM410 560q-20 -11 -18 -22l6 -2q5 -2 4 -6q-4 -5 -16.5 -4.5t-18.5 14.5
q-5 14 -2 29t21 29q6 4 11 6t9.5 1t9.5 -7q8 -13 4 -23t-10 -15zM461 544q-20 -11 -18 -22l6 -2q5 -2 4 -6q-4 -5 -16.5 -4.5t-18.5 14.5q-5 14 -2 29t21 29q6 4 11 6t9.5 1t9.5 -7q8 -13 4 -23t-10 -15z" />
    <glyph glyph-name="Igrave" unicode="&#xcc;" horiz-adv-x="282" 
d="M41 158q-14 14 -19 28q-8 20 -3 44q2 7 4 13t5 14q14 35 50 90q2 2 2 3q39 57 86.5 90t89.5 48q29 10 51 12.5t34 -0.5q2 0 3 -1q13 -5 24 -12.5t16.5 -19.5t3 -29t-15.5 -39q-15 -21 -38.5 -54t-51 -71t-55.5 -78.5t-53 -77.5t-43.5 -67t-25.5 -47q-4 -13 -7 -24
q-2 -10 -2 -20t5 -15q5 1 9 -1q8 -4 4 -15q-3 -7 -12 -10.5t-20.5 -1.5t-22.5 10.5t-17 25.5q-8 22 5.5 61t34.5 81t44 79t35 56q10 16 28.5 43t38 55t36.5 51.5t25 34.5v1q4 6 5 6q5 8 10.5 19t0.5 16t-25.5 -7.5t-55.5 -47.5q-23 -23 -50.5 -56t-59.5 -79q-6 -7 -11 -15
q-9 -14 -21 -34q-16 -29 -6 -44h10q9 -2 9 -7q-1 -5 -6 -10.5t-13 -8t-17 -0.5t-18 11zM347 571q9 -13 27.5 -25.5t38.5 -12.5q3 4 7 7q7 5 13 1q5 -4 7 -10t-1.5 -12t-12 -10t-24.5 -4q-30 1 -62 13t-58 41q-4 5 -4 11q0 5 2.5 11t11.5 12q10 6 18 5.5t14.5 -5t12 -11
t10.5 -11.5z" />
    <glyph glyph-name="Iacute" unicode="&#xcd;" horiz-adv-x="282" 
d="M41 158q-14 14 -19 28q-8 20 -3 44q2 7 4 13t5 14q14 35 50 90q2 2 2 3q39 57 86.5 90t89.5 48q29 10 51 12.5t34 -0.5q2 0 3 -1q13 -5 24 -12.5t16.5 -19.5t3 -29t-15.5 -39q-15 -21 -38.5 -54t-51 -71t-55.5 -78.5t-53 -77.5t-43.5 -67t-25.5 -47q-4 -13 -7 -24
q-2 -10 -2 -20t5 -15q5 1 9 -1q8 -4 4 -15q-3 -7 -12 -10.5t-20.5 -1.5t-22.5 10.5t-17 25.5q-8 22 5.5 61t34.5 81t44 79t35 56q10 16 28.5 43t38 55t36.5 51.5t25 34.5v1q4 6 5 6q5 8 10.5 19t0.5 16t-25.5 -7.5t-55.5 -47.5q-23 -23 -50.5 -56t-59.5 -79q-6 -7 -11 -15
q-9 -14 -21 -34q-16 -29 -6 -44h10q9 -2 9 -7q-1 -5 -6 -10.5t-13 -8t-17 -0.5t-18 11zM343 577q4 5 9.5 11.5t12 11t15 5t17.5 -5.5q8 -6 11 -12t3 -11q0 -6 -4 -11q-26 -28 -58 -40.5t-62 -13.5q-15 0 -24 4t-12 10t-1.5 12.5t6.5 10.5t13 -2q4 -3 7 -7q20 1 38.5 13
t28.5 25z" />
    <glyph glyph-name="Icircumflex" unicode="&#xce;" horiz-adv-x="282" 
d="M41 158q-14 14 -19 28q-8 20 -3 44q2 7 4 13t5 14q14 35 50 90q2 2 2 3q39 57 86.5 90t89.5 48q29 10 51 12.5t34 -0.5q2 0 3 -1q13 -5 24 -12.5t16.5 -19.5t3 -29t-15.5 -39q-15 -21 -38.5 -54t-51 -71t-55.5 -78.5t-53 -77.5t-43.5 -67t-25.5 -47q-4 -13 -7 -24
q-2 -10 -2 -20t5 -15q5 1 9 -1q8 -4 4 -15q-3 -7 -12 -10.5t-20.5 -1.5t-22.5 10.5t-17 25.5q-8 22 5.5 61t34.5 81t44 79t35 56q10 16 28.5 43t38 55t36.5 51.5t25 34.5v1q4 6 5 6q5 8 10.5 19t0.5 16t-25.5 -7.5t-55.5 -47.5q-23 -23 -50.5 -56t-59.5 -79q-6 -7 -11 -15
q-9 -14 -21 -34q-16 -29 -6 -44h10q9 -2 9 -7q-1 -5 -6 -10.5t-13 -8t-17 -0.5t-18 11zM360 576q2 2 5 2.5t7 2.5q14 4 23 -5l1 -1l2 -4h1q4 -7 4 -13l3 -11q2 -14 11 -30t25 -21q4 3 8 4q8 2 12 -3q2 -5 0.5 -11t-6.5 -10t-14 -5t-21 4q-18 7 -34 19.5t-27 31.5
q-23 -7 -45 -6t-41 7q-13 4 -18 10t-5 12t4 10.5t10 6.5t10 -5q2 -4 3 -8q15 -5 35 1t33 14z" />
    <glyph glyph-name="Idieresis" unicode="&#xcf;" horiz-adv-x="282" 
d="M41 158q-14 14 -19 28q-8 20 -3 44q2 7 4 13t5 14q14 35 50 90q2 2 2 3q39 57 86.5 90t89.5 48q29 10 51 12.5t34 -0.5q2 0 3 -1q13 -5 24 -12.5t16.5 -19.5t3 -29t-15.5 -39q-15 -21 -38.5 -54t-51 -71t-55.5 -78.5t-53 -77.5t-43.5 -67t-25.5 -47q-4 -13 -7 -24
q-2 -10 -2 -20t5 -15q5 1 9 -1q8 -4 4 -15q-3 -7 -12 -10.5t-20.5 -1.5t-22.5 10.5t-17 25.5q-8 22 5.5 61t34.5 81t44 79t35 56q10 16 28.5 43t38 55t36.5 51.5t25 34.5v1q4 6 5 6q5 8 10.5 19t0.5 16t-25.5 -7.5t-55.5 -47.5q-23 -23 -50.5 -56t-59.5 -79q-6 -7 -11 -15
q-9 -14 -21 -34q-16 -29 -6 -44h10q9 -2 9 -7q-1 -5 -6 -10.5t-13 -8t-17 -0.5t-18 11zM356 560q-20 -11 -18 -22l6 -2q5 -2 4 -6q-4 -5 -16.5 -4.5t-18.5 14.5q-5 14 -2 29t21 29q6 4 11 6t9.5 1t9.5 -7q8 -13 4 -23t-10 -15zM407 544q-20 -11 -18 -22l6 -2q5 -2 4 -6
q-4 -5 -16.5 -4.5t-18.5 14.5q-5 14 -2 29t21 29q6 4 11 6t9.5 1t9.5 -7q8 -13 4 -23t-10 -15z" />
    <glyph glyph-name="Eth" unicode="&#xd0;" horiz-adv-x="654" 
d="M9 132q0 4 -2 8q-9 38 2 81.5t40 83.5q23 31 57.5 61.5t80 54.5t102 38t123.5 14q40 0 77 -5.5t67 -20.5t49.5 -42.5t24.5 -72.5q4 -44 -7 -93q-9 -42 -32.5 -95t-73.5 -109q0 -2 14 1t32 8.5t35 11t23 9.5l4 2q19 8 24.5 4t6.5 -12q0 -4 -2 -10q-1 -3 -1 -5
q-2 -3 -3.5 -6t-4.5 -6q-14 -11 -35.5 -18.5t-45.5 -11.5t-48 -6t-43 -2q-30 -27 -64 -51q-24 -17 -50.5 -27t-52 -15t-47 -6.5t-34.5 -0.5q-34 0 -60 17q-23 16 -38.5 45.5t-14.5 73.5l-4 2q-33 15 -54.5 34t-32.5 39q-8 10 -12 27zM345 151q-1 0 -2 -1q0 1 -1 0
q-1 1 -1.5 0.5t-2.5 0.5l-111 5l-12 -22q-12 -23 -21 -46t-15 -45q2 -1 4 -1q12 -3 32.5 -7t43 -7t43 -5t32.5 -2h5h28t28 1q16 12 39 43.5t45 73.5t37.5 88.5t17.5 88.5q1 17 1 35.5t-8.5 34.5t-28 28.5t-57.5 17.5q-29 3 -70.5 -7t-87.5 -33.5t-92 -61t-83 -88.5l-6 -8
q-3 -5 -6.5 -11t-7.5 -14q19 11 43 13.5t51 1.5q7 10 23.5 28.5t39.5 36t51.5 28t60.5 4.5q10 -4 18 -9q7 -5 13.5 -13t8.5 -19t-3.5 -14.5t-13.5 -4t-16.5 0.5t-12.5 0q-5 -1 -25.5 -11.5t-45.5 -32.5q26 -1 47 2t35 14q0 2 0.5 2t0.5 1l4 2q4 2 8 -4q0 -2 1 -3.5t1 -3.5
q1 -3 3 -13.5t0.5 -23t-8.5 -24t-24 -16.5h-3zM192 -59q1 0 11.5 -3.5t30.5 -2t50.5 12t71.5 39.5q-31 0 -60.5 3t-54 6.5t-42 7.5t-25.5 6h-1q-5 -27 -0.5 -45.5t19.5 -23.5zM117 72q4 19 10 40t17 44q-34 -2 -49 -6q-5 -1 -9 -4q-4 -2 -8 -5.5t-6 -7.5q6 -32 41 -58z" />
    <glyph glyph-name="Ntilde" unicode="&#xd1;" horiz-adv-x="553" 
d="M8 199q4 36 59 117l2 2q29 43 64 72.5t69 47.5t63.5 25.5t48.5 7.5q21 0 42 -15t21 -41q0 -20 -14.5 -42.5t-37.5 -54.5q33 32 69 65t71 59.5t67.5 43t56.5 16.5q19 0 38 -16t19 -40q0 -8 -2.5 -14t-5.5 -14q-7 -12 -25.5 -41.5t-45 -69t-57 -85.5t-61.5 -91q1 1 1 2
q-50 -68 -71.5 -106t-21.5 -61q0 -19 10.5 -31.5t24.5 -20t29 -10.5t24 -3q14 0 30.5 -1t36.5 -1q58 0 130 9t174 26q99 17 179.5 29.5t143.5 12.5q86 0 127.5 -16t41.5 -45q0 -6 -3 -10.5t-11 -4.5q-9 0 -29 10q-26 12 -60.5 17t-76.5 5q-46 0 -99.5 -6t-112 -15t-119 -19
t-121 -18t-118 -12t-109.5 -1q-48 3 -78 14t-46.5 27.5t-22.5 35.5t-6 37q0 27 8.5 53t19.5 47.5t21 36t12 18.5q13 20 31 48t35 53.5l29 43.5t13 20q21 31 38 54t29 40t18.5 30t6.5 24q0 10 -10 11q-8 0 -36 -20t-67 -54t-85 -78t-89.5 -91t-79.5 -94.5t-56 -87.5
q-3 -7 -5 -14q-5 -13 -5 -27q0 -6 2 -12t7 -6q3 0 6.5 -1.5t3.5 -6.5q0 -20 -26 -20q-16 0 -33.5 13.5t-17.5 47.5q0 23 9 50.5t22.5 54t27.5 50t25 40.5q20 32 45.5 68.5t48 68.5t37.5 55.5t15 29.5t-5 6q-7 0 -23.5 -10t-40.5 -32.5t-56 -59.5t-69 -90q1 0 -5.5 -8
t-14.5 -20.5t-14.5 -26.5t-6.5 -25q0 -5 1 -9t9 -4q4 0 8 -1t4 -5q0 -8 -8.5 -14.5t-20.5 -6.5q-10 0 -18.5 6t-15 16t-10.5 22t-4 23v9t2 9zM499 538q8 -2 12 1v2q1 2 2 4.5t6 1.5t8 -5.5t1 -12.5q-1 -10 -10.5 -20.5t-28.5 -6.5q-18 3 -32 11.5t-26.5 18t-24.5 18
t-26 12.5q-8 2 -12 -1v-2q-1 -2 -2 -4.5t-6 -1.5t-8 5.5t-1 12.5q1 10 10.5 20.5t28.5 6.5q16 -3 29.5 -11.5t26 -18t25.5 -18.5t28 -12z" />
    <glyph glyph-name="Ograve" unicode="&#xd2;" 
d="M505 489q7 -2 16 -9l2 -2q0 -1 0.5 -1t0.5 -1q2 0 2 -2q2 -1 4 -5q1 0 3 -4q3 -5 7.5 -17.5t5.5 -33.5q2 -26 -5 -65t-31 -96q-20 -54 -50.5 -97.5t-59.5 -75t-50.5 -49t-23.5 -18.5q-29 -23 -57.5 -36.5t-53.5 -21.5t-46 -10.5t-36 -2.5h-11q-7 0 -17 2h-4
q-41 7 -69.5 34.5t-37.5 71.5t7 102.5t65 128.5q17 23 33 43.5t31 37.5q-11 25 -16.5 47t-7.5 36q-1 3 -1 6t-1 6q-1 1 -1 3v1q0 18 5 29t12 17t14.5 9t10.5 4q12 1 21 -1q8 -2 13 -5.5t2 -12.5q-2 -5 -5.5 -15.5t-5.5 -26.5q-1 -7 -1 -15t-0.5 -17.5t1.5 -20.5
q42 42 76.5 66t60 35.5t41.5 13.5t21 2q16 0 34 -6t35 -23q17 -18 23.5 -40.5t5 -46.5t-8.5 -47t-17 -41q-16 -26 -31.5 -42.5t-30.5 -25.5t-29.5 -12.5t-26.5 -3.5q-32 -3 -60 5q-2 1 -5 1q-5 2 -11 4.5t-11 4.5q-21 9 -37 22t-29 27q-53 -65 -80 -116t-34 -89.5t3.5 -65
t32.5 -40.5q5 -4 12 -6q5 -2 15 -4t24 -1q23 2 56 15t74 51q14 12 25.5 24.5t22.5 24.5q61 69 94.5 125.5t49.5 100t18.5 73.5t0.5 46q-1 5 -1 8.5t-1 5.5q-1 3 -1 5q-1 2 -3 4l-2 2q-5 -1 -9 0q-3 1 -4.5 3.5t1.5 10.5q3 9 18 14q8 2 14 1h4q2 -1 2.5 -1t2.5 -1zM310 449
q-32 -31 -60 -60t-51 -55l6 -6q21 -20 40 -29t35 -11q9 -1 16.5 0t13.5 3q5 2 8 3t7 3v1q2 0 4 2l9 6q15 11 25.5 25t17 27t10.5 23.5t5 16.5q2 4 2.5 8t1.5 8v1q7 36 1.5 52t-16.5 18t-24 -2.5t-24 -12.5q-13 -9 -27 -21zM458 591q9 -13 27.5 -25.5t38.5 -12.5q3 4 7 7
q7 5 13 1q5 -4 7 -10t-1.5 -12t-12 -10t-24.5 -4q-30 1 -62 13t-58 41q-4 5 -4 11q0 5 2.5 11t11.5 12q10 6 18 5.5t14.5 -5t12 -11t10.5 -11.5z" />
    <glyph glyph-name="Oacute" unicode="&#xd3;" 
d="M505 489q7 -2 16 -9l2 -2q0 -1 0.5 -1t0.5 -1q2 0 2 -2q2 -1 4 -5q1 0 3 -4q3 -5 7.5 -17.5t5.5 -33.5q2 -26 -5 -65t-31 -96q-20 -54 -50.5 -97.5t-59.5 -75t-50.5 -49t-23.5 -18.5q-29 -23 -57.5 -36.5t-53.5 -21.5t-46 -10.5t-36 -2.5h-11q-7 0 -17 2h-4
q-41 7 -69.5 34.5t-37.5 71.5t7 102.5t65 128.5q17 23 33 43.5t31 37.5q-11 25 -16.5 47t-7.5 36q-1 3 -1 6t-1 6q-1 1 -1 3v1q0 18 5 29t12 17t14.5 9t10.5 4q12 1 21 -1q8 -2 13 -5.5t2 -12.5q-2 -5 -5.5 -15.5t-5.5 -26.5q-1 -7 -1 -15t-0.5 -17.5t1.5 -20.5
q42 42 76.5 66t60 35.5t41.5 13.5t21 2q16 0 34 -6t35 -23q17 -18 23.5 -40.5t5 -46.5t-8.5 -47t-17 -41q-16 -26 -31.5 -42.5t-30.5 -25.5t-29.5 -12.5t-26.5 -3.5q-32 -3 -60 5q-2 1 -5 1q-5 2 -11 4.5t-11 4.5q-21 9 -37 22t-29 27q-53 -65 -80 -116t-34 -89.5t3.5 -65
t32.5 -40.5q5 -4 12 -6q5 -2 15 -4t24 -1q23 2 56 15t74 51q14 12 25.5 24.5t22.5 24.5q61 69 94.5 125.5t49.5 100t18.5 73.5t0.5 46q-1 5 -1 8.5t-1 5.5q-1 3 -1 5q-1 2 -3 4l-2 2q-5 -1 -9 0q-3 1 -4.5 3.5t1.5 10.5q3 9 18 14q8 2 14 1h4q2 -1 2.5 -1t2.5 -1zM310 449
q-32 -31 -60 -60t-51 -55l6 -6q21 -20 40 -29t35 -11q9 -1 16.5 0t13.5 3q5 2 8 3t7 3v1q2 0 4 2l9 6q15 11 25.5 25t17 27t10.5 23.5t5 16.5q2 4 2.5 8t1.5 8v1q7 36 1.5 52t-16.5 18t-24 -2.5t-24 -12.5q-13 -9 -27 -21zM357 603q4 5 9.5 11.5t12 11t15 5t17.5 -5.5
q8 -6 11 -12t3 -11q0 -6 -4 -11q-26 -28 -58 -40.5t-62 -13.5q-15 0 -24 4t-12 10t-1.5 12.5t6.5 10.5t13 -2q4 -3 7 -7q20 1 38.5 13t28.5 25z" />
    <glyph glyph-name="Ocircumflex" unicode="&#xd4;" 
d="M505 489q7 -2 16 -9l2 -2q0 -1 0.5 -1t0.5 -1q2 0 2 -2q2 -1 4 -5q1 0 3 -4q3 -5 7.5 -17.5t5.5 -33.5q2 -26 -5 -65t-31 -96q-20 -54 -50.5 -97.5t-59.5 -75t-50.5 -49t-23.5 -18.5q-29 -23 -57.5 -36.5t-53.5 -21.5t-46 -10.5t-36 -2.5h-11q-7 0 -17 2h-4
q-41 7 -69.5 34.5t-37.5 71.5t7 102.5t65 128.5q17 23 33 43.5t31 37.5q-11 25 -16.5 47t-7.5 36q-1 3 -1 6t-1 6q-1 1 -1 3v1q0 18 5 29t12 17t14.5 9t10.5 4q12 1 21 -1q8 -2 13 -5.5t2 -12.5q-2 -5 -5.5 -15.5t-5.5 -26.5q-1 -7 -1 -15t-0.5 -17.5t1.5 -20.5
q42 42 76.5 66t60 35.5t41.5 13.5t21 2q16 0 34 -6t35 -23q17 -18 23.5 -40.5t5 -46.5t-8.5 -47t-17 -41q-16 -26 -31.5 -42.5t-30.5 -25.5t-29.5 -12.5t-26.5 -3.5q-32 -3 -60 5q-2 1 -5 1q-5 2 -11 4.5t-11 4.5q-21 9 -37 22t-29 27q-53 -65 -80 -116t-34 -89.5t3.5 -65
t32.5 -40.5q5 -4 12 -6q5 -2 15 -4t24 -1q23 2 56 15t74 51q14 12 25.5 24.5t22.5 24.5q61 69 94.5 125.5t49.5 100t18.5 73.5t0.5 46q-1 5 -1 8.5t-1 5.5q-1 3 -1 5q-1 2 -3 4l-2 2q-5 -1 -9 0q-3 1 -4.5 3.5t1.5 10.5q3 9 18 14q8 2 14 1h4q2 -1 2.5 -1t2.5 -1zM310 449
q-32 -31 -60 -60t-51 -55l6 -6q21 -20 40 -29t35 -11q9 -1 16.5 0t13.5 3q5 2 8 3t7 3v1q2 0 4 2l9 6q15 11 25.5 25t17 27t10.5 23.5t5 16.5q2 4 2.5 8t1.5 8v1q7 36 1.5 52t-16.5 18t-24 -2.5t-24 -12.5q-13 -9 -27 -21zM444 616q2 2 5 2.5t7 2.5q14 4 23 -5l1 -1l2 -4h1
q4 -7 4 -13l3 -11q2 -14 11 -30t25 -21q4 3 8 4q8 2 12 -3q2 -5 0.5 -11t-6.5 -10t-14 -5t-21 4q-18 7 -34 19.5t-27 31.5q-23 -7 -45 -6t-41 7q-13 4 -18 10t-5 12t4 10.5t10 6.5t10 -5q2 -4 3 -8q15 -5 35 1t33 14z" />
    <glyph glyph-name="Otilde" unicode="&#xd5;" 
d="M505 489q7 -2 16 -9l2 -2q0 -1 0.5 -1t0.5 -1q2 0 2 -2q2 -1 4 -5q1 0 3 -4q3 -5 7.5 -17.5t5.5 -33.5q2 -26 -5 -65t-31 -96q-20 -54 -50.5 -97.5t-59.5 -75t-50.5 -49t-23.5 -18.5q-29 -23 -57.5 -36.5t-53.5 -21.5t-46 -10.5t-36 -2.5h-11q-7 0 -17 2h-4
q-41 7 -69.5 34.5t-37.5 71.5t7 102.5t65 128.5q17 23 33 43.5t31 37.5q-11 25 -16.5 47t-7.5 36q-1 3 -1 6t-1 6q-1 1 -1 3v1q0 18 5 29t12 17t14.5 9t10.5 4q12 1 21 -1q8 -2 13 -5.5t2 -12.5q-2 -5 -5.5 -15.5t-5.5 -26.5q-1 -7 -1 -15t-0.5 -17.5t1.5 -20.5
q42 42 76.5 66t60 35.5t41.5 13.5t21 2q16 0 34 -6t35 -23q17 -18 23.5 -40.5t5 -46.5t-8.5 -47t-17 -41q-16 -26 -31.5 -42.5t-30.5 -25.5t-29.5 -12.5t-26.5 -3.5q-32 -3 -60 5q-2 1 -5 1q-5 2 -11 4.5t-11 4.5q-21 9 -37 22t-29 27q-53 -65 -80 -116t-34 -89.5t3.5 -65
t32.5 -40.5q5 -4 12 -6q5 -2 15 -4t24 -1q23 2 56 15t74 51q14 12 25.5 24.5t22.5 24.5q61 69 94.5 125.5t49.5 100t18.5 73.5t0.5 46q-1 5 -1 8.5t-1 5.5q-1 3 -1 5q-1 2 -3 4l-2 2q-5 -1 -9 0q-3 1 -4.5 3.5t1.5 10.5q3 9 18 14q8 2 14 1h4q2 -1 2.5 -1t2.5 -1zM310 449
q-32 -31 -60 -60t-51 -55l6 -6q21 -20 40 -29t35 -11q9 -1 16.5 0t13.5 3q5 2 8 3t7 3v1q2 0 4 2l9 6q15 11 25.5 25t17 27t10.5 23.5t5 16.5q2 4 2.5 8t1.5 8v1q7 36 1.5 52t-16.5 18t-24 -2.5t-24 -12.5q-13 -9 -27 -21zM516 538q8 -2 12 1v2q1 2 2 4.5t6 1.5t8 -5.5
t1 -12.5q-1 -10 -10.5 -20.5t-28.5 -6.5q-18 3 -32 11.5t-26.5 18t-24.5 18t-26 12.5q-8 2 -12 -1v-2q-1 -2 -2 -4.5t-6 -1.5t-8 5.5t-1 12.5q1 10 10.5 20.5t28.5 6.5q16 -3 29.5 -11.5t26 -18t25.5 -18.5t28 -12z" />
    <glyph glyph-name="Odieresis" unicode="&#xd6;" 
d="M505 489q7 -2 16 -9l2 -2q0 -1 0.5 -1t0.5 -1q2 0 2 -2q2 -1 4 -5q1 0 3 -4q3 -5 7.5 -17.5t5.5 -33.5q2 -26 -5 -65t-31 -96q-20 -54 -50.5 -97.5t-59.5 -75t-50.5 -49t-23.5 -18.5q-29 -23 -57.5 -36.5t-53.5 -21.5t-46 -10.5t-36 -2.5h-11q-7 0 -17 2h-4
q-41 7 -69.5 34.5t-37.5 71.5t7 102.5t65 128.5q17 23 33 43.5t31 37.5q-11 25 -16.5 47t-7.5 36q-1 3 -1 6t-1 6q-1 1 -1 3v1q0 18 5 29t12 17t14.5 9t10.5 4q12 1 21 -1q8 -2 13 -5.5t2 -12.5q-2 -5 -5.5 -15.5t-5.5 -26.5q-1 -7 -1 -15t-0.5 -17.5t1.5 -20.5
q42 42 76.5 66t60 35.5t41.5 13.5t21 2q16 0 34 -6t35 -23q17 -18 23.5 -40.5t5 -46.5t-8.5 -47t-17 -41q-16 -26 -31.5 -42.5t-30.5 -25.5t-29.5 -12.5t-26.5 -3.5q-32 -3 -60 5q-2 1 -5 1q-5 2 -11 4.5t-11 4.5q-21 9 -37 22t-29 27q-53 -65 -80 -116t-34 -89.5t3.5 -65
t32.5 -40.5q5 -4 12 -6q5 -2 15 -4t24 -1q23 2 56 15t74 51q14 12 25.5 24.5t22.5 24.5q61 69 94.5 125.5t49.5 100t18.5 73.5t0.5 46q-1 5 -1 8.5t-1 5.5q-1 3 -1 5q-1 2 -3 4l-2 2q-5 -1 -9 0q-3 1 -4.5 3.5t1.5 10.5q3 9 18 14q8 2 14 1h4q2 -1 2.5 -1t2.5 -1zM310 449
q-32 -31 -60 -60t-51 -55l6 -6q21 -20 40 -29t35 -11q9 -1 16.5 0t13.5 3q5 2 8 3t7 3v1q2 0 4 2l9 6q15 11 25.5 25t17 27t10.5 23.5t5 16.5q2 4 2.5 8t1.5 8v1q7 36 1.5 52t-16.5 18t-24 -2.5t-24 -12.5q-13 -9 -27 -21zM455 560q-20 -11 -18 -22l6 -2q5 -2 4 -6
q-4 -5 -16.5 -4.5t-18.5 14.5q-5 14 -2 29t21 29q6 4 11 6t9.5 1t9.5 -7q8 -13 4 -23t-10 -15zM506 544q-20 -11 -18 -22l6 -2q5 -2 4 -6q-4 -5 -16.5 -4.5t-18.5 14.5q-5 14 -2 29t21 29q6 4 11 6t9.5 1t9.5 -7q8 -13 4 -23t-10 -15z" />
    <glyph glyph-name="multiply" unicode="&#xd7;" horiz-adv-x="345" 
d="M207 63q-8 14 -19.5 35t-26.5 47q-31 -20 -56 -39.5t-32 -36.5q1 -2 0.5 -2t0.5 -1q0 -2 -2 -4q-4 -4 -9 -1q-1 2 -2.5 2t-3.5 2q-3 2 -10.5 10t-12.5 19t-5.5 24.5t10.5 27.5l3 2q1 0 1 1q1 0 1 1q1 0 1.5 0.5t2.5 0.5q14 8 35.5 20.5t47.5 26.5q-20 32 -40 56.5
t-37 31.5q-2 -1 -2 -0.5t-1 0.5q-2 0 -4 2q-4 2 -1 9q2 1 2.5 2.5t2.5 3.5q2 3 9.5 10t19 12.5t24.5 5.5t27 -11l2 -2q0 -1 2 -1q-1 -1 0 -1q0 -2 0.5 -2t0.5 -2q9 -14 21 -35.5t26 -47.5q32 19 56 38.5t32 36.5q-1 2 -0.5 2t0.5 1q0 2 2 4q2 4 9 1q1 -2 2.5 -2t3.5 -2
q3 -2 10 -10t12.5 -19.5t5.5 -25t-11 -26.5l-2 -2q-1 0 -1 -2q-1 1 -1 0q-2 0 -2 -0.5t-2 -0.5q-13 -8 -35 -20t-47 -26q19 -31 38 -55.5t36 -32.5q2 1 2.5 0.5t1.5 0.5q2 0 4 -2q4 -4 1 -9q-2 -1 -2.5 -2.5t-2.5 -3.5q-2 -3 -10 -10.5t-19 -12.5t-24.5 -5.5t-27.5 10.5
l-1 3q-1 1 -2 1q1 1 -1 1q1 1 0 1.5t-1 2.5z" />
    <glyph glyph-name="Oslash" unicode="&#xd8;" 
d="M505 489q7 -2 16 -9l2 -2q0 -1 0.5 -1t0.5 -1q2 0 2 -2q2 -1 4 -5q1 0 3 -4q3 -5 7.5 -17.5t5.5 -33.5q2 -26 -5 -65t-31 -96q-20 -54 -50.5 -97.5t-59.5 -75t-50.5 -49t-23.5 -18.5q-29 -23 -57.5 -36.5t-53.5 -21.5t-46 -10.5t-36 -2.5h-11q-7 0 -17 2q0 -11 5 -16h3
q3 0 7 -1.5t4 -7.5q0 -8 -7 -14t-19 -6q-7 0 -15.5 3t-16 9.5t-13 17t-5.5 25.5v11q-26 18 -41.5 48t-15.5 70.5t17.5 90.5t57.5 107q17 23 33 43.5t31 37.5q-11 25 -16.5 47t-7.5 36l-2 12q-1 1 -1 3v1q0 18 5 29t12 17t14.5 9t10.5 4q12 1 21 -1q8 -2 13 -5.5t2 -12.5
q-2 -5 -5.5 -15.5t-5.5 -26.5q-1 -7 -1 -15t-0.5 -17.5t1.5 -20.5q42 42 76.5 66t60 35.5t41.5 13.5t21 2t9.5 -0.5t9.5 -1.5q5 8 5 7.5t1 1.5q9 15 16 29q6 12 11.5 25.5t5.5 24.5h6q8 0 17.5 -4t17.5 -11t13.5 -17.5t5.5 -22.5q0 -18 -8 -34t-13 -21q-4 -5 -7.5 -10.5
t-8.5 -11.5q11 -18 14.5 -39t1 -42t-9 -41t-15.5 -36q-16 -26 -31.5 -42.5t-30.5 -25.5t-29.5 -12.5t-26.5 -3.5q-12 -2 -23 -1.5t-22 2.5q-29 -41 -56 -80t-49 -72.5t-37.5 -58.5t-20.5 -38q0 -1 -1 -2q-2 -2 -2 -5q10 -3 31 -3q23 2 56 15t74 51q14 12 25.5 24.5
t22.5 24.5q61 69 94.5 125.5t49.5 100t18.5 73.5t0.5 46q-1 5 -1 8.5t-1 5.5q-1 3 -1 5q-1 2 -3 4l-2 2q-5 -1 -9 0q-3 1 -4.5 3.5t1.5 10.5q3 9 18 14q8 2 14 1h4zM170 213q5 8 14 21.5t22 31.5q-21 15 -36 33q-42 -52 -68 -95t-37.5 -77.5t-11 -61.5t10.5 -46
q10 27 25 55.5t30.5 55t29 48.5t21.5 35zM310 449q-32 -31 -60 -60t-51 -55l6 -6q13 -13 28 -23l126 176q-9 -4 -18 -9.5t-16 -10.5q-8 -6 -15 -12zM320 295q1 0 5 2v1q2 0 4 2l9 6q15 11 25.5 25t17 27t10.5 23.5t5 16.5l2 6z" />
    <glyph glyph-name="Ugrave" unicode="&#xd9;" horiz-adv-x="534" 
d="M369 -57q-34 7 -47.5 27t-13.5 47q0 19 5.5 40t13.5 41t17.5 38.5t17.5 32.5q-32 -35 -69.5 -74t-74 -73t-68.5 -56t-52 -22q-13 0 -29.5 13.5t-16.5 42.5q0 25 11 56.5t26.5 62.5t32 58t26.5 44q20 32 45 68.5t47.5 68.5t38 55t15.5 29q0 7 -5 7q-7 0 -23.5 -10.5
t-41 -33t-56 -59.5t-67.5 -89q1 0 -5.5 -8t-14.5 -20.5t-15 -26.5t-7 -25q0 -8 4 -13h6q5 0 9 -1t4 -5q0 -8 -9 -14.5t-20 -6.5q-10 0 -19 6t-15.5 16t-10.5 22t-4 23q0 22 14 53t48 82q0 1 0.5 1t0.5 1q30 43 65 72.5t69.5 47t64.5 25t49 7.5q5 0 9 -1t7 -1
q17 -7 30.5 -19.5t13.5 -33.5q0 -9 -3.5 -21.5t-12.5 -25.5q-23 -33 -58.5 -83t-72 -102.5t-67 -99t-41.5 -72.5l-6 -16q-5 -15 -5 -30q0 -5 1 -7q15 9 44.5 33t66 57.5t77 73.5t78.5 81.5t70.5 81.5t52.5 73q4 6 5 6q0 -1 2.5 3.5t6.5 11t7 13t3 9.5q5 10 5 12v4
q0 3 -1.5 4.5t-1.5 6.5v3t1.5 6t6 5.5t12.5 2.5t17 -4t17 -11.5t13.5 -17.5t5.5 -22q0 -17 -6.5 -32t-14.5 -23q-57 -83 -94.5 -139t-61 -91.5t-35.5 -55.5t-17 -31t-5 -18v-16q0 -14 7 -20.5t15 -10.5t15 -8t7 -11q0 -12 -8.5 -14.5t-16.5 -2.5q-6 0 -10 2q-3 1 -4 1z
M469 571q9 -13 27.5 -25.5t38.5 -12.5q3 4 7 7q7 5 13 1q5 -4 7 -10t-1.5 -12t-12 -10t-24.5 -4q-30 1 -62 13t-58 41q-4 5 -4 11q0 5 2.5 11t11.5 12q10 6 18 5.5t14.5 -5t12 -11t10.5 -11.5z" />
    <glyph glyph-name="Uacute" unicode="&#xda;" horiz-adv-x="534" 
d="M369 -57q-34 7 -47.5 27t-13.5 47q0 19 5.5 40t13.5 41t17.5 38.5t17.5 32.5q-32 -35 -69.5 -74t-74 -73t-68.5 -56t-52 -22q-13 0 -29.5 13.5t-16.5 42.5q0 25 11 56.5t26.5 62.5t32 58t26.5 44q20 32 45 68.5t47.5 68.5t38 55t15.5 29q0 7 -5 7q-7 0 -23.5 -10.5
t-41 -33t-56 -59.5t-67.5 -89q1 0 -5.5 -8t-14.5 -20.5t-15 -26.5t-7 -25q0 -8 4 -13h6q5 0 9 -1t4 -5q0 -8 -9 -14.5t-20 -6.5q-10 0 -19 6t-15.5 16t-10.5 22t-4 23q0 22 14 53t48 82q0 1 0.5 1t0.5 1q30 43 65 72.5t69.5 47t64.5 25t49 7.5q5 0 9 -1t7 -1
q17 -7 30.5 -19.5t13.5 -33.5q0 -9 -3.5 -21.5t-12.5 -25.5q-23 -33 -58.5 -83t-72 -102.5t-67 -99t-41.5 -72.5l-6 -16q-5 -15 -5 -30q0 -5 1 -7q15 9 44.5 33t66 57.5t77 73.5t78.5 81.5t70.5 81.5t52.5 73q4 6 5 6q0 -1 2.5 3.5t6.5 11t7 13t3 9.5q5 10 5 12v4
q0 3 -1.5 4.5t-1.5 6.5v3t1.5 6t6 5.5t12.5 2.5t17 -4t17 -11.5t13.5 -17.5t5.5 -22q0 -17 -6.5 -32t-14.5 -23q-57 -83 -94.5 -139t-61 -91.5t-35.5 -55.5t-17 -31t-5 -18v-16q0 -14 7 -20.5t15 -10.5t15 -8t7 -11q0 -12 -8.5 -14.5t-16.5 -2.5q-6 0 -10 2q-3 1 -4 1z
M487 577q4 5 9.5 11.5t12 11t15 5t17.5 -5.5q8 -6 11 -12t3 -11q0 -6 -4 -11q-26 -28 -58 -40.5t-62 -13.5q-15 0 -24 4t-12 10t-1.5 12.5t6.5 10.5t13 -2q4 -3 7 -7q20 1 38.5 13t28.5 25z" />
    <glyph glyph-name="Ucircumflex" unicode="&#xdb;" horiz-adv-x="534" 
d="M369 -57q-34 7 -47.5 27t-13.5 47q0 19 5.5 40t13.5 41t17.5 38.5t17.5 32.5q-32 -35 -69.5 -74t-74 -73t-68.5 -56t-52 -22q-13 0 -29.5 13.5t-16.5 42.5q0 25 11 56.5t26.5 62.5t32 58t26.5 44q20 32 45 68.5t47.5 68.5t38 55t15.5 29q0 7 -5 7q-7 0 -23.5 -10.5
t-41 -33t-56 -59.5t-67.5 -89q1 0 -5.5 -8t-14.5 -20.5t-15 -26.5t-7 -25q0 -8 4 -13h6q5 0 9 -1t4 -5q0 -8 -9 -14.5t-20 -6.5q-10 0 -19 6t-15.5 16t-10.5 22t-4 23q0 22 14 53t48 82q0 1 0.5 1t0.5 1q30 43 65 72.5t69.5 47t64.5 25t49 7.5q5 0 9 -1t7 -1
q17 -7 30.5 -19.5t13.5 -33.5q0 -9 -3.5 -21.5t-12.5 -25.5q-23 -33 -58.5 -83t-72 -102.5t-67 -99t-41.5 -72.5l-6 -16q-5 -15 -5 -30q0 -5 1 -7q15 9 44.5 33t66 57.5t77 73.5t78.5 81.5t70.5 81.5t52.5 73q4 6 5 6q0 -1 2.5 3.5t6.5 11t7 13t3 9.5q5 10 5 12v4
q0 3 -1.5 4.5t-1.5 6.5v3t1.5 6t6 5.5t12.5 2.5t17 -4t17 -11.5t13.5 -17.5t5.5 -22q0 -17 -6.5 -32t-14.5 -23q-57 -83 -94.5 -139t-61 -91.5t-35.5 -55.5t-17 -31t-5 -18v-16q0 -14 7 -20.5t15 -10.5t15 -8t7 -11q0 -12 -8.5 -14.5t-16.5 -2.5q-6 0 -10 2q-3 1 -4 1z
M493 606q2 2 5 2.5t7 2.5q14 4 23 -5l1 -1l2 -4h1q4 -7 4 -13l3 -11q2 -14 11 -30t25 -21q4 3 8 4q8 2 12 -3q2 -5 0.5 -11t-6.5 -10t-14 -5t-21 4q-18 7 -34 19.5t-27 31.5q-23 -7 -45 -6t-41 7q-13 4 -18 10t-5 12t4 10.5t10 6.5t10 -5q2 -4 3 -8q15 -5 35 1t33 14z" />
    <glyph glyph-name="Udieresis" unicode="&#xdc;" horiz-adv-x="534" 
d="M369 -57q-34 7 -47.5 27t-13.5 47q0 19 5.5 40t13.5 41t17.5 38.5t17.5 32.5q-32 -35 -69.5 -74t-74 -73t-68.5 -56t-52 -22q-13 0 -29.5 13.5t-16.5 42.5q0 25 11 56.5t26.5 62.5t32 58t26.5 44q20 32 45 68.5t47.5 68.5t38 55t15.5 29q0 7 -5 7q-7 0 -23.5 -10.5
t-41 -33t-56 -59.5t-67.5 -89q1 0 -5.5 -8t-14.5 -20.5t-15 -26.5t-7 -25q0 -8 4 -13h6q5 0 9 -1t4 -5q0 -8 -9 -14.5t-20 -6.5q-10 0 -19 6t-15.5 16t-10.5 22t-4 23q0 22 14 53t48 82q0 1 0.5 1t0.5 1q30 43 65 72.5t69.5 47t64.5 25t49 7.5q5 0 9 -1t7 -1
q17 -7 30.5 -19.5t13.5 -33.5q0 -9 -3.5 -21.5t-12.5 -25.5q-23 -33 -58.5 -83t-72 -102.5t-67 -99t-41.5 -72.5l-6 -16q-5 -15 -5 -30q0 -5 1 -7q15 9 44.5 33t66 57.5t77 73.5t78.5 81.5t70.5 81.5t52.5 73q4 6 5 6q0 -1 2.5 3.5t6.5 11t7 13t3 9.5q5 10 5 12v4
q0 3 -1.5 4.5t-1.5 6.5v3t1.5 6t6 5.5t12.5 2.5t17 -4t17 -11.5t13.5 -17.5t5.5 -22q0 -17 -6.5 -32t-14.5 -23q-57 -83 -94.5 -139t-61 -91.5t-35.5 -55.5t-17 -31t-5 -18v-16q0 -14 7 -20.5t15 -10.5t15 -8t7 -11q0 -12 -8.5 -14.5t-16.5 -2.5q-6 0 -10 2q-3 1 -4 1z
M490 560q-20 -11 -18 -22l6 -2q5 -2 4 -6q-4 -5 -16.5 -4.5t-18.5 14.5q-5 14 -2 29t21 29q6 4 11 6t9.5 1t9.5 -7q8 -13 4 -23t-10 -15zM541 544q-20 -11 -18 -22l6 -2q5 -2 4 -6q-4 -5 -16.5 -4.5t-18.5 14.5q-5 14 -2 29t21 29q6 4 11 6t9.5 1t9.5 -7q8 -13 4 -23
t-10 -15z" />
    <glyph glyph-name="Yacute" unicode="&#xdd;" horiz-adv-x="533" 
d="M367 130q3 5 5 9t5 7q-26 -26 -53 -52t-54.5 -50t-54.5 -44.5t-51 -34.5l-9 -4.5t-18 -3.5q-19 0 -34 18t-15 51q0 19 5.5 38.5t14 38t19 36l19.5 32.5q20 32 45 68t47.5 68t38 55.5t15.5 29.5q0 7 -5 7q-7 0 -23.5 -10.5t-41 -33t-56 -59.5t-67.5 -89q1 0 -5.5 -8
t-14.5 -20.5t-15 -26.5t-7 -25q0 -8 4 -13h6q5 0 9 -1t4 -5q0 -8 -9 -14.5t-20 -6.5q-10 0 -19 6t-15.5 16t-10.5 22t-4 23q0 22 14 53t47 82l2 2q30 44 65.5 73t70 46.5t64 25t48.5 7.5q5 0 9 -1t7 -1q17 -7 30.5 -19.5t13.5 -33.5q0 -9 -3.5 -21.5t-12.5 -25.5
q-30 -44 -66.5 -93.5t-68 -96t-53 -86.5t-21.5 -64q0 -5 1 -7q15 9 40 28.5t56.5 46.5t67 60.5t71 69.5t69 74t61.5 74q18 23 27 37t11 16q2 5 9 16t7 16q5 10 5 12v4q0 4 -1.5 4.5t-1.5 5.5v3t1.5 6.5t5.5 6t12 2.5t17.5 -4t17.5 -11t13.5 -17.5t5.5 -22.5
q0 -13 -4.5 -24.5t-9.5 -20.5q-9 -9 -21.5 -25.5t-26.5 -37t-29 -44t-30 -45.5q0 1 -10 -13.5t-25 -38t-34.5 -53t-39.5 -60t-38.5 -58.5t-32.5 -48q64 0 124.5 -5.5t114.5 -5.5q66 0 120 7.5t90 27.5q19 11 30 11q8 0 10.5 -5t2.5 -11q0 -33 -59 -53.5t-177 -20.5
q-60 0 -129 7.5t-150 17.5q0 -1 -1 -1q-43 -55 -77.5 -88t-59.5 -50.5t-41 -23.5t-21 -7q-10 -2 -16 -2q-11 0 -23.5 3.5t-23.5 11.5t-18.5 19.5t-7.5 28.5q0 22 13.5 46.5t41.5 45.5t72 35.5t104 16.5q18 28 35 55.5t31.5 50.5t24.5 40.5t15 25.5zM95 -209q16 2 34 14
t36 30t36.5 41t36.5 49q-48 -4 -81.5 -18t-54.5 -32t-30 -36t-9 -30q0 -11 7 -15t16 -4q6 0 9 1zM509 577q4 5 9.5 11.5t12 11t15 5t17.5 -5.5q8 -6 11 -12t3 -11q0 -6 -4 -11q-26 -28 -58 -40.5t-62 -13.5q-15 0 -24 4t-12 10t-1.5 12.5t6.5 10.5t13 -2q4 -3 7 -7
q20 1 38.5 13t28.5 25z" />
    <glyph glyph-name="agrave" unicode="&#xe0;" horiz-adv-x="349" 
d="M150 117q-28 -43 -55 -74q-12 -13 -24.5 -24.5t-25.5 -18.5t-25 -8.5t-23 5.5q-21 15 -31.5 34.5t-12.5 41.5t3.5 44t16.5 41q10 18 30.5 39.5t46.5 39.5l6 4q2 2 4 2.5t5 2.5q26 16 66 28t85 4q12 -3 22 -9q8 -5 14.5 -15t7.5 -26q-1 -7 -1.5 -10t-2.5 -7q-3 -5 -6 -6
v-1q-4 -2 -6 -2q-3 0 -5 1q-5 2 -4 9v6q-2 12 -19 14q-9 2 -32 -4t-55 -26q-6 -3 -11.5 -7t-11.5 -8q-2 -2 -3 -2.5t-3 -2.5h-1q-14 -11 -30 -27q-15 -17 -30.5 -37.5t-25.5 -39t-12 -32.5t10 -18q10 -3 32.5 15.5t47 44.5t47 53t33.5 41q1 0 1 0.5t1 0.5q9 11 21 19.5
t26 3.5q26 -8 33 -23t-1 -29v-1v-1q-1 0 -1 -1t-0.5 -1t-0.5 -1l-1 -1v-1l-1 -1q-2 -2 -3 -5t-3 -5v-1q-1 0 -1 -1v-1q-1 0 -1 -1l-1 -1v-1q-1 0 -1 -1q-9 -15 -17 -29t-12.5 -26.5t-4.5 -21.5t6 -13q5 -3 13 -1q6 2 15.5 8t21.5 21q12 14 23 27t20 24q11 12 20 23
q7 9 13 13q5 3 9 0.5t4 -16.5q0 -5 -1 -10q-2 -5 -4.5 -11.5t-9.5 -14.5l-20 -22.5t-24 -26.5t-21 -23.5t-12 -13.5q-15 -15 -33.5 -16.5t-35.5 9.5q-9 6 -19 15.5t-17 23.5t-8.5 31t6.5 38zM223 371q9 -13 27.5 -25.5t38.5 -12.5q3 4 7 7q7 5 13 1q5 -4 7 -10t-1.5 -12
t-12 -10t-24.5 -4q-30 1 -62 13t-58 41q-4 5 -4 11q0 5 2.5 11t11.5 12q10 6 18 5.5t14.5 -5t12 -11t10.5 -11.5z" />
    <glyph glyph-name="aacute" unicode="&#xe1;" horiz-adv-x="349" 
d="M150 117q-28 -43 -55 -74q-12 -13 -24.5 -24.5t-25.5 -18.5t-25 -8.5t-23 5.5q-21 15 -31.5 34.5t-12.5 41.5t3.5 44t16.5 41q10 18 30.5 39.5t46.5 39.5l6 4q2 2 4 2.5t5 2.5q26 16 66 28t85 4q12 -3 22 -9q8 -5 14.5 -15t7.5 -26q-1 -7 -1.5 -10t-2.5 -7q-3 -5 -6 -6
v-1q-4 -2 -6 -2q-3 0 -5 1q-5 2 -4 9v6q-2 12 -19 14q-9 2 -32 -4t-55 -26q-6 -3 -11.5 -7t-11.5 -8q-2 -2 -3 -2.5t-3 -2.5h-1q-14 -11 -30 -27q-15 -17 -30.5 -37.5t-25.5 -39t-12 -32.5t10 -18q10 -3 32.5 15.5t47 44.5t47 53t33.5 41q1 0 1 0.5t1 0.5q9 11 21 19.5
t26 3.5q26 -8 33 -23t-1 -29v-1v-1q-1 0 -1 -1t-0.5 -1t-0.5 -1l-1 -1v-1l-1 -1q-2 -2 -3 -5t-3 -5v-1q-1 0 -1 -1v-1q-1 0 -1 -1l-1 -1v-1q-1 0 -1 -1q-9 -15 -17 -29t-12.5 -26.5t-4.5 -21.5t6 -13q5 -3 13 -1q6 2 15.5 8t21.5 21q12 14 23 27t20 24q11 12 20 23
q7 9 13 13q5 3 9 0.5t4 -16.5q0 -5 -1 -10q-2 -5 -4.5 -11.5t-9.5 -14.5l-20 -22.5t-24 -26.5t-21 -23.5t-12 -13.5q-15 -15 -33.5 -16.5t-35.5 9.5q-9 6 -19 15.5t-17 23.5t-8.5 31t6.5 38zM201 377q4 5 9.5 11.5t12 11t15 5t17.5 -5.5q8 -6 11 -12t3 -11q0 -6 -4 -11
q-26 -28 -58 -40.5t-62 -13.5q-15 0 -24 4t-12 10t-1.5 12.5t6.5 10.5t13 -2q4 -3 7 -7q20 1 38.5 13t28.5 25z" />
    <glyph glyph-name="acircumflex" unicode="&#xe2;" horiz-adv-x="349" 
d="M150 117q-28 -43 -55 -74q-12 -13 -24.5 -24.5t-25.5 -18.5t-25 -8.5t-23 5.5q-21 15 -31.5 34.5t-12.5 41.5t3.5 44t16.5 41q10 18 30.5 39.5t46.5 39.5l6 4q2 2 4 2.5t5 2.5q26 16 66 28t85 4q12 -3 22 -9q8 -5 14.5 -15t7.5 -26q-1 -7 -1.5 -10t-2.5 -7q-3 -5 -6 -6
v-1q-4 -2 -6 -2q-3 0 -5 1q-5 2 -4 9v6q-2 12 -19 14q-9 2 -32 -4t-55 -26q-6 -3 -11.5 -7t-11.5 -8q-2 -2 -3 -2.5t-3 -2.5h-1q-14 -11 -30 -27q-15 -17 -30.5 -37.5t-25.5 -39t-12 -32.5t10 -18q10 -3 32.5 15.5t47 44.5t47 53t33.5 41q1 0 1 0.5t1 0.5q9 11 21 19.5
t26 3.5q26 -8 33 -23t-1 -29v-1v-1q-1 0 -1 -1t-0.5 -1t-0.5 -1l-1 -1v-1l-1 -1q-2 -2 -3 -5t-3 -5v-1q-1 0 -1 -1v-1q-1 0 -1 -1l-1 -1v-1q-1 0 -1 -1q-9 -15 -17 -29t-12.5 -26.5t-4.5 -21.5t6 -13q5 -3 13 -1q6 2 15.5 8t21.5 21q12 14 23 27t20 24q11 12 20 23
q7 9 13 13q5 3 9 0.5t4 -16.5q0 -5 -1 -10q-2 -5 -4.5 -11.5t-9.5 -14.5l-20 -22.5t-24 -26.5t-21 -23.5t-12 -13.5q-15 -15 -33.5 -16.5t-35.5 9.5q-9 6 -19 15.5t-17 23.5t-8.5 31t6.5 38zM228 376q2 2 5 2.5t7 2.5q14 4 23 -5l1 -1l2 -4h1q4 -7 4 -13l3 -11q2 -14 11 -30
t25 -21q4 3 8 4q8 2 12 -3q2 -5 0.5 -11t-6.5 -10t-14 -5t-21 4q-18 7 -34 19.5t-27 31.5q-23 -7 -45 -6t-41 7q-13 4 -18 10t-5 12t4 10.5t10 6.5t10 -5q2 -4 3 -8q15 -5 35 1t33 14z" />
    <glyph glyph-name="atilde" unicode="&#xe3;" horiz-adv-x="349" 
d="M150 117q-28 -43 -55 -74q-12 -13 -24.5 -24.5t-25.5 -18.5t-25 -8.5t-23 5.5q-21 15 -31.5 34.5t-12.5 41.5t3.5 44t16.5 41q10 18 30.5 39.5t46.5 39.5l6 4q2 2 4 2.5t5 2.5q26 16 66 28t85 4q12 -3 22 -9q8 -5 14.5 -15t7.5 -26q-1 -7 -1.5 -10t-2.5 -7q-3 -5 -6 -6
v-1q-4 -2 -6 -2q-3 0 -5 1q-5 2 -4 9v6q-2 12 -19 14q-9 2 -32 -4t-55 -26q-6 -3 -11.5 -7t-11.5 -8q-2 -2 -3 -2.5t-3 -2.5h-1q-14 -11 -30 -27q-15 -17 -30.5 -37.5t-25.5 -39t-12 -32.5t10 -18q10 -3 32.5 15.5t47 44.5t47 53t33.5 41q1 0 1 0.5t1 0.5q9 11 21 19.5
t26 3.5q26 -8 33 -23t-1 -29v-1v-1q-1 0 -1 -1t-0.5 -1t-0.5 -1l-1 -1v-1l-1 -1q-2 -2 -3 -5t-3 -5v-1q-1 0 -1 -1v-1q-1 0 -1 -1l-1 -1v-1q-1 0 -1 -1q-9 -15 -17 -29t-12.5 -26.5t-4.5 -21.5t6 -13q5 -3 13 -1q6 2 15.5 8t21.5 21q12 14 23 27t20 24q11 12 20 23
q7 9 13 13q5 3 9 0.5t4 -16.5q0 -5 -1 -10q-2 -5 -4.5 -11.5t-9.5 -14.5l-20 -22.5t-24 -26.5t-21 -23.5t-12 -13.5q-15 -15 -33.5 -16.5t-35.5 9.5q-9 6 -19 15.5t-17 23.5t-8.5 31t6.5 38zM312 338q8 -2 12 1v2q1 2 2 4.5t6 1.5t8 -5.5t1 -12.5q-1 -10 -10.5 -20.5
t-28.5 -6.5q-18 3 -32 11.5t-26.5 18t-24.5 18t-26 12.5q-8 2 -12 -1v-2q-1 -2 -2 -4.5t-6 -1.5t-8 5.5t-1 12.5q1 10 10.5 20.5t28.5 6.5q16 -3 29.5 -11.5t26 -18t25.5 -18.5t28 -12z" />
    <glyph glyph-name="adieresis" unicode="&#xe4;" horiz-adv-x="349" 
d="M150 117q-28 -43 -55 -74q-12 -13 -24.5 -24.5t-25.5 -18.5t-25 -8.5t-23 5.5q-21 15 -31.5 34.5t-12.5 41.5t3.5 44t16.5 41q10 18 30.5 39.5t46.5 39.5l6 4q2 2 4 2.5t5 2.5q26 16 66 28t85 4q12 -3 22 -9q8 -5 14.5 -15t7.5 -26q-1 -7 -1.5 -10t-2.5 -7q-3 -5 -6 -6
v-1q-4 -2 -6 -2q-3 0 -5 1q-5 2 -4 9v6q-2 12 -19 14q-9 2 -32 -4t-55 -26q-6 -3 -11.5 -7t-11.5 -8q-2 -2 -3 -2.5t-3 -2.5h-1q-14 -11 -30 -27q-15 -17 -30.5 -37.5t-25.5 -39t-12 -32.5t10 -18q10 -3 32.5 15.5t47 44.5t47 53t33.5 41q1 0 1 0.5t1 0.5q9 11 21 19.5
t26 3.5q26 -8 33 -23t-1 -29v-1v-1q-1 0 -1 -1t-0.5 -1t-0.5 -1l-1 -1v-1l-1 -1q-2 -2 -3 -5t-3 -5v-1q-1 0 -1 -1v-1q-1 0 -1 -1l-1 -1v-1q-1 0 -1 -1q-9 -15 -17 -29t-12.5 -26.5t-4.5 -21.5t6 -13q5 -3 13 -1q6 2 15.5 8t21.5 21q12 14 23 27t20 24q11 12 20 23
q7 9 13 13q5 3 9 0.5t4 -16.5q0 -5 -1 -10q-2 -5 -4.5 -11.5t-9.5 -14.5l-20 -22.5t-24 -26.5t-21 -23.5t-12 -13.5q-15 -15 -33.5 -16.5t-35.5 9.5q-9 6 -19 15.5t-17 23.5t-8.5 31t6.5 38zM242 360q-20 -11 -18 -22l6 -2q5 -2 4 -6q-4 -5 -16.5 -4.5t-18.5 14.5
q-5 14 -2 29t21 29q6 4 11 6t9.5 1t9.5 -7q8 -13 4 -23t-10 -15zM293 344q-20 -11 -18 -22l6 -2q5 -2 4 -6q-4 -5 -16.5 -4.5t-18.5 14.5q-5 14 -2 29t21 29q6 4 11 6t9.5 1t9.5 -7q8 -13 4 -23t-10 -15z" />
    <glyph glyph-name="aring" unicode="&#xe5;" horiz-adv-x="349" 
d="M150 117q-28 -43 -55 -74q-12 -13 -24.5 -24.5t-25.5 -18.5t-25 -8.5t-23 5.5q-21 15 -31.5 34.5t-12.5 41.5t3.5 44t16.5 41q10 18 30.5 39.5t46.5 39.5l6 4q2 2 4 2.5t5 2.5q26 16 66 28t85 4q12 -3 22 -9q8 -5 14.5 -15t7.5 -26q-1 -7 -1.5 -10t-2.5 -7q-3 -5 -6 -6
v-1q-4 -2 -6 -2q-3 0 -5 1q-5 2 -4 9v6q-2 12 -19 14q-9 2 -32 -4t-55 -26q-6 -3 -11.5 -7t-11.5 -8q-2 -2 -3 -2.5t-3 -2.5h-1q-14 -11 -30 -27q-15 -17 -30.5 -37.5t-25.5 -39t-12 -32.5t10 -18q10 -3 32.5 15.5t47 44.5t47 53t33.5 41q1 0 1 0.5t1 0.5q9 11 21 19.5
t26 3.5q26 -8 33 -23t-1 -29v-1v-1q-1 0 -1 -1t-0.5 -1t-0.5 -1l-1 -1v-1l-1 -1q-2 -2 -3 -5t-3 -5v-1q-1 0 -1 -1v-1q-1 0 -1 -1l-1 -1v-1q-1 0 -1 -1q-9 -15 -17 -29t-12.5 -26.5t-4.5 -21.5t6 -13q5 -3 13 -1q6 2 15.5 8t21.5 21q12 14 23 27t20 24q11 12 20 23
q7 9 13 13q5 3 9 0.5t4 -16.5q0 -5 -1 -10q-2 -5 -4.5 -11.5t-9.5 -14.5l-20 -22.5t-24 -26.5t-21 -23.5t-12 -13.5q-15 -15 -33.5 -16.5t-35.5 9.5q-9 6 -19 15.5t-17 23.5t-8.5 31t6.5 38zM276 360q-20 -11 -18 -22l6 -2q5 -2 4 -6q-4 -5 -16.5 -4.5t-18.5 14.5
q-5 14 -2 29t21 29q6 4 11 6t9.5 1t9.5 -7q8 -13 4 -23t-10 -15zM267 369q2 2 4 6.5t-2 9.5q-2 5 -8 3q-3 -1 -5 -3q-8 -6 -8.5 -12t0.5 -13q1 -5 9 1t10 8z" />
    <glyph glyph-name="ae" unicode="&#xe6;" horiz-adv-x="454" 
d="M362 43q-32 -20 -57.5 -31t-46 -15.5t-36 -3.5t-27.5 6q-27 11 -41 38q-2 4 -3 8l-2 8q-1 1 -1 3q-5 12 -5.5 27t6.5 32q-2 -3 -10 -15.5t-20.5 -28.5t-27.5 -33t-31.5 -29t-32.5 -16.5t-30 4.5q-21 15 -31.5 34.5t-12.5 41.5t3.5 44t16.5 41q10 18 30.5 39.5t46.5 39.5
l6 4q2 2 4 2.5t5 2.5q26 16 66 28t85 4q8 -2 15 -6q6 -4 12.5 -9.5t11.5 -14.5q17 11 30.5 18t21.5 9q14 4 26.5 0.5t20.5 -9.5q10 -7 18 -17q3 -5 7 -11q7 -12 7 -26v-1q-1 -2 -1 -7q-5 -27 -26 -46t-47 -31.5t-52 -19.5t-41 -10q-5 -9 -8 -17t-5 -15q-2 -8 0 -15.5
t10 -12.5q4 -2 5 -2q10 -3 26.5 -0.5t45.5 14.5q10 4 21 9q9 5 20.5 10.5t22.5 11.5l4 3q3 2 6.5 3.5t5.5 3.5q9 7 17 13t16 14l22 22q9 8 15 11q5 2 8.5 -0.5t1.5 -17.5q1 -11 -10.5 -25.5t-21.5 -21.5l-26 -21q-1 0 -2 -1q-8 -6 -12 -8q-6 -4 -9 -5zM173 183q6 8 14.5 15
t17.5 9l23 21q-3 2 -12 4t-32 -4t-55 -26q-6 -3 -11.5 -7t-11.5 -8l-6 -5h-1q-14 -11 -30 -27q-15 -17 -30.5 -37.5t-25.5 -39t-12 -32.5t10 -18q10 -3 32.5 15.5t47 44.5t47 53t33.5 41q1 0 1 0.5t1 0.5zM350 232q-2 1 -12.5 -5t-26.5 -18.5t-34 -31t-35 -42.5h-1v-2
q-1 0 -1 -1l-1 -1v-1q-1 0 -1 -1l-5 -7q45 20 69 41t32 32q8 13 13.5 23t2.5 14z" />
    <glyph glyph-name="ccedilla" unicode="&#xe7;" horiz-adv-x="264" 
d="M130 153q-5 4 -7 9t-1 10.5t8 13.5q14 16 23 30.5t5 19.5q-2 2 -18 -8t-38.5 -30.5t-47 -49.5t-42.5 -65q-4 -12 -5 -22q-1 -8 2.5 -16.5t15.5 -10.5q23 -2 48 4.5t50 19t48 29t42 34.5q5 5 9.5 9t8.5 7l7 7q9 8 15 11q5 2 8.5 -1t0.5 -18q0 -4 -2 -9q-4 -11 -19 -25
q-6 -8 -13 -14q-20 -19 -42.5 -36t-47 -29.5t-49.5 -20.5t-48 -9l-8 -12q32 -18 35 -34.5t-10 -27.5t-35.5 -16.5t-41.5 -2.5q-23 4 -20.5 21.5t16.5 43.5q-18 0 -36.5 -3t-35 -7.5t-29.5 -9t-19 -6.5q-8 -3 -10 -0.5t0 7.5t7 14q2 4 7.5 11t14.5 13t22 10.5t30 4.5
q16 0 27 -1.5t18 -3t12 -3t10 -1.5l5 7q-13 4 -21.5 10.5t-13.5 13.5q-6 8 -10 16q-11 32 -6 61.5t19.5 55.5t35.5 48t42.5 38.5t40.5 27t29 13.5q16 3 28 -1t20 -10q10 -7 17 -17q5 -7 9 -15q3 -7 4 -16t-3 -18t-11 -19t-15.5 -17.5t-17.5 -12t-17 -2.5zM25 -79q10 5 14 11
q3 5 0 11.5t-21 13.5q-13 -23 -14 -34.5t21 -1.5z" />
    <glyph glyph-name="egrave" unicode="&#xe8;" horiz-adv-x="264" 
d="M173 43q-32 -20 -57.5 -31t-46 -15.5t-36 -3.5t-27.5 6q-27 11 -41 38q-12 31 -8 60t17.5 54.5t34 47t41.5 37.5t39.5 26t28.5 13q14 4 26.5 0.5t20.5 -9.5q10 -7 18 -17q3 -5 7 -11q7 -12 7 -26v-1q-1 -2 -1 -7q-5 -27 -26.5 -46.5t-48 -32t-52.5 -19t-41 -9.5l-7 -15
q-8 -23 -3 -35q4 -11 23 -14t63 16q10 4 21 9q9 5 20.5 10.5t22.5 11.5l4 3q3 2 6.5 3.5t5.5 3.5q9 7 17 13t16 14l22 22q9 8 15 11q5 2 8.5 -0.5t1.5 -17.5q1 -11 -10.5 -25.5t-21.5 -21.5l-26 -21q-1 0 -2 -1q-8 -6 -12 -8q-6 -4 -9 -5zM161 232q-2 1 -14 -6t-29 -21
t-37 -35t-37 -48q45 20 69 41t32 32q8 13 13.5 23t2.5 14zM176 371q9 -13 27.5 -25.5t38.5 -12.5q3 4 7 7q7 5 13 1q5 -4 7 -10t-1.5 -12t-12 -10t-24.5 -4q-30 1 -62 13t-58 41q-4 5 -4 11q0 5 2.5 11t11.5 12q10 6 18 5.5t14.5 -5t12 -11t10.5 -11.5z" />
    <glyph glyph-name="eacute" unicode="&#xe9;" horiz-adv-x="264" 
d="M173 43q-32 -20 -57.5 -31t-46 -15.5t-36 -3.5t-27.5 6q-27 11 -41 38q-12 31 -8 60t17.5 54.5t34 47t41.5 37.5t39.5 26t28.5 13q14 4 26.5 0.5t20.5 -9.5q10 -7 18 -17q3 -5 7 -11q7 -12 7 -26v-1q-1 -2 -1 -7q-5 -27 -26.5 -46.5t-48 -32t-52.5 -19t-41 -9.5l-7 -15
q-8 -23 -3 -35q4 -11 23 -14t63 16q10 4 21 9q9 5 20.5 10.5t22.5 11.5l4 3q3 2 6.5 3.5t5.5 3.5q9 7 17 13t16 14l22 22q9 8 15 11q5 2 8.5 -0.5t1.5 -17.5q1 -11 -10.5 -25.5t-21.5 -21.5l-26 -21q-1 0 -2 -1q-8 -6 -12 -8q-6 -4 -9 -5zM161 232q-2 1 -14 -6t-29 -21
t-37 -35t-37 -48q45 20 69 41t32 32q8 13 13.5 23t2.5 14zM181 377q4 5 9.5 11.5t12 11t15 5t17.5 -5.5q8 -6 11 -12t3 -11q0 -6 -4 -11q-26 -28 -58 -40.5t-62 -13.5q-15 0 -24 4t-12 10t-1.5 12.5t6.5 10.5t13 -2q4 -3 7 -7q20 1 38.5 13t28.5 25z" />
    <glyph glyph-name="ecircumflex" unicode="&#xea;" horiz-adv-x="264" 
d="M173 43q-32 -20 -57.5 -31t-46 -15.5t-36 -3.5t-27.5 6q-27 11 -41 38q-12 31 -8 60t17.5 54.5t34 47t41.5 37.5t39.5 26t28.5 13q14 4 26.5 0.5t20.5 -9.5q10 -7 18 -17q3 -5 7 -11q7 -12 7 -26v-1q-1 -2 -1 -7q-5 -27 -26.5 -46.5t-48 -32t-52.5 -19t-41 -9.5l-7 -15
q-8 -23 -3 -35q4 -11 23 -14t63 16q10 4 21 9q9 5 20.5 10.5t22.5 11.5l4 3q3 2 6.5 3.5t5.5 3.5q9 7 17 13t16 14l22 22q9 8 15 11q5 2 8.5 -0.5t1.5 -17.5q1 -11 -10.5 -25.5t-21.5 -21.5l-26 -21q-1 0 -2 -1q-8 -6 -12 -8q-6 -4 -9 -5zM161 232q-2 1 -14 -6t-29 -21
t-37 -35t-37 -48q45 20 69 41t32 32q8 13 13.5 23t2.5 14zM175 376q2 2 5 2.5t7 2.5q14 4 23 -5l1 -1l2 -4h1q4 -7 4 -13l3 -11q2 -14 11 -30t25 -21q4 3 8 4q8 2 12 -3q2 -5 0.5 -11t-6.5 -10t-14 -5t-21 4q-18 7 -34 19.5t-27 31.5q-23 -7 -45 -6t-41 7q-13 4 -18 10
t-5 12t4 10.5t10 6.5t10 -5q2 -4 3 -8q15 -5 35 1t33 14z" />
    <glyph glyph-name="edieresis" unicode="&#xeb;" horiz-adv-x="264" 
d="M173 43q-32 -20 -57.5 -31t-46 -15.5t-36 -3.5t-27.5 6q-27 11 -41 38q-12 31 -8 60t17.5 54.5t34 47t41.5 37.5t39.5 26t28.5 13q14 4 26.5 0.5t20.5 -9.5q10 -7 18 -17q3 -5 7 -11q7 -12 7 -26v-1q-1 -2 -1 -7q-5 -27 -26.5 -46.5t-48 -32t-52.5 -19t-41 -9.5l-7 -15
q-8 -23 -3 -35q4 -11 23 -14t63 16q10 4 21 9q9 5 20.5 10.5t22.5 11.5l4 3q3 2 6.5 3.5t5.5 3.5q9 7 17 13t16 14l22 22q9 8 15 11q5 2 8.5 -0.5t1.5 -17.5q1 -11 -10.5 -25.5t-21.5 -21.5l-26 -21q-1 0 -2 -1q-8 -6 -12 -8q-6 -4 -9 -5zM161 232q-2 1 -14 -6t-29 -21
t-37 -35t-37 -48q45 20 69 41t32 32q8 13 13.5 23t2.5 14zM190 360q-20 -11 -18 -22l6 -2q5 -2 4 -6q-4 -5 -16.5 -4.5t-18.5 14.5q-5 14 -2 29t21 29q6 4 11 6t9.5 1t9.5 -7q8 -13 4 -23t-10 -15zM241 344q-20 -11 -18 -22l6 -2q5 -2 4 -6q-4 -5 -16.5 -4.5t-18.5 14.5
q-5 14 -2 29t21 29q6 4 11 6t9.5 1t9.5 -7q8 -13 4 -23t-10 -15z" />
    <glyph glyph-name="igrave" unicode="&#xec;" horiz-adv-x="152" 
d="M-9 9q-14 9 -29 30t-12 53q2 11 6.5 26.5t12.5 29.5q11 23 25 43.5t22 33.5q7 10 8 14q1 3 1 5q0 7 -1 9q-1 1 -1 2q-1 1 -1 5q-1 5 2 9q2 3 6.5 5.5t14.5 2.5q2 0 4 -0.5t4 -0.5q9 -3 17.5 -9.5t14.5 -15.5t8 -20t-2 -23q-1 -5 -6 -13q-2 -3 -4 -6.5t-5 -8.5v1
q-10 -14 -18 -26t-13 -20l-13 -19q-19 -29 -25 -49t6 -28q5 -3 13 -1q6 2 15.5 8t21.5 20t23 27.5t20 24.5q11 12 20 22q7 9 13 13q5 3 9 0.5t4 -16.5q0 -4 -1 -9q-2 -5 -4.5 -11.5t-9.5 -14.5q-8 -9 -20 -23t-24 -27t-21 -23.5t-12 -13.5q-15 -15 -33.5 -16t-35.5 10z
M98 371q9 -13 27.5 -25.5t38.5 -12.5q3 4 7 7q7 5 13 1q5 -4 7 -10t-1.5 -12t-12 -10t-24.5 -4q-30 1 -62 13t-58 41q-4 5 -4 11q0 5 2.5 11t11.5 12q10 6 18 5.5t14.5 -5t12 -11t10.5 -11.5z" />
    <glyph glyph-name="iacute" unicode="&#xed;" horiz-adv-x="152" 
d="M-9 9q-14 9 -29 30t-12 53q2 11 6.5 26.5t12.5 29.5q11 23 25 43.5t22 33.5q7 10 8 14q1 3 1 5q0 7 -1 9q-1 1 -1 2q-1 1 -1 5q-1 5 2 9q2 3 6.5 5.5t14.5 2.5q2 0 4 -0.5t4 -0.5q9 -3 17.5 -9.5t14.5 -15.5t8 -20t-2 -23q-1 -5 -6 -13q-2 -3 -4 -6.5t-5 -8.5v1
q-10 -14 -18 -26t-13 -20l-13 -19q-19 -29 -25 -49t6 -28q5 -3 13 -1q6 2 15.5 8t21.5 20t23 27.5t20 24.5q11 12 20 22q7 9 13 13q5 3 9 0.5t4 -16.5q0 -4 -1 -9q-2 -5 -4.5 -11.5t-9.5 -14.5q-8 -9 -20 -23t-24 -27t-21 -23.5t-12 -13.5q-15 -15 -33.5 -16t-35.5 10z
M133 377q4 5 9.5 11.5t12 11t15 5t17.5 -5.5q8 -6 11 -12t3 -11q0 -6 -4 -11q-26 -28 -58 -40.5t-62 -13.5q-15 0 -24 4t-12 10t-1.5 12.5t6.5 10.5t13 -2q4 -3 7 -7q20 1 38.5 13t28.5 25z" />
    <glyph glyph-name="icircumflex" unicode="&#xee;" horiz-adv-x="152" 
d="M-9 9q-14 9 -29 30t-12 53q2 11 6.5 26.5t12.5 29.5q11 23 25 43.5t22 33.5q7 10 8 14q1 3 1 5q0 7 -1 9q-1 1 -1 2q-1 1 -1 5q-1 5 2 9q2 3 6.5 5.5t14.5 2.5q2 0 4 -0.5t4 -0.5q9 -3 17.5 -9.5t14.5 -15.5t8 -20t-2 -23q-1 -5 -6 -13q-2 -3 -4 -6.5t-5 -8.5v1
q-10 -14 -18 -26t-13 -20l-13 -19q-19 -29 -25 -49t6 -28q5 -3 13 -1q6 2 15.5 8t21.5 20t23 27.5t20 24.5q11 12 20 22q7 9 13 13q5 3 9 0.5t4 -16.5q0 -4 -1 -9q-2 -5 -4.5 -11.5t-9.5 -14.5q-8 -9 -20 -23t-24 -27t-21 -23.5t-12 -13.5q-15 -15 -33.5 -16t-35.5 10z
M116 376q2 2 5 2.5t7 2.5q14 4 23 -5l1 -1l2 -4h1q4 -7 4 -13l3 -11q2 -14 11 -30t25 -21q4 3 8 4q8 2 12 -3q2 -5 0.5 -11t-6.5 -10t-14 -5t-21 4q-18 7 -34 19.5t-27 31.5q-23 -7 -45 -6t-41 7q-13 4 -18 10t-5 12t4 10.5t10 6.5t10 -5q2 -4 3 -8q15 -5 35 1t33 14z" />
    <glyph glyph-name="idieresis" unicode="&#xef;" horiz-adv-x="152" 
d="M-9 9q-14 9 -29 30t-12 53q2 11 6.5 26.5t12.5 29.5q11 23 25 43.5t22 33.5q7 10 8 14q1 3 1 5q0 7 -1 9q-1 1 -1 2q-1 1 -1 5q-1 5 2 9q2 3 6.5 5.5t14.5 2.5q2 0 4 -0.5t4 -0.5q9 -3 17.5 -9.5t14.5 -15.5t8 -20t-2 -23q-1 -5 -6 -13q-2 -3 -4 -6.5t-5 -8.5v1
q-10 -14 -18 -26t-13 -20l-13 -19q-19 -29 -25 -49t6 -28q5 -3 13 -1q6 2 15.5 8t21.5 20t23 27.5t20 24.5q11 12 20 22q7 9 13 13q5 3 9 0.5t4 -16.5q0 -4 -1 -9q-2 -5 -4.5 -11.5t-9.5 -14.5q-8 -9 -20 -23t-24 -27t-21 -23.5t-12 -13.5q-15 -15 -33.5 -16t-35.5 10z
M117 360q-20 -11 -18 -22l6 -2q5 -2 4 -6q-4 -5 -16.5 -4.5t-18.5 14.5q-5 14 -2 29t21 29q6 4 11 6t9.5 1t9.5 -7q8 -13 4 -23t-10 -15zM168 344q-20 -11 -18 -22l6 -2q5 -2 4 -6q-4 -5 -16.5 -4.5t-18.5 14.5q-5 14 -2 29t21 29q6 4 11 6t9.5 1t9.5 -7q8 -13 4 -23
t-10 -15z" />
    <glyph glyph-name="ntilde" unicode="&#xf1;" horiz-adv-x="330" 
d="M304 140q8 9 14 13q5 3 9.5 0.5t2.5 -16.5q0 -4 -2 -9t-5.5 -12t-11.5 -15q-8 -9 -21 -22.5t-26 -26.5l-23.5 -23.5l-13.5 -13.5q-17 -15 -35 -16t-34 10q-14 9 -27 30t-7 53q4 11 9.5 26.5t14.5 29.5q7 11 14.5 22.5t15.5 22.5q2 3 5 7t5 8.5t2 7.5t-5 4q-6 1 -26 -14
t-45.5 -36.5t-52 -46t-44.5 -42.5q-3 -7 -6 -17t-4 -18q0 -12 4 -17h7q10 -2 6 -13q0 -1 -1 -2q0 -1 -1 -1q0 -3 -3 -4q-1 -1 -6 -4q-6 -5 -16 -6q-13 -1 -22 3h-1q-1 0 -2 1q-8 3 -8 5q-21 15 -19 44q0 13 5 30q1 2 1 4q1 0 1 2q9 30 27 62.5t37 61.5q5 8 9 16t6 14h-1h1v2
v7v3q-1 2 -1 6q0 5 3 9q2 3 7 5.5t15 2.5q2 0 3.5 -0.5t3.5 -0.5q9 -3 18.5 -9.5t17 -15.5t10 -20t-2.5 -23q-2 -3 -3.5 -6l-3.5 -7q-2 -3 -4.5 -6.5t-6.5 -8.5v1q-4 -6 -6 -8q21 19 43.5 37t43.5 32.5t39.5 22.5t31.5 7h1q22 -3 30.5 -14.5t7.5 -28t-11 -36.5t-25 -40
q-2 -2 -3 -4t-3 -4q-2 -3 -4 -5.5t-4 -4.5l-14 -19v-1q-21 -29 -32 -48.5t1 -27.5q4 -3 12 -1q6 2 16 8t24 20t26 27.5t22 24.5q11 12 21 22zM254 338q8 -2 12 1v2q1 2 2 4.5t6 1.5t8 -5.5t1 -12.5q-1 -10 -10.5 -20.5t-28.5 -6.5q-18 3 -32 11.5t-26.5 18t-24.5 18
t-26 12.5q-8 2 -12 -1v-2q-1 -2 -2 -4.5t-6 -1.5t-8 5.5t-1 12.5q1 10 10.5 20.5t28.5 6.5q16 -3 29.5 -11.5t26 -18t25.5 -18.5t28 -12z" />
    <glyph glyph-name="ograve" unicode="&#xf2;" horiz-adv-x="257" 
d="M191 113q-1 0 -1.5 0.5t-1.5 0.5q-4 0 -6 1q-8 -17 -15 -28.5t-19 -25.5q-26 -33 -49.5 -46t-41.5 -18q-4 -2 -8 -2.5t-8 -1.5q-20 -4 -35.5 -0.5t-26.5 11.5t-18.5 18t-11.5 19q-8 19 -7.5 38.5t8.5 42.5q6 19 21 43t35 47l2 2l3 3t3.5 4t5.5 5q21 21 58.5 41.5
t80.5 24.5q12 0 23 -4q9 -3 17 -10.5t11 -22.5v-9.5t-2 -7.5q-1 -2 -2 -3.5t-2 -3.5h-1q-1 -3 -4 -4t-6 -1q-6 0 -6 8q2 3 0 5q-2 12 -21 9q-8 -2 -28.5 -12.5t-48.5 -37.5q-5 -5 -9 -10l-8 -10q-5 -3 -6 -6q-6 -8 -12 -15.5t-12 -18.5q-17 -27 -24.5 -47t-9.5 -41
q1 -19 10.5 -24.5t23 -2.5t28.5 12.5t27 19.5q10 10 13.5 13t11.5 12q15 18 19 29q4 9 1 16t-7.5 14.5t-7.5 16.5t2 23q3 7 5.5 12.5t6.5 9.5q10 12 20.5 16.5t18.5 5.5q2 2 5 2h3q4 0 6 -2q5 -1 9 -7q2 -3 2 -11t-1.5 -18t-3 -19.5t-2.5 -15.5q-1 -4 -1.5 -8t-2.5 -9
q3 0 4 1q15 3 25 7.5t15 6.5q11 5 16.5 7t5.5 -6q-1 -2 -1 -5v-2q0 -5 -3.5 -12t-14.5 -13q-7 -4 -19.5 -6.5t-30.5 0.5zM188 371q9 -13 27.5 -25.5t38.5 -12.5q3 4 7 7q7 5 13 1q5 -4 7 -10t-1.5 -12t-12 -10t-24.5 -4q-30 1 -62 13t-58 41q-4 5 -4 11q0 5 2.5 11t11.5 12
q10 6 18 5.5t14.5 -5t12 -11t10.5 -11.5z" />
    <glyph glyph-name="oacute" unicode="&#xf3;" horiz-adv-x="257" 
d="M191 113q-1 0 -1.5 0.5t-1.5 0.5q-4 0 -6 1q-8 -17 -15 -28.5t-19 -25.5q-26 -33 -49.5 -46t-41.5 -18q-4 -2 -8 -2.5t-8 -1.5q-20 -4 -35.5 -0.5t-26.5 11.5t-18.5 18t-11.5 19q-8 19 -7.5 38.5t8.5 42.5q6 19 21 43t35 47l2 2l3 3t3.5 4t5.5 5q21 21 58.5 41.5
t80.5 24.5q12 0 23 -4q9 -3 17 -10.5t11 -22.5v-9.5t-2 -7.5q-1 -2 -2 -3.5t-2 -3.5h-1q-1 -3 -4 -4t-6 -1q-6 0 -6 8q2 3 0 5q-2 12 -21 9q-8 -2 -28.5 -12.5t-48.5 -37.5q-5 -5 -9 -10l-8 -10q-5 -3 -6 -6q-6 -8 -12 -15.5t-12 -18.5q-17 -27 -24.5 -47t-9.5 -41
q1 -19 10.5 -24.5t23 -2.5t28.5 12.5t27 19.5q10 10 13.5 13t11.5 12q15 18 19 29q4 9 1 16t-7.5 14.5t-7.5 16.5t2 23q3 7 5.5 12.5t6.5 9.5q10 12 20.5 16.5t18.5 5.5q2 2 5 2h3q4 0 6 -2q5 -1 9 -7q2 -3 2 -11t-1.5 -18t-3 -19.5t-2.5 -15.5q-1 -4 -1.5 -8t-2.5 -9
q3 0 4 1q15 3 25 7.5t15 6.5q11 5 16.5 7t5.5 -6q-1 -2 -1 -5v-2q0 -5 -3.5 -12t-14.5 -13q-7 -4 -19.5 -6.5t-30.5 0.5zM194 377q4 5 9.5 11.5t12 11t15 5t17.5 -5.5q8 -6 11 -12t3 -11q0 -6 -4 -11q-26 -28 -58 -40.5t-62 -13.5q-15 0 -24 4t-12 10t-1.5 12.5t6.5 10.5
t13 -2q4 -3 7 -7q20 1 38.5 13t28.5 25z" />
    <glyph glyph-name="ocircumflex" unicode="&#xf4;" horiz-adv-x="257" 
d="M191 113q-1 0 -1.5 0.5t-1.5 0.5q-4 0 -6 1q-8 -17 -15 -28.5t-19 -25.5q-26 -33 -49.5 -46t-41.5 -18q-4 -2 -8 -2.5t-8 -1.5q-20 -4 -35.5 -0.5t-26.5 11.5t-18.5 18t-11.5 19q-8 19 -7.5 38.5t8.5 42.5q6 19 21 43t35 47l2 2l3 3t3.5 4t5.5 5q21 21 58.5 41.5
t80.5 24.5q12 0 23 -4q9 -3 17 -10.5t11 -22.5v-9.5t-2 -7.5q-1 -2 -2 -3.5t-2 -3.5h-1q-1 -3 -4 -4t-6 -1q-6 0 -6 8q2 3 0 5q-2 12 -21 9q-8 -2 -28.5 -12.5t-48.5 -37.5q-5 -5 -9 -10l-8 -10q-5 -3 -6 -6q-6 -8 -12 -15.5t-12 -18.5q-17 -27 -24.5 -47t-9.5 -41
q1 -19 10.5 -24.5t23 -2.5t28.5 12.5t27 19.5q10 10 13.5 13t11.5 12q15 18 19 29q4 9 1 16t-7.5 14.5t-7.5 16.5t2 23q3 7 5.5 12.5t6.5 9.5q10 12 20.5 16.5t18.5 5.5q2 2 5 2h3q4 0 6 -2q5 -1 9 -7q2 -3 2 -11t-1.5 -18t-3 -19.5t-2.5 -15.5q-1 -4 -1.5 -8t-2.5 -9
q3 0 4 1q15 3 25 7.5t15 6.5q11 5 16.5 7t5.5 -6q-1 -2 -1 -5v-2q0 -5 -3.5 -12t-14.5 -13q-7 -4 -19.5 -6.5t-30.5 0.5zM191 376q2 2 5 2.5t7 2.5q14 4 23 -5l1 -1l2 -4h1q4 -7 4 -13l3 -11q2 -14 11 -30t25 -21q4 3 8 4q8 2 12 -3q2 -5 0.5 -11t-6.5 -10t-14 -5t-21 4
q-18 7 -34 19.5t-27 31.5q-23 -7 -45 -6t-41 7q-13 4 -18 10t-5 12t4 10.5t10 6.5t10 -5q2 -4 3 -8q15 -5 35 1t33 14z" />
    <glyph glyph-name="otilde" unicode="&#xf5;" horiz-adv-x="257" 
d="M191 113q-1 0 -1.5 0.5t-1.5 0.5q-4 0 -6 1q-8 -17 -15 -28.5t-19 -25.5q-26 -33 -49.5 -46t-41.5 -18q-4 -2 -8 -2.5t-8 -1.5q-20 -4 -35.5 -0.5t-26.5 11.5t-18.5 18t-11.5 19q-8 19 -7.5 38.5t8.5 42.5q6 19 21 43t35 47l2 2l3 3t3.5 4t5.5 5q21 21 58.5 41.5
t80.5 24.5q12 0 23 -4q9 -3 17 -10.5t11 -22.5v-9.5t-2 -7.5q-1 -2 -2 -3.5t-2 -3.5h-1q-1 -3 -4 -4t-6 -1q-6 0 -6 8q2 3 0 5q-2 12 -21 9q-8 -2 -28.5 -12.5t-48.5 -37.5q-5 -5 -9 -10l-8 -10q-5 -3 -6 -6q-6 -8 -12 -15.5t-12 -18.5q-17 -27 -24.5 -47t-9.5 -41
q1 -19 10.5 -24.5t23 -2.5t28.5 12.5t27 19.5q10 10 13.5 13t11.5 12q15 18 19 29q4 9 1 16t-7.5 14.5t-7.5 16.5t2 23q3 7 5.5 12.5t6.5 9.5q10 12 20.5 16.5t18.5 5.5q2 2 5 2h3q4 0 6 -2q5 -1 9 -7q2 -3 2 -11t-1.5 -18t-3 -19.5t-2.5 -15.5q-1 -4 -1.5 -8t-2.5 -9
q3 0 4 1q15 3 25 7.5t15 6.5q11 5 16.5 7t5.5 -6q-1 -2 -1 -5v-2q0 -5 -3.5 -12t-14.5 -13q-7 -4 -19.5 -6.5t-30.5 0.5zM252 338q8 -2 12 1v2q1 2 2 4.5t6 1.5t8 -5.5t1 -12.5q-1 -10 -10.5 -20.5t-28.5 -6.5q-18 3 -32 11.5t-26.5 18t-24.5 18t-26 12.5q-8 2 -12 -1v-2
q-1 -2 -2 -4.5t-6 -1.5t-8 5.5t-1 12.5q1 10 10.5 20.5t28.5 6.5q16 -3 29.5 -11.5t26 -18t25.5 -18.5t28 -12z" />
    <glyph glyph-name="odieresis" unicode="&#xf6;" horiz-adv-x="257" 
d="M191 113q-1 0 -1.5 0.5t-1.5 0.5q-4 0 -6 1q-8 -17 -15 -28.5t-19 -25.5q-26 -33 -49.5 -46t-41.5 -18q-4 -2 -8 -2.5t-8 -1.5q-20 -4 -35.5 -0.5t-26.5 11.5t-18.5 18t-11.5 19q-8 19 -7.5 38.5t8.5 42.5q6 19 21 43t35 47l2 2l3 3t3.5 4t5.5 5q21 21 58.5 41.5
t80.5 24.5q12 0 23 -4q9 -3 17 -10.5t11 -22.5v-9.5t-2 -7.5q-1 -2 -2 -3.5t-2 -3.5h-1q-1 -3 -4 -4t-6 -1q-6 0 -6 8q2 3 0 5q-2 12 -21 9q-8 -2 -28.5 -12.5t-48.5 -37.5q-5 -5 -9 -10l-8 -10q-5 -3 -6 -6q-6 -8 -12 -15.5t-12 -18.5q-17 -27 -24.5 -47t-9.5 -41
q1 -19 10.5 -24.5t23 -2.5t28.5 12.5t27 19.5q10 10 13.5 13t11.5 12q15 18 19 29q4 9 1 16t-7.5 14.5t-7.5 16.5t2 23q3 7 5.5 12.5t6.5 9.5q10 12 20.5 16.5t18.5 5.5q2 2 5 2h3q4 0 6 -2q5 -1 9 -7q2 -3 2 -11t-1.5 -18t-3 -19.5t-2.5 -15.5q-1 -4 -1.5 -8t-2.5 -9
q3 0 4 1q15 3 25 7.5t15 6.5q11 5 16.5 7t5.5 -6q-1 -2 -1 -5v-2q0 -5 -3.5 -12t-14.5 -13q-7 -4 -19.5 -6.5t-30.5 0.5zM196 360q-20 -11 -18 -22l6 -2q5 -2 4 -6q-4 -5 -16.5 -4.5t-18.5 14.5q-5 14 -2 29t21 29q6 4 11 6t9.5 1t9.5 -7q8 -13 4 -23t-10 -15zM247 344
q-20 -11 -18 -22l6 -2q5 -2 4 -6q-4 -5 -16.5 -4.5t-18.5 14.5q-5 14 -2 29t21 29q6 4 11 6t9.5 1t9.5 -7q8 -13 4 -23t-10 -15z" />
    <glyph glyph-name="divide" unicode="&#xf7;" horiz-adv-x="400" 
d="M154 75q1 6 2.5 14.5t5 15.5t10 12t18.5 4q11 -1 16 -4.5t7 -8.5q3 -5 3 -11q-4 -17 -11.5 -28.5t-14.5 -31.5q-8 -9 -16 -11.5t-13.5 2.5t-8 16.5t1.5 30.5zM221 291q1 6 2.5 14.5t5 15.5t10 12t18.5 4q11 -1 16 -4.5t7 -8.5q3 -5 3 -11q-4 -17 -12 -33t-14 -27
q-8 -9 -16 -11.5t-13.5 2.5t-8 16.5t1.5 30.5zM349 151q-1 0 -2 -1q0 1 -1 0q-1 1 -1.5 0.5t-2.5 0.5q-22 1 -57 3t-72 2.5t-68.5 -0.5t-45.5 -6q-7 -2 -12 -6q-5 -3 -9 -8t-5 -12q1 -3 2 -7q0 -8 -5 -10q-4 -2 -8 3.5t-6.5 15t-2.5 21.5t6 25q11 26 33.5 37.5t51.5 14
t61.5 0t63 -4.5t56 0.5t41.5 14.5q0 2 0.5 2t0.5 1l4 2q4 2 8 -4q0 -2 1 -3.5t1 -3.5q1 -3 3 -13.5t0.5 -23t-8.5 -24t-24 -16.5h-3z" />
    <glyph glyph-name="oslash" unicode="&#xf8;" horiz-adv-x="257" 
d="M37 -29q7 0 7 -6q0 -13 -17 -13q-9 0 -21 8t-12 28q0 5 1 8q-18 6 -29.5 19.5t-16.5 25.5q-8 19 -7.5 38.5t8.5 42.5q6 19 21 43t35 47l2 2l3 3t3.5 4t5.5 5q21 21 58.5 41.5t80.5 24.5h8q5 8 11 20.5t6 23.5h4q11 0 23 -10t12 -26q0 -12 -5 -22.5t-8 -13.5l-2 -2l2 -7
v-9.5t-2 -7.5l-4 -7h-1q-1 -3 -4 -4t-6 -1q-6 0 -6 5l-6 -7q2 1 4 1h3q4 0 6 -2q5 -1 9 -7t4 -16t-2 -22l-4 -17q3 0 4 1q15 3 25 7.5t15 6.5q6 2 9 0t4.5 -6t1.5 -9.5v-9.5q-1 -2 -1 -5v-2q0 -5 -3.5 -12t-14.5 -13q-7 -4 -19.5 -6.5t-30.5 0.5q-1 0 -1.5 0.5t-1.5 0.5
q-4 0 -6 1q-8 -17 -15 -28.5t-19 -25.5q-26 -33 -49.5 -46t-41.5 -18q-4 -2 -8 -2.5t-8 -1.5q-2 0 -4 -0.5t-4 -0.5q-1 -4 -1 -11q0 -8 3 -10h2zM141 109q5 12 -1.5 21t-10.5 20q-26 -36 -48.5 -69.5t-35.5 -56.5q13 4 27 12.5t25 18.5q10 10 13.5 13t11.5 12q15 18 19 29z
M8 50q0 -6 1 -8q7 16 16.5 33.5t18.5 33t17 28.5t13 21l45 66q-7 -5 -14.5 -11.5t-15.5 -14.5q-5 -5 -9 -10l-8 -10q-5 -3 -6 -6q-6 -8 -12 -15.5t-12 -18.5q-17 -27 -24.5 -47t-9.5 -41z" />
    <glyph glyph-name="ugrave" unicode="&#xf9;" horiz-adv-x="327" 
d="M300 142q8 9 14 13q5 3 9.5 0.5t2.5 -16.5q0 -4 -2 -9t-5.5 -12t-11.5 -15q-8 -9 -21 -22.5t-26 -26.5l-23.5 -23.5l-13.5 -13.5q-17 -15 -35 -16.5t-35 9.5q-14 9 -26.5 30.5t-6.5 52.5q2 6 2 8q-23 -28 -42.5 -46t-35 -29.5t-27 -16.5t-19.5 -7h-1l-1 -1h-2h-1h-1
q-8 -1 -11 0q-4 0 -10 2q-1 0 -1 1h-2q-8 5 -9 5q-11 8 -15 19t-4 25q1 7 2.5 15t3.5 16q0 1 0.5 1.5t0.5 1.5t0.5 1.5t0.5 1.5q9 30 27 62.5t37 61.5q5 8 8.5 16t5.5 13v1q1 0 1 1v1v7q0 2 -1 3q0 1 -0.5 2.5t0.5 3.5q0 5 3 9q2 3 6.5 5.5t14.5 2.5q2 -1 4 -1t4 -1
q9 -2 18.5 -8.5t17 -16t10 -20.5t-2.5 -22q-2 -3 -3.5 -6l-3.5 -7q-2 -3 -4.5 -6.5t-6.5 -8.5q-2 -2 -6 -8q-9 -11 -16.5 -20.5t-12.5 -16.5l-14 -20q-2 -1 -4 -5l-1 -1t-3 -5q-3 -5 -5.5 -9t-4.5 -8q-1 0 -1 -1q-1 -1 -1 -2t-1 -2q-2 -7 -5 -15t-4 -17q-1 -8 2 -14
q6 -3 20 7t33.5 28.5t41 43t42.5 48.5t38.5 45.5t28.5 35.5q2 4 3.5 6.5t3.5 4.5v1l2 2q1 2 7 8t17 10t17 1q24 -8 30.5 -21.5t-0.5 -26.5q-1 0 -1 -1q-1 -1 -1 -2t-1 -2q-2 -4 -9.5 -15.5t-27.5 -37.5q-2 -5 -5.5 -9t-6.5 -9q-4 -6 -6 -8q-2 -3 -4 -5.5t-4 -5.5l-14 -19
q-21 -29 -32 -48.5t0 -27.5q5 -3 13 -1q7 2 16.5 8t23.5 20q13 14 25.5 27t22.5 24q11 12 21 23zM152 371q9 -13 27.5 -25.5t38.5 -12.5q3 4 7 7q7 5 13 1q5 -4 7 -10t-1.5 -12t-12 -10t-24.5 -4q-30 1 -62 13t-58 41q-4 5 -4 11q0 5 2.5 11t11.5 12q10 6 18 5.5t14.5 -5
t12 -11t10.5 -11.5z" />
    <glyph glyph-name="uacute" unicode="&#xfa;" horiz-adv-x="327" 
d="M300 142q8 9 14 13q5 3 9.5 0.5t2.5 -16.5q0 -4 -2 -9t-5.5 -12t-11.5 -15q-8 -9 -21 -22.5t-26 -26.5l-23.5 -23.5l-13.5 -13.5q-17 -15 -35 -16.5t-35 9.5q-14 9 -26.5 30.5t-6.5 52.5q2 6 2 8q-23 -28 -42.5 -46t-35 -29.5t-27 -16.5t-19.5 -7h-1l-1 -1h-2h-1h-1
q-8 -1 -11 0q-4 0 -10 2q-1 0 -1 1h-2q-8 5 -9 5q-11 8 -15 19t-4 25q1 7 2.5 15t3.5 16q0 1 0.5 1.5t0.5 1.5t0.5 1.5t0.5 1.5q9 30 27 62.5t37 61.5q5 8 8.5 16t5.5 13v1q1 0 1 1v1v7q0 2 -1 3q0 1 -0.5 2.5t0.5 3.5q0 5 3 9q2 3 6.5 5.5t14.5 2.5q2 -1 4 -1t4 -1
q9 -2 18.5 -8.5t17 -16t10 -20.5t-2.5 -22q-2 -3 -3.5 -6l-3.5 -7q-2 -3 -4.5 -6.5t-6.5 -8.5q-2 -2 -6 -8q-9 -11 -16.5 -20.5t-12.5 -16.5l-14 -20q-2 -1 -4 -5l-1 -1t-3 -5q-3 -5 -5.5 -9t-4.5 -8q-1 0 -1 -1q-1 -1 -1 -2t-1 -2q-2 -7 -5 -15t-4 -17q-1 -8 2 -14
q6 -3 20 7t33.5 28.5t41 43t42.5 48.5t38.5 45.5t28.5 35.5q2 4 3.5 6.5t3.5 4.5v1l2 2q1 2 7 8t17 10t17 1q24 -8 30.5 -21.5t-0.5 -26.5q-1 0 -1 -1q-1 -1 -1 -2t-1 -2q-2 -4 -9.5 -15.5t-27.5 -37.5q-2 -5 -5.5 -9t-6.5 -9q-4 -6 -6 -8q-2 -3 -4 -5.5t-4 -5.5l-14 -19
q-21 -29 -32 -48.5t0 -27.5q5 -3 13 -1q7 2 16.5 8t23.5 20q13 14 25.5 27t22.5 24q11 12 21 23zM199 377q4 5 9.5 11.5t12 11t15 5t17.5 -5.5q8 -6 11 -12t3 -11q0 -6 -4 -11q-26 -28 -58 -40.5t-62 -13.5q-15 0 -24 4t-12 10t-1.5 12.5t6.5 10.5t13 -2q4 -3 7 -7
q20 1 38.5 13t28.5 25z" />
    <glyph glyph-name="ucircumflex" unicode="&#xfb;" horiz-adv-x="327" 
d="M300 142q8 9 14 13q5 3 9.5 0.5t2.5 -16.5q0 -4 -2 -9t-5.5 -12t-11.5 -15q-8 -9 -21 -22.5t-26 -26.5l-23.5 -23.5l-13.5 -13.5q-17 -15 -35 -16.5t-35 9.5q-14 9 -26.5 30.5t-6.5 52.5q2 6 2 8q-23 -28 -42.5 -46t-35 -29.5t-27 -16.5t-19.5 -7h-1l-1 -1h-2h-1h-1
q-8 -1 -11 0q-4 0 -10 2q-1 0 -1 1h-2q-8 5 -9 5q-11 8 -15 19t-4 25q1 7 2.5 15t3.5 16q0 1 0.5 1.5t0.5 1.5t0.5 1.5t0.5 1.5q9 30 27 62.5t37 61.5q5 8 8.5 16t5.5 13v1q1 0 1 1v1v7q0 2 -1 3q0 1 -0.5 2.5t0.5 3.5q0 5 3 9q2 3 6.5 5.5t14.5 2.5q2 -1 4 -1t4 -1
q9 -2 18.5 -8.5t17 -16t10 -20.5t-2.5 -22q-2 -3 -3.5 -6l-3.5 -7q-2 -3 -4.5 -6.5t-6.5 -8.5q-2 -2 -6 -8q-9 -11 -16.5 -20.5t-12.5 -16.5l-14 -20q-2 -1 -4 -5l-1 -1t-3 -5q-3 -5 -5.5 -9t-4.5 -8q-1 0 -1 -1q-1 -1 -1 -2t-1 -2q-2 -7 -5 -15t-4 -17q-1 -8 2 -14
q6 -3 20 7t33.5 28.5t41 43t42.5 48.5t38.5 45.5t28.5 35.5q2 4 3.5 6.5t3.5 4.5v1l2 2q1 2 7 8t17 10t17 1q24 -8 30.5 -21.5t-0.5 -26.5q-1 0 -1 -1q-1 -1 -1 -2t-1 -2q-2 -4 -9.5 -15.5t-27.5 -37.5q-2 -5 -5.5 -9t-6.5 -9q-4 -6 -6 -8q-2 -3 -4 -5.5t-4 -5.5l-14 -19
q-21 -29 -32 -48.5t0 -27.5q5 -3 13 -1q7 2 16.5 8t23.5 20q13 14 25.5 27t22.5 24q11 12 21 23zM230 376q2 2 5 2.5t7 2.5q14 4 23 -5l1 -1l2 -4h1q4 -7 4 -13l3 -11q2 -14 11 -30t25 -21q4 3 8 4q8 2 12 -3q2 -5 0.5 -11t-6.5 -10t-14 -5t-21 4q-18 7 -34 19.5t-27 31.5
q-23 -7 -45 -6t-41 7q-13 4 -18 10t-5 12t4 10.5t10 6.5t10 -5q2 -4 3 -8q15 -5 35 1t33 14z" />
    <glyph glyph-name="udieresis" unicode="&#xfc;" horiz-adv-x="327" 
d="M300 142q8 9 14 13q5 3 9.5 0.5t2.5 -16.5q0 -4 -2 -9t-5.5 -12t-11.5 -15q-8 -9 -21 -22.5t-26 -26.5l-23.5 -23.5l-13.5 -13.5q-17 -15 -35 -16.5t-35 9.5q-14 9 -26.5 30.5t-6.5 52.5q2 6 2 8q-23 -28 -42.5 -46t-35 -29.5t-27 -16.5t-19.5 -7h-1l-1 -1h-2h-1h-1
q-8 -1 -11 0q-4 0 -10 2q-1 0 -1 1h-2q-8 5 -9 5q-11 8 -15 19t-4 25q1 7 2.5 15t3.5 16q0 1 0.5 1.5t0.5 1.5t0.5 1.5t0.5 1.5q9 30 27 62.5t37 61.5q5 8 8.5 16t5.5 13v1q1 0 1 1v1v7q0 2 -1 3q0 1 -0.5 2.5t0.5 3.5q0 5 3 9q2 3 6.5 5.5t14.5 2.5q2 -1 4 -1t4 -1
q9 -2 18.5 -8.5t17 -16t10 -20.5t-2.5 -22q-2 -3 -3.5 -6l-3.5 -7q-2 -3 -4.5 -6.5t-6.5 -8.5q-2 -2 -6 -8q-9 -11 -16.5 -20.5t-12.5 -16.5l-14 -20q-2 -1 -4 -5l-1 -1t-3 -5q-3 -5 -5.5 -9t-4.5 -8q-1 0 -1 -1q-1 -1 -1 -2t-1 -2q-2 -7 -5 -15t-4 -17q-1 -8 2 -14
q6 -3 20 7t33.5 28.5t41 43t42.5 48.5t38.5 45.5t28.5 35.5q2 4 3.5 6.5t3.5 4.5v1l2 2q1 2 7 8t17 10t17 1q24 -8 30.5 -21.5t-0.5 -26.5q-1 0 -1 -1q-1 -1 -1 -2t-1 -2q-2 -4 -9.5 -15.5t-27.5 -37.5q-2 -5 -5.5 -9t-6.5 -9q-4 -6 -6 -8q-2 -3 -4 -5.5t-4 -5.5l-14 -19
q-21 -29 -32 -48.5t0 -27.5q5 -3 13 -1q7 2 16.5 8t23.5 20q13 14 25.5 27t22.5 24q11 12 21 23zM217 360q-20 -11 -18 -22l6 -2q5 -2 4 -6q-4 -5 -16.5 -4.5t-18.5 14.5q-5 14 -2 29t21 29q6 4 11 6t9.5 1t9.5 -7q8 -13 4 -23t-10 -15zM268 344q-20 -11 -18 -22l6 -2
q5 -2 4 -6q-4 -5 -16.5 -4.5t-18.5 14.5q-5 14 -2 29t21 29q6 4 11 6t9.5 1t9.5 -7q8 -13 4 -23t-10 -15z" />
    <glyph glyph-name="yacute" unicode="&#xfd;" horiz-adv-x="324" 
d="M183 -29q27 -2 40.5 -10t19 -18t5.5 -19v-13q-4 -11 -9 -19q-5 -7 -10.5 -10.5t-12.5 2.5q-5 4 -16.5 12t-30 16t-44 13.5t-58.5 5.5q-22 -24 -44.5 -45.5t-45.5 -38t-45 -25.5t-42 -9q-14 0 -24 4t-16 9t-9 9.5t-4 5.5q-4 7 -5.5 21t13.5 30.5t52 34t110 32.5
q17 22 34 45t33 46q-28 -26 -47.5 -36.5t-30.5 -13.5h-1h-1h-1h-2v-1h-1h-10q-8 2 -11 3h-1q-1 0 -1 0.5t-1 0.5q-8 3 -8 5q-21 15 -19 44q0 7 2 15l4 16v3q1 1 1 2q9 30 27 62.5t38 61.5h-1q5 8 9 16.5t6 13.5v2v1v7v3q-1 1 -1 5q0 5 3 9q2 3 7 5.5t15 2.5q5 0 7 -1
q9 -3 18.5 -9.5t17 -15.5t10 -20t-2.5 -22q-2 -3 -3.5 -6.5t-3.5 -7.5q-2 -3 -4.5 -6t-6.5 -8h1q-2 -2 -3.5 -4t-3.5 -4q-19 -24 -29 -38l-14 -19q-1 -2 -4 -5v-1q-3 -3 -4 -5q-3 -5 -5.5 -9t-4.5 -8q-1 -1 -1 -2t-0.5 -1.5t-0.5 -2.5q-3 -6 -6 -14t-4 -18q0 -10 2 -13
q5 -7 19 2t33 27.5t41 43.5t43 50.5t39 48t29 36.5q6 8 7 11h1v1l1 1q2 2 7.5 8t17.5 11q9 4 17 1q23 -8 29.5 -21.5t0.5 -26.5l-4 -6q-2 -3 -9 -15t-27 -38q-3 -5 -6 -9t-7 -8l-6 -9q-2 -2 -4 -5t-4 -5l-14 -19q0 -1 -1 -2q-3 -5 -10 -15.5t-18 -25.5q-14 -26 -2 -34
q4 -3 12 -1q6 2 16 8t24 21q14 14 26 27t22 24q11 12 21 23q8 9 14 13q5 3 9.5 0t2.5 -17q0 -4 -2 -9t-5 -11.5t-11 -14.5q-9 -9 -22 -23t-26 -27t-23.5 -23t-13.5 -13q-17 -15 -35 -16.5t-34 9.5q-3 2 -6 4.5t-6 5.5q-9 -11 -18 -23.5t-20 -24.5q23 2 43.5 2t37.5 -2z
M-136 -150q13 -17 42 3t65 62q-51 -12 -74 -24t-31 -21q-9 -11 -2 -20zM231 377q4 5 9.5 11.5t12 11t15 5t17.5 -5.5q8 -6 11 -12t3 -11q0 -6 -4 -11q-26 -28 -58 -40.5t-62 -13.5q-15 0 -24 4t-12 10t-1.5 12.5t6.5 10.5t13 -2q4 -3 7 -7q20 1 38.5 13t28.5 25z" />
    <glyph glyph-name="ydieresis" unicode="&#xff;" horiz-adv-x="324" 
d="M183 -29q27 -2 40.5 -10t19 -18t5.5 -19v-13q-4 -11 -9 -19q-5 -7 -10.5 -10.5t-12.5 2.5q-5 4 -16.5 12t-30 16t-44 13.5t-58.5 5.5q-22 -24 -44.5 -45.5t-45.5 -38t-45 -25.5t-42 -9q-14 0 -24 4t-16 9t-9 9.5t-4 5.5q-4 7 -5.5 21t13.5 30.5t52 34t110 32.5
q17 22 34 45t33 46q-28 -26 -47.5 -36.5t-30.5 -13.5h-1h-1h-1h-2v-1h-1h-10q-8 2 -11 3h-1q-1 0 -1 0.5t-1 0.5q-8 3 -8 5q-21 15 -19 44q0 7 2 15l4 16v3q1 1 1 2q9 30 27 62.5t38 61.5h-1q5 8 9 16.5t6 13.5v2v1v7v3q-1 1 -1 5q0 5 3 9q2 3 7 5.5t15 2.5q5 0 7 -1
q9 -3 18.5 -9.5t17 -15.5t10 -20t-2.5 -22q-2 -3 -3.5 -6.5t-3.5 -7.5q-2 -3 -4.5 -6t-6.5 -8h1q-2 -2 -3.5 -4t-3.5 -4q-19 -24 -29 -38l-14 -19q-1 -2 -4 -5v-1q-3 -3 -4 -5q-3 -5 -5.5 -9t-4.5 -8q-1 -1 -1 -2t-0.5 -1.5t-0.5 -2.5q-3 -6 -6 -14t-4 -18q0 -10 2 -13
q5 -7 19 2t33 27.5t41 43.5t43 50.5t39 48t29 36.5q6 8 7 11h1v1l1 1q2 2 7.5 8t17.5 11q9 4 17 1q23 -8 29.5 -21.5t0.5 -26.5l-4 -6q-2 -3 -9 -15t-27 -38q-3 -5 -6 -9t-7 -8l-6 -9q-2 -2 -4 -5t-4 -5l-14 -19q0 -1 -1 -2q-3 -5 -10 -15.5t-18 -25.5q-14 -26 -2 -34
q4 -3 12 -1q6 2 16 8t24 21q14 14 26 27t22 24q11 12 21 23q8 9 14 13q5 3 9.5 0t2.5 -17q0 -4 -2 -9t-5 -11.5t-11 -14.5q-9 -9 -22 -23t-26 -27t-23.5 -23t-13.5 -13q-17 -15 -35 -16.5t-34 9.5q-3 2 -6 4.5t-6 5.5q-9 -11 -18 -23.5t-20 -24.5q23 2 43.5 2t37.5 -2z
M-136 -150q13 -17 42 3t65 62q-51 -12 -74 -24t-31 -21q-9 -11 -2 -20zM183 360q-20 -11 -18 -22l6 -2q5 -2 4 -6q-4 -5 -16.5 -4.5t-18.5 14.5q-5 14 -2 29t21 29q6 4 11 6t9.5 1t9.5 -7q8 -13 4 -23t-10 -15zM234 344q-20 -11 -18 -22l6 -2q5 -2 4 -6q-4 -5 -16.5 -4.5
t-18.5 14.5q-5 14 -2 29t21 29q6 4 11 6t9.5 1t9.5 -7q8 -13 4 -23t-10 -15z" />
    <glyph glyph-name="Lslash" unicode="&#x141;" horiz-adv-x="446" 
d="M294 106q-1 0 -2 -1q0 1 -1 0q-1 1 -1.5 0.5t-2.5 0.5q-17 1 -42 2t-53 2q-28 -29 -60.5 -55.5t-71.5 -50.5q16 -5 51 -12t79 -13t93 -10t93 -4q57 0 89.5 7t48.5 15q18 10 24 22q-1 1 -2 3q-2 4 -2 6q0 8 12 9q10 0 19 -10.5t9 -27.5q0 -28 -25.5 -46.5t-60.5 -30
t-73 -16t-63 -4.5q-16 0 -28.5 0.5t-22.5 1.5q-11 1 -20 2q-95 12 -150 32t-83.5 40.5t-36.5 38t-8 24.5q0 13 6.5 17t8.5 4q4 0 8 -6q1 -3 2 -5q2 -1 6 -1q8 0 16 4t15 9q8 6 16 14q15 15 36 45q-24 -1 -43.5 -2.5t-29.5 -4.5q-7 -2 -12 -6q-5 -3 -9 -8t-5 -12q1 -3 2 -7
q0 -8 -5 -10q-4 -2 -8 3.5t-6.5 15t-2.5 21.5t6 25q9 21 25 32t37.5 15.5t46 4.5t50.5 -1q26 38 54 81t54 84t48 76t36 57q15 20 29 28t27 8t26 -6t23 -20t16 -37.5t6 -58.5q0 -23 -7 -53t-19.5 -59.5t-29 -55.5t-35.5 -40v-1q-11 -10 -28 -10q-21 0 -37 13v-1q1 -3 3 -13.5
t0.5 -23t-8.5 -24t-24 -16.5h-3zM400 404q-42 -62 -77 -119.5t-77 -111.5q20 1 37 4t28 12q0 2 0.5 2t0.5 1t1 1t2 1q-8 11 -8 22q0 9 5 12q3 2 6 3h8q2 0 2.5 -1.5t3 0t8.5 7.5t18 20q5 5 18.5 24t28 44t25.5 50.5t11 44.5q0 10 -4 12.5t-7 2.5q-4 0 -8.5 -4t-9 -9.5
t-8 -10.5t-4.5 -7z" />
    <glyph glyph-name="lslash" unicode="&#x142;" horiz-adv-x="157" 
d="M27 117q-19 -29 -25 -49t6 -28q8 -3 18 -1q8 2 19 8t23 21q12 14 23 27t20 24q11 12 20 23q7 9 13 13q5 3 9 0t4 -17q0 -4 -1 -9q-2 -5 -4.5 -11.5t-9.5 -14.5q-8 -9 -20 -23t-24 -27t-21 -23t-12 -13q-15 -16 -38.5 -17t-40.5 10q-14 9 -29 30t-12 53q1 8 4.5 19t8.5 24
l-17 -12q-5 -6 -9 -11q-3 -5 -4.5 -11t0.5 -12q3 -3 5 -6q3 -5 -1 -11q-3 -3 -9 0t-12 10.5t-10.5 19t-4.5 25.5q0 22 10.5 39t27.5 30t39.5 23t46.5 19l1 1q43 57 66.5 92.5t35.5 55.5q13 24 17 35q0 6 -1 8q-1 0 -1 2q-1 1 -1 6q-1 5 2 9q2 3 6.5 5.5t14.5 2.5
q9 0 19.5 -6.5t18.5 -16t11.5 -22t-1.5 -25.5q-1 -5 -6 -13q-5 -10 -15 -25.5t-23 -34.5q1 -1 1.5 -1t1.5 -2q3 -3 9 -11.5t10 -20.5t1.5 -25t-15.5 -25l-3 -2q-1 0 -1 -1l-1 -1q-1 1 -1.5 0t-2.5 0l-86 -33q-12 -17 -21.5 -31t-15.5 -24z" />
    <glyph glyph-name="OE" unicode="&#x152;" horiz-adv-x="826" 
d="M526 -77q-30 3 -56 14t-46 28t-33.5 39t-20.5 46q-19 -17 -30.5 -26.5t-13.5 -10.5q-29 -23 -57.5 -36.5t-53.5 -21.5t-46 -10.5t-36 -2.5h-11q-7 0 -17 2h-4q-41 7 -69.5 34.5t-37.5 71.5t7 102.5t65 128.5q17 23 33 43.5t31 37.5q-11 25 -16.5 47t-7.5 36l-2 12
q-1 1 -1 3v1q0 18 5 29t12 17t14.5 9t10.5 4q12 1 21 -1q8 -2 13 -5.5t2 -12.5q-2 -5 -5.5 -15.5t-5.5 -26.5q-1 -7 -1 -15t-0.5 -17.5t1.5 -20.5q42 42 76.5 66t60 35.5t41.5 13.5t21 2q16 0 34 -6t35 -23q17 -18 23.5 -40.5t5 -46.5t-8.5 -47t-17 -41q-16 -26 -31.5 -42.5
t-30.5 -25.5t-29.5 -12.5t-26.5 -3.5q-32 -3 -60 5q-2 1 -5 1l-22 9q-21 9 -37 22t-29 27q-53 -65 -80 -116t-34 -89.5t3.5 -65t32.5 -40.5q5 -4 12 -6q5 -2 15 -4t24 -1q23 2 56 15t74 51q14 12 25.5 24.5t22.5 24.5q15 17 28.5 33.5t24.5 32.5q2 5 4 8.5t4 8.5
q6 12 12.5 21.5t13.5 17.5q6 8 14 14q24 40 37 73.5t19 59.5t6.5 45t-0.5 31q-1 5 -1 8.5t-1 5.5q-1 3 -1 5q-1 2 -3 4l-2 2q-5 -1 -9 0q-3 1 -4.5 3.5t1.5 10.5q3 9 18 14q8 2 14 1h4l5 -2q7 -2 16 -9l2 -2q0 -1 0.5 -1t0.5 -1q2 0 2 -2q2 -1 4 -5q1 0 3 -4q3 -5 7 -17
t6 -32q6 8 10 12q28 30 55 44t50 19t39.5 4t22.5 -2q14 -2 28.5 -8t28.5 -20q19 -18 27.5 -40.5t9.5 -46.5t-4 -47t-14 -41q-13 -27 -27.5 -43.5t-29 -25.5t-29 -12t-26.5 -3t-23.5 4.5t-18 12.5t-7.5 19t7 23q1 3 4 5q6 4 10 0q6 -6 13.5 -8t18.5 8q4 4 13 14t19 25
t17.5 34.5t9.5 41.5v1q3 36 -4 51.5t-18 18.5q-3 1 -9 1q-12 0 -24.5 -6t-24 -14.5t-22 -18.5t-17.5 -19q-9 -10 -16 -19.5t-12 -18.5q-11 -20 -15 -39t-3.5 -34.5t3 -27t4.5 -17.5q14 -12 21 -24.5t4 -20.5q-4 -10 -11 -8q-4 1 -7 4q-2 5 -6.5 7t-9.5 4t-12 2q-35 5 -59 -8
t-39 -30q-18 -20 -29 -48q0 -2 -2 -6q-8 -27 -7.5 -47.5t6.5 -36.5t16.5 -28t22.5 -20q28 -19 69 -26q28 -4 49 -1t36 10.5t24.5 17.5t14.5 19t6.5 18t1.5 16q0 8 -1 16q-5 12 -14 16.5t-20 4.5t-24 -2t-26 -2q-13 -1 -17.5 5t-5.5 14q-1 9 2 20q12 31 40.5 40t57.5 -0.5
t50.5 -34t20.5 -58.5q-1 -1 -1 -3q-2 -31 -15 -55q-24 -45 -77.5 -65.5t-124.5 -9.5zM310 449q-32 -31 -60 -60t-51 -55l6 -6q21 -20 40 -29t35 -11q9 -1 16.5 0t13.5 3l15 6v1q2 0 4 2l9 6q15 11 25.5 25t17 27t10.5 23.5t5 16.5q2 4 2.5 8t1.5 8v1q7 36 1.5 52t-16.5 18
t-24 -2.5t-24 -12.5q-13 -9 -27 -21zM515 265q5 1 13 1l4 7q-2 4 -4 7.5t-4 8.5z" />
    <glyph glyph-name="oe" unicode="&#x153;" horiz-adv-x="411" 
d="M320 43q-51 -33 -87 -42.5t-60 -6.5t-37 14t-19 20q-17 -14 -32.5 -20.5t-27.5 -10.5q-4 -2 -8 -2.5t-8 -1.5q-20 -4 -35.5 -0.5t-26.5 11.5t-18.5 18t-11.5 19q-8 19 -7.5 38.5t8.5 42.5q6 19 21 43t35 47l2 2l3 3t3.5 4t5.5 5q21 21 58.5 41.5t80.5 24.5q12 0 23 -4
q9 -3 17 -10.5t11 -22.5v-9q17 12 31.5 19.5t23.5 9.5q14 4 26.5 0.5t20.5 -9.5q10 -7 18 -17q3 -5 7 -11q7 -12 7 -26v-1q-1 -2 -1 -7q-5 -27 -26.5 -46.5t-48 -32t-52.5 -19t-41 -9.5l-7 -15q-8 -23 -3 -35q4 -11 23 -14t63 16q10 4 21 9q9 5 20.5 10.5t22.5 11.5l4 3
q3 2 6.5 3.5t5.5 3.5q9 7 17 13t16 14l22 22q9 8 15 11q5 2 8.5 -0.5t1.5 -17.5q1 -11 -10.5 -25.5t-21.5 -21.5l-26 -21q-1 0 -2 -1q-8 -6 -12 -8q-6 -4 -9 -5zM180 223q1 1 2 1l6 5q-1 1 -1 5q2 3 0 5q-2 12 -21 9q-8 -2 -28.5 -12.5t-48.5 -37.5q-5 -5 -9 -10l-8 -10
q-5 -3 -6 -6q-6 -8 -12 -15.5t-12 -18.5q-17 -27 -24.5 -47t-9.5 -41q1 -19 10.5 -24.5t23 -2.5t28.5 12.5t27 19.5l8 7q-7 45 13.5 83t50.5 67q5 10 11 11zM308 232q-2 1 -14 -6t-29 -21t-37 -35t-37 -48q45 20 69 41t32 32q8 13 13.5 23t2.5 14z" />
    <glyph glyph-name="Scaron" unicode="&#x160;" horiz-adv-x="496" 
d="M-2 -52q-18 0 -29.5 7.5t-16.5 18t-5 20.5t6 15q9 7 15 1q3 -3 4 -8q7 -4 16.5 -0.5t17.5 8.5q10 6 20 15q1 2 2.5 3t3.5 3q6 6 10 9q-22 41 -20.5 90t20.5 92.5t54 74.5t81 34q14 2 26 0q10 -2 19 -7.5t11 -18.5q-1 -7 -3 -11q-4 -11 -13 -12q-5 -1 -9 3q-2 2 -2 4
q-25 -15 -46 -35q-18 -17 -36.5 -41.5t-26.5 -53.5q-5 -18 -8 -37t-1 -37q44 45 105.5 118.5t127.5 176.5q-2 14 -3 30.5t2 34t9.5 34.5t19.5 32q22 27 47 35t46 4t34.5 -16t13.5 -27q0 -8 -2 -12q-2 -5 -6.5 -7t-14.5 2q-22 -5 -37 -20q-14 -13 -22.5 -38.5t-2.5 -69.5
q5 -36 11 -73t8.5 -74.5t-0.5 -76t-17 -77.5q-16 -45 -54 -74t-85.5 -38.5t-97.5 1t-90 44.5q-23 -20 -44 -33t-38 -13zM337 343q-15 -28 -36.5 -65.5t-49.5 -80t-63 -87t-78 -87.5q12 -12 27 -19q21 -10 51.5 -11t60.5 9t54 31t32 56q6 22 8 57t2 72t-2.5 71t-5.5 54z
M487 573q-2 -2 -5 -2.5t-7 -2.5q-14 -4 -23 5l-1 1l-2 4h-1q-4 7 -4 13l-3 11q-2 14 -11 30t-25 21q-4 -3 -8 -4q-3 -1 -6.5 -1t-5.5 4q-2 5 -0.5 11t6.5 10t14 5t21 -4q18 -7 34 -19.5t27 -31.5q23 7 45 6t41 -7q13 -4 18 -10t5 -12t-4 -11t-10 -6q-6 -3 -10 5q-2 4 -3 8
q-15 5 -35 -1t-33 -14z" />
    <glyph glyph-name="scaron" unicode="&#x161;" horiz-adv-x="231" 
d="M98 316q13 4 24 2.5t18.5 -7t11 -13t1.5 -14.5q-2 -5 -7.5 -6t-7.5 -1q-2 -6 -4.5 -27.5t1.5 -59.5q2 -22 5.5 -38.5t6 -29.5t2.5 -23.5t-5 -20.5q-14 -29 -44 -52t-64 -29q-22 -5 -38 -1t-26 14t-13.5 23.5t1.5 27.5q3 14 22 32t49.5 32t71.5 20t89 -4q13 -3 19 -12
t1 -14q-3 -3 -10 -1q-3 1 -6 3q-50 8 -88.5 -4.5t-63.5 -32t-35.5 -38t-2.5 -21.5q15 -9 34.5 6t30.5 44q4 11 3.5 25.5t-4 31.5t-7.5 35.5t-6 37.5q-16 -20 -27.5 -35.5t-19.5 -26.5q-10 -12 -16 -22q-9 -11 -15 -13.5t-10 -2.5t-6 4l-2 4q-2 4 0 9q4 10 15.5 27.5
t25.5 37.5t29 40t26 35q3 17 10 28t14 18q8 8 17 12zM173 347q-2 -2 -5 -2.5t-7 -2.5q-14 -4 -23 5l-1 1l-2 4h-1q-4 7 -4 13l-3 11q-2 14 -11 30t-25 21q-4 -3 -8 -4q-3 -1 -6.5 -1t-5.5 4q-2 5 -0.5 11t6.5 10t14 5t21 -4q18 -7 34 -19.5t27 -31.5q23 7 45 6t41 -7
q13 -4 18 -10t5 -12t-4 -11t-10 -6q-6 -3 -10 5q-2 4 -3 8q-15 5 -35 -1t-33 -14z" />
    <glyph glyph-name="Ydieresis" unicode="&#x178;" horiz-adv-x="533" 
d="M367 130q3 5 5 9t5 7q-26 -26 -53 -52t-54.5 -50t-54.5 -44.5t-51 -34.5l-9 -4.5t-18 -3.5q-19 0 -34 18t-15 51q0 19 5.5 38.5t14 38t19 36l19.5 32.5q20 32 45 68t47.5 68t38 55.5t15.5 29.5q0 7 -5 7q-7 0 -23.5 -10.5t-41 -33t-56 -59.5t-67.5 -89q1 0 -5.5 -8
t-14.5 -20.5t-15 -26.5t-7 -25q0 -8 4 -13h6q5 0 9 -1t4 -5q0 -8 -9 -14.5t-20 -6.5q-10 0 -19 6t-15.5 16t-10.5 22t-4 23q0 22 14 53t47 82l2 2q30 44 65.5 73t70 46.5t64 25t48.5 7.5q5 0 9 -1t7 -1q17 -7 30.5 -19.5t13.5 -33.5q0 -9 -3.5 -21.5t-12.5 -25.5
q-30 -44 -66.5 -93.5t-68 -96t-53 -86.5t-21.5 -64q0 -5 1 -7q15 9 40 28.5t56.5 46.5t67 60.5t71 69.5t69 74t61.5 74q18 23 27 37t11 16q2 5 9 16t7 16q5 10 5 12v4q0 4 -1.5 4.5t-1.5 5.5v3t1.5 6.5t5.5 6t12 2.5t17.5 -4t17.5 -11t13.5 -17.5t5.5 -22.5
q0 -13 -4.5 -24.5t-9.5 -20.5q-9 -9 -21.5 -25.5t-26.5 -37t-29 -44t-30 -45.5q0 1 -10 -13.5t-25 -38t-34.5 -53t-39.5 -60t-38.5 -58.5t-32.5 -48q64 0 124.5 -5.5t114.5 -5.5q66 0 120 7.5t90 27.5q19 11 30 11q8 0 10.5 -5t2.5 -11q0 -33 -59 -53.5t-177 -20.5
q-60 0 -129 7.5t-150 17.5q0 -1 -1 -1q-43 -55 -77.5 -88t-59.5 -50.5t-41 -23.5t-21 -7q-10 -2 -16 -2q-11 0 -23.5 3.5t-23.5 11.5t-18.5 19.5t-7.5 28.5q0 22 13.5 46.5t41.5 45.5t72 35.5t104 16.5q18 28 35 55.5t31.5 50.5t24.5 40.5t15 25.5zM95 -209q16 2 34 14
t36 30t36.5 41t36.5 49q-48 -4 -81.5 -18t-54.5 -32t-30 -36t-9 -30q0 -11 7 -15t16 -4q6 0 9 1zM501 560q-20 -11 -18 -22l6 -2q5 -2 4 -6q-4 -5 -16.5 -4.5t-18.5 14.5q-5 14 -2 29t21 29q6 4 11 6t9.5 1t9.5 -7q8 -13 4 -23t-10 -15zM552 544q-20 -11 -18 -22l6 -2
q5 -2 4 -6q-4 -5 -16.5 -4.5t-18.5 14.5q-5 14 -2 29t21 29q6 4 11 6t9.5 1t9.5 -7q8 -13 4 -23t-10 -15z" />
    <glyph glyph-name="Zcaron" unicode="&#x17d;" horiz-adv-x="504" 
d="M631 474q4 0 12 -2.5t16 -9t14 -16.5t6 -25q0 -5 -1 -12.5t-5 -11.5q0 -6 -5 -12t-11.5 -11.5t-13 -9.5t-8.5 -6q-25 -15 -70.5 -45.5t-100.5 -68t-113 -78t-108 -76t-86 -62.5t-46 -37q20 -1 39 -1h39q43 0 82 1.5t70 5t52 9t27 13.5q-1 6 1 10q1 4 4 7.5t8 3.5
q6 0 10.5 -8.5t4.5 -22.5q0 -27 -15 -45t-48.5 -29t-87 -15.5t-130.5 -4.5h-46q-3 0 -17 -0.5t-29 3t-27 14.5t-12 35q0 15 21.5 42t55 59t74.5 66.5t79.5 65.5t69.5 54.5t46 33.5q14 10 37.5 25t49 31.5t50 32t40.5 24.5q-53 2 -116 4t-114 2h-33.5t-26.5 -1q47 -49 47 -80
q0 1 0 -3.5t-2 -10.5t-6 -11t-12 -5q-5 0 -11 6t-14 23q-6 12 -17 25.5t-21 27t-17.5 25.5t-7.5 22q0 11 3.5 18.5t7.5 7.5q24 24 255 24q38 0 77.5 -0.5t79.5 -0.5zM537 524q-2 -2 -5 -2.5t-7 -2.5q-14 -4 -23 5l-1 1l-2 4h-1q-4 7 -4 13l-3 11q-2 14 -11 30t-25 21
q-4 -3 -8 -4q-3 -1 -6.5 -1t-5.5 4q-2 5 -0.5 11t6.5 10t14 5t21 -4q18 -7 34 -19.5t27 -31.5q23 7 45 6t41 -7q13 -4 18 -10t5 -12t-4 -11t-10 -6q-6 -3 -10 5q-2 4 -3 8q-15 5 -35 -1t-33 -14z" />
    <glyph glyph-name="zcaron" unicode="&#x17e;" horiz-adv-x="274" 
d="M248 141q8 9 14 13q5 3 9.5 0.5t2.5 -16.5q0 -4 -2 -9t-5.5 -12t-11.5 -15q-8 -9 -21 -22.5t-26 -26.5l-23.5 -23.5l-13.5 -13.5q-14 -14 -31 -16t-31 6l-2 -4h1l-3 -3q-8 -14 -15.5 -22.5t-11.5 -11.5q0 -1 -0.5 -1t-0.5 -1q22 2 43 2.5t38 -1.5q27 -3 40.5 -11t19 -18
t5.5 -18.5t-1 -12.5q-4 -11 -9 -19q-5 -7 -10.5 -10.5t-12.5 1.5q-5 4 -16.5 12t-30 16t-43.5 13.5t-58 5.5q-22 -24 -45 -45.5t-45.5 -37.5t-45 -25.5t-42.5 -8.5q-14 0 -23.5 4t-16 8.5t-9.5 9t-3 5.5q-4 7 -5.5 21t13.5 30.5t52 34.5t110 33q26 22 41 42t23 37q2 5 3.5 9
t3.5 8q7 23 3.5 38.5t-8.5 18.5q-2 2 -3 2q-6 6 -7.5 11t-0.5 9t4 8q5 5 19 24t25 33l2 4l4 4v1q1 1 4.5 6t6.5 11.5t3.5 13t-4.5 11.5l-1 1l-12 -15q-3 -4 -6.5 -8t-6.5 -8q-14 -18 -28.5 -35t-27 -31.5t-22.5 -25t-14 -15.5q-2 -2 -3 -2l-1 -1q-9 -11 -14.5 -14t-9.5 -3
t-6 4q-1 2 -1 4q-1 3 0 10q0 11 11 23q10 11 30.5 33t43.5 51l14 18t14 19q4 7 2.5 14t-4 14.5t-3 16t6.5 19.5q7 9 15 16q13 10 25.5 9.5t17.5 -1.5q1 -1 2 -1t1.5 -0.5t1.5 -0.5l2 -2q8 -6 8 -17.5t-7 -25.5q-4 -9 -12 -22q-1 -1 -1 -1.5t-1 -1.5q6 -2 19.5 -8t24 -16.5
t14 -26.5t-8.5 -38q-4 -8 -12 -21t-21 -26q-7 -8 -9 -15.5t-3 -12.5q-1 -7 0 -12q3 -20 2 -33v-5q0 -5 5 -10q5 -3 13 -1q7 2 16.5 8t23.5 20q13 14 25.5 27.5t22.5 24.5q11 12 21 22zM-162 -157q14 -18 43 2.5t64 61.5q-51 -12 -73.5 -23.5t-30.5 -20.5q-9 -11 -3 -20z
M198 315q-2 -2 -5 -2.5t-7 -2.5q-14 -4 -23 5l-1 1l-2 4h-1q-4 7 -4 13l-3 11q-2 14 -11 30t-25 21q-4 -3 -8 -4q-3 -1 -6.5 -1t-5.5 4q-2 5 -0.5 11t6.5 10t14 5t21 -4q18 -7 34 -19.5t27 -31.5q23 7 45 6t41 -7q13 -4 18 -10t5 -12t-4 -11t-10 -6q-6 -3 -10 5q-2 4 -3 8
q-15 5 -35 -1t-33 -14z" />
    <glyph glyph-name="circumflex" unicode="&#x2c6;" horiz-adv-x="242" 
d="M122 376q2 2 5 2.5t7 2.5q14 4 23 -5l1 -1l2 -4h1q4 -7 4 -13l3 -11q2 -14 11 -30t25 -21q4 3 8 4q8 2 12 -3q2 -5 0.5 -11t-6.5 -10t-14 -5t-21 4q-18 7 -34 19.5t-27 31.5q-23 -7 -45 -6t-41 7q-13 4 -18 10t-5 12t4 10.5t10 6.5t10 -5q2 -4 3 -8q15 -5 35 1t33 14z
" />
    <glyph glyph-name="caron" unicode="&#x2c7;" horiz-adv-x="242" 
d="M120 270q-2 -2 -5 -2.5t-7 -2.5q-14 -4 -23 5l-1 1l-2 4h-1q-4 7 -4 13l-3 11q-2 14 -11 30t-25 21q-4 -3 -8 -4q-3 -1 -6.5 -1t-5.5 4q-2 5 -0.5 11t6.5 10t14 5t21 -4q18 -7 34 -19.5t27 -31.5q23 7 45 6t41 -7q13 -4 18 -10t5 -12t-4 -11t-10 -6q-6 -3 -10 5
q-2 4 -3 8q-15 5 -35 -1t-33 -14z" />
    <glyph glyph-name="ring" unicode="&#x2da;" horiz-adv-x="84" 
d="M61 360q-20 -11 -18 -22l6 -2q5 -2 4 -6q-4 -5 -16.5 -4.5t-18.5 14.5q-5 14 -2 29t21 29q6 4 11 6t9.5 1t9.5 -7q8 -13 4 -23t-10 -15zM52 369q2 2 4 6.5t-2 9.5q-2 5 -8 3q-3 -1 -5 -3q-8 -6 -8.5 -12t0.5 -13q1 -5 9 1t10 8z" />
    <glyph glyph-name="tilde" unicode="&#x2dc;" horiz-adv-x="198" 
d="M158 338q8 -2 12 1v2q1 2 2 4.5t6 1.5t8 -5.5t1 -12.5q-1 -10 -10.5 -20.5t-28.5 -6.5q-18 3 -32 11.5t-26.5 18t-24.5 18t-26 12.5q-8 2 -12 -1v-2q-1 -2 -2 -4.5t-6 -1.5t-8 5.5t-1 12.5q1 10 10.5 20.5t28.5 6.5q16 -3 29.5 -11.5t26 -18t25.5 -18.5t28 -12z" />
    <glyph glyph-name="endash" unicode="&#x2013;" horiz-adv-x="486" 
d="M372 151q-1 0 -2 -1q0 1 -1 0q-1 1 -1.5 0.5t-2.5 0.5q-22 1 -57 3t-72 2.5t-68.5 -0.5t-45.5 -6q-7 -2 -12 -6q-5 -3 -9 -8t-5 -12q1 -3 2 -7q0 -8 -5 -10q-4 -2 -8 3.5t-6.5 15t-2.5 21.5t6 25q11 26 33.5 37.5t51.5 14t61.5 0t63 -4.5t56 0.5t41.5 14.5q0 2 0.5 2
t0.5 1l4 2q4 2 8 -4q0 -2 1 -3.5t1 -3.5q1 -3 3 -13.5t0.5 -23t-8.5 -24t-24 -16.5h-3z" />
    <glyph glyph-name="emdash" unicode="&#x2014;" horiz-adv-x="621" 
d="M518 151q-1 0 -2 -1q0 1 -1 0q-1 1 -1.5 0.5t-2.5 0.5q-14 1 -46.5 2t-73 2t-85 1.5t-83.5 0t-68 -2t-38 -4.5q-7 -2 -12 -6q-5 -3 -9 -8t-5 -12q1 -3 2 -7q0 -8 -5 -10q-4 -2 -8 3.5t-6.5 15t-2.5 21.5t6 25q11 26 45 37.5t79.5 14t97.5 0t99 -4.5t84 0.5t53 14.5
q0 2 0.5 2t0.5 1l4 2q4 2 8 -4q0 -2 1 -3.5t1 -3.5q1 -3 3 -13.5t0.5 -23t-8.5 -24t-24 -16.5h-3z" />
    <glyph glyph-name="quoteright" unicode="&#x2019;" horiz-adv-x="197" 
d="M290 427q1 6 2.5 14.5t5 15.5t10 12t18.5 4q11 -1 16 -4.5t7 -8.5q3 -5 3 -11q-8 -38 -29.5 -64.5t-47.5 -42.5q-14 -8 -23.5 -9t-15 2.5t-7.5 10t1 12.5q2 5 12 5q4 -1 9 -2q17 10 27 30t12 36z" />
    <glyph glyph-name="ellipsis" unicode="&#x2026;" horiz-adv-x="377" 
d="M69 32q1 6 2.5 14.5t5 15.5t10 12t18.5 4q11 -1 16 -4.5t7 -8.5q3 -5 3 -11q-7 -33 -26 -60q-8 -9 -16 -11.5t-13.5 2.5t-8 16.5t1.5 30.5zM161 32q1 6 2.5 14.5t5 15.5t10 12t18.5 4q11 -1 16 -4.5t7 -8.5q3 -5 3 -11q-7 -33 -26 -60q-8 -9 -16 -11.5t-13.5 2.5t-8 16.5
t1.5 30.5zM253 32q1 6 2.5 14.5t5 15.5t10 12t18.5 4q11 -1 16 -4.5t7 -8.5q3 -5 3 -11q-7 -33 -26 -60q-8 -9 -16 -11.5t-13.5 2.5t-8 16.5t1.5 30.5z" />
    <glyph glyph-name="perthousand" unicode="&#x2030;" horiz-adv-x="774" 
d="M136 21q3 0 7 -1.5t4 -7.5q0 -8 -7 -14t-19 -6q-7 0 -15.5 3t-16 9.5t-13 17t-5.5 25.5q0 26 15 63t35.5 75t40.5 71t31 50q7 11 18 27.5t24 35.5t26.5 38t25.5 36q-5 0 -15 2q-1 0 -1.5 0.5t-1.5 0.5q-4 0 -6 1q-8 -17 -15 -28.5t-19 -25.5q-26 -33 -49.5 -46t-41.5 -18
q-4 -2 -8 -2.5t-8 -1.5q-20 -4 -35.5 -0.5t-26.5 11.5t-18.5 18t-11.5 19q-8 19 -7.5 38.5t8.5 42.5q6 19 21 43t35 47l2 2l3 3t3.5 4t5.5 5q21 21 58.5 41.5t80.5 24.5q12 0 23 -4q9 -3 17 -10.5t11 -22.5v-9.5t-2 -7.5l-4 -7h-1q-1 -3 -4 -4t-6 -1q-6 0 -6 8q2 3 0 5
q-2 12 -21 9q-8 -2 -28.5 -12.5t-48.5 -37.5q-5 -5 -9 -10l-8 -10q-5 -3 -6 -6q-6 -8 -12 -15.5t-12 -18.5q-17 -27 -24.5 -47t-9.5 -41q1 -19 10.5 -24.5t23 -2.5t28.5 12.5t27 19.5q10 10 13.5 13t11.5 12q15 18 19 29q4 9 1 16t-7.5 14.5t-7.5 16.5t2 23q3 7 5.5 12.5
t6.5 9.5q10 12 20.5 16.5t18.5 5.5q2 2 5 2h3q4 0 6 -2q5 -1 9 -7t4 -16t-2 -22l-4 -17q3 0 4 1q15 3 25 7.5t15 6.5q3 1 7 1q7 11 17 31.5t10 37.5h6q8 0 17.5 -4t17.5 -11t13.5 -17.5t5.5 -22.5q0 -18 -8 -34t-13 -21q-16 -23 -40 -56t-50.5 -70.5t-54 -77t-51 -75
t-41 -64t-24.5 -45.5q-3 -7 -5 -14q-5 -13 -5 -29q0 -11 5 -16h3zM461 110q-8 -17 -15 -28.5t-19 -25.5q-26 -33 -49.5 -46t-41.5 -18q-4 -2 -8 -2.5t-8 -1.5q-20 -4 -35.5 -0.5t-26.5 11.5t-18.5 18t-11.5 19q-8 19 -7.5 38.5t8.5 42.5q6 19 21 43t35 47l2 2l3 3t3.5 4
t5.5 5q21 21 58.5 41.5t80.5 24.5q12 0 23 -4q9 -3 17 -10.5t11 -22.5v-9.5t-2 -7.5l-4 -7h-1q-1 -3 -4 -4t-6 -1q-6 0 -6 8q2 3 0 5q-2 12 -21 9q-8 -2 -28.5 -12.5t-48.5 -37.5q-5 -5 -9 -10l-8 -10q-5 -3 -6 -6q-6 -8 -12 -15.5t-12 -18.5q-17 -27 -24.5 -47t-9.5 -41
q1 -19 10.5 -24.5t23 -2.5t28.5 12.5t27 19.5q10 10 13.5 13t11.5 12q15 18 19 29q4 9 1 16t-7.5 14.5t-7.5 16.5t2 23q3 7 5.5 12.5t6.5 9.5q10 12 20.5 16.5t18.5 5.5q2 2 5 2h3q4 0 6 -2q5 -1 9 -7t4 -16t-2 -22l-4 -17zM721 110q-8 -17 -15 -28.5t-19 -25.5
q-26 -33 -49.5 -46t-41.5 -18q-4 -2 -8 -2.5t-8 -1.5q-20 -4 -35.5 -0.5t-26.5 11.5t-18.5 18t-11.5 19q-8 19 -7.5 38.5t8.5 42.5q6 19 21 43t35 47l2 2l3 3t3.5 4t5.5 5q21 21 58.5 41.5t80.5 24.5q12 0 23 -4q9 -3 17 -10.5t11 -22.5v-9.5t-2 -7.5l-4 -7h-1q-1 -3 -4 -4
t-6 -1q-6 0 -6 8q2 3 0 5q-2 12 -21 9q-8 -2 -28.5 -12.5t-48.5 -37.5q-5 -5 -9 -10l-8 -10q-5 -3 -6 -6q-6 -8 -12 -15.5t-12 -18.5q-17 -27 -24.5 -47t-9.5 -41q1 -19 10.5 -24.5t23 -2.5t28.5 12.5t27 19.5q10 10 13.5 13t11.5 12q15 18 19 29q4 9 1 16t-7.5 14.5
t-7.5 16.5t2 23q3 7 5.5 12.5t6.5 9.5q10 12 20.5 16.5t18.5 5.5q2 2 5 2h3q4 0 6 -2q5 -1 9 -7t4 -16t-2 -22l-4 -17z" />
    <glyph glyph-name="guilsinglleft" unicode="&#x2039;" horiz-adv-x="448" 
d="M301 121q15 -10 18.5 -23t2 -25t-6 -21.5t-6.5 -12.5q-1 -2 -2 -3.5t-2 -3.5q-4 -4 -9 -2q-2 1 -3 4q0 1 -0.5 1t0.5 2q-12 14 -33.5 22.5t-49 14.5t-57 11t-56 13t-47.5 21t-31 34q-4 8 -5 13q-2 6 -2 10q-3 21 4 37t15 21q21 24 59 35t78 18.5t75 17t50 29.5v4q1 2 3 3
q4 2 10 -2q0 -2 1.5 -3t1.5 -3q2 -3 7 -12.5t6.5 -22t-2.5 -25.5t-19 -22q-1 -1 -3 -1q-1 0 -1 -2h-1h-4q-21 -5 -55 -12t-69 -15.5t-65 -18t-44 -17.5q14 -8 44.5 -17.5t65 -18t68 -15.5t54.5 -11q2 1 2.5 0t1.5 0q1 -1 1 0l2 -2h3z" />
    <glyph glyph-name="guilsinglright" unicode="&#x203a;" horiz-adv-x="448" 
d="M142 250q-15 10 -18.5 23t-2 25t6 21.5t6.5 12.5q1 2 2 3.5t2 3.5q5 4 9 2q2 -1 3 -4q0 -1 0.5 -1t-0.5 -2q12 -15 33.5 -23t49 -14t57 -11t56 -13t47.5 -21t31 -34q4 -8 5 -13q2 -6 2 -10q3 -21 -4 -37t-15 -21q-21 -24 -59 -35t-78 -18.5t-75 -17t-50 -29.5v-4
q-1 -2 -3 -3q-5 -3 -10 2q0 2 -1.5 3t-1.5 3q-2 3 -7 12.5t-6.5 22t2.5 25.5t19 22q1 1 3 1q1 0 1 2h1h4q21 4 55 11.5t69 16t65 18t44 17.5q-14 8 -44.5 17.5t-65 18t-68 15.5t-54.5 11q-2 -1 -2.5 0t-1.5 0q-1 1 -1 0l-2 2h-3v0z" />
    <glyph glyph-name="fraction" unicode="&#x2044;" horiz-adv-x="357" 
d="M70 21q3 0 7 -1.5t4 -7.5q0 -8 -7 -14t-19 -6q-7 0 -15.5 3t-16 9.5t-13 17t-5.5 25.5q0 26 15 63t35.5 75t40.5 71t31 50q10 16 28.5 43t38 55t36.5 51.5t25 34.5q5 8 5 7.5t1 1.5q9 15 16 29q6 12 11.5 25.5t5.5 24.5h6q8 0 17.5 -4t17.5 -11t13.5 -17.5t5.5 -22.5
q0 -18 -8 -34t-13 -21q-16 -23 -40 -56t-50.5 -70.5t-54 -77t-51 -75t-41 -64t-24.5 -45.5q-3 -7 -5 -14q-5 -13 -5 -29q0 -11 5 -16h3z" />
    <glyph glyph-name="Euro" unicode="&#x20ac;" horiz-adv-x="464" 
d="M46 233l44 -3q4 13 9.5 27.5t13.5 29.5q-33 0 -48 -5q-4 -2 -8 -5q-3 -2 -6 -5t-3 -8q1 -2 1 -5q0 -7 -4 -8q-3 -1 -6 3t-5 10.5t-1.5 15t4.5 17.5q6 14 16.5 22t24.5 12t30.5 4.5t33.5 -0.5q40 60 76 94t63.5 50.5t45 20t22.5 3.5q12 0 27 -5t30 -18q15 -14 21.5 -32
t7.5 -37t-3 -37t-11 -32q-11 -22 -22.5 -35t-23.5 -20.5t-23 -10t-21 -2.5q-19 0 -32 14t-1 34l4 4q3 3 7 -1q5 -5 11 -6t14 6q2 2 4.5 5t6.5 6q11 13 23 33.5t14 46.5q2 30 -3 42.5t-15 14.5q-8 2 -18 -2t-18 -10q-10 -7 -20 -16q-30 -32 -54.5 -60t-43.5 -54q14 0 26.5 2
t20.5 9v3q1 2 3 2q3 0 7 -4q0 -2 0.5 -2t0.5 -2q1 -3 2.5 -10.5t0 -16.5t-6.5 -17t-17 -11h-2l-1 -2q-2 2 -2.5 1t-1.5 1q-11 0 -27 0.5t-34 1.5q-10 -16 -18 -30.5t-13 -27.5q23 -1 43 0.5t30 4.5q4 1 8 4q8 6 9 14q-1 3 -1 6q0 6 4 7q5 1 10.5 -13.5t-2.5 -32.5
q-6 -15 -18 -23.5t-27.5 -11.5t-33.5 -3t-36 1q-5 -32 6.5 -51t34.5 -25q27 -6 57 0q15 5 35 13.5t28 13.5q19 8 25 5.5t3.5 -9t-11.5 -15t-20 -12.5q-25 -11 -52 -16.5t-53 -4.5q-23 1 -42.5 8.5t-33.5 20.5t-22 32t-7 43q-17 1 -30.5 -1.5t-22.5 -9.5v-1l-4 -2q-4 -2 -6 3
q0 1 -0.5 1.5t-0.5 3.5q-1 2 -2 9.5t0 16.5t6 17t17 12h7z" />
    <glyph glyph-name="trademark" unicode="&#x2122;" horiz-adv-x="597" 
d="M330 398q-7 0 -23.5 0.5t-39.5 2.5q0 -2 -2 -4l-1 -2v-1l-4 -3q-30 -43 -59 -83t-43 -71q-2 -8 -4 -15q-2 -6 -2 -12t4 -9q2 0 5 -1q2 -1 3.5 -2.5t-0.5 -6.5q-2 -4 -8 -6.5t-13 -1.5t-13.5 6t-10.5 16q-10 28 -5 45.5t20 40.5q6 9 16.5 25t22 32.5t22 31t16.5 22.5
q-34 2 -65.5 2.5t-49.5 -1.5q36 -36 28 -56q-3 -8 -7 -11q-4 -2 -9 0.5t-11 16.5q-9 18 -26 35v1q-7 7 -9.5 13t-2.5 11q-1 5 1 10q2 6 4 7l1 1q2 1 3.5 2t3.5 2l4 2l6 2q18 4 57.5 5.5t89.5 1.5q-1 1 -1 2q0 2 1 4t2 3.5t5 3.5q2 0 3.5 0.5t3.5 -0.5q5 0 11 -4t11 -9h25
q36 -1 81.5 0t86.5 3.5t70.5 7t34.5 11.5q0 4 1 7q2 6 7 6q4 0 6.5 -5.5t2.5 -13.5t-3 -17.5t-12 -17.5t-33 -13t-56.5 -8t-70.5 -5t-75 -3zM419 232q-1 6 -0.5 13.5t2.5 15.5q3 8 6 17t9 17q5 8 9.5 15t9.5 13q2 4 6 10t-2 7q-5 1 -23 -13.5t-39 -33.5l-5 -5l-8 -12l-3 -4
q-2 -2 -2 -3v-1q-4 -4 -6 -10l-4 -8t-3.5 -8.5t-1.5 -8.5q0 -8 3 -10q3 0 5 -1q5 -2 2 -8q0 -1 -1 -1q0 -3 -3 -3q-3 -5 -12 -6q-8 -2 -13 2h-1h-1q-3 1 -4 2l-2 2q-12 9 -12 27q2 19 14 44t26 48q2 3 3.5 7t-2.5 4q-3 0 -11 -5.5t-19 -15.5t-23.5 -21.5t-24.5 -23.5
q0 -1 -0.5 -1t-0.5 -1q-2 -1 -2 -1.5t-1 -1.5v-1l-6 -10l-1 -3q-2 -4 -4 -10.5t-3 -11.5q0 -7 3 -10h4q6 -2 4 -9q0 -1 -1 -1q-1 -1 -1 -2t-2 -1q0 -2 -3 -3q-2 -1 -4.5 -2t-5.5 -1q-8 -1 -14 2h-1q-3 1 -6 4q-12 9 -11 27q0 10 4 19v2v1q5 18 16.5 38.5t23.5 37.5l9 18v8
q-1 1 -1 4q0 2 2 5q3 5 14 5q1 0 2 -0.5t2 -0.5q11 -2 22 -14.5t5 -26.5q20 17 38.5 29t29.5 10h1q16 -2 23 -11.5t3 -23.5q20 15 37.5 26t28.5 9h1q26 -3 23 -25.5t-22 -47.5q-1 -1 -2 -2.5t-2 -2.5t-5 -6t-9 -13.5t-10 -19t-8 -22.5q0 -3 1 -5q0 -5 2 -5q3 0 5 -1
q5 -2 2 -8q0 -1 -1 -1q-2 -3 -3 -3q-3 -5 -12 -6q-7 -1 -11 0q-1 0 -1 1h-1l-1 1h-2q-1 0 -2 1h-1q-7 1 -10 10q-4 8 -4 13v2z" />
    <glyph glyph-name="minus" unicode="&#x2212;" horiz-adv-x="477" 
d="M365 151q-1 0 -2 -1q0 1 -1 0q-1 1 -1.5 0.5t-2.5 0.5q-22 1 -57 3t-72 2.5t-68.5 -0.5t-45.5 -6q-7 -2 -12 -6q-5 -3 -9 -8t-5 -12q1 -3 2 -7q0 -8 -5 -10q-4 -2 -8 3.5t-6.5 15t-2.5 21.5t6 25q11 26 33.5 37.5t51.5 14t61.5 0t63 -4.5t56 0.5t41.5 14.5q0 2 0.5 2
t0.5 1l4 2q4 2 8 -4q0 -2 1 -3.5t1 -3.5q1 -3 3 -13.5t0.5 -23t-8.5 -24t-24 -16.5h-3z" />
    <glyph glyph-name="fi" unicode="&#xfb01;" horiz-adv-x="353" 
d="M-118 -116q-15 10 -17 32t6 51.5t24 65t36 71.5t42 71.5t43 65.5q0 1 2 3q20 26 36.5 46.5t25.5 31.5q6 8 9 11q4 5 8 9.5t8 9.5q20 22 44 43.5t47 35.5q17 11 33 16.5t30 3.5q10 -3 16 -8q5 -5 8.5 -14t-0.5 -25q-5 -19 -31 -49.5t-64 -64.5q-7 -6 -13.5 -12t-12.5 -11
q-16 -14 -35 -25.5t-34 -21.5q-4 -5 -8 -11l-8 -12q14 13 28 15t19 1h3q2 -1 3 -1t3 -1q11 -6 12.5 -19t-3.5 -30q-2 -4 -3 -8t-3 -9q18 1 30.5 3.5t17.5 4.5q8 2 11 -3t3 -13q0 -9 -2 -20q-1 -3 -4 -9t-10.5 -10.5t-21.5 -5.5t-37 6q-4 0 -10 3q-4 -8 -10 -17
q-17 -33 -39.5 -66.5t-45 -61t-41.5 -47t-28 -25.5q-15 -10 -27 -10.5t-21 1.5q-11 3 -19 9zM257 421q-5 1 -22.5 -18.5t-36.5 -44.5q-23 -29 -50 -67q56 46 79.5 72t30.5 39q8 15 -1 19zM-82 -72q-5 -8 -3 -10q1 -1 4 0q29 23 52.5 49.5t42 54.5t32.5 55t24 50
q-5 9 -9.5 20t1.5 26q-28 -45 -53.5 -88t-45.5 -77.5t-32 -56.5t-13 -23zM192 9q-14 9 -29 30t-12 53q2 11 6.5 26.5t12.5 29.5q11 23 25 43.5t22 33.5q7 10 8 14q1 3 1 5q0 7 -1 9q-1 1 -1 2q-1 1 -1 5q-1 5 2 9q2 3 6.5 5.5t14.5 2.5q2 0 4 -0.5t4 -0.5q9 -3 17.5 -9.5
t14.5 -15.5t8 -20t-2 -23q-1 -5 -6 -13q-2 -3 -4 -6.5t-5 -8.5v1q-10 -14 -18 -26t-13 -20l-13 -19q-19 -29 -25 -49t6 -28q5 -3 13 -1q6 2 15.5 8t21.5 20t23 27.5t20 24.5q11 12 20 22q7 9 13 13q5 3 9 0.5t4 -16.5q0 -4 -1 -9q-2 -5 -4.5 -11.5t-9.5 -14.5q-8 -9 -20 -23
t-24 -27t-21 -23.5t-12 -13.5q-15 -15 -33.5 -16t-35.5 10zM342 328q-13 -8 -20.5 -16.5t-5.5 -16.5q5 -1 9 -3q8 -4 5 -9q-3 -4 -9.5 -6.5t-15 -1t-16.5 6.5t-12 16q-8 21 -3 43.5t33 43.5q8 7 16 10q7 2 14.5 1t13.5 -11q13 -19 7 -34t-16 -23z" />
    <glyph glyph-name="fl" unicode="&#xfb02;" horiz-adv-x="358" 
d="M228 117q-19 -29 -25 -49t6 -28q8 -3 18 -1q8 2 19 8t23 21q12 14 23 27t20 24q11 12 20 23q7 9 13 13q5 3 9 0t4 -17q0 -4 -1 -9q-2 -5 -4.5 -11.5t-9.5 -14.5q-8 -9 -20 -23t-24 -27t-21 -23t-12 -13q-15 -16 -38.5 -17t-40.5 10q-14 9 -29 30t-12 53q-5 1 -10.5 2
t-12.5 3q-4 0 -10 3l-10 -17q-17 -33 -39.5 -66.5t-45 -61t-41.5 -47t-28 -25.5q-15 -10 -27 -10.5t-21 1.5q-11 3 -19 9q-15 10 -17 32t6 51.5t24 65t36 71.5t42 71.5t43 65.5q0 1 2 3q20 26 36.5 46.5t25.5 31.5l9 11q4 5 8 9.5t8 9.5q20 22 44 43.5t47 35.5
q17 11 33 16.5t30 3.5q10 -3 16 -8q5 -5 8.5 -14t-0.5 -25q-5 -19 -31 -49.5t-64 -64.5l-26 -23q-16 -14 -35 -25.5t-34 -21.5l-16 -23q14 13 28 15t19 1h3l6 -2q11 -6 12.5 -19t-3.5 -30l-6 -17q17 0 29 3q11 23 27 47.5t30 44.5q43 57 66.5 92.5t35.5 55.5q13 24 17 35
q0 6 -1 8q-1 0 -1 2q-1 1 -1 6q-1 5 2 9q2 3 6.5 5.5t14.5 2.5q9 0 19.5 -6.5t18.5 -16t11.5 -22t-1.5 -25.5q-1 -5 -6 -13q-9 -17 -31 -49t-47 -67.5t-48.5 -69t-35.5 -51.5zM-82 -72q-5 -8 -3 -10q1 -1 4 0q29 23 52.5 49.5t42 54.5t32.5 55t24 50q-5 9 -9.5 20t1.5 26
q-28 -45 -53.5 -88t-45.5 -77.5t-32 -56.5t-13 -23zM257 421q-5 1 -22.5 -18.5t-36.5 -44.5q-23 -29 -50 -67q56 46 79.5 72t30.5 39q8 15 -1 19z" />
    </font>
</defs>
</svg>
